<svg xmlns="http://www.w3.org/2000/svg" viewBox="0 0 120 100"><defs><style>.cls-1{fill:#fff;opacity:0;}.cls-2{opacity:0.5;}.cls-3{fill:#4d5567;}.cls-4{opacity:0.6;}.cls-5{fill:#137bf0;}.cls-6{fill:#434b5d;}</style></defs><title>aerial</title><g id="Layer_2" data-name="Layer 2"><g id="Layer_1-2" data-name="Layer 1"><rect class="cls-1" width="120" height="100"/><g class="cls-2"><path class="cls-3" d="M69,71H5L37,6.5Z"/></g><g class="cls-4"><path class="cls-5" d="M116.74,71.72a.5.5,0,0,1-.5.5H25.5a.29.29,0,0,1-.28-.45l21.57-45.1a.87.87,0,0,1,.72-.45h68.74a.5.5,0,0,1,.5.5Z"/></g><path class="cls-6" d="M116.24,26.22H72.94L61.26,2.7a1.7,1.7,0,0,0-3,0L46.55,26.22H3.24a.5.5,0,0,0-.5.5v45a.5.5,0,0,0,.5.5H23.72L13,93.89a.5.5,0,0,0,.23.67l1.79.89a.5.5,0,0,0,.67-.23l11.41-23H92.42l11.41,23a.5.5,0,0,0,.67.23l1.79-.89a.5.5,0,0,0,.23-.67L95.77,72.22h20.48a.5.5,0,0,0,.5-.5v-45A.5.5,0,0,0,116.24,26.22ZM59.74,6.38l9.85,19.84H49.9Zm-54,62.84v-40H45.06l-19.85,40Zm22.81,0,19.85-40H71.08l19.85,40Zm85.19,0H94.28l-19.85-40h39.32Z"/></g></g></svg>