<?xml version="1.0" encoding="utf-8"?>
<!-- Generator: Adobe Illustrator 21.0.2, SVG Export Plug-In . SVG Version: 6.00 Build 0)  -->
<svg version="1.1" id="Layer_1" xmlns="http://www.w3.org/2000/svg" xmlns:xlink="http://www.w3.org/1999/xlink" x="0px" y="0px"
	 viewBox="0 0 120 100" style="enable-background:new 0 0 120 100;" xml:space="preserve">
<style type="text/css">
	.st0{fill:#FFFFFF;fill-opacity:0;}
	.st1{opacity:0.5;}
	.st2{fill:#434B59;}
	.st3{opacity:0.8;}
	.st4{fill:#1F7EED;}
	.st5{fill:#3A404C;}
</style>
<title>aerial</title>
<g id="Layer_2">
	<g id="Layer_1-2">
		<rect class="st0" width="120" height="100"/>
		<g class="st1">
			<path class="st2" d="M69,71H5L37,6.5L69,71z"/>
		</g>
		<g class="st3">
			<path class="st4" d="M116.7,71.7c0,0.3-0.2,0.5-0.5,0.5H25.5c-0.2,0-0.3-0.1-0.3-0.2c0-0.1,0-0.1,0-0.2l21.6-45.1
				c0.1-0.3,0.4-0.4,0.7-0.5h68.7c0.3,0,0.5,0.2,0.5,0.5L116.7,71.7z"/>
		</g>
		<path class="st5" d="M116.2,26.2H72.9L61.3,2.7C60.8,1.9,59.8,1.6,59,2c-0.3,0.2-0.5,0.4-0.7,0.7L46.5,26.2H3.2
			c-0.3,0-0.5,0.2-0.5,0.5v45c0,0.3,0.2,0.5,0.5,0.5h20.5L13,93.9c-0.1,0.2,0,0.5,0.2,0.7c0,0,0,0,0,0l1.8,0.9
			c0.2,0.1,0.5,0,0.7-0.2c0,0,0,0,0,0l11.4-23h65.3l11.4,23c0.1,0.2,0.4,0.4,0.7,0.2c0,0,0,0,0,0l1.8-0.9c0.2-0.1,0.4-0.4,0.2-0.7
			c0,0,0,0,0,0L95.8,72.2h20.5c0.3,0,0.5-0.2,0.5-0.5v-45C116.8,26.4,116.5,26.2,116.2,26.2C116.2,26.2,116.2,26.2,116.2,26.2z
			 M59.7,6.4l9.9,19.8H49.9L59.7,6.4z M5.7,69.2v-40h39.3l-19.9,40H5.7z M28.6,69.2l19.9-40h22.7l19.8,40H28.6z M113.7,69.2H94.3
			l-19.8-40h39.3L113.7,69.2z"/>
	</g>
</g>
</svg>
