<svg xmlns="http://www.w3.org/2000/svg" viewBox="0 0 120 100"><defs><style>.cls-1{fill:#fff;opacity:0;}.cls-2{opacity:0.5;}.cls-3{fill:#4d5567;}.cls-4{fill:#137bf0;opacity:0.6;}.cls-5{fill:#434b5d;}</style></defs><title>animation</title><g id="Layer_2" data-name="Layer 2"><g id="Layer_1-2" data-name="Layer 1"><rect class="cls-1" width="120" height="100"/><g class="cls-2"><path class="cls-3" d="M75.15,36.83a26,26,0,1,1-26-26A26,26,0,0,1,75.15,36.83Z"/></g><path class="cls-4" d="M74.15,64.83a29,29,0,1,1-29-29A29,29,0,0,1,74.15,64.83Z"/><path class="cls-5" d="M75.15,6.83a29,29,0,0,0-29,29v0l-1,0a29,29,0,1,0,29,29v0l1,0a29,29,0,0,0,0-58Zm-4,58a26,26,0,1,1-26-26l1.16,0A29.05,29.05,0,0,0,71.14,64.55C71.14,64.64,71.15,64.74,71.15,64.83ZM49.37,39.18a26.05,26.05,0,0,1,21.55,22.3A26.05,26.05,0,0,1,49.37,39.18ZM75.15,61.83,74,61.8A29.05,29.05,0,0,0,49.16,36.12c0-.09,0-.19,0-.28a26,26,0,1,1,26,26Z"/></g></g></svg>