<?xml version="1.0" encoding="utf-8"?>
<!-- Generator: Adobe Illustrator 21.0.2, SVG Export Plug-In . SVG Version: 6.00 Build 0)  -->
<svg version="1.1" id="Layer_1" xmlns="http://www.w3.org/2000/svg" xmlns:xlink="http://www.w3.org/1999/xlink" x="0px" y="0px"
	 viewBox="0 0 120 100" style="enable-background:new 0 0 120 100;" xml:space="preserve">
<style type="text/css">
	.st0{fill:#FFFFFF;fill-opacity:0;}
	.st1{opacity:0.5;fill:#434B59;}
	.st2{opacity:0.8;fill:#1F7EED;}
	.st3{fill:#3A404C;}
</style>
<rect class="st0" width="120" height="100"/>
<path class="st1" d="M68,6.7l0,86.5H15.1V6.7H68z"/>
<path class="st2" d="M95.2,5.7l0,50.2H40.6V5.7H95.2z"/>
<path class="st3" d="M33.4,54.4h67.3c0.3,0,0.5,0.2,0.5,0.5v2c0,0.3-0.2,0.5-0.5,0.5H33.4c-0.3,0-0.5-0.2-0.5-0.5v-2
	C32.9,54.6,33.1,54.4,33.4,54.4z"/>
<g>
	<path class="st3" d="M56.6,67.2H46.3c-0.3,0-0.5,0.2-0.5,0.5v2c0,0.3,0.2,0.5,0.5,0.5h10.3c0.3,0,0.5-0.2,0.5-0.5v-2
		C57.1,67.4,56.9,67.2,56.6,67.2z"/>
	<path class="st3" d="M72.9,67.2H62.6c-0.3,0-0.5,0.2-0.5,0.5v2c0,0.3,0.2,0.5,0.5,0.5h10.3c0.3,0,0.5-0.2,0.5-0.5v-2
		C73.4,67.4,73.2,67.2,72.9,67.2z"/>
	<path class="st3" d="M89.3,67.2H78.9c-0.3,0-0.5,0.2-0.5,0.5v2c0,0.3,0.2,0.5,0.5,0.5h10.3c0.3,0,0.5-0.2,0.5-0.5v-2
		C89.8,67.4,89.5,67.2,89.3,67.2z"/>
</g>
<g>
	<path class="st3" d="M56.6,80.2H46.3c-0.3,0-0.5,0.2-0.5,0.5v2c0,0.3,0.2,0.5,0.5,0.5h10.3c0.3,0,0.5-0.2,0.5-0.5v-2
		C57.1,80.4,56.9,80.2,56.6,80.2z"/>
	<path class="st3" d="M72.9,80.2H62.6c-0.3,0-0.5,0.2-0.5,0.5v2c0,0.3,0.2,0.5,0.5,0.5h10.3c0.3,0,0.5-0.2,0.5-0.5v-2
		C73.4,80.4,73.2,80.2,72.9,80.2z"/>
	<path class="st3" d="M89.3,80.2H78.9c-0.3,0-0.5,0.2-0.5,0.5v2c0,0.3,0.2,0.5,0.5,0.5h10.3c0.3,0,0.5-0.2,0.5-0.5v-2
		C89.8,80.4,89.5,80.2,89.3,80.2z"/>
</g>
<path class="st3" d="M96.7,96.3c0.3,0,0.5-0.2,0.5-0.5V4.2c0-0.3-0.2-0.5-0.5-0.5c0,0,0,0,0,0H38.8c-0.3,0-0.5,0.2-0.5,0.5v91.5
	c0,0.3,0.2,0.5,0.5,0.5H96.7z M94.2,6.7l0,86.5H41.3V6.7H94.2z"/>
<title>aerial</title>
</svg>
