<?xml version="1.0" encoding="utf-8"?>
<!-- Generator: Adobe Illustrator 21.0.2, SVG Export Plug-In . SVG Version: 6.00 Build 0)  -->
<svg version="1.1" id="Layer_1" xmlns="http://www.w3.org/2000/svg" xmlns:xlink="http://www.w3.org/1999/xlink" x="0px" y="0px"
	 viewBox="0 0 120 100" style="enable-background:new 0 0 120 100;" xml:space="preserve">
<style type="text/css">
	.st0{fill:#FFFFFF;fill-opacity:0;}
	.st1{opacity:0.5;fill:#434B59;}
	.st2{opacity:0.8;fill:#1F7EED;}
	.st3{fill:#3A404C;}
	.st4{opacity:0.5;}
	.st5{fill:#434B59;}
	.st6{opacity:0.8;}
	.st7{fill:#1F7EED;}
</style>
<rect class="st0" width="120" height="100"/>
<path class="st1" d="M68,6.7l0,86.5H15.1V6.7H68z"/>
<path class="st2" d="M95.2,5.7l0,50.2H40.6V5.7H95.2z"/>
<path class="st3" d="M33.4,54.4h67.3c0.3,0,0.5,0.2,0.5,0.5v2c0,0.3-0.2,0.5-0.5,0.5H33.4c-0.3,0-0.5-0.2-0.5-0.5v-2
	C32.9,54.6,33.1,54.4,33.4,54.4z"/>
<g>
	<path class="st3" d="M56.6,67.2H46.3c-0.3,0-0.5,0.2-0.5,0.5v2c0,0.3,0.2,0.5,0.5,0.5h10.3c0.3,0,0.5-0.2,0.5-0.5v-2
		C57.1,67.4,56.9,67.2,56.6,67.2z"/>
	<path class="st3" d="M72.9,67.2H62.6c-0.3,0-0.5,0.2-0.5,0.5v2c0,0.3,0.2,0.5,0.5,0.5h10.3c0.3,0,0.5-0.2,0.5-0.5v-2
		C73.4,67.4,73.2,67.2,72.9,67.2z"/>
	<path class="st3" d="M89.3,67.2H78.9c-0.3,0-0.5,0.2-0.5,0.5v2c0,0.3,0.2,0.5,0.5,0.5h10.3c0.3,0,0.5-0.2,0.5-0.5v-2
		C89.8,67.4,89.5,67.2,89.3,67.2z"/>
</g>
<g>
	<path class="st3" d="M56.6,80.2H46.3c-0.3,0-0.5,0.2-0.5,0.5v2c0,0.3,0.2,0.5,0.5,0.5h10.3c0.3,0,0.5-0.2,0.5-0.5v-2
		C57.1,80.4,56.9,80.2,56.6,80.2z"/>
	<path class="st3" d="M72.9,80.2H62.6c-0.3,0-0.5,0.2-0.5,0.5v2c0,0.3,0.2,0.5,0.5,0.5h10.3c0.3,0,0.5-0.2,0.5-0.5v-2
		C73.4,80.4,73.2,80.2,72.9,80.2z"/>
	<path class="st3" d="M89.3,80.2H78.9c-0.3,0-0.5,0.2-0.5,0.5v2c0,0.3,0.2,0.5,0.5,0.5h10.3c0.3,0,0.5-0.2,0.5-0.5v-2
		C89.8,80.4,89.5,80.2,89.3,80.2z"/>
</g>
<path class="st3" d="M96.7,96.3c0.3,0,0.5-0.2,0.5-0.5V4.2c0-0.3-0.2-0.5-0.5-0.5c0,0,0,0,0,0H38.8c-0.3,0-0.5,0.2-0.5,0.5v91.5
	c0,0.3,0.2,0.5,0.5,0.5H96.7z M94.2,6.7l0,86.5H41.3V6.7H94.2z"/>
<path class="st1" d="M218,6.7l0,86.5h-52.8V6.7H218z"/>
<path class="st2" d="M245.2,5.7l0,65.2h-54.7V5.7H245.2z"/>
<path class="st3" d="M433.2,72.2h-7.3c-0.3,0-0.5,0.2-0.5,0.5v2c0,0.3,0.2,0.5,0.5,0.5h7.3c0.3,0,0.5-0.2,0.5-0.5v-2
	C433.7,72.4,433.5,72.2,433.2,72.2z"/>
<title>aerial</title>
<g class="st4">
	<path class="st5" d="M690.5,71h-64l32-64.5L690.5,71z"/>
</g>
<g class="st6">
	<path class="st7" d="M738.3,71.7c0,0.3-0.2,0.5-0.5,0.5H647c-0.2,0-0.3-0.1-0.3-0.2c0-0.1,0-0.1,0-0.2l21.6-45.1
		c0.1-0.3,0.4-0.4,0.7-0.5h68.7c0.3,0,0.5,0.2,0.5,0.5L738.3,71.7z"/>
</g>
<path class="st3" d="M737.8,26.2h-43.3L682.8,2.7c-0.4-0.8-1.5-1.1-2.3-0.7c-0.3,0.2-0.5,0.4-0.7,0.7l-11.7,23.5h-43.3
	c-0.3,0-0.5,0.2-0.5,0.5v45c0,0.3,0.2,0.5,0.5,0.5h20.5l-10.7,21.7c-0.1,0.2,0,0.5,0.2,0.7c0,0,0,0,0,0l1.8,0.9
	c0.2,0.1,0.5,0,0.7-0.2c0,0,0,0,0,0l11.4-23h65.3l11.4,23c0.1,0.2,0.4,0.4,0.7,0.2c0,0,0,0,0,0l1.8-0.9c0.2-0.1,0.4-0.4,0.2-0.7
	c0,0,0,0,0,0l-10.8-21.7h20.5c0.3,0,0.5-0.2,0.5-0.5v-45C738.3,26.4,738,26.2,737.8,26.2C737.8,26.2,737.8,26.2,737.8,26.2z
	 M681.3,6.4l9.9,19.8h-19.7L681.3,6.4z M627.3,69.2v-40h39.3l-19.8,40H627.3z M650.1,69.2l19.9-40h22.7l19.8,40H650.1z M735.3,69.2
	h-19.5l-19.8-40h39.3L735.3,69.2z"/>
<rect y="140.4" class="st0" width="120" height="100"/>
<path class="st3" d="M98.9,223.7c0.3,0,0.5-0.2,0.5-0.5v-65.5c0-0.3-0.2-0.5-0.5-0.5c0,0,0,0,0,0H50.1c-0.3,0-0.5,0.2-0.5,0.5v65.5
	c0,0.3,0.2,0.5,0.5,0.5H98.9z M96.4,160.1l0,60.5H52.6v-60.5H96.4z"/>
<path class="st3" d="M44.9,203.3h58.3c0.3,0,0.5,0.2,0.5,0.5v2c0,0.3-0.2,0.5-0.5,0.5H44.9c-0.3,0-0.5-0.2-0.5-0.5v-2
	C44.4,203.5,44.6,203.3,44.9,203.3z"/>
<circle class="st3" cx="74.5" cy="212.7" r="1.5"/>
<path class="st3" d="M370,83.3c0.3,0,0.5-0.2,0.5-0.5V17.2c0-0.3-0.2-0.5-0.5-0.5c0,0,0,0,0,0h-48.8c-0.3,0-0.5,0.2-0.5,0.5v65.5
	c0,0.3,0.2,0.5,0.5,0.5H370z M367.5,19.7l0,60.5h-43.8V19.7H367.5z"/>
<path class="st3" d="M316,62.9h58.3c0.3,0,0.5,0.2,0.5,0.5v2c0,0.3-0.2,0.5-0.5,0.5H316c-0.3,0-0.5-0.2-0.5-0.5v-2
	C315.5,63.1,315.7,62.9,316,62.9z"/>
<path class="st3" d="M483.6,56.4h58.3c0.3,0,0.5,0.2,0.5,0.5v2c0,0.3-0.2,0.5-0.5,0.5h-58.3c-0.3,0-0.5-0.2-0.5-0.5v-2
	C483.1,56.6,483.3,56.4,483.6,56.4z"/>
<g>
	<path class="st3" d="M419.9,48.2h-7.3c-0.3,0-0.5,0.2-0.5,0.5v2c0,0.3,0.2,0.5,0.5,0.5h7.3c0.3,0,0.5-0.2,0.5-0.5v-2
		C420.4,48.4,420.1,48.2,419.9,48.2z"/>
	<path class="st3" d="M433.2,48.2h-7.3c-0.3,0-0.5,0.2-0.5,0.5v2c0,0.3,0.2,0.5,0.5,0.5h7.3c0.3,0,0.5-0.2,0.5-0.5v-2
		C433.7,48.4,433.5,48.2,433.2,48.2z"/>
	<path class="st3" d="M446.5,48.2h-7.3c-0.3,0-0.5,0.2-0.5,0.5v2c0,0.3,0.2,0.5,0.5,0.5h7.3c0.3,0,0.5-0.2,0.5-0.5v-2
		C447,48.4,446.8,48.2,446.5,48.2z"/>
</g>
<g>
	<path class="st3" d="M419.9,64.2h-7.3c-0.3,0-0.5,0.2-0.5,0.5v2c0,0.3,0.2,0.5,0.5,0.5h7.3c0.3,0,0.5-0.2,0.5-0.5v-2
		C420.4,64.4,420.1,64.2,419.9,64.2z"/>
	<path class="st3" d="M433.2,64.2h-7.3c-0.3,0-0.5,0.2-0.5,0.5v2c0,0.3,0.2,0.5,0.5,0.5h7.3c0.3,0,0.5-0.2,0.5-0.5v-2
		C433.7,64.4,433.5,64.2,433.2,64.2z"/>
	<path class="st3" d="M446.5,64.2h-7.3c-0.3,0-0.5,0.2-0.5,0.5v2c0,0.3,0.2,0.5,0.5,0.5h7.3c0.3,0,0.5-0.2,0.5-0.5v-2
		C447,64.4,446.8,64.2,446.5,64.2z"/>
</g>
<g>
	<path class="st3" d="M419.9,56.2h-7.3c-0.3,0-0.5,0.2-0.5,0.5v2c0,0.3,0.2,0.5,0.5,0.5h7.3c0.3,0,0.5-0.2,0.5-0.5v-2
		C420.4,56.4,420.1,56.2,419.9,56.2z"/>
	<path class="st3" d="M433.2,56.2h-7.3c-0.3,0-0.5,0.2-0.5,0.5v2c0,0.3,0.2,0.5,0.5,0.5h7.3c0.3,0,0.5-0.2,0.5-0.5v-2
		C433.7,56.4,433.5,56.2,433.2,56.2z"/>
	<path class="st3" d="M446.5,56.2h-7.3c-0.3,0-0.5,0.2-0.5,0.5v2c0,0.3,0.2,0.5,0.5,0.5h7.3c0.3,0,0.5-0.2,0.5-0.5v-2
		C447,56.4,446.8,56.2,446.5,56.2z"/>
</g>
<circle class="st3" cx="345.6" cy="72.3" r="1.5"/>
<path class="st3" d="M454,83.3c0.3,0,0.5-0.2,0.5-0.5V17.2c0-0.3-0.2-0.5-0.5-0.5c0,0,0,0,0,0h-48.8c-0.3,0-0.5,0.2-0.5,0.5v65.5
	c0,0.3,0.2,0.5,0.5,0.5H454z M451.5,19.7l0,60.5h-43.8V19.7H451.5z"/>
<g>
	<path class="st3" d="M503.8,64.2h-7.3c-0.3,0-0.5,0.2-0.5,0.5v2c0,0.3,0.2,0.5,0.5,0.5h7.3c0.3,0,0.5-0.2,0.5-0.5v-2
		C504.3,64.4,504.1,64.2,503.8,64.2z"/>
	<path class="st3" d="M517.1,64.2h-7.3c-0.3,0-0.5,0.2-0.5,0.5v2c0,0.3,0.2,0.5,0.5,0.5h7.3c0.3,0,0.5-0.2,0.5-0.5v-2
		C517.6,64.4,517.4,64.2,517.1,64.2z"/>
	<path class="st3" d="M530.5,64.2h-7.3c-0.3,0-0.5,0.2-0.5,0.5v2c0,0.3,0.2,0.5,0.5,0.5h7.3c0.3,0,0.5-0.2,0.5-0.5v-2
		C531,64.4,530.8,64.2,530.5,64.2z"/>
</g>
<g>
	<path class="st3" d="M503.8,72.2h-7.3c-0.3,0-0.5,0.2-0.5,0.5v2c0,0.3,0.2,0.5,0.5,0.5h7.3c0.3,0,0.5-0.2,0.5-0.5v-2
		C504.3,72.4,504.1,72.2,503.8,72.2z"/>
	<path class="st3" d="M517.1,72.2h-7.3c-0.3,0-0.5,0.2-0.5,0.5v2c0,0.3,0.2,0.5,0.5,0.5h7.3c0.3,0,0.5-0.2,0.5-0.5v-2
		C517.6,72.4,517.4,72.2,517.1,72.2z"/>
	<path class="st3" d="M530.5,72.2h-7.3c-0.3,0-0.5,0.2-0.5,0.5v2c0,0.3,0.2,0.5,0.5,0.5h7.3c0.3,0,0.5-0.2,0.5-0.5v-2
		C531,72.4,530.8,72.2,530.5,72.2z"/>
</g>
<path class="st3" d="M537.9,83.3c0.3,0,0.5-0.2,0.5-0.5V17.2c0-0.3-0.2-0.5-0.5-0.5c0,0,0,0,0,0h-48.8c-0.3,0-0.5,0.2-0.5,0.5v65.5
	c0,0.3,0.2,0.5,0.5,0.5H537.9z M535.4,19.7l0,60.5h-43.8V19.7H535.4z"/>
<path class="st3" d="M183.4,69.4h67.3c0.3,0,0.5,0.2,0.5,0.5v2c0,0.3-0.2,0.5-0.5,0.5h-67.3c-0.3,0-0.5-0.2-0.5-0.5v-2
	C182.9,69.6,183.1,69.4,183.4,69.4z"/>
<g>
	<path class="st3" d="M206.6,77.2h-10.3c-0.3,0-0.5,0.2-0.5,0.5v2c0,0.3,0.2,0.5,0.5,0.5h10.3c0.3,0,0.5-0.2,0.5-0.5v-2
		C207.1,77.4,206.9,77.2,206.6,77.2z"/>
	<path class="st3" d="M222.9,77.2h-10.3c-0.3,0-0.5,0.2-0.5,0.5v2c0,0.3,0.2,0.5,0.5,0.5h10.3c0.3,0,0.5-0.2,0.5-0.5v-2
		C223.4,77.4,223.2,77.2,222.9,77.2z"/>
	<path class="st3" d="M239.3,77.2h-10.3c-0.3,0-0.5,0.2-0.5,0.5v2c0,0.3,0.2,0.5,0.5,0.5h10.3c0.3,0,0.5-0.2,0.5-0.5v-2
		C239.8,77.4,239.5,77.2,239.3,77.2z"/>
</g>
<g>
	<path class="st3" d="M206.6,85.2h-10.3c-0.3,0-0.5,0.2-0.5,0.5v2c0,0.3,0.2,0.5,0.5,0.5h10.3c0.3,0,0.5-0.2,0.5-0.5v-2
		C207.1,85.4,206.9,85.2,206.6,85.2z"/>
	<path class="st3" d="M222.9,85.2h-10.3c-0.3,0-0.5,0.2-0.5,0.5v2c0,0.3,0.2,0.5,0.5,0.5h10.3c0.3,0,0.5-0.2,0.5-0.5v-2
		C223.4,85.4,223.2,85.2,222.9,85.2z"/>
	<path class="st3" d="M239.3,85.2h-10.3c-0.3,0-0.5,0.2-0.5,0.5v2c0,0.3,0.2,0.5,0.5,0.5h10.3c0.3,0,0.5-0.2,0.5-0.5v-2
		C239.8,85.4,239.5,85.2,239.3,85.2z"/>
</g>
<path class="st3" d="M246.7,96.3c0.3,0,0.5-0.2,0.5-0.5V4.2c0-0.3-0.2-0.5-0.5-0.5c0,0,0,0,0,0h-57.8c-0.3,0-0.5,0.2-0.5,0.5v91.5
	c0,0.3,0.2,0.5,0.5,0.5H246.7z M244.2,6.7l0,86.5h-52.8V6.7H244.2z"/>
</svg>
