<?xml version="1.0" encoding="utf-8"?>
<!-- Generator: Adobe Illustrator 21.0.2, SVG Export Plug-In . SVG Version: 6.00 Build 0)  -->
<svg version="1.1" id="Layer_1" xmlns="http://www.w3.org/2000/svg" xmlns:xlink="http://www.w3.org/1999/xlink" x="0px" y="0px"
	 viewBox="0 0 797.2 316.5" style="enable-background:new 0 0 797.2 316.5;" xml:space="preserve">
<style type="text/css">
	.st0{fill:#FFFFFF;}
</style>
<title>DTDM-2</title>
<path class="st0" d="M290.5,187c0,0.2-0.1,0.4-0.1,0.5c0-0.1,0-0.1,0-0.2C290.4,187.2,290.5,187.1,290.5,187z M477.9,137.5
	c0.2,4.5,0.2,10.6,0.2,18.4c0,7.8-0.1,14.1-0.2,18.8c-0.3,15-2.5,27.1-6.5,36.2c-3.9,9-10.9,16.3-19.8,20.5
	c-9.2,4.5-21.8,6.8-37.7,6.8h-51.1c-0.2,0-0.4,0-0.7,0c-2.7-0.2-4.7-2.5-4.5-5.2V79.5c-0.1-1.4,0.4-2.8,1.3-3.9c1-1,2.3-1.6,3.8-1.5
	h50.1c16.2,0,29.1,2.4,38.5,7.2c9,4.3,16.2,11.8,20.1,21C475.4,111.4,477.5,123.2,477.9,137.5z M239.7,241
	c22.2-22.2,34.3-51.8,34-83.2c-0.3-30-12.3-58.9-33.4-80.3c-22-22.3-51.4-34.6-82.6-34.6c-0.4,0.4-0.6,0.6-1,1v230
	c0.4,0.4,0.6,0.6,1,1C188.7,275,217.8,262.9,239.7,241z M157.7,1c-0.6,0-1,0.5-1,1v20c0.3,0,0.7,0,1,0c36.6,0,71,14.3,96.9,40.1
	c25.9,25.9,40.1,60.3,40.1,96.9c0,36.3-14.5,71.2-40.1,96.9c-25.9,25.9-60.3,40.1-96.9,40.1c-0.3,0-0.7,0-1,0v20c0,0.6,0.5,1,1,1
	c86.8-0.5,157-71.1,157-158S244.5,1.5,157.7,1z M128.7,25.1c0.5-0.1,0.9-0.6,0.8-1.1c-0.6-3.9-3.1-18.8-4.4-18.6
	C95.3,11.5,67.9,26.3,46.3,48c-22.8,22.7-38,51.9-43.6,83.5c-14.8,83.7,39.7,163.6,122.4,180.7c1.3,0.3,3.7-14.7,4.4-18.6
	c0.1-0.5-0.3-1-0.8-1.1c-53.2-11.2-94.8-53-105.7-106.4C8,112.4,55.3,40.6,128.7,25.1z M463.3,155.9c0-6.9-0.1-12.7-0.2-17.3
	c-0.3-17.5-4.4-30.3-12.3-38.3s-21-12.1-39.3-12.1h-39.2v135.9h40.3c12.5,0,22.3-1.7,29.5-5c7-3.2,12.6-8.9,15.6-15.9
	c3.2-7.3,5-17.1,5.3-29.6h0.1C463.2,168.6,463.3,162.8,463.3,155.9z M795.7,75.5c-1.1-1-2.5-1.5-4-1.4h-5.6c-2.1-0.1-4,1.1-4.9,3.1
	l-53.4,103.6L674.5,77.2c-0.8-2-2.8-3.2-4.9-3.1h-5.9c-1.4-0.1-2.8,0.5-3.9,1.4c-1.1,1-1.6,2.5-1.5,4V233c-0.1,1.4,0.5,2.8,1.5,3.8
	c1.1,1,2.4,1.5,3.9,1.4h4.2c0.2,0,0.4,0,0.7,0c2.7-0.2,4.7-2.5,4.5-5.2V106l44.8,88.1c1.2,3,4.1,4.9,7.3,4.7h5.1
	c3.2,0.2,6.1-1.7,7.3-4.7l44.8-88.1v127c0,0.2,0,0.4,0,0.7c0.2,2.7,2.5,4.7,5.2,4.5h4.2c1.4,0.1,2.8-0.5,3.9-1.4
	c1-1,1.6-2.3,1.5-3.8V79.5C797.2,78,796.7,76.6,795.7,75.5z M627.7,137.5c0.2,4.5,0.2,10.6,0.2,18.4c0,7.8-0.1,14.1-0.2,18.8
	c-0.3,15-2.5,27.1-6.5,36.2c-3.9,9-10.9,16.3-19.8,20.5c-9.2,4.5-21.8,6.8-37.7,6.8h-51.1c-0.2,0-0.4,0-0.7,0
	c-2.7-0.2-4.7-2.5-4.5-5.2V79.5c-0.1-1.4,0.5-2.8,1.4-3.9c1-1,2.3-1.6,3.8-1.5h49.9c16.2,0,29.1,2.4,38.5,7.2
	c9,4.3,16.2,11.8,20.1,21l0,0C625.1,111.4,627.3,123.2,627.7,137.5z M613,155.9c0-6.9-0.1-12.7-0.2-17.3
	c-0.3-17.5-4.4-30.3-12.3-38.3c-7.9-8-21-12.1-39.3-12.1H522v136h40.3c12.5,0,22.3-1.7,29.5-5c7-3.2,12.6-8.9,15.6-15.9
	c3.2-7.3,5-17.1,5.3-29.6h0.1C612.9,168.6,613,162.8,613,155.9z"/>
</svg>
