<?xml version="1.0" encoding="utf-8"?>
<!-- Generator: Adobe Illustrator 21.0.2, SVG Export Plug-In . SVG Version: 6.00 Build 0)  -->
<svg version="1.1" id="Layer_1" xmlns="http://www.w3.org/2000/svg" xmlns:xlink="http://www.w3.org/1999/xlink" x="0px" y="0px"
	 viewBox="0 0 560 220" style="enable-background:new 0 0 560 220;" xml:space="preserve">
<style type="text/css">
	.st0{fill:#FFFFFF;}
</style>
<title>DTDM-2</title>
<path class="st0" d="M202.1,129.5c0,0.1-0.1,0.3-0.1,0.3c0-0.1,0-0.1,0-0.1C202,129.6,202.1,129.6,202.1,129.5z M332.5,95
	c0.1,3.1,0.1,7.4,0.1,12.8c0,5.4-0.1,9.8-0.1,13.1c-0.2,10.4-1.7,18.9-4.5,25.2c-2.7,6.3-7.6,11.3-13.8,14.3
	c-6.4,3.1-15.2,4.7-26.2,4.7h-35.6c-0.1,0-0.3,0-0.5,0c-1.9-0.1-3.3-1.7-3.1-3.6V54.7c-0.1-1,0.3-1.9,0.9-2.7c0.7-0.7,1.6-1.1,2.6-1
	h34.9c11.3,0,20.3,1.7,26.8,5c6.3,3,11.3,8.2,14,14.6C330.8,76.9,332.2,85.1,332.5,95z M322.4,107.8c0-4.8-0.1-8.8-0.1-12
	c-0.2-12.2-3.1-21.1-8.6-26.7s-14.6-8.4-27.4-8.4H259v94.6h28.1c8.7,0,15.5-1.2,20.5-3.5c4.9-2.2,8.8-6.2,10.9-11.1
	c2.2-5.1,3.5-11.9,3.7-20.6h0.1C322.3,116.7,322.4,112.6,322.4,107.8z M202.1,130.1c0-0.1,0-0.1,0-0.1s0-0.1,0.1-0.2
	C202.1,129.9,202.1,130,202.1,130.1z M110,1.5v11.6c0,0.8,0.7,1.5,1.5,1.5c25.2,0.4,48.9,10.5,66.6,28.6
	c17.2,17.6,27,41.2,27.3,65.8c0.2,25.8-9.7,50.2-27.9,68.4c-17.7,17.7-41,27.6-66,27.9c-0.8,0-1.5,0.7-1.5,1.5v11.6
	c0,0.8,0.7,1.5,1.5,1.5c60.1-0.8,108.5-49.8,108.5-110S171.6,0.8,111.5,0C110.7,0,110,0.7,110,1.5z M89.1,203.1
	c-17.7-3.9-33.9-12.8-46.9-26c-16.9-17.1-26.8-40-27.6-64c-0.8-26.6,9.2-51.8,27.9-70.5c13-13,29.1-21.8,46.6-25.6
	c0.8-0.2,1.3-1,1.2-1.8L87.9,3.8c-0.2-0.8-1-1.3-1.8-1.2C36.9,13.5,0,57.4,0,110c0,52.6,36.9,96.5,86.1,107.4
	c0.8,0.2,1.6-0.3,1.8-1.2l2.4-11.4C90.5,204,89.9,203.3,89.1,203.1z M167.1,52.9c-14.9-14.9-34.6-23.3-55.6-23.6
	c-0.8,0-1.5,0.7-1.5,1.5V110v79.2c0,0.8,0.7,1.5,1.5,1.5c22.5-0.4,43.4-9.9,58.6-26.8c12.3-13.6,19.6-31.2,20.5-49.5
	C191.9,91.2,183.4,69.2,167.1,52.9z M553.8,51.9c-0.8-0.7-1.7-1-2.8-1h-3.9c-1.5-0.1-2.8,0.8-3.4,2.2l-37.2,72.1l-37.1-72.1
	c-0.6-1.4-1.9-2.2-3.4-2.2h-4.1c-1-0.1-1.9,0.3-2.7,1c-0.8,0.7-1.1,1.7-1,2.8v106.9c-0.1,1,0.3,1.9,1,2.6c0.8,0.7,1.7,1,2.7,1h2.9
	c0.1,0,0.3,0,0.5,0c1.9-0.1,3.3-1.7,3.1-3.6V73.1l31.2,61.3c0.8,2.1,2.9,3.4,5.1,3.3h3.6c2.2,0.1,4.2-1.2,5.1-3.3l31.2-61.3v88.4
	c0,0.1,0,0.3,0,0.5c0.1,1.9,1.7,3.3,3.6,3.1h2.9c1,0.1,1.9-0.3,2.7-1c0.7-0.7,1.1-1.6,1-2.6V54.7C554.8,53.6,554.5,52.6,553.8,51.9z
	 M436.8,95c0.1,3.1,0.1,7.4,0.1,12.8c0,5.4-0.1,9.8-0.1,13.1c-0.2,10.4-1.7,18.9-4.5,25.2c-2.7,6.3-7.6,11.3-13.8,14.3
	c-6.4,3.1-15.2,4.7-26.2,4.7h-35.6c-0.1,0-0.3,0-0.5,0c-1.9-0.1-3.3-1.7-3.1-3.6V54.7c-0.1-1,0.3-1.9,1-2.7c0.7-0.7,1.6-1.1,2.6-1
	h34.7c11.3,0,20.3,1.7,26.8,5c6.3,3,11.3,8.2,14,14.6l0,0C435,76.9,436.5,85.1,436.8,95z M426.6,107.8c0-4.8-0.1-8.8-0.1-12
	c-0.2-12.2-3.1-21.1-8.6-26.7s-14.6-8.4-27.4-8.4h-27.3v94.7h28.1c8.7,0,15.5-1.2,20.5-3.5c4.9-2.2,8.8-6.2,10.9-11.1
	c2.2-5.1,3.5-11.9,3.7-20.6h0.1C426.5,116.7,426.6,112.6,426.6,107.8z"/>
</svg>
