<?xml version="1.0" encoding="utf-8"?>
<!-- Generator: Adobe Illustrator 21.0.2, SVG Export Plug-In . SVG Version: 6.00 Build 0)  -->
<svg version="1.1" id="Layer_1" xmlns="http://www.w3.org/2000/svg" xmlns:xlink="http://www.w3.org/1999/xlink" x="0px" y="0px"
	 viewBox="0 0 797.2 316.5" style="enable-background:new 0 0 797.2 316.5;" xml:space="preserve">
<style type="text/css">
	.st0{fill:#FFFFFF;}
</style>
<title>DTDM-2</title>
<path class="st0" d="M46.3,47.2C68.9,24.5,98,9.3,129.6,3.8v20.4C55.7,39.2,8,111.4,23,185.4C34,239.1,75.9,281,129.6,292v20.4
	C44.5,297.3-12.4,216,2.7,130.8C8.3,99.1,23.5,70,46.3,47.2z M290.5,187c0,0.2-0.1,0.4-0.1,0.5c0-0.1,0-0.1,0-0.2
	C290.4,187.2,290.5,187.1,290.5,187z M267.8,47.4c-22.8-23-52.2-38.3-84.2-43.8V24c65.6,13,111.3,71.2,110,136.5c0-0.8,0-1.5,0-2.3
	l0,0c0,0.8,0,1.6,0,2.4c-0.1,4.8-0.4,9.7-1.1,14.6c-0.1,0.4-0.1,0.9-0.2,1.3l0,0c0,0.1,0,0.2,0,0.4c0-0.1,0-0.2,0-0.4
	c0,0.3-0.1,0.6-0.1,0.9v-0.2c-0.3,2-0.6,4.1-1,6.1c-0.2,1-0.4,2-0.6,3.1v-0.1c-0.1,0.3-0.1,0.6-0.2,0.8V187c0,0.1-0.1,0.3-0.1,0.4
	c0,0.1,0,0.2-0.1,0.3c0,0,0,0,0-0.1c-0.6,2.7-1.3,5.4-2,8.1c0.1-0.2,0.1-0.4,0.2-0.7c-0.1,0.5-0.3,1.1-0.5,1.6
	c-0.4,1.4-0.8,2.7-1.2,4.1c0.1-0.3,0.2-0.6,0.3-0.9c-0.1,0.4-0.3,0.8-0.4,1.3c-0.4,1.2-0.8,2.5-1.3,3.7c0.1-0.3,0.2-0.6,0.3-1
	c-0.3,0.9-0.7,1.9-1,2.8c-0.2,0.5-0.4,1-0.6,1.5c-17.1,43.3-54.9,75-100.6,84.1v20.4c85.3-14.7,142.4-95.7,127.7-181
	C305.8,99.6,290.6,70.3,267.8,47.4z M146.6,316.5h20V0h-20V316.5z M274.7,184.7c14.7-65-26-129.7-91.1-144.4v235.5
	c22.2-5,42.6-16.2,58.6-32.4C258.4,227.3,269.6,206.9,274.7,184.7z M477.9,137.5c0.2,4.5,0.2,10.6,0.2,18.4c0,7.8-0.1,14.1-0.2,18.8
	c-0.3,15-2.5,27.1-6.5,36.2c-3.9,9-10.9,16.3-19.8,20.5c-9.2,4.5-21.8,6.8-37.7,6.8h-51.1c-0.2,0-0.4,0-0.7,0
	c-2.7-0.2-4.7-2.5-4.5-5.2V79.5c-0.1-1.4,0.4-2.8,1.3-3.9c1-1,2.3-1.6,3.8-1.5h50.1c16.2,0,29.1,2.4,38.5,7.2
	c9,4.3,16.2,11.8,20.1,21C475.4,111.4,477.5,123.2,477.9,137.5z M463.3,155.9c0-6.9-0.1-12.7-0.2-17.3c-0.3-17.5-4.4-30.3-12.3-38.3
	s-21-12.1-39.3-12.1h-39.2v135.9h40.3c12.5,0,22.3-1.7,29.5-5c7-3.2,12.6-8.9,15.6-15.9c3.2-7.3,5-17.1,5.3-29.6h0.1
	C463.2,168.6,463.3,162.8,463.3,155.9z M795.7,75.5c-1.1-1-2.5-1.5-4-1.4h-5.6c-2.1-0.1-4,1.1-4.9,3.1l-53.4,103.6L674.5,77.2
	c-0.8-2-2.8-3.2-4.9-3.1h-5.9c-1.4-0.1-2.8,0.5-3.9,1.4c-1.1,1-1.6,2.5-1.5,4V233c-0.1,1.4,0.5,2.8,1.5,3.8c1.1,1,2.4,1.5,3.9,1.4
	h4.2c0.2,0,0.4,0,0.7,0c2.7-0.2,4.7-2.5,4.5-5.2V106l44.8,88.1c1.2,3,4.1,4.9,7.3,4.7h5.1c3.2,0.2,6.1-1.7,7.3-4.7l44.8-88.1v127
	c0,0.2,0,0.4,0,0.7c0.2,2.7,2.5,4.7,5.2,4.5h4.2c1.4,0.1,2.8-0.5,3.9-1.4c1-1,1.6-2.3,1.5-3.8V79.5C797.2,78,796.7,76.6,795.7,75.5z
	 M627.7,137.5c0.2,4.5,0.2,10.6,0.2,18.4c0,7.8-0.1,14.1-0.2,18.8c-0.3,15-2.5,27.1-6.5,36.2c-3.9,9-10.9,16.3-19.8,20.5
	c-9.2,4.5-21.8,6.8-37.7,6.8h-51.1c-0.2,0-0.4,0-0.7,0c-2.7-0.2-4.7-2.5-4.5-5.2V79.5c-0.1-1.4,0.5-2.8,1.4-3.9c1-1,2.3-1.6,3.8-1.5
	h49.9c16.2,0,29.1,2.4,38.5,7.2c9,4.3,16.2,11.8,20.1,21l0,0C625.1,111.4,627.3,123.2,627.7,137.5z M613,155.9
	c0-6.9-0.1-12.7-0.2-17.3c-0.3-17.5-4.4-30.3-12.3-38.3c-7.9-8-21-12.1-39.3-12.1H522v136h40.3c12.5,0,22.3-1.7,29.5-5
	c7-3.2,12.6-8.9,15.6-15.9c3.2-7.3,5-17.1,5.3-29.6h0.1C612.9,168.6,613,162.8,613,155.9z"/>
</svg>
