<svg xmlns="http://www.w3.org/2000/svg" xmlns:xlink="http://www.w3.org/1999/xlink" viewBox="0 0 1364.82 359.44"><defs><style>.cls-1,.cls-2,.cls-4,.cls-5,.cls-6,.cls-7{fill:#fff;}.cls-1{opacity:0.5;}.cls-3{clip-path:url(#clip-path);}.cls-4{opacity:0.69;}.cls-5{opacity:0.85;}.cls-6{opacity:0.3;}.cls-7{opacity:0.65;}</style><clipPath id="clip-path"><path class="cls-1" d="M30,178.4A146,146,0,0,0,175.86,324.53H176A146,146,0,0,0,279.33,75.4a145,145,0,0,0-103.2-42.86H176A146,146,0,0,0,30,178.4Z"/></clipPath></defs><title>DTDM-1</title><g id="Layer_2" data-name="Layer 2"><g id="Layer_1-2" data-name="Layer 1"><path class="cls-2" d="M397.08,154a3.23,3.23,0,0,1-1-2.38V60.6a3.55,3.55,0,0,1,.91-2.52,3.18,3.18,0,0,1,2.45-1h34.13q41.26,0,42.1,38,.28,8.11.28,10.91t-.28,10.77q-.56,19.58-10.56,28.88T434.28,155H399.45A3.23,3.23,0,0,1,397.08,154Zm36.51-15.25q11.61,0,16.78-5.17t5.46-17.2q.28-8.39.28-10.49t-.28-10.35q-.28-11.47-5.73-16.85t-17.2-5.38H415.82v65.46Z"/><path class="cls-2" d="M498.92,154a3.23,3.23,0,0,1-1-2.38V60.6a3.55,3.55,0,0,1,.91-2.52,3.18,3.18,0,0,1,2.45-1h36.23q17.2,0,26.93,8t9.72,22.66q0,10.21-4.9,17.13a27.23,27.23,0,0,1-13.71,10l20.28,35.67a3.48,3.48,0,0,1,.42,1.54,2.74,2.74,0,0,1-.91,2.1,2.93,2.93,0,0,1-2,.84H560.46a5.3,5.3,0,0,1-3.5-1,10.16,10.16,0,0,1-2.24-2.73l-17.9-33.15H517.66v33.57a3.24,3.24,0,0,1-1,2.38,3.4,3.4,0,0,1-2.52,1H501.29A3.23,3.23,0,0,1,498.92,154Zm38.19-51.89q8.39,0,12.59-3.71t4.2-10.84q0-7.13-4.2-11T537.1,72.77H517.66v29.37Z"/><path class="cls-2" d="M592.78,154.18a2.85,2.85,0,0,1-.84-2.1l.28-1.26L625.79,60.6a5,5,0,0,1,5-3.5h15.39a5,5,0,0,1,5,3.5l33.57,90.22.28,1.26a2.74,2.74,0,0,1-.91,2.1,2.93,2.93,0,0,1-2,.84H669.71a4.06,4.06,0,0,1-4.06-2.66l-6.43-16.92h-41.4l-6.43,16.92a4.06,4.06,0,0,1-4.06,2.66H594.88A2.85,2.85,0,0,1,592.78,154.18Zm29.93-35h31.61L638.52,76.13Z"/><path class="cls-2" d="M708.83,146.48q-10.7-9.93-11.4-27.69-.14-4.06-.14-13t.14-13Q698,75.43,708.9,65.57t29.93-9.86q12.87,0,22.17,4.41T775.06,71q4.75,6.5,5,12.8a2.84,2.84,0,0,1-.84,2.1,3,3,0,0,1-2.24.84H762.33a3.3,3.3,0,0,1-2.1-.56A4.72,4.72,0,0,1,759,84.38a19.52,19.52,0,0,0-6.85-8.81q-4.9-3.64-13.29-3.64-9.79,0-15.32,5.24t-5.8,16.29q-.14,4.06-.14,12.31t.14,12.31q.28,11.33,5.87,16.71T739,140.19q9.93,0,15.95-5.32t6-15.95v-4.34H743.87a3.34,3.34,0,0,1-3.36-3.36v-7.69a3.34,3.34,0,0,1,3.36-3.36h33.57a3.41,3.41,0,0,1,2.52,1,3.25,3.25,0,0,1,1,2.38v14.83a38.46,38.46,0,0,1-5.18,20.21,34,34,0,0,1-14.69,13.22q-9.51,4.62-22.24,4.62Q719.53,156.41,708.83,146.48Z"/><path class="cls-2" d="M811.29,146.76q-10.63-9.65-11.19-28.67Q800,114,800,106.2t.14-12q.56-18.6,11.47-28.53t29.51-9.93q18.46,0,29.44,9.93t11.54,28.53q.28,8.12.28,12t-.28,11.89q-.56,19-11.26,28.67t-29.72,9.65Q821.91,156.41,811.29,146.76Zm44.62-12.17q5.46-5.59,5.87-17.21.28-8.39.28-11.33,0-3.22-.28-11.33-.42-11.47-6-17.13t-14.69-5.66q-9.23,0-14.83,5.66t-5.87,17.13q-.14,4.06-.14,11.33t.14,11.33q.28,11.47,5.8,17.13t14.9,5.67Q850.45,140.19,855.9,134.59Z"/><path class="cls-2" d="M905.31,154a3.23,3.23,0,0,1-1-2.38V60.6a3.55,3.55,0,0,1,.91-2.52,3.18,3.18,0,0,1,2.45-1h10.91a4.45,4.45,0,0,1,4.06,2.38l40,62.1v-61a3.55,3.55,0,0,1,.91-2.52,3.18,3.18,0,0,1,2.45-1h12a3.35,3.35,0,0,1,3.5,3.5v90.92a3.41,3.41,0,0,1-1,2.52,3.23,3.23,0,0,1-2.38,1h-11a4.56,4.56,0,0,1-4.2-2.38l-39.86-60.7v59.73a3.36,3.36,0,0,1-.91,2.38,3.18,3.18,0,0,1-2.45,1h-12A3.23,3.23,0,0,1,905.31,154Z"/><path class="cls-2" d="M1030.66,154a3.23,3.23,0,0,1-1-2.38V74.59H1003.8a3.23,3.23,0,0,1-2.38-1,3.4,3.4,0,0,1-1-2.52V60.6a3.55,3.55,0,0,1,.91-2.52,3.18,3.18,0,0,1,2.45-1h71.47a3.35,3.35,0,0,1,3.5,3.5V71.09a3.35,3.35,0,0,1-3.5,3.5h-25.74v77.07a3.36,3.36,0,0,1-.91,2.38,3.18,3.18,0,0,1-2.45,1H1033A3.23,3.23,0,0,1,1030.66,154Z"/><path class="cls-2" d="M1098.65,154a3.23,3.23,0,0,1-1-2.38V60.6a3.55,3.55,0,0,1,.91-2.52,3.18,3.18,0,0,1,2.45-1h36.23q17.2,0,26.93,8t9.72,22.66q0,10.21-4.9,17.13a27.23,27.23,0,0,1-13.71,10l20.28,35.67a3.48,3.48,0,0,1,.42,1.54,2.74,2.74,0,0,1-.91,2.1,2.93,2.93,0,0,1-2,.84h-12.87a5.3,5.3,0,0,1-3.5-1,10.16,10.16,0,0,1-2.24-2.73l-17.9-33.15h-19.16v33.57a3.24,3.24,0,0,1-1,2.38,3.4,3.4,0,0,1-2.52,1H1101A3.23,3.23,0,0,1,1098.65,154Zm38.19-51.89q8.39,0,12.59-3.71t4.2-10.84q0-7.13-4.2-11t-12.59-3.85h-19.44v29.37Z"/><path class="cls-2" d="M1196.68,154a3.23,3.23,0,0,1-1-2.38V60.6a3.55,3.55,0,0,1,.91-2.52,3.18,3.18,0,0,1,2.45-1h61.68a3.35,3.35,0,0,1,3.5,3.5V70a3.18,3.18,0,0,1-1,2.45,3.55,3.55,0,0,1-2.52.91h-45.88V97.81h42.8a3.36,3.36,0,0,1,3.5,3.5v8.81a3.18,3.18,0,0,1-1,2.45,3.55,3.55,0,0,1-2.52.91h-42.8v25.32h47a3.56,3.56,0,0,1,2.52.91,3.18,3.18,0,0,1,1,2.45v9.51a3.18,3.18,0,0,1-1,2.45,3.55,3.55,0,0,1-2.52.91h-62.8A3.23,3.23,0,0,1,1196.68,154Z"/><path class="cls-2" d="M1287.09,154a3.23,3.23,0,0,1-1-2.38V60.6a3.55,3.55,0,0,1,.91-2.52,3.18,3.18,0,0,1,2.45-1h61.68a3.35,3.35,0,0,1,3.5,3.5V70a3.18,3.18,0,0,1-1,2.45,3.55,3.55,0,0,1-2.52.91h-45.88V97.81h42.8a3.36,3.36,0,0,1,3.5,3.5v8.81a3.18,3.18,0,0,1-1,2.45,3.55,3.55,0,0,1-2.52.91h-42.8v25.32h47a3.56,3.56,0,0,1,2.52.91,3.18,3.18,0,0,1,1,2.45v9.51a3.18,3.18,0,0,1-1,2.45,3.55,3.55,0,0,1-2.52.91h-62.8A3.23,3.23,0,0,1,1287.09,154Z"/><path class="cls-2" d="M399.18,288.18a3,3,0,0,1-.84-2.24V194.32a3.28,3.28,0,0,1,.84-2.31,2.9,2.9,0,0,1,2.24-.91h29.79q14.55,0,23,4.27a24.75,24.75,0,0,1,12,12.52q3.57,8.26,3.85,21,.14,4.2.14,11t-.14,11.19q-.28,13.43-3.85,21.61A24,24,0,0,1,454.42,285Q446.17,289,431.9,289H401.41A3,3,0,0,1,399.18,288.18Zm32-7.55q11.19,0,17.62-3a18.34,18.34,0,0,0,9.3-9.51q2.87-6.5,3.15-17.69.14-4.2.14-10.49t-.14-10.35q-.28-15.66-7.34-22.87t-23.43-7.2H407.15v81.13Z"/><path class="cls-2" d="M500.08,288.18a3,3,0,0,1-.84-2.24V194.18a2.89,2.89,0,0,1,3.08-3.08H505a2.89,2.89,0,0,1,3.08,3.08v91.76A2.89,2.89,0,0,1,505,289h-2.66A3,3,0,0,1,500.08,288.18Z"/><path class="cls-2" d="M547.34,280.34q-9.65-10.07-10.21-27-.14-4.2-.14-13.29t.14-13.29q.56-16.92,10.21-27t27.13-10.07q11.89,0,20,4.48t12.1,10.56q4,6.08,4.27,10.84v.28a2.25,2.25,0,0,1-.84,1.82,3.15,3.15,0,0,1-2.1.7h-3.08a2.49,2.49,0,0,1-1.82-.56,6,6,0,0,1-1.12-2.24,24.71,24.71,0,0,0-9.16-12.45q-6.79-5-18.25-5-13,0-20.49,7.13t-8,22.24q-.14,4.2-.14,12.59t.14,12.59q.56,15.11,8,22.24T574.47,282q13,0,21-7.41t8-22v-7.13H579.09a2.89,2.89,0,0,1-2.24-.91,3.27,3.27,0,0,1-.84-2.31v-2a3.27,3.27,0,0,1,.84-2.31,2.9,2.9,0,0,1,2.24-.91H609a2.92,2.92,0,0,1,3.22,3.22v12.31a41.85,41.85,0,0,1-4.48,19.72,31.92,31.92,0,0,1-13,13.29q-8.53,4.76-20.28,4.76Q557,290.41,547.34,280.34Z"/><path class="cls-2" d="M640.85,288.18a3,3,0,0,1-.84-2.24V194.18a2.89,2.89,0,0,1,3.08-3.08h2.66a2.89,2.89,0,0,1,3.08,3.08v91.76a2.89,2.89,0,0,1-3.08,3.08h-2.66A3,3,0,0,1,640.85,288.18Z"/><path class="cls-2" d="M705.54,288.18a3,3,0,0,1-.84-2.24V199.5H677a2.89,2.89,0,0,1-3.08-3.08v-2.1a3.28,3.28,0,0,1,.84-2.31,2.9,2.9,0,0,1,2.24-.91h64.06a2.92,2.92,0,0,1,3.22,3.22v2.1a2.9,2.9,0,0,1-.91,2.24,3.28,3.28,0,0,1-2.31.84H713.52v86.44a2.9,2.9,0,0,1-.91,2.24,3.28,3.28,0,0,1-2.31.84h-2.52A3,3,0,0,1,705.54,288.18Z"/><path class="cls-2" d="M748.9,288.18a2.68,2.68,0,0,1-.84-2l.28-1.54,35.39-90.78a4.06,4.06,0,0,1,4.06-2.8h4.76a4.06,4.06,0,0,1,4.06,2.8L832,284.68l.28,1.54a2.87,2.87,0,0,1-2.8,2.8h-2.8a2.89,2.89,0,0,1-2-.7,3.88,3.88,0,0,1-1-1.4l-8.67-22.38H765.41l-8.67,22.38a3.94,3.94,0,0,1-1,1.4,2.89,2.89,0,0,1-2,.7h-2.8A2.68,2.68,0,0,1,748.9,288.18Zm19.86-32h42.8L790.16,201Z"/><path class="cls-2" d="M858.1,288.18a3,3,0,0,1-.84-2.24V194.18a2.89,2.89,0,0,1,3.08-3.08H863a2.89,2.89,0,0,1,3.08,3.08v86.44h48.26a2.92,2.92,0,0,1,3.22,3.22v2.1a2.9,2.9,0,0,1-.91,2.24,3.28,3.28,0,0,1-2.31.84h-54A3,3,0,0,1,858.1,288.18Z"/><path class="cls-2" d="M943.38,288.18a2.9,2.9,0,0,1-.91-2.24V194.32a3.07,3.07,0,0,1,.91-2.38,3.27,3.27,0,0,1,2.31-.84h3.5a3,3,0,0,1,2.94,1.82l31.75,61.82,31.89-61.82a3.15,3.15,0,0,1,2.94-1.82h3.36a2.92,2.92,0,0,1,3.22,3.22v91.62a2.91,2.91,0,0,1-.91,2.24,3.28,3.28,0,0,1-2.31.84h-2.52a2.89,2.89,0,0,1-3.08-3.08V210.13l-26.71,52.59a4.41,4.41,0,0,1-4.34,2.8h-3.08a4.4,4.4,0,0,1-4.34-2.8l-26.71-52.59v75.81A2.89,2.89,0,0,1,948.2,289h-2.52A3.27,3.27,0,0,1,943.38,288.18Z"/><path class="cls-2" d="M1058,288.18a3,3,0,0,1-.84-2.24V194.32A3.28,3.28,0,0,1,1058,192a2.9,2.9,0,0,1,2.24-.91h54.55a2.92,2.92,0,0,1,3.22,3.22v2.1a2.9,2.9,0,0,1-.91,2.24,3.28,3.28,0,0,1-2.31.84H1066v35.67h45.74a2.92,2.92,0,0,1,3.22,3.22v2.1a2.9,2.9,0,0,1-.91,2.24,3.27,3.27,0,0,1-2.31.84H1066v37.07h49.93a2.92,2.92,0,0,1,3.22,3.22v2.1a2.91,2.91,0,0,1-.91,2.24,3.28,3.28,0,0,1-2.31.84h-55.67A3,3,0,0,1,1058,288.18Z"/><path class="cls-2" d="M1146.83,288.18a3,3,0,0,1-.84-2.24V194.32a3.28,3.28,0,0,1,.84-2.31,2.9,2.9,0,0,1,2.24-.91h29.79q14.55,0,23,4.27a24.75,24.75,0,0,1,12,12.52q3.57,8.26,3.85,21,.14,4.2.14,11t-.14,11.19q-.28,13.43-3.85,21.61A24,24,0,0,1,1202.08,285q-8.25,4.06-22.52,4.06h-30.49A3,3,0,0,1,1146.83,288.18Zm32-7.55q11.19,0,17.62-3a18.34,18.34,0,0,0,9.3-9.51q2.87-6.5,3.15-17.69.14-4.2.14-10.49t-.14-10.35q-.28-15.66-7.34-22.87t-23.43-7.2h-23.36v81.13Z"/><path class="cls-2" d="M1247.73,288.18a3,3,0,0,1-.84-2.24V194.18a2.89,2.89,0,0,1,3.08-3.08h2.66a2.89,2.89,0,0,1,3.08,3.08v91.76a2.89,2.89,0,0,1-3.08,3.08H1250A3,3,0,0,1,1247.73,288.18Z"/><path class="cls-2" d="M1281.46,288.18a2.68,2.68,0,0,1-.84-2l.28-1.54,35.39-90.78a4.06,4.06,0,0,1,4.06-2.8h4.76a4.06,4.06,0,0,1,4.06,2.8l35.39,90.78.28,1.54a2.87,2.87,0,0,1-2.8,2.8h-2.8a2.89,2.89,0,0,1-2-.7,3.88,3.88,0,0,1-1-1.4l-8.67-22.38H1298l-8.67,22.38a3.94,3.94,0,0,1-1,1.4,2.89,2.89,0,0,1-2,.7h-2.8A2.68,2.68,0,0,1,1281.46,288.18Zm19.86-32h42.8L1322.72,201Z"/><path class="cls-2" d="M176,20.54h.15a158,158,0,0,1-.15,316h-.15a158,158,0,0,1,.15-316m0-18h0a176,176,0,0,0-68.66,338.09,174.91,174.91,0,0,0,68.5,13.9H176A176,176,0,0,0,244.66,16.44a174.91,174.91,0,0,0-68.5-13.9Z"/><path class="cls-1" d="M30,178.4A146,146,0,0,0,175.86,324.53H176A146,146,0,0,0,279.33,75.4a145,145,0,0,0-103.2-42.86H176A146,146,0,0,0,30,178.4Z"/><g class="cls-3"><polygon class="cls-4" points="236.27 273.04 292.28 334.27 327.56 246.15 236.27 273.04"/><polygon class="cls-5" points="274.13 184.87 236.27 273.04 327.56 246.15 274.13 184.87"/><polygon class="cls-4" points="317.96 81.69 274.13 184.87 327.56 246.15 317.96 81.69"/><polygon class="cls-1" points="236.27 273.04 152.99 351.19 292.28 334.27 236.27 273.04"/><polygon class="cls-1" points="101.19 242.28 152.99 351.19 165.19 271.24 101.19 242.28"/><polygon class="cls-6" points="81.89 157.35 18.58 219.75 101.19 242.28 81.89 157.35"/><polygon class="cls-1" points="230.22 29.51 232.85 108.85 317.96 81.69 230.22 29.51"/><polygon class="cls-1" points="34.54 80.37 18.58 219.75 81.89 157.35 34.54 80.37"/><polygon class="cls-6" points="179.57 188.77 101.19 242.28 165.19 271.24 179.57 188.77"/><polygon class="cls-1" points="18.58 219.75 62.51 359.44 101.19 242.28 18.58 219.75"/><polygon class="cls-7" points="179.57 188.77 236.27 273.04 274.13 184.87 179.57 188.77"/><polygon class="cls-7" points="133.61 0 34.54 80.37 145.11 103.38 133.61 0"/><polygon class="cls-5" points="34.54 80.37 81.89 157.35 145.11 103.38 34.54 80.37"/><polygon class="cls-1" points="133.61 0 145.11 103.38 230.22 29.51 133.61 0"/><polygon class="cls-5" points="145.11 103.38 179.57 188.77 232.85 108.85 145.11 103.38"/><polygon class="cls-7" points="145.11 103.38 81.89 157.35 179.57 188.77 145.11 103.38"/><polygon class="cls-1" points="81.89 157.35 101.19 242.28 179.57 188.77 81.89 157.35"/><polygon class="cls-4" points="232.85 108.85 179.57 188.77 274.13 184.87 232.85 108.85"/><polygon class="cls-6" points="101.19 242.28 62.51 359.26 152.99 351.19 101.19 242.28"/><polygon class="cls-6" points="230.22 29.51 145.11 103.38 232.85 108.85 230.22 29.51"/><polygon class="cls-7" points="232.85 108.85 274.13 184.87 317.96 81.69 232.85 108.85"/><polygon class="cls-6" points="165.19 271.24 152.99 351.19 236.27 273.04 165.19 271.24"/><polygon class="cls-1" points="179.57 188.77 165.19 271.24 236.27 273.04 179.57 188.77"/></g></g></g></svg>