<svg xmlns="http://www.w3.org/2000/svg" viewBox="0 0 1331.44 316.54"><defs><style>.cls-1{fill:#fff;}</style></defs><title>DTDM-2</title><g id="Layer_2" data-name="Layer 2"><g id="Layer_1-2" data-name="Layer 1"><path class="cls-1" d="M400.2,36.76H366.08a3.18,3.18,0,0,0-2.45,1,3.55,3.55,0,0,0-.91,2.52v91.06a3.34,3.34,0,0,0,3.36,3.36H400.9q20.84,0,30.84-9.3t10.56-28.88q.28-8.11.28-10.77t-.28-10.91Q441.47,36.76,400.2,36.76Zm22.24,59.3q-.28,12-5.46,17.2t-16.78,5.17H382.44V53h17.06q11.75,0,17.2,5.38t5.73,16.85q.28,8.11.28,10.35T422.44,96.07Zm101.14,37.56a5.3,5.3,0,0,0,3.5,1h12.87a2.93,2.93,0,0,0,2-.84,2.74,2.74,0,0,0,.91-2.1,3.48,3.48,0,0,0-.42-1.54L522.19,94.53a27.23,27.23,0,0,0,13.71-10q4.89-6.92,4.9-17.13,0-14.69-9.72-22.66t-26.93-8H467.91a3.18,3.18,0,0,0-2.45,1,3.55,3.55,0,0,0-.91,2.52v91.06a3.34,3.34,0,0,0,3.36,3.36h12.87a3.4,3.4,0,0,0,2.52-1,3.24,3.24,0,0,0,1-2.38V97.74h19.16l17.9,33.15A10.16,10.16,0,0,0,523.58,133.62Zm-7.27-55.53q-4.2,3.71-12.59,3.71H484.28V52.43h19.44q8.39,0,12.59,3.85t4.2,11Q520.51,74.39,516.31,78.09Zm134.5,55.74a2.74,2.74,0,0,0,.91-2.1l-.28-1.26L617.87,40.26a5,5,0,0,0-5-3.5H597.45a5,5,0,0,0-5,3.5l-33.57,90.22-.28,1.26a2.87,2.87,0,0,0,2.94,2.94H574A4.06,4.06,0,0,0,578,132l6.43-16.92h41.4L632.28,132a4.06,4.06,0,0,0,4.06,2.66h12.45A2.93,2.93,0,0,0,650.81,133.83Zm-61.47-35,15.81-43.08,15.81,43.08Zm74.72-.42q-.14-4.06-.14-13t.14-13q.56-17.34,11.47-27.21t29.93-9.86q12.87,0,22.17,4.41t14.06,10.91q4.75,6.5,5,12.8a2.84,2.84,0,0,1-.84,2.1,3,3,0,0,1-2.24.84H729a3.3,3.3,0,0,1-2.1-.56A4.72,4.72,0,0,1,725.6,64a19.52,19.52,0,0,0-6.85-8.81q-4.9-3.64-13.29-3.64-9.79,0-15.32,5.24t-5.8,16.29q-.14,4.06-.14,12.31t.14,12.31q.28,11.33,5.87,16.71t15.39,5.39q9.93,0,15.95-5.32t6-15.95V94.25H710.49a3.34,3.34,0,0,1-3.36-3.36V83.2a3.34,3.34,0,0,1,3.36-3.36h33.57a3.41,3.41,0,0,1,2.52,1,3.25,3.25,0,0,1,1,2.38V98a38.46,38.46,0,0,1-5.18,20.21,34,34,0,0,1-14.69,13.22q-9.51,4.62-22.24,4.62-19.3,0-30-9.93T664.05,98.44Zm184.63-.7q.28-8.11.28-11.89t-.28-12q-.56-18.6-11.54-28.53T807.7,35.36q-18.6,0-29.51,9.93T766.72,73.83q-.14,4.06-.14,12t.14,11.89q.56,19,11.19,28.67t29.79,9.65q19,0,29.72-9.65T848.68,97.74ZM828.4,97q-.42,11.61-5.87,17.21t-14.83,5.59q-9.37,0-14.9-5.67T787,97q-.14-4.2-.14-11.33T787,74.39q.28-11.47,5.87-17.13t14.83-5.66q9.09,0,14.69,5.66t6,17.13q.28,8.11.28,11.33Q828.68,88.65,828.4,97Zm101.15,35.25-39.86-60.7v59.73a3.36,3.36,0,0,1-.91,2.38,3.18,3.18,0,0,1-2.45,1h-12a3.34,3.34,0,0,1-3.36-3.36V40.26a3.55,3.55,0,0,1,.91-2.52,3.18,3.18,0,0,1,2.45-1h10.91a4.45,4.45,0,0,1,4.06,2.38l40,62.1v-61a3.55,3.55,0,0,1,.91-2.52,3.18,3.18,0,0,1,2.45-1h12a3.35,3.35,0,0,1,3.5,3.5v90.92a3.41,3.41,0,0,1-1,2.52,3.23,3.23,0,0,1-2.38,1h-11A4.56,4.56,0,0,1,929.55,132.29Zm112.34-78h-25.74v77.07a3.36,3.36,0,0,1-.91,2.38,3.18,3.18,0,0,1-2.45,1H999.66a3.34,3.34,0,0,1-3.36-3.36V54.24H970.42a3.23,3.23,0,0,1-2.38-1,3.4,3.4,0,0,1-1-2.52V40.26a3.55,3.55,0,0,1,.91-2.52,3.18,3.18,0,0,1,2.45-1h71.47a3.35,3.35,0,0,1,3.5,3.5V50.75a3.35,3.35,0,0,1-3.5,3.5Zm81.42,79.38a5.3,5.3,0,0,0,3.5,1h12.87a2.93,2.93,0,0,0,2-.84,2.74,2.74,0,0,0,.91-2.1,3.48,3.48,0,0,0-.42-1.54l-20.28-35.67a27.23,27.23,0,0,0,13.71-10q4.89-6.92,4.9-17.13,0-14.69-9.72-22.66t-26.93-8h-36.23a3.18,3.18,0,0,0-2.45,1,3.55,3.55,0,0,0-.91,2.52v91.06a3.34,3.34,0,0,0,3.36,3.36h12.87a3.4,3.4,0,0,0,2.52-1,3.24,3.24,0,0,0,1-2.38V97.74h19.16l17.9,33.15A10.16,10.16,0,0,0,1123.31,133.62ZM1116,78.09q-4.2,3.71-12.59,3.71H1084V52.43h19.44q8.39,0,12.59,3.85t4.2,11Q1120.24,74.39,1116,78.09Zm115,41.26a3.18,3.18,0,0,1,1,2.45v9.51a3.18,3.18,0,0,1-1,2.45,3.55,3.55,0,0,1-2.52.91h-62.8a3.34,3.34,0,0,1-3.36-3.36V40.26a3.55,3.55,0,0,1,.91-2.52,3.18,3.18,0,0,1,2.45-1h61.68a3.35,3.35,0,0,1,3.5,3.5v9.37a3.18,3.18,0,0,1-1,2.45,3.55,3.55,0,0,1-2.52.91h-45.88V77.46h42.8a3.36,3.36,0,0,1,3.5,3.5v8.81a3.18,3.18,0,0,1-1,2.45,3.55,3.55,0,0,1-2.52.91h-42.8v25.32h47A3.56,3.56,0,0,1,1231,119.35Zm22.71,14.34a3.23,3.23,0,0,1-1-2.38V40.26a3.55,3.55,0,0,1,.91-2.52,3.18,3.18,0,0,1,2.45-1h61.68a3.35,3.35,0,0,1,3.5,3.5v9.37a3.18,3.18,0,0,1-1,2.45,3.55,3.55,0,0,1-2.52.91H1271.9V77.46h42.8a3.36,3.36,0,0,1,3.5,3.5v8.81a3.18,3.18,0,0,1-1,2.45,3.55,3.55,0,0,1-2.52.91h-42.8v25.32h47a3.56,3.56,0,0,1,2.52.91,3.18,3.18,0,0,1,1,2.45v9.51a3.18,3.18,0,0,1-1,2.45,3.55,3.55,0,0,1-2.52.91h-62.8A3.23,3.23,0,0,1,1253.71,133.69ZM432.87,187.54a24.75,24.75,0,0,0-12-12.52q-8.46-4.27-23-4.27H368a2.9,2.9,0,0,0-2.24.91A3.28,3.28,0,0,0,365,174v91.62a2.89,2.89,0,0,0,3.08,3.08h30.49q14.27,0,22.52-4.06a24,24,0,0,0,11.82-12.24q3.57-8.18,3.85-21.61.14-4.2.14-11.19t-.14-11Q436.43,195.8,432.87,187.54Zm-5,42.52q-.28,11.19-3.15,17.69a18.34,18.34,0,0,1-9.3,9.51q-6.44,3-17.62,3H373.77V179.15h23.36q16.37,0,23.43,7.2t7.34,22.87q.14,4.2.14,10.35T427.9,230.07Zm45.93-58.47a3,3,0,0,1,.84,2.24v91.76a2.89,2.89,0,0,1-3.08,3.08h-2.66a2.89,2.89,0,0,1-3.08-3.08V173.84a2.89,2.89,0,0,1,3.08-3.08h2.66A3,3,0,0,1,473.83,171.6Zm104.19,46a3.22,3.22,0,0,1,.84,2.38V232.3A41.85,41.85,0,0,1,574.38,252a31.92,31.92,0,0,1-13,13.29q-8.53,4.76-20.28,4.76-17.49,0-27.13-10.07t-10.21-27q-.14-4.2-.14-13.29t.14-13.29q.56-16.92,10.21-27t27.13-10.07q11.89,0,20,4.48t12.1,10.56q4,6.08,4.27,10.84v.28a2.25,2.25,0,0,1-.84,1.82,3.15,3.15,0,0,1-2.1.7h-3.08a2.49,2.49,0,0,1-1.82-.56,6,6,0,0,1-1.12-2.24,24.71,24.71,0,0,0-9.16-12.45q-6.79-5-18.25-5-13,0-20.49,7.13t-8,22.24q-.14,4.2-.14,12.59t.14,12.59q.56,15.11,8,22.24t20.49,7.13q13,0,21-7.41t8-22v-7.13H545.71a2.89,2.89,0,0,1-2.24-.91,3.27,3.27,0,0,1-.84-2.31v-2a3.27,3.27,0,0,1,.84-2.31,2.9,2.9,0,0,1,2.24-.91h29.93A3.22,3.22,0,0,1,578,217.62Zm36.59-46a3,3,0,0,1,.84,2.24v91.76a2.89,2.89,0,0,1-3.08,3.08h-2.66a2.89,2.89,0,0,1-3.08-3.08V173.84a2.89,2.89,0,0,1,3.08-3.08h2.66A3,3,0,0,1,614.61,171.6Zm95.46,0a3.22,3.22,0,0,1,.84,2.38v2.1a2.9,2.9,0,0,1-.91,2.24,3.28,3.28,0,0,1-2.31.84H680.14v86.44a2.9,2.9,0,0,1-.91,2.24,3.28,3.28,0,0,1-2.31.84H674.4a2.89,2.89,0,0,1-3.08-3.08V179.15H643.63a2.89,2.89,0,0,1-3.08-3.08V174a3.28,3.28,0,0,1,.84-2.31,2.9,2.9,0,0,1,2.24-.91h64.06A3.22,3.22,0,0,1,710.07,171.6Zm53.15,2a4.06,4.06,0,0,0-4.06-2.8h-4.76a4.06,4.06,0,0,0-4.06,2.8L715,264.33l-.28,1.54a2.87,2.87,0,0,0,2.8,2.8h2.8a2.89,2.89,0,0,0,2-.7,3.94,3.94,0,0,0,1-1.4L732,244.19h49.51l8.67,22.38a3.88,3.88,0,0,0,1,1.4,2.89,2.89,0,0,0,2,.7h2.8a2.87,2.87,0,0,0,2.8-2.8l-.28-1.54ZM735.38,235.8l21.4-55.11,21.4,55.11Zm147.94,25.32a3.22,3.22,0,0,1,.84,2.38v2.1a2.9,2.9,0,0,1-.91,2.24,3.28,3.28,0,0,1-2.31.84H827a2.89,2.89,0,0,1-3.08-3.08V173.84a2.89,2.89,0,0,1,3.08-3.08h2.66a2.89,2.89,0,0,1,3.08,3.08v86.44h48.26A3.22,3.22,0,0,1,883.33,261.12ZM991.05,171.6a3.22,3.22,0,0,1,.84,2.38v91.62a2.91,2.91,0,0,1-.91,2.24,3.28,3.28,0,0,1-2.31.84h-2.52a2.89,2.89,0,0,1-3.08-3.08V189.78l-26.71,52.59a4.41,4.41,0,0,1-4.34,2.8H949a4.4,4.4,0,0,1-4.34-2.8L917.9,189.78v75.81a2.89,2.89,0,0,1-3.08,3.08h-2.52a3.27,3.27,0,0,1-2.31-.84,2.9,2.9,0,0,1-.91-2.24V174a3.07,3.07,0,0,1,.91-2.38,3.27,3.27,0,0,1,2.31-.84h3.5a3,3,0,0,1,2.94,1.82l31.75,61.82,31.89-61.82a3.15,3.15,0,0,1,2.94-1.82h3.36A3.22,3.22,0,0,1,991.05,171.6Zm93.85,89.52a3.22,3.22,0,0,1,.84,2.38v2.1a2.91,2.91,0,0,1-.91,2.24,3.28,3.28,0,0,1-2.31.84h-55.67a2.89,2.89,0,0,1-3.08-3.08V174a3.28,3.28,0,0,1,.84-2.31,2.9,2.9,0,0,1,2.24-.91h54.55a2.92,2.92,0,0,1,3.22,3.22v2.1a2.9,2.9,0,0,1-.91,2.24,3.28,3.28,0,0,1-2.31.84H1032.6v35.67h45.74a2.92,2.92,0,0,1,3.22,3.22v2.1a2.9,2.9,0,0,1-.91,2.24,3.27,3.27,0,0,1-2.31.84H1032.6v37.07h49.93A3.22,3.22,0,0,1,1084.91,261.12Zm95.62-73.57a24.75,24.75,0,0,0-12-12.52q-8.46-4.27-23-4.27h-29.79a2.9,2.9,0,0,0-2.24.91,3.28,3.28,0,0,0-.84,2.31v91.62a2.89,2.89,0,0,0,3.08,3.08h30.49q14.27,0,22.52-4.06a24,24,0,0,0,11.82-12.24q3.57-8.18,3.85-21.61.14-4.2.14-11.19t-.14-11Q1184.09,195.8,1180.52,187.54Zm-5,42.52q-.28,11.19-3.15,17.69a18.34,18.34,0,0,1-9.3,9.51q-6.44,3-17.62,3h-24.06V179.15h23.36q16.37,0,23.43,7.2t7.34,22.87q.14,4.2.14,10.35T1175.56,230.07Zm45.93-58.47a3,3,0,0,1,.84,2.24v91.76a2.89,2.89,0,0,1-3.08,3.08h-2.66a2.89,2.89,0,0,1-3.08-3.08V173.84a2.89,2.89,0,0,1,3.08-3.08h2.66A3,3,0,0,1,1221.49,171.6Zm109.67,92.74-35.39-90.78a4.06,4.06,0,0,0-4.06-2.8H1287a4.06,4.06,0,0,0-4.06,2.8l-35.39,90.78-.28,1.54a2.87,2.87,0,0,0,2.8,2.8h2.8a2.89,2.89,0,0,0,2-.7,3.94,3.94,0,0,0,1-1.4l8.67-22.38h49.51l8.67,22.38a3.88,3.88,0,0,0,1,1.4,2.89,2.89,0,0,0,2,.7h2.8a2.87,2.87,0,0,0,2.8-2.8Zm-63.22-28.53,21.4-55.11,21.4,55.11ZM46,47.25A155.61,155.61,0,0,1,129.36,3.8V24.16a136.66,136.66,0,0,0,0,267.81v20.37A156.64,156.64,0,0,1,46,47.25Zm241.9,149.42q-.44,1.5-.92,3C287.26,198.66,287.56,197.67,287.86,196.67Zm-1.56,4.94c-.23.69-.47,1.37-.71,2C285.82,203,286.06,202.3,286.29,201.61Zm2.73-9.17q-.32,1.24-.67,2.47Q288.7,193.69,289,192.44Zm-5,15.44.53-1.38Zm7.42-26.62q.33-1.93.61-3.88C291.86,178.68,291.65,180,291.43,181.26Zm-.35,2q-.27,1.46-.58,2.91.38-1.81.71-3.64c0,.24-.08.49-.13.73Zm1.09-6.79c.19-1.43.37-2.87.52-4.32C292.53,173.6,292.35,175,292.16,176.48ZM183.36,3.68V24A136.68,136.68,0,0,1,292.12,176.84c0-.12,0-.24,0-.36,0,.3-.08.6-.12.9l0-.19q-.43,3.05-1,6.06h0q-.29,1.53-.61,3.06l0-.15c-.1.47-.2.94-.31,1.41,0-.22.1-.44.15-.66q-.94,4.39-2.17,8.66c.06-.22.12-.44.18-.67-.16.59-.33,1.17-.5,1.75l.08-.27c-.41,1.41-.84,2.81-1.29,4.19.1-.31.19-.63.29-.95q-.32,1-.65,2c.11-.32.23-.64.33-1-.44,1.33-.9,2.66-1.38,4,.11-.32.22-.64.33-1q-.51,1.43-1,2.84c.12-.3.24-.6.35-.91-.49,1.33-1,2.66-1.54,4,.23-.55.43-1.12.65-1.68a136.94,136.94,0,0,1-100.64,84.2v20.37a156.64,156.64,0,0,0,84.25-265A155.58,155.58,0,0,0,183.36,3.68Zm84.45,234a136.85,136.85,0,0,0,8.68-13.76A136.67,136.67,0,0,1,267.81,237.67Zm23.62-56.41q-.11.63-.22,1.27Q291.32,181.9,291.43,181.26Zm-1.89,9.11q.34-1.39.65-2.8Q289.88,189,289.54,190.38Zm-.52,2.07q.27-1,.52-2.07Q289.29,191.41,289,192.44ZM146.36,0h20V316.54h-20ZM242,243.38a119.91,119.91,0,0,1-58.65,32.37V40.22A120.74,120.74,0,0,1,242,243.38Zm51.4-85.23v0c0,1.13,0,2.26,0,3.38Q293.41,159.86,293.41,158.15Z"/></g></g></svg>