<?xml version="1.0" encoding="utf-8"?>
<!-- Generator: Adobe Illustrator 21.0.2, SVG Export Plug-In . SVG Version: 6.00 Build 0)  -->
<svg version="1.1" id="Layer_1" xmlns="http://www.w3.org/2000/svg" xmlns:xlink="http://www.w3.org/1999/xlink" x="0px" y="0px"
	 viewBox="0 0 1331.4 316.5" style="enable-background:new 0 0 1331.4 316.5;" xml:space="preserve">
<style type="text/css">
	.st0{fill:#FFFFFF;}
</style>
<title>DTDM-2</title>
<g>
	<path class="st0" d="M474.1,172.1c-0.6-0.6-1.4-0.9-2.3-0.8h-2.7c-0.1,0-0.3,0-0.4,0c-1.6,0.1-2.8,1.5-2.7,3.1v91.8
		c0,0.1,0,0.3,0,0.4c0.1,1.6,1.5,2.8,3.1,2.7h2.7c0.1,0,0.3,0,0.4,0c1.6-0.1,2.8-1.5,2.7-3.1v-91.8
		C475,173.5,474.7,172.7,474.1,172.1L474.1,172.1z"/>
	<path class="st0" d="M400.5,37.3h-34.1c-0.9,0-1.8,0.3-2.5,1c-0.6,0.7-0.9,1.6-0.9,2.5v91.1c0,1.8,1.5,3.3,3.3,3.4c0,0,0,0,0,0
		h34.8c13.9,0,24.2-3.1,30.8-9.3c6.7-6.2,10.2-15.8,10.6-28.9c0.2-5.4,0.3-9,0.3-10.8c0-1.8-0.1-5.4-0.3-10.9
		C442,50,428,37.3,400.5,37.3z M422.7,96.6L422.7,96.6c-0.2,8-2,13.7-5.5,17.2c-3.5,3.5-9,5.2-16.8,5.2h-17.8V53.5h17.1
		c7.8,0,13.6,1.8,17.2,5.4c3.6,3.6,5.5,9.2,5.7,16.8c0.2,5.4,0.3,8.9,0.3,10.3C423,87.6,422.9,91.1,422.7,96.6z"/>
	<path class="st0" d="M1085.2,261.6c-0.7-0.6-1.5-0.9-2.4-0.8h-49.9v-37.1h45.7c0.9,0,1.7-0.3,2.3-0.8c0.6-0.6,0.9-1.4,0.9-2.2v-2.1
		c0-0.2,0-0.4,0-0.6c-0.2-1.6-1.6-2.8-3.2-2.6h-45.7v-35.7h48.8c0.8,0,1.7-0.3,2.3-0.8c0.6-0.6,0.9-1.4,0.9-2.2v-2.1
		c0-0.2,0-0.4,0-0.6c-0.2-1.6-1.6-2.8-3.2-2.6h-54.6c-0.8,0-1.7,0.3-2.2,0.9c-0.6,0.6-0.9,1.5-0.8,2.3v91.6c0,0.1,0,0.3,0,0.4
		c0.1,1.6,1.5,2.8,3.1,2.7h55.7c0.8,0,1.7-0.3,2.3-0.8c0.6-0.6,0.9-1.4,0.9-2.2V264C1086.1,263.1,1085.8,262.3,1085.2,261.6
		L1085.2,261.6z"/>
	<path class="st0" d="M614.9,172.1c-0.6-0.6-1.4-0.9-2.3-0.8H610c-0.1,0-0.3,0-0.4,0c-1.6,0.1-2.8,1.5-2.7,3.1v91.8
		c0,0.1,0,0.3,0,0.4c0.1,1.6,1.5,2.8,3.1,2.7h2.7c0.1,0,0.3,0,0.4,0c1.6-0.1,2.8-1.5,2.7-3.1v-91.8
		C615.8,173.5,615.5,172.7,614.9,172.1L614.9,172.1z"/>
	<path class="st0" d="M578.3,218.1c-0.6-0.6-1.5-0.9-2.4-0.9H546c-0.8,0-1.7,0.3-2.2,0.9c-0.6,0.6-0.9,1.5-0.8,2.3v2
		c0,0.8,0.3,1.7,0.8,2.3c0.6,0.6,1.4,0.9,2.2,0.9h24.4v7.1c0,9.7-2.7,17.1-8,22s-12.3,7.4-21,7.4c-8.7,0-15.5-2.4-20.5-7.1
		s-7.6-12.2-8-22.2c-0.1-2.8-0.1-7-0.1-12.6c0-5.6,0-9.8,0.1-12.6c0.3-10.1,3-17.5,8-22.2c5-4.8,11.8-7.1,20.5-7.1
		c7.6,0,13.7,1.7,18.2,5c4.3,3.1,7.5,7.4,9.2,12.4c0.2,0.8,0.6,1.6,1.1,2.2c0.5,0.4,1.2,0.6,1.8,0.6h3.1c0.8,0,1.5-0.2,2.1-0.7
		c0.5-0.4,0.9-1.1,0.8-1.8v-0.3c-0.2-3.2-1.6-6.8-4.3-10.8c-2.7-4.1-6.7-7.6-12.1-10.6c-5.4-3-12.1-4.5-20-4.5
		c-11.7,0-20.7,3.3-27.1,10.1c-6.4,6.7-9.8,15.7-10.2,27c-0.1,2.8-0.1,7.2-0.1,13.3s0,10.5,0.1,13.3c0.4,11.3,3.8,20.3,10.2,27
		c6.4,6.7,15.5,10.1,27.1,10.1c7.8,0,14.6-1.6,20.3-4.8c5.6-3,10.1-7.7,13-13.3c3.1-6.1,4.6-12.9,4.5-19.7v-12.3
		C579.2,219.6,578.9,218.7,578.3,218.1L578.3,218.1z"/>
	<path class="st0" d="M523.9,134.1c1,0.7,2.3,1.1,3.5,1h12.9c0.7,0,1.5-0.3,2-0.8c0.6-0.5,0.9-1.3,0.9-2.1c0-0.5-0.2-1.1-0.4-1.5
		L522.5,95c5.5-1.8,10.3-5.3,13.7-10c3.3-4.6,4.9-10.3,4.9-17.1c0-9.8-3.2-17.3-9.7-22.7c-6.5-5.3-15.5-8-26.9-8h-36.2
		c-0.9,0-1.8,0.3-2.5,1c-0.6,0.7-0.9,1.6-0.9,2.5v91.1c0,1.8,1.5,3.3,3.3,3.4c0,0,0,0,0,0h12.9c0.9,0,1.9-0.3,2.5-1
		c0.6-0.6,1-1.5,1-2.4V98.2h19.2l17.9,33.1C522.2,132.4,523,133.4,523.9,134.1z M516.6,78.6c-2.8,2.5-7,3.7-12.6,3.7h-19.4V52.9H504
		c5.6,0,9.8,1.3,12.6,3.8c2.8,2.6,4.2,6.2,4.2,11C520.8,72.5,519.4,76.1,516.6,78.6z"/>
	<path class="st0" d="M664.4,98.9c0.5,11.8,4.3,21.1,11.4,27.7c7.1,6.6,17.1,9.9,30,9.9c8.5,0,15.9-1.5,22.2-4.6
		c6.1-2.9,11.2-7.5,14.7-13.2c3.6-6.1,5.3-13.1,5.2-20.2V83.7c0-0.9-0.4-1.8-1-2.4c-0.7-0.7-1.6-1-2.5-1h-33.6c0,0,0,0,0,0
		c-1.8,0-3.3,1.5-3.3,3.4v7.7c0,0,0,0,0,0c0,1.8,1.5,3.3,3.4,3.3h17.1V99c0,7.1-2,12.4-6,16c-4,3.5-9.3,5.3-16,5.3
		c-6.5,0-11.7-1.8-15.4-5.4c-3.7-3.6-5.7-9.2-5.9-16.7c-0.1-2.7-0.1-6.8-0.1-12.3s0-9.6,0.1-12.3c0.2-7.4,2.1-12.8,5.8-16.3
		c3.7-3.5,8.8-5.2,15.3-5.2c5.6,0,10,1.2,13.3,3.6c3.1,2.2,5.5,5.3,6.8,8.8c0.3,0.7,0.7,1.3,1.3,1.8c0.6,0.4,1.4,0.6,2.1,0.6h14.6
		c0.8,0,1.6-0.3,2.2-0.8c0.6-0.6,0.9-1.3,0.8-2.1c-0.2-4.2-1.8-8.5-5-12.8c-3.2-4.3-7.9-8-14.1-10.9s-13.6-4.4-22.2-4.4
		c-12.7,0-22.7,3.3-29.9,9.9c-7.3,6.6-11.1,15.7-11.5,27.2c-0.1,2.7-0.1,7-0.1,13S664.3,96.2,664.4,98.9L664.4,98.9z"/>
	<path class="st0" d="M1254,134.2c0.6,0.6,1.5,1,2.4,1h62.8c0.9,0,1.8-0.3,2.5-0.9c0.7-0.6,1-1.5,1-2.5v-9.5c0-0.9-0.3-1.8-1-2.5
		c-0.7-0.6-1.6-0.9-2.5-0.9h-47V93.6h42.8c0.9,0,1.8-0.3,2.5-0.9c0.7-0.6,1-1.5,1-2.5v-8.8c0-0.1,0-0.2,0-0.3
		c-0.1-1.9-1.6-3.3-3.5-3.2h-42.8V53.5h45.8c0.9,0,1.8-0.3,2.5-0.9c0.7-0.6,1-1.5,1-2.5v-9.4c0-0.1,0-0.2,0-0.3
		c-0.1-1.8-1.7-3.3-3.5-3.2h-61.7c-0.9,0-1.8,0.3-2.4,1c-0.6,0.7-0.9,1.6-0.9,2.5v91C1253,132.7,1253.4,133.6,1254,134.2L1254,134.2
		z"/>
	<path class="st0" d="M433.2,188c-2.4-5.5-6.6-9.9-12-12.5c-5.6-2.8-13.3-4.3-23-4.3h-29.9c-0.8,0-1.7,0.3-2.2,0.9
		c-0.5,0.7-0.8,1.5-0.8,2.3v91.6c-0.1,1.6,1.1,3,2.7,3.1c0.1,0,0.3,0,0.4,0h30.5c9.5,0,17-1.4,22.5-4.1c5.3-2.5,9.5-6.9,11.8-12.2
		c2.4-5.5,3.7-12.7,3.8-21.6c0.1-2.8,0.1-6.5,0.1-11.2c0-4.7,0-8.3-0.1-11C436.8,200.6,435.5,193.6,433.2,188z M428.2,230.6
		L428.2,230.6c-0.2,7.4-1.3,13.3-3.2,17.7c-1.8,4.2-5.1,7.6-9.3,9.5c-4.3,2-10.2,3-17.6,3h-24v-81.1h23.4c10.9,0,18.7,2.4,23.4,7.2
		s7.2,12.4,7.3,22.9c0.1,2.8,0.1,6.2,0.1,10.3C428.3,224.2,428.3,227.7,428.2,230.6z"/>
	<path class="st0" d="M1123.6,134.1L1123.6,134.1c1,0.7,2.3,1.1,3.5,1h12.9c0.7,0,1.5-0.3,2-0.8c0.6-0.5,0.9-1.3,0.9-2.1
		c0-0.5-0.2-1.1-0.4-1.5L1122.2,95c5.5-1.8,10.3-5.3,13.7-10c3.3-4.6,4.9-10.3,4.9-17.1c0-9.8-3.2-17.3-9.7-22.7
		c-6.5-5.3-15.5-8-26.9-8h-36.2c-0.9,0-1.8,0.3-2.4,1c-0.6,0.7-0.9,1.6-0.9,2.5v91.1c0,1.8,1.5,3.3,3.3,3.4c0,0,0,0,0,0h12.9
		c0.9,0,1.9-0.3,2.5-1c0.6-0.6,1-1.5,1-2.4V98.2h19.2l17.9,33.1C1122,132.4,1122.7,133.4,1123.6,134.1z M1116.3,78.6
		c-2.8,2.5-7,3.7-12.6,3.7h-19.4V52.9h19.4c5.6,0,9.8,1.3,12.6,3.8s4.2,6.2,4.2,11C1120.5,72.5,1119.1,76.1,1116.3,78.6z"/>
	<path class="st0" d="M1042.2,54.8c0.1,0,0.2,0,0.3,0c1.8-0.1,3.3-1.7,3.2-3.5V40.7c0-0.1,0-0.2,0-0.3c-0.1-1.8-1.7-3.3-3.5-3.2
		h-71.5c-0.9,0-1.8,0.3-2.5,1c-0.6,0.7-0.9,1.6-0.9,2.5v10.5c0,0.9,0.3,1.9,1,2.5c0.6,0.6,1.5,1,2.4,1h25.9v77.1c0,0,0,0,0,0
		c0,1.8,1.5,3.3,3.4,3.3h13.1c0.9,0,1.8-0.3,2.5-1c0.6-0.6,0.9-1.5,0.9-2.4V54.8H1042.2L1042.2,54.8z"/>
	<path class="st0" d="M1331.4,264.8l-35.4-90.8c-0.6-1.7-2.2-2.9-4.1-2.8h-4.7c-1.8-0.1-3.5,1.1-4.1,2.8l-35.4,90.8l-0.3,1.5
		c0,1.5,1.3,2.8,2.8,2.8h2.8c0.7,0,1.4-0.2,2-0.7c0.4-0.4,0.8-0.9,1-1.4l8.7-22.4h49.5l8.7,22.4c0.2,0.5,0.6,1,1,1.4
		c0.6,0.5,1.3,0.7,2,0.7h2.8c1.5,0,2.8-1.3,2.8-2.8L1331.4,264.8z M1268.2,236.3l21.4-55.1l21.4,55.1H1268.2z"/>
	<path class="st0" d="M849,98.2L849,98.2c0.2-5.4,0.3-9.4,0.3-11.9c0-2.5-0.1-6.5-0.3-12c-0.4-12.4-4.2-21.9-11.5-28.5
		c-7.3-6.6-17.1-9.9-29.4-9.9c-12.4,0-22.2,3.3-29.5,9.9c-7.3,6.6-11.1,16.1-11.5,28.5c-0.1,2.7-0.1,6.7-0.1,12
		c0,5.3,0,9.3,0.1,11.9c0.4,12.7,4.1,22.2,11.2,28.7c7.1,6.4,17,9.7,29.8,9.7c12.7,0,22.6-3.2,29.7-9.7S848.6,110.9,849,98.2z
		 M828.7,97.5c-0.3,7.7-2.2,13.5-5.9,17.2s-8.6,5.6-14.8,5.6c-6.2,0-11.2-1.9-14.9-5.7c-3.7-3.8-5.6-9.5-5.8-17.1
		c-0.1-2.8-0.1-6.6-0.1-11.3c0-4.8,0-8.5,0.1-11.3c0.2-7.6,2.1-13.4,5.9-17.1c3.7-3.8,8.7-5.7,14.8-5.7c6.1,0,11,1.9,14.7,5.7
		c3.7,3.8,5.7,9.5,6,17.1c0.2,5.4,0.3,9.2,0.3,11.3C829,88.2,828.9,91.9,828.7,97.5z"/>
	<path class="st0" d="M883.6,261.6c-0.6-0.6-1.5-0.9-2.3-0.8H833v-86.4c0-0.1,0-0.3,0-0.4c-0.1-1.6-1.5-2.8-3.1-2.7h-2.7
		c-0.1,0-0.3,0-0.4,0c-1.6,0.1-2.8,1.5-2.7,3.1v91.8c0,0.1,0,0.3,0,0.4c0.1,1.6,1.5,2.8,3.1,2.7h53.9c0.8,0,1.7-0.3,2.3-0.8
		c0.6-0.6,0.9-1.4,0.9-2.2V264C884.5,263.1,884.2,262.3,883.6,261.6L883.6,261.6z"/>
	<path class="st0" d="M1228.7,119h-47V93.6h42.8c0.9,0,1.8-0.3,2.5-0.9c0.7-0.6,1-1.5,1-2.5v-8.8c0-0.1,0-0.2,0-0.3
		c-0.1-1.9-1.6-3.3-3.5-3.2h-42.8V53.5h45.9c0.9,0,1.8-0.3,2.5-0.9c0.7-0.6,1-1.5,1-2.5v-9.4c0-0.1,0-0.2,0-0.3
		c-0.1-1.8-1.7-3.3-3.5-3.2H1166c-0.9,0-1.8,0.3-2.4,1c-0.6,0.7-0.9,1.6-0.9,2.5v91c0,0,0,0,0,0c0,1.8,1.5,3.3,3.4,3.3h62.8
		c0.9,0,1.8-0.3,2.5-0.9c0.7-0.6,1-1.5,1-2.5v-9.5c0-0.9-0.3-1.8-1-2.5C1230.6,119.2,1229.7,118.9,1228.7,119z"/>
	<path class="st0" d="M989,171.3h-3.4c-1.3,0-2.4,0.7-2.9,1.8l-31.9,61.8L919,173.1c-0.5-1.2-1.7-1.9-2.9-1.8h-3.5
		c-0.8,0-1.7,0.3-2.3,0.8c-0.6,0.6-1,1.5-0.9,2.4v91.6c0,0.8,0.3,1.7,0.9,2.2c0.6,0.6,1.5,0.9,2.3,0.8h2.5c0.1,0,0.3,0,0.4,0
		c1.6-0.1,2.8-1.5,2.7-3.1v-75.8l26.8,52.6c0.7,1.8,2.4,2.9,4.3,2.8h3c1.9,0.1,3.6-1,4.3-2.8l26.7-52.6v75.8c0,0.1,0,0.3,0,0.4
		c0.1,1.6,1.5,2.8,3.1,2.7h2.5c0.8,0,1.7-0.3,2.3-0.8c0.6-0.6,0.9-1.4,0.9-2.2v-91.6c0.1-0.9-0.2-1.7-0.8-2.4
		C990.7,171.5,989.9,171.2,989,171.3z"/>
	<path class="st0" d="M1180.8,188L1180.8,188c-2.4-5.5-6.6-9.9-12-12.5c-5.6-2.8-13.3-4.3-23-4.3H1116c-0.8,0-1.7,0.3-2.2,0.9
		c-0.6,0.6-0.9,1.5-0.8,2.3v91.6c-0.1,1.6,1.1,3,2.7,3.1c0.1,0,0.3,0,0.4,0h30.5c9.5,0,17-1.4,22.5-4.1c5.3-2.5,9.5-6.9,11.8-12.2
		c2.4-5.5,3.7-12.7,3.8-21.6c0.1-2.8,0.1-6.5,0.1-11.2c0-4.7,0-8.3-0.1-11C1184.5,200.6,1183.2,193.6,1180.8,188z M1175.9,230.6
		L1175.9,230.6c-0.2,7.5-1.3,13.4-3.2,17.7c-1.8,4.2-5.1,7.6-9.3,9.5c-4.3,2-10.2,3-17.6,3h-24.1v-81.1h23.4
		c10.9,0,18.7,2.4,23.4,7.2c4.7,4.8,7.2,12.4,7.3,22.9c0.1,2.8,0.1,6.2,0.1,10.3C1176,224.2,1175.9,227.7,1175.9,230.6z"/>
	<path class="st0" d="M929.9,132.8c0.8,1.5,2.5,2.4,4.2,2.3h11c0.9,0,1.8-0.4,2.4-1c0.7-0.7,1-1.6,1-2.5V40.7c0-0.1,0-0.2,0-0.3
		c-0.1-1.8-1.7-3.3-3.5-3.2h-12c-0.9,0-1.8,0.3-2.5,1c-0.6,0.7-0.9,1.6-0.9,2.5v61l-40-62.1c-0.8-1.5-2.4-2.4-4.1-2.4h-10.9
		c-0.9,0-1.8,0.3-2.5,1c-0.6,0.7-0.9,1.6-0.9,2.5v91c0,0,0,0,0,0c0,1.8,1.5,3.3,3.4,3.3h12c0.9,0,1.8-0.3,2.5-1
		c0.6-0.6,0.9-1.5,0.9-2.4V72.1L929.9,132.8L929.9,132.8z"/>
	<path class="st0" d="M763.5,174.1c-0.6-1.7-2.2-2.9-4.1-2.8h-4.8c-1.8-0.1-3.5,1.1-4.1,2.8l-35.3,90.7l-0.3,1.5
		c0,1.5,1.3,2.8,2.8,2.8h2.8c0.7,0,1.4-0.2,2-0.7c0.4-0.4,0.8-0.9,1-1.4l8.7-22.4h49.5l8.7,22.4c0.2,0.5,0.6,1,1,1.4
		c0.6,0.5,1.3,0.7,2,0.7h2.8c1.5,0,2.8-1.3,2.8-2.8l-0.3-1.5L763.5,174.1z M735.7,236.3l21.4-55.1l21.4,55.1H735.7z"/>
	<path class="st0" d="M651.1,134.3c0.6-0.5,0.9-1.3,0.9-2.1l-0.3-1.3l-33.6-90.2c-0.7-2.2-2.7-3.6-5-3.5h-15.4
		c-2.3-0.1-4.3,1.3-5,3.5L559.2,131l-0.3,1.3c0,1.6,1.2,2.9,2.8,2.9c0,0,0.1,0,0.1,0h12.5c1.8,0.1,3.4-1,4-2.7l6.4-16.9h41.4
		l6.5,16.9c0.6,1.7,2.3,2.8,4.1,2.7h12.5C649.8,135.2,650.6,134.9,651.1,134.3z M589.6,99.3l15.8-43.1l15.8,43.1H589.6z"/>
	<path class="st0" d="M710.4,172.1c-0.6-0.6-1.5-0.9-2.4-0.8h-64.1c-0.8,0-1.7,0.3-2.2,0.9c-0.6,0.6-0.9,1.5-0.8,2.3v2.1
		c0,0.1,0,0.3,0,0.4c0.1,1.6,1.5,2.8,3.1,2.7h27.7v86.4c0,0.1,0,0.3,0,0.4c0.1,1.6,1.5,2.8,3.1,2.7h2.5c0.8,0,1.7-0.3,2.3-0.8
		c0.6-0.6,0.9-1.4,0.9-2.2v-86.4H708c0.8,0,1.7-0.3,2.3-0.8c0.6-0.6,0.9-1.4,0.9-2.2v-2.1C711.2,173.6,710.9,172.7,710.4,172.1
		L710.4,172.1z"/>
	<path class="st0" d="M1221.8,172.1c-0.6-0.6-1.4-0.9-2.3-0.8h-2.7c-0.1,0-0.3,0-0.4,0c-1.6,0.1-2.8,1.5-2.7,3.1v91.8
		c0,0.1,0,0.3,0,0.4c0.1,1.6,1.5,2.8,3.1,2.7h2.7c0.1,0,0.3,0,0.4,0c1.6-0.1,2.8-1.5,2.7-3.1v-91.8
		C1222.6,173.5,1222.3,172.7,1221.8,172.1L1221.8,172.1z"/>
	<path class="st0" d="M239.7,241c22.2-22.2,34.3-51.8,34-83.2c-0.3-30-12.3-58.9-33.4-80.3c-22-22.3-51.4-34.6-82.6-34.6
		c-0.4,0.4-0.6,0.6-1,1v230c0.4,0.4,0.6,0.6,1,1C188.7,275,217.8,262.9,239.7,241z"/>
	<path class="st0" d="M157.7,1c-0.6,0-1,0.5-1,1v20c0.3,0,0.7,0,1,0c36.6,0,71,14.3,96.9,40.1c25.9,25.9,40.1,60.3,40.1,96.9
		c0,36.3-14.5,71.2-40.1,96.9c-25.9,25.9-60.3,40.1-96.9,40.1c-0.3,0-0.7,0-1,0v20c0,0.6,0.5,1,1,1c86.8-0.5,157-71.1,157-158
		S244.5,1.5,157.7,1z"/>
	<path class="st0" d="M128.7,25.1c0.5-0.1,0.9-0.6,0.8-1.1c-0.6-3.9-3.1-18.8-4.4-18.6C95.3,11.5,67.9,26.3,46.3,48
		c-22.8,22.7-38,51.9-43.6,83.5c-14.8,83.7,39.7,163.6,122.4,180.7c1.3,0.3,3.7-14.7,4.4-18.6c0.1-0.5-0.3-1-0.8-1.1
		c-53.2-11.2-94.8-53-105.7-106.4C8,112.4,55.3,40.6,128.7,25.1z"/>
	<path class="st0" d="M290.4,188.2c0-0.1,0-0.1,0-0.2c0-0.1,0-0.2,0.1-0.3C290.5,187.9,290.4,188,290.4,188.2z"/>
</g>
</svg>
