<?xml version="1.0" encoding="utf-8"?>
<!-- Generator: Adobe Illustrator 21.0.2, SVG Export Plug-In . SVG Version: 6.00 Build 0)  -->
<svg version="1.1" id="Layer_1" xmlns="http://www.w3.org/2000/svg" xmlns:xlink="http://www.w3.org/1999/xlink" x="0px" y="0px"
	 viewBox="0 0 930 220" style="enable-background:new 0 0 930 220;" xml:space="preserve">
<style type="text/css">
	.st0{fill:#FFFFFF;}
</style>
<title>DTDM-2</title>
<g>
	<path class="st0" d="M330,118.9c-0.4-0.4-1-0.6-1.6-0.6h-1.9c-0.1,0-0.2,0-0.3,0c-1.1,0.1-1.9,1-1.9,2.2v63.9c0,0.1,0,0.2,0,0.3
		c0.1,1.1,1,1.9,2.2,1.9h1.9c0.1,0,0.2,0,0.3,0c1.1-0.1,1.9-1,1.9-2.2v-63.9C330.6,119.9,330.4,119.3,330,118.9L330,118.9z"/>
	<path class="st0" d="M278.7,25.1H255c-0.6,0-1.3,0.2-1.7,0.7c-0.4,0.5-0.6,1.1-0.6,1.7v63.4c0,1.3,1,2.3,2.3,2.4l0,0h24.2
		c9.7,0,16.8-2.2,21.4-6.5c4.7-4.3,7.1-11,7.4-20.1c0.1-3.8,0.2-6.3,0.2-7.5c0-1.3-0.1-3.8-0.2-7.6
		C307.6,33.9,297.9,25.1,278.7,25.1z M294.2,66.3L294.2,66.3c-0.1,5.6-1.4,9.5-3.8,12c-2.4,2.4-6.3,3.6-11.7,3.6h-12.4V36.3h11.9
		c5.4,0,9.5,1.3,12,3.8c2.5,2.5,3.8,6.4,4,11.7c0.1,3.8,0.2,6.2,0.2,7.2C294.4,60.1,294.3,62.5,294.2,66.3z"/>
	<path class="st0" d="M755.4,181.2c-0.5-0.4-1-0.6-1.7-0.6H719v-25.8h31.8c0.6,0,1.2-0.2,1.6-0.6c0.4-0.4,0.6-1,0.6-1.5v-1.5
		c0-0.1,0-0.3,0-0.4c-0.1-1.1-1.1-1.9-2.2-1.8H719v-24.9h34c0.6,0,1.2-0.2,1.6-0.6c0.4-0.4,0.6-1,0.6-1.5v-1.5c0-0.1,0-0.3,0-0.4
		c-0.1-1.1-1.1-1.9-2.2-1.8h-38c-0.6,0-1.2,0.2-1.5,0.6c-0.4,0.4-0.6,1-0.6,1.6v63.8c0,0.1,0,0.2,0,0.3c0.1,1.1,1,1.9,2.2,1.9h38.8
		c0.6,0,1.2-0.2,1.6-0.6c0.4-0.4,0.6-1,0.6-1.5v-1.6C756.1,182.3,755.9,181.7,755.4,181.2L755.4,181.2z"/>
	<path class="st0" d="M428,118.9c-0.4-0.4-1-0.6-1.6-0.6h-1.8c-0.1,0-0.2,0-0.3,0c-1.1,0.1-1.9,1-1.9,2.2v63.9c0,0.1,0,0.2,0,0.3
		c0.1,1.1,1,1.9,2.2,1.9h1.9c0.1,0,0.2,0,0.3,0c1.1-0.1,1.9-1,1.9-2.2v-63.9C428.6,119.9,428.4,119.3,428,118.9L428,118.9z"/>
	<path class="st0" d="M402.5,150.9c-0.4-0.4-1-0.6-1.7-0.6H380c-0.6,0-1.2,0.2-1.5,0.6c-0.4,0.4-0.6,1-0.6,1.6v1.4
		c0,0.6,0.2,1.2,0.6,1.6c0.4,0.4,1,0.6,1.5,0.6h17v4.9c0,6.8-1.9,11.9-5.6,15.3c-3.7,3.4-8.6,5.2-14.6,5.2c-6.1,0-10.8-1.7-14.3-4.9
		s-5.3-8.5-5.6-15.5c-0.1-1.9-0.1-4.9-0.1-8.8s0-6.8,0.1-8.8c0.2-7,2.1-12.2,5.6-15.5c3.5-3.3,8.2-4.9,14.3-4.9
		c5.3,0,9.5,1.2,12.7,3.5c3,2.2,5.2,5.2,6.4,8.6c0.1,0.6,0.4,1.1,0.8,1.5c0.3,0.3,0.8,0.4,1.3,0.4h2.2c0.6,0,1-0.1,1.5-0.5
		c0.3-0.3,0.6-0.8,0.6-1.3v-0.2c-0.1-2.2-1.1-4.7-3-7.5c-1.9-2.9-4.7-5.3-8.4-7.4c-3.8-2.1-8.4-3.1-13.9-3.1c-8.1,0-14.4,2.3-18.9,7
		c-4.5,4.7-6.8,10.9-7.1,18.8c-0.1,1.9-0.1,5-0.1,9.3s0,7.3,0.1,9.3c0.3,7.9,2.6,14.1,7.1,18.8c4.5,4.7,10.8,7,18.9,7
		c5.4,0,10.2-1.1,14.1-3.3c3.9-2.1,7-5.4,9.1-9.3c2.2-4.2,3.2-9,3.1-13.7v-8.6C403.1,152,402.9,151.4,402.5,150.9L402.5,150.9z"/>
	<path class="st0" d="M364.6,92.5c0.7,0.5,1.6,0.8,2.4,0.7h9c0.5,0,1-0.2,1.4-0.6c0.4-0.3,0.6-0.9,0.6-1.5c0-0.3-0.1-0.8-0.3-1
		l-14.1-24.9c3.8-1.3,7.2-3.7,9.5-7c2.3-3.2,3.4-7.2,3.4-11.9c0-6.8-2.2-12-6.8-15.8c-4.5-3.7-10.8-5.6-18.7-5.6h-25.2
		c-0.6,0-1.3,0.2-1.7,0.7c-0.4,0.5-0.6,1.1-0.6,1.7v63.4c0,1.3,1,2.3,2.3,2.4l0,0h9c0.6,0,1.3-0.2,1.7-0.7c0.4-0.4,0.7-1,0.7-1.7
		V67.5h13.4l12.5,23C363.4,91.3,364,92,364.6,92.5z M359.5,53.8c-1.9,1.7-4.9,2.6-8.8,2.6h-13.5V35.9h13.5c3.9,0,6.8,0.9,8.8,2.6
		c1.9,1.8,2.9,4.3,2.9,7.7C362.5,49.6,361.5,52.1,359.5,53.8z"/>
	<path class="st0" d="M462.5,67.9c0.3,8.2,3,14.7,7.9,19.3c4.9,4.6,11.9,6.9,20.9,6.9c5.9,0,11.1-1,15.5-3.2c4.2-2,7.8-5.2,10.2-9.2
		c2.5-4.2,3.7-9.1,3.6-14.1V57.4c0-0.6-0.3-1.3-0.7-1.7c-0.5-0.5-1.1-0.7-1.7-0.7h-23.4l0,0c-1.3,0-2.3,1-2.3,2.4v5.4l0,0
		c0,1.3,1,2.3,2.4,2.3h11.9v3c0,4.9-1.4,8.6-4.2,11.1c-2.8,2.4-6.5,3.7-11.1,3.7c-4.5,0-8.1-1.3-10.7-3.8c-2.6-2.5-4-6.4-4.1-11.6
		c-0.1-1.9-0.1-4.7-0.1-8.6s0-6.7,0.1-8.6c0.1-5.2,1.5-8.9,4-11.3c2.6-2.4,6.1-3.6,10.7-3.6c3.9,0,7,0.8,9.3,2.5
		c2.2,1.5,3.8,3.7,4.7,6.1c0.2,0.5,0.5,0.9,0.9,1.3c0.4,0.3,1,0.4,1.5,0.4h10.2c0.6,0,1.1-0.2,1.5-0.6c0.4-0.4,0.6-0.9,0.6-1.5
		c-0.1-2.9-1.3-5.9-3.5-8.9s-5.5-5.6-9.8-7.6c-4.3-2-9.5-3.1-15.5-3.1c-8.8,0-15.8,2.3-20.8,6.9c-5.1,4.6-7.7,10.9-8,18.9
		c-0.1,1.9-0.1,4.9-0.1,9.1S462.4,66.1,462.5,67.9L462.5,67.9z"/>
	<path class="st0" d="M873,92.5c0.4,0.4,1,0.7,1.7,0.7h43.7c0.6,0,1.3-0.2,1.7-0.6c0.5-0.4,0.7-1,0.7-1.7v-6.6
		c0-0.6-0.2-1.3-0.7-1.7c-0.5-0.4-1.1-0.6-1.7-0.6h-32.7V64.3h29.8c0.6,0,1.3-0.2,1.7-0.6c0.5-0.4,0.7-1,0.7-1.7v-6.1
		c0-0.1,0-0.1,0-0.2c-0.1-1.3-1.1-2.3-2.4-2.2h-29.8v-17h31.9c0.6,0,1.3-0.2,1.7-0.6c0.5-0.4,0.7-1,0.7-1.7v-6.5c0-0.1,0-0.1,0-0.2
		c-0.1-1.3-1.2-2.3-2.4-2.2h-43c-0.6,0-1.3,0.2-1.7,0.7s-0.6,1.1-0.6,1.7v63.4C872.3,91.5,872.6,92.1,873,92.5L873,92.5z"/>
	<path class="st0" d="M301.5,130c-1.7-3.8-4.6-6.9-8.4-8.7c-3.9-1.9-9.3-3-16-3h-20.8c-0.6,0-1.2,0.2-1.5,0.6
		c-0.3,0.5-0.6,1-0.6,1.6v63.8c-0.1,1.1,0.8,2.1,1.9,2.2c0.1,0,0.2,0,0.3,0h21.2c6.6,0,11.8-1,15.7-2.9c3.7-1.7,6.6-4.8,8.2-8.5
		c1.7-3.8,2.6-8.8,2.6-15c0.1-1.9,0.1-4.5,0.1-7.8c0-3.3,0-5.8-0.1-7.7C304,138.8,303.1,133.9,301.5,130z M298,159.6L298,159.6
		c-0.1,5.2-0.9,9.3-2.2,12.3c-1.3,2.9-3.6,5.3-6.5,6.6c-3,1.4-7.1,2.1-12.3,2.1h-16.7v-56.5h16.3c7.6,0,13,1.7,16.3,5
		s5,8.6,5.1,15.9c0.1,1.9,0.1,4.3,0.1,7.2S298.1,157.6,298,159.6z"/>
	<path class="st0" d="M782.2,92.5L782.2,92.5c0.7,0.5,1.6,0.8,2.4,0.7h9c0.5,0,1-0.2,1.4-0.6c0.4-0.3,0.6-0.9,0.6-1.5
		c0-0.3-0.1-0.8-0.3-1l-14.1-24.9c3.8-1.3,7.2-3.7,9.5-7c2.3-3.2,3.4-7.2,3.4-11.9c0-6.8-2.2-12-6.8-15.8
		c-4.5-3.7-10.8-5.6-18.7-5.6h-25.2c-0.6,0-1.3,0.2-1.7,0.7c-0.4,0.5-0.6,1.1-0.6,1.7v63.4c0,1.3,1,2.3,2.3,2.4l0,0h9
		c0.6,0,1.3-0.2,1.7-0.7c0.4-0.4,0.7-1,0.7-1.7V67.5h13.4l12.5,23C781.1,91.3,781.5,92,782.2,92.5z M777.1,53.8
		c-1.9,1.7-4.9,2.6-8.8,2.6h-13.5V35.9h13.5c3.9,0,6.8,0.9,8.8,2.6s2.9,4.3,2.9,7.7C780,49.6,779,52.1,777.1,53.8z"/>
	<path class="st0" d="M725.5,37.2c0.1,0,0.1,0,0.2,0c1.3-0.1,2.3-1.2,2.2-2.4v-7.4c0-0.1,0-0.1,0-0.2c-0.1-1.3-1.2-2.3-2.4-2.2
		h-49.8c-0.6,0-1.3,0.2-1.7,0.7c-0.4,0.5-0.6,1.1-0.6,1.7v7.3c0,0.6,0.2,1.3,0.7,1.7c0.4,0.4,1,0.7,1.7,0.7h18v53.7l0,0
		c0,1.3,1,2.3,2.4,2.3h9.1c0.6,0,1.3-0.2,1.7-0.7c0.4-0.4,0.6-1,0.6-1.7V37.2H725.5L725.5,37.2z"/>
	<path class="st0" d="M926.9,183.5l-24.6-63.2c-0.4-1.2-1.5-2-2.9-1.9h-3.3c-1.3-0.1-2.4,0.8-2.9,1.9l-24.6,63.2l-0.2,1
		c0,1,0.9,1.9,1.9,1.9h1.9c0.5,0,1-0.1,1.4-0.5c0.3-0.3,0.6-0.6,0.7-1l6.1-15.6h34.5l6.1,15.6c0.1,0.3,0.4,0.7,0.7,1
		c0.4,0.3,0.9,0.5,1.4,0.5h1.9c1,0,1.9-0.9,1.9-1.9L926.9,183.5z M882.9,163.6l14.9-38.4l14.9,38.4L882.9,163.6L882.9,163.6z"/>
	<path class="st0" d="M591,67.5L591,67.5c0.1-3.8,0.2-6.5,0.2-8.3c0-1.7-0.1-4.5-0.2-8.4c-0.3-8.6-2.9-15.2-8-19.8
		c-5.1-4.6-11.9-6.9-20.5-6.9c-8.6,0-15.5,2.3-20.5,6.9c-5.1,4.6-7.7,11.2-8,19.8c-0.1,1.9-0.1,4.7-0.1,8.4c0,3.7,0,6.5,0.1,8.3
		c0.3,8.8,2.9,15.5,7.8,20c4.9,4.5,11.8,6.8,20.7,6.8c8.8,0,15.7-2.2,20.7-6.8C588.1,82.9,590.7,76.3,591,67.5z M576.8,67
		c-0.2,5.4-1.5,9.4-4.1,12s-6,3.9-10.3,3.9c-4.3,0-7.8-1.3-10.4-4c-2.6-2.6-3.9-6.6-4-11.9c-0.1-1.9-0.1-4.6-0.1-7.9
		c0-3.3,0-5.9,0.1-7.9c0.1-5.3,1.5-9.3,4.1-11.9c2.6-2.6,6.1-4,10.3-4c4.2,0,7.7,1.3,10.2,4c2.6,2.6,4,6.6,4.2,11.9
		c0.1,3.8,0.2,6.4,0.2,7.9C577.1,60.5,577,63.1,576.8,67z"/>
	<path class="st0" d="M615.1,181.2c-0.4-0.4-1-0.6-1.6-0.6h-33.6v-60.2c0-0.1,0-0.2,0-0.3c-0.1-1.1-1-1.9-2.2-1.9h-1.9
		c-0.1,0-0.2,0-0.3,0c-1.1,0.1-1.9,1-1.9,2.2v63.9c0,0.1,0,0.2,0,0.3c0.1,1.1,1,1.9,2.2,1.9h37.5c0.6,0,1.2-0.2,1.6-0.6
		c0.4-0.4,0.6-1,0.6-1.5v-1.6C615.7,182.3,615.5,181.7,615.1,181.2L615.1,181.2z"/>
	<path class="st0" d="M855.4,81.9h-32.7V64.3h29.8c0.6,0,1.3-0.2,1.7-0.6s0.7-1,0.7-1.7v-6.1c0-0.1,0-0.1,0-0.2
		c-0.1-1.3-1.1-2.3-2.4-2.2h-29.8v-17h32c0.6,0,1.3-0.2,1.7-0.6c0.5-0.4,0.7-1,0.7-1.7v-6.5c0-0.1,0-0.1,0-0.2
		c-0.1-1.3-1.2-2.3-2.4-2.2h-42.9c-0.6,0-1.3,0.2-1.7,0.7s-0.6,1.1-0.6,1.7v63.4l0,0c0,1.3,1,2.3,2.4,2.3h43.7
		c0.6,0,1.3-0.2,1.7-0.6c0.5-0.4,0.7-1,0.7-1.7v-6.6c0-0.6-0.2-1.3-0.7-1.7C856.7,82.1,856,81.9,855.4,81.9z"/>
	<path class="st0" d="M688.5,118.4h-2.4c-0.9,0-1.7,0.5-2,1.3l-22.2,43l-22.1-43c-0.3-0.8-1.2-1.3-2-1.3h-2.4
		c-0.6,0-1.2,0.2-1.6,0.6c-0.4,0.4-0.7,1-0.6,1.7v63.8c0,0.6,0.2,1.2,0.6,1.5c0.4,0.4,1,0.6,1.6,0.6h1.7c0.1,0,0.2,0,0.3,0
		c1.1-0.1,1.9-1,1.9-2.2v-52.8l18.7,36.6c0.5,1.3,1.7,2,3,1.9h2.1c1.3,0.1,2.5-0.7,3-1.9l18.6-36.6v52.8c0,0.1,0,0.2,0,0.3
		c0.1,1.1,1,1.9,2.2,1.9h1.7c0.6,0,1.2-0.2,1.6-0.6c0.4-0.4,0.6-1,0.6-1.5v-63.8c0.1-0.6-0.1-1.2-0.6-1.7
		C689.6,118.5,689.1,118.3,688.5,118.4z"/>
	<path class="st0" d="M822,130L822,130c-1.7-3.8-4.6-6.9-8.4-8.7c-3.9-1.9-9.3-3-16-3h-20.7c-0.6,0-1.2,0.2-1.5,0.6
		c-0.4,0.4-0.6,1-0.6,1.6v63.8c-0.1,1.1,0.8,2.1,1.9,2.2c0.1,0,0.2,0,0.3,0h21.2c6.6,0,11.8-1,15.7-2.9c3.7-1.7,6.6-4.8,8.2-8.5
		c1.7-3.8,2.6-8.8,2.6-15c0.1-1.9,0.1-4.5,0.1-7.8c0-3.3,0-5.8-0.1-7.7C824.6,138.8,823.7,133.9,822,130z M818.6,159.6L818.6,159.6
		c-0.1,5.2-0.9,9.3-2.2,12.3c-1.3,2.9-3.6,5.3-6.5,6.6c-3,1.4-7.1,2.1-12.3,2.1h-16.8v-56.5h16.3c7.6,0,13,1.7,16.3,5
		c3.3,3.3,5,8.6,5.1,15.9c0.1,1.9,0.1,4.3,0.1,7.2C818.7,155.2,818.6,157.6,818.6,159.6z"/>
	<path class="st0" d="M647.3,91.5c0.6,1,1.7,1.7,2.9,1.6h7.7c0.6,0,1.3-0.3,1.7-0.7c0.5-0.5,0.7-1.1,0.7-1.7V27.4c0-0.1,0-0.1,0-0.2
		c-0.1-1.3-1.2-2.3-2.4-2.2h-8.4c-0.6,0-1.3,0.2-1.7,0.7c-0.4,0.5-0.6,1.1-0.6,1.7v42.5l-27.9-43.2c-0.6-1-1.7-1.7-2.9-1.7h-7.6
		c-0.6,0-1.3,0.2-1.7,0.7c-0.4,0.5-0.6,1.1-0.6,1.7v63.4l0,0c0,1.3,1,2.3,2.4,2.3h8.4c0.6,0,1.3-0.2,1.7-0.7c0.4-0.4,0.6-1,0.6-1.7
		V49.3L647.3,91.5L647.3,91.5z"/>
	<path class="st0" d="M531.5,120.3c-0.4-1.2-1.5-2-2.9-1.9h-3.3c-1.3-0.1-2.4,0.8-2.9,1.9l-24.6,63.2l-0.2,1c0,1,0.9,1.9,1.9,1.9
		h1.9c0.5,0,1-0.1,1.4-0.5c0.3-0.3,0.6-0.6,0.7-1l6.1-15.6h34.5l6.1,15.6c0.1,0.3,0.4,0.7,0.7,1c0.4,0.3,0.9,0.5,1.4,0.5h1.9
		c1,0,1.9-0.9,1.9-1.9l-0.2-1L531.5,120.3z M512.1,163.6l14.9-38.4l14.9,38.4L512.1,163.6L512.1,163.6z"/>
	<path class="st0" d="M453.2,92.6c0.4-0.3,0.6-0.9,0.6-1.5l-0.2-0.9l-23.4-62.8c-0.5-1.5-1.9-2.5-3.5-2.4H416
		c-1.6-0.1-3,0.9-3.5,2.4l-23.3,62.9l-0.2,0.9c0,1.1,0.8,2,1.9,2h0.1h8.7c1.3,0.1,2.4-0.7,2.8-1.9l4.5-11.8h28.8l4.5,11.8
		c0.4,1.2,1.6,1.9,2.9,1.9h8.7C452.3,93.2,452.8,93,453.2,92.6z M410.4,68.2l11-30l11,30H410.4z"/>
	<path class="st0" d="M494.5,118.9c-0.4-0.4-1-0.6-1.7-0.6h-44.6c-0.6,0-1.2,0.2-1.5,0.6c-0.4,0.4-0.6,1-0.6,1.6v1.5
		c0,0.1,0,0.2,0,0.3c0.1,1.1,1,1.9,2.2,1.9h19.3v60.2c0,0.1,0,0.2,0,0.3c0.1,1.1,1,1.9,2.2,1.9h1.7c0.6,0,1.2-0.2,1.6-0.6
		c0.4-0.4,0.6-1,0.6-1.5v-60.2h19.1c0.6,0,1.2-0.2,1.6-0.6c0.4-0.4,0.6-1,0.6-1.5v-1.5C495,120,494.8,119.3,494.5,118.9L494.5,118.9
		z"/>
	<path class="st0" d="M850.5,118.9c-0.4-0.4-1-0.6-1.6-0.6h-1.9c-0.1,0-0.2,0-0.3,0c-1.1,0.1-1.9,1-1.9,2.2v63.9c0,0.1,0,0.2,0,0.3
		c0.1,1.1,1,1.9,2.2,1.9h1.9c0.1,0,0.2,0,0.3,0c1.1-0.1,1.9-1,1.9-2.2v-63.9C851.1,119.9,850.9,119.3,850.5,118.9L850.5,118.9z"/>
	<path class="st0" d="M202.1,130.1c0-0.1,0-0.1,0-0.1c0-0.1,0-0.1,0.1-0.2C202.1,129.9,202.1,130,202.1,130.1z"/>
	<g>
		<g>
			<path class="st0" d="M110,1.5v11.6c0,0.8,0.7,1.5,1.5,1.5c25.2,0.4,48.9,10.5,66.6,28.6c17.2,17.6,27,41.2,27.3,65.8
				c0.2,25.8-9.7,50.2-27.9,68.4c-17.7,17.7-41,27.6-66,27.9c-0.8,0-1.5,0.7-1.5,1.5v11.6c0,0.8,0.7,1.5,1.5,1.5
				c60.1-0.8,108.5-49.8,108.5-110S171.6,0.8,111.5,0C110.7,0,110,0.7,110,1.5z"/>
			<path class="st0" d="M89.1,203.1c-17.7-3.9-33.9-12.8-46.9-26c-16.9-17.1-26.8-40-27.6-64c-0.8-26.6,9.2-51.8,27.9-70.5
				c13-13,29.1-21.8,46.6-25.6c0.8-0.2,1.3-1,1.2-1.8L87.9,3.8c-0.2-0.8-1-1.3-1.8-1.2C36.9,13.5,0,57.4,0,110
				c0,52.6,36.9,96.5,86.1,107.4c0.8,0.2,1.6-0.3,1.8-1.2l2.4-11.4C90.5,204,89.9,203.3,89.1,203.1z"/>
		</g>
		<path class="st0" d="M167.1,52.9c-14.9-14.9-34.6-23.3-55.6-23.6c-0.8,0-1.5,0.7-1.5,1.5V110v79.2c0,0.8,0.7,1.5,1.5,1.5
			c22.5-0.4,43.4-9.9,58.6-26.8c12.3-13.6,19.6-31.2,20.5-49.5C191.9,91.2,183.4,69.2,167.1,52.9z"/>
	</g>
</g>
</svg>
