<?xml version="1.0" encoding="UTF-8"?>
<svg width="9px" height="426px" viewBox="0 0 9 426" version="1.1" xmlns="http://www.w3.org/2000/svg" xmlns:xlink="http://www.w3.org/1999/xlink">
    <!-- Generator: Sketch 63.1 (92452) - https://sketch.com -->
    <title>Group 2</title>
    <desc>Created with Sketch.</desc>
    <defs>
        <polygon id="path-1" points="0 0 9 0 9 426 0 426"></polygon>
    </defs>
    <g id="Page-1" stroke="none" stroke-width="1" fill="none" fill-rule="evenodd">
        <g id="Artboard" transform="translate(-772.000000, -1731.000000)">
            <g id="Group-2" transform="translate(776.500000, 1944.000000) scale(-1, -1) translate(-776.500000, -1944.000000) translate(772.000000, 1731.000000)">
                <mask id="mask-2" fill="white">
                    <use xlink:href="#path-1"></use>
                </mask>
                <g id="Mask"></g>
                <path d="M3.30330086,-2.80330086 L6.83883476,0.732233047 C7.03409691,0.927495193 7.03409691,1.24407768 6.83883476,1.43933983 L3.35378644,4.92425253 L6.83883476,8.40963958 C7.03409691,8.60490173 7.03409691,8.92148422 6.83883476,9.11674636 L3.35378644,12.6012525 L6.83883476,16.0870461 C7.03409691,16.2823083 7.03409691,16.5988907 6.83883476,16.7941529 L3.35378644,20.2792525 L6.83883476,23.7644526 C7.03409691,23.9597148 7.03409691,24.2762973 6.83883476,24.4715594 L3.35378644,27.9562525 L6.83883476,31.4418592 C7.03409691,31.6371213 7.03409691,31.9537038 6.83883476,32.148966 L3.35378644,35.6342525 L6.83883476,39.1192657 C7.03409691,39.3145279 7.03409691,39.6311103 6.83883476,39.8263725 L3.35378644,43.3112525 L6.83883476,46.7966722 C7.03409691,46.9919344 7.03409691,47.3085169 6.83883476,47.503779 L3.35378644,50.9882525 L6.83883476,54.4740788 C7.03409691,54.6693409 7.03409691,54.9859234 6.83883476,55.1811856 L3.35378644,58.6662525 L6.83883476,62.1514853 C7.03409691,62.3467475 7.03409691,62.6633299 6.83883476,62.8585921 L3.35378644,66.3432525 L6.83883476,69.8288918 C7.03409691,70.024154 7.03409691,70.3407365 6.83883476,70.5359986 L3.35378644,74.0212525 L6.83883476,77.5062984 C7.03409691,77.7015605 7.03409691,78.018143 6.83883476,78.2134052 L3.35378644,81.6982525 L6.83883476,85.1837049 C7.03409691,85.3789671 7.03409691,85.6955495 6.83883476,85.8908117 L3.35378644,89.3752525 L6.83883476,92.8611114 C7.03409691,93.0563736 7.03409691,93.3729561 6.83883476,93.5682182 L3.35378644,97.0532525 L6.83883476,100.538518 C7.03409691,100.73378 7.03409691,101.050363 6.83883476,101.245625 L3.35378644,104.730253 L6.83883476,108.215925 C7.03409691,108.411187 7.03409691,108.727769 6.83883476,108.923031 L3.35378644,112.408253 L6.83883476,115.893331 C7.03409691,116.088593 7.03409691,116.405176 6.83883476,116.600438 L3.35378644,120.085253 L6.83883476,123.570738 C7.03409691,123.766 7.03409691,124.082582 6.83883476,124.277844 L3.35378644,127.762253 L6.83883476,131.248144 C7.03409691,131.443406 7.03409691,131.759989 6.83883476,131.955251 L3.35378644,135.440253 L6.83883476,138.925551 C7.03409691,139.120813 7.03409691,139.437395 6.83883476,139.632657 L3.35378644,143.117253 L6.83883476,146.602957 C7.03409691,146.798219 7.03409691,147.114802 6.83883476,147.310064 L3.35378644,150.795253 L6.83883476,154.280364 C7.03409691,154.475626 7.03409691,154.792208 6.83883476,154.98747 L3.35378644,158.472253 L6.83883476,161.95777 C7.03409691,162.153032 7.03409691,162.469615 6.83883476,162.664877 L3.35378644,166.149253 L6.83883476,169.635177 C7.03409691,169.830439 7.03409691,170.147021 6.83883476,170.342284 L3.35378644,173.827253 L6.83883476,177.312583 C7.03409691,177.507845 7.03409691,177.824428 6.83883476,178.01969 L3.35378644,181.504253 L6.83883476,184.98999 C7.03409691,185.185252 7.03409691,185.501834 6.83883476,185.697097 L3.35378644,189.182253 L6.83883476,192.667396 C7.03409691,192.862659 7.03409691,193.179241 6.83883476,193.374503 L3.35378644,196.859253 L6.83883476,200.344803 C7.03409691,200.540065 7.03409691,200.856648 6.83883476,201.05191 L3.35378644,204.536253 L6.83883476,208.022209 C7.03409691,208.217472 7.03409691,208.534054 6.83883476,208.729316 L3.35378644,212.214253 L6.83883476,215.699616 C7.03409691,215.894878 7.03409691,216.211461 6.83883476,216.406723 L3.35378644,219.891253 L6.83883476,223.377023 C7.03409691,223.572285 7.03409691,223.888867 6.83883476,224.084129 L3.35378644,227.569253 L6.83883476,231.054429 C7.03409691,231.249691 7.03409691,231.566274 6.83883476,231.761536 L3.35378644,235.246253 L6.83883476,238.731836 C7.03409691,238.927098 7.03409691,239.24368 6.83883476,239.438942 L3.35378644,242.923253 L6.83883476,246.409242 C7.03409691,246.604504 7.03409691,246.921087 6.83883476,247.116349 L3.35378644,250.601253 L6.83883476,254.086649 C7.03409691,254.281911 7.03409691,254.598493 6.83883476,254.793755 L3.35378644,258.278253 L6.83883476,261.764055 C7.03409691,261.959317 7.03409691,262.2759 6.83883476,262.471162 L3.35378644,265.956253 L6.83883476,269.441462 C7.03409691,269.636724 7.03409691,269.953306 6.83883476,270.148568 L3.35378644,273.633253 L6.83883476,277.118868 C7.03409691,277.31413 7.03409691,277.630713 6.83883476,277.825975 L3.35378644,281.311253 L6.83883476,284.796275 C7.03409691,284.991537 7.03409691,285.308119 6.83883476,285.503382 L3.35378644,288.988253 L6.83883476,292.473681 C7.03409691,292.668943 7.03409691,292.985526 6.83883476,293.180788 L3.35378644,296.665253 L6.83883476,300.151088 C7.03409691,300.34635 7.03409691,300.662932 6.83883476,300.858195 L3.35378644,304.343253 L6.83883476,307.828494 C7.03409691,308.023757 7.03409691,308.340339 6.83883476,308.535601 L3.35378644,312.020253 L6.83883476,315.505901 C7.03409691,315.701163 7.03409691,316.017746 6.83883476,316.213008 L3.35378644,319.698253 L6.83883476,323.183307 C7.03409691,323.37857 7.03409691,323.695152 6.83883476,323.890414 L3.35378644,327.375253 L6.83883476,330.860714 C7.03409691,331.055976 7.03409691,331.372559 6.83883476,331.567821 L3.35378644,335.052253 L6.83883476,338.53812 C7.03409691,338.733383 7.03409691,339.049965 6.83883476,339.245227 L3.35378644,342.730253 L6.83883476,346.215527 C7.03409691,346.410789 7.03409691,346.727372 6.83883476,346.922634 L3.35378644,350.407253 L6.83883476,353.892934 C7.03409691,354.088196 7.03409691,354.404778 6.83883476,354.60004 L3.35378644,358.085253 L6.83883476,361.57034 C7.03409691,361.765602 7.03409691,362.082185 6.83883476,362.277447 L3.35378644,365.762253 L6.83883476,369.247747 C7.03409691,369.443009 7.03409691,369.759591 6.83883476,369.954853 L3.35378644,373.439253 L6.83883476,376.925153 C7.03409691,377.120415 7.03409691,377.436998 6.83883476,377.63226 L3.35378644,381.117253 L6.83883476,384.60256 C7.03409691,384.797822 7.03409691,385.114404 6.83883476,385.309666 L3.35378644,388.794253 L6.83883476,392.279966 C7.03409691,392.475228 7.03409691,392.791811 6.83883476,392.987073 L3.35378644,396.472253 L6.83883476,399.957373 C7.03409691,400.152635 7.03409691,400.469217 6.83883476,400.66448 L3.35378644,404.149253 L6.83883476,407.634779 C7.03409691,407.830041 7.03409691,408.146624 6.83883476,408.341886 L3.35378644,411.826253 L6.83883476,415.312186 C7.03409691,415.507448 7.03409691,415.82403 6.83883476,416.019293 L3.35378644,419.504253 L6.83883476,422.989592 C7.03409691,423.184855 7.03409691,423.501437 6.83883476,423.696699 L0.474873734,430.06066 C0.279611588,430.255922 -0.0369709011,430.255922 -0.232233047,430.06066 L-3.76776695,426.525126 C-3.9630291,426.329864 -3.9630291,426.013282 -3.76776695,425.818019 L-0.283213562,422.332253 L-3.76776695,418.84772 C-3.9630291,418.652458 -3.9630291,418.335875 -3.76776695,418.140613 L-0.283213562,414.655253 L-3.76776695,411.170313 C-3.9630291,410.975051 -3.9630291,410.658469 -3.76776695,410.463206 L-0.283213562,406.977253 L-3.76776695,403.492907 C-3.9630291,403.297645 -3.9630291,402.981062 -3.76776695,402.7858 L-0.283213562,399.300253 L-3.76776695,395.8155 C-3.9630291,395.620238 -3.9630291,395.303655 -3.76776695,395.108393 L-0.283213562,391.623253 L-3.76776695,388.138094 C-3.9630291,387.942831 -3.9630291,387.626249 -3.76776695,387.430987 L-0.283213562,383.945253 L-3.76776695,380.460687 C-3.9630291,380.265425 -3.9630291,379.948842 -3.76776695,379.75358 L-0.283213562,376.268253 L-3.76776695,372.783281 C-3.9630291,372.588018 -3.9630291,372.271436 -3.76776695,372.076174 L-0.283213562,368.590253 L-3.76776695,365.105874 C-3.9630291,364.910612 -3.9630291,364.594029 -3.76776695,364.398767 L-0.283213562,360.913253 L-3.76776695,357.428467 C-3.9630291,357.233205 -3.9630291,356.916623 -3.76776695,356.721361 L-0.283213562,353.236253 L-3.76776695,349.751061 C-3.9630291,349.555799 -3.9630291,349.239216 -3.76776695,349.043954 L-0.283213562,345.558253 L-3.76776695,342.073654 C-3.9630291,341.878392 -3.9630291,341.56181 -3.76776695,341.366548 L-0.283213562,337.881253 L-3.76776695,334.396248 C-3.9630291,334.200986 -3.9630291,333.884403 -3.76776695,333.689141 L-0.283213562,330.203253 L-3.76776695,326.718841 C-3.9630291,326.523579 -3.9630291,326.206997 -3.76776695,326.011735 L-0.283213562,322.526253 L-3.76776695,319.041435 C-3.9630291,318.846173 -3.9630291,318.52959 -3.76776695,318.334328 L-0.283213562,314.849253 L-3.76776695,311.364028 C-3.9630291,311.168766 -3.9630291,310.852184 -3.76776695,310.656921 L-0.283213562,307.171253 L-3.76776695,303.686622 C-3.9630291,303.49136 -3.9630291,303.174777 -3.76776695,302.979515 L-0.283213562,299.494253 L-3.76776695,296.009215 C-3.9630291,295.813953 -3.9630291,295.497371 -3.76776695,295.302108 L-0.283213562,291.816253 L-3.76776695,288.331809 C-3.9630291,288.136547 -3.9630291,287.819964 -3.76776695,287.624702 L-0.283213562,284.139253 L-3.76776695,280.654402 C-3.9630291,280.45914 -3.9630291,280.142558 -3.76776695,279.947295 L-0.283213562,276.462253 L-3.76776695,272.976996 C-3.9630291,272.781733 -3.9630291,272.465151 -3.76776695,272.269889 L-0.283213562,268.784253 L-3.76776695,265.299589 C-3.9630291,265.104327 -3.9630291,264.787744 -3.76776695,264.592482 L-0.283213562,261.107253 L-3.76776695,257.622183 C-3.9630291,257.42692 -3.9630291,257.110338 -3.76776695,256.915076 L-0.283213562,253.429253 L-3.76776695,249.944776 C-3.9630291,249.749514 -3.9630291,249.432931 -3.76776695,249.237669 L-0.283213562,245.752253 L-3.76776695,242.267369 C-3.9630291,242.072107 -3.9630291,241.755525 -3.76776695,241.560263 L-0.283213562,238.075253 L-3.76776695,234.589963 C-3.9630291,234.394701 -3.9630291,234.078118 -3.76776695,233.882856 L-0.283213562,230.397253 L-3.76776695,226.912556 C-3.9630291,226.717294 -3.9630291,226.400712 -3.76776695,226.20545 L-0.283213562,222.720253 L-3.76776695,219.23515 C-3.9630291,219.039888 -3.9630291,218.723305 -3.76776695,218.528043 L-0.283213562,215.042253 L-3.76776695,211.557743 C-3.9630291,211.362481 -3.9630291,211.045899 -3.76776695,210.850637 L-0.283213562,207.365253 L-3.76776695,203.880337 C-3.9630291,203.685075 -3.9630291,203.368492 -3.76776695,203.17323 L-0.283213562,199.688253 L-3.76776695,196.20293 C-3.9630291,196.007668 -3.9630291,195.691086 -3.76776695,195.495823 L-0.283213562,192.010253 L-3.76776695,188.525524 C-3.9630291,188.330262 -3.9630291,188.013679 -3.76776695,187.818417 L-0.283213562,184.333253 L-3.76776695,180.848117 C-3.9630291,180.652855 -3.9630291,180.336273 -3.76776695,180.14101 L-0.283213562,176.655253 L-3.76776695,173.170711 C-3.9630291,172.975449 -3.9630291,172.658866 -3.76776695,172.463604 L-0.283213562,168.978253 L-3.76776695,165.493304 C-3.9630291,165.298042 -3.9630291,164.98146 -3.76776695,164.786197 L-0.283213562,161.300253 L-3.76776695,157.815898 C-3.9630291,157.620635 -3.9630291,157.304053 -3.76776695,157.108791 L-0.283213562,153.623253 L-3.76776695,150.138491 C-3.9630291,149.943229 -3.9630291,149.626646 -3.76776695,149.431384 L-0.283213562,145.946253 L-3.76776695,142.461085 C-3.9630291,142.265822 -3.9630291,141.94924 -3.76776695,141.753978 L-0.283213562,138.268253 L-3.76776695,134.783678 C-3.9630291,134.588416 -3.9630291,134.271833 -3.76776695,134.076571 L-0.283213562,130.591253 L-3.76776695,127.106271 C-3.9630291,126.911009 -3.9630291,126.594427 -3.76776695,126.399165 L-0.283213562,122.913253 L-3.76776695,119.428865 C-3.9630291,119.233603 -3.9630291,118.91702 -3.76776695,118.721758 L-0.283213562,115.236253 L-3.76776695,111.751458 C-3.9630291,111.556196 -3.9630291,111.239614 -3.76776695,111.044352 L-0.283213562,107.559253 L-3.76776695,104.074052 C-3.9630291,103.87879 -3.9630291,103.562207 -3.76776695,103.366945 L-0.283213562,99.8812525 L-3.76776695,96.3966453 C-3.9630291,96.2013832 -3.9630291,95.8848007 -3.76776695,95.6895386 L-0.283213562,92.2042525 L-3.76776695,88.7192388 C-3.9630291,88.5239767 -3.9630291,88.2073942 -3.76776695,88.012132 L-0.283213562,84.5262525 L-3.76776695,81.0418323 C-3.9630291,80.8465701 -3.9630291,80.5299876 -3.76776695,80.3347255 L-0.283213562,76.8492525 L-3.76776695,73.3644257 C-3.9630291,73.1691636 -3.9630291,72.8525811 -3.76776695,72.657319 L-0.283213562,69.1722525 L-3.76776695,65.6870192 C-3.9630291,65.4917571 -3.9630291,65.1751746 -3.76776695,64.9799124 L-0.283213562,61.4942525 L-3.76776695,58.0096127 C-3.9630291,57.8143505 -3.9630291,57.497768 -3.76776695,57.3025059 L-0.283213562,53.8172525 L-3.76776695,50.3322062 C-3.9630291,50.136944 -3.9630291,49.8203615 -3.76776695,49.6250994 L-0.283213562,46.1392525 L-3.76776695,42.6547996 C-3.9630291,42.4595375 -3.9630291,42.142955 -3.76776695,41.9476928 L-0.283213562,38.4622525 L-3.76776695,34.9773931 C-3.9630291,34.7821309 -3.9630291,34.4655484 -3.76776695,34.2702863 L-0.283213562,30.7852525 L-3.76776695,27.2999866 C-3.9630291,27.1047244 -3.9630291,26.7881419 -3.76776695,26.5928798 L-0.283213562,23.1072525 L-3.76776695,19.62258 C-3.9630291,19.4273179 -3.9630291,19.1107354 -3.76776695,18.9154732 L-0.283213562,15.4302525 L-3.76776695,11.9451735 C-3.9630291,11.7499113 -3.9630291,11.4333289 -3.76776695,11.2380667 L-0.283213562,7.75225253 L-3.76776695,4.26776695 C-3.9630291,4.07250481 -3.9630291,3.75592232 -3.76776695,3.56066017 L2.59619408,-2.80330086 C2.79145622,-2.998563 3.10803871,-2.998563 3.30330086,-2.80330086 Z" id="Combined-Shape" fill="#F1F3F8" mask="url(#mask-2)"></path>
                <path d="M7.71751442,420.868272 L8.4246212,421.575379 C8.61988335,421.770641 8.61988335,422.087223 8.4246212,422.282486 L2.06066017,428.646447 C1.86539803,428.841709 1.54881554,428.841709 1.35355339,428.646447 L0.646446609,427.93934 C0.451184464,427.744078 0.451184464,427.427495 0.646446609,427.232233 L7.01040764,420.868272 C7.20566979,420.67301 7.52225228,420.67301 7.71751442,420.868272 Z M7.71751442,413.190865 L8.4246212,413.897972 C8.61988335,414.093234 8.61988335,414.409817 8.4246212,414.605079 L2.06066017,420.96904 C1.86539803,421.164302 1.54881554,421.164302 1.35355339,420.96904 L0.646446609,420.261933 C0.451184464,420.066671 0.451184464,419.750089 0.646446609,419.554827 L7.01040764,413.190865 C7.20566979,412.995603 7.52225228,412.995603 7.71751442,413.190865 Z M7.71751442,405.513459 L8.4246212,406.220566 C8.61988335,406.415828 8.61988335,406.73241 8.4246212,406.927673 L2.06066017,413.291634 C1.86539803,413.486896 1.54881554,413.486896 1.35355339,413.291634 L0.646446609,412.584527 C0.451184464,412.389265 0.451184464,412.072682 0.646446609,411.87742 L7.01040764,405.513459 C7.20566979,405.318197 7.52225228,405.318197 7.71751442,405.513459 Z M7.71751442,397.836052 L8.4246212,398.543159 C8.61988335,398.738421 8.61988335,399.055004 8.4246212,399.250266 L2.06066017,405.614227 C1.86539803,405.809489 1.54881554,405.809489 1.35355339,405.614227 L0.646446609,404.90712 C0.451184464,404.711858 0.451184464,404.395276 0.646446609,404.200013 L7.01040764,397.836052 C7.20566979,397.64079 7.52225228,397.64079 7.71751442,397.836052 Z M7.71751442,390.158646 L8.4246212,390.865753 C8.61988335,391.061015 8.61988335,391.377597 8.4246212,391.572859 L2.06066017,397.93682 C1.86539803,398.132083 1.54881554,398.132083 1.35355339,397.93682 L0.646446609,397.229714 C0.451184464,397.034452 0.451184464,396.717869 0.646446609,396.522607 L7.01040764,390.158646 C7.20566979,389.963384 7.52225228,389.963384 7.71751442,390.158646 Z M7.71751442,382.481239 L8.4246212,383.188346 C8.61988335,383.383608 8.61988335,383.700191 8.4246212,383.895453 L2.06066017,390.259414 C1.86539803,390.454676 1.54881554,390.454676 1.35355339,390.259414 L0.646446609,389.552307 C0.451184464,389.357045 0.451184464,389.040463 0.646446609,388.8452 L7.01040764,382.481239 C7.20566979,382.285977 7.52225228,382.285977 7.71751442,382.481239 Z M7.71751442,374.803833 L8.4246212,375.51094 C8.61988335,375.706202 8.61988335,376.022784 8.4246212,376.218046 L2.06066017,382.582007 C1.86539803,382.77727 1.54881554,382.77727 1.35355339,382.582007 L0.646446609,381.874901 C0.451184464,381.679638 0.451184464,381.363056 0.646446609,381.167794 L7.01040764,374.803833 C7.20566979,374.608571 7.52225228,374.608571 7.71751442,374.803833 Z M7.71751442,367.126426 L8.4246212,367.833533 C8.61988335,368.028795 8.61988335,368.345378 8.4246212,368.54064 L2.06066017,374.904601 C1.86539803,375.099863 1.54881554,375.099863 1.35355339,374.904601 L0.646446609,374.197494 C0.451184464,374.002232 0.451184464,373.685649 0.646446609,373.490387 L7.01040764,367.126426 C7.20566979,366.931164 7.52225228,366.931164 7.71751442,367.126426 Z M7.71751442,359.44902 L8.4246212,360.156127 C8.61988335,360.351389 8.61988335,360.667971 8.4246212,360.863233 L2.06066017,367.227194 C1.86539803,367.422456 1.54881554,367.422456 1.35355339,367.227194 L0.646446609,366.520088 C0.451184464,366.324825 0.451184464,366.008243 0.646446609,365.812981 L7.01040764,359.44902 C7.20566979,359.253758 7.52225228,359.253758 7.71751442,359.44902 Z M7.71751442,351.771613 L8.4246212,352.47872 C8.61988335,352.673982 8.61988335,352.990565 8.4246212,353.185827 L2.06066017,359.549788 C1.86539803,359.74505 1.54881554,359.74505 1.35355339,359.549788 L0.646446609,358.842681 C0.451184464,358.647419 0.451184464,358.330836 0.646446609,358.135574 L7.01040764,351.771613 C7.20566979,351.576351 7.52225228,351.576351 7.71751442,351.771613 Z M7.71751442,344.094207 L8.4246212,344.801313 C8.61988335,344.996576 8.61988335,345.313158 8.4246212,345.50842 L2.06066017,351.872381 C1.86539803,352.067643 1.54881554,352.067643 1.35355339,351.872381 L0.646446609,351.165274 C0.451184464,350.970012 0.451184464,350.65343 0.646446609,350.458168 L7.01040764,344.094207 C7.20566979,343.898945 7.52225228,343.898945 7.71751442,344.094207 Z M7.71751442,336.4168 L8.4246212,337.123907 C8.61988335,337.319169 8.61988335,337.635752 8.4246212,337.831014 L2.06066017,344.194975 C1.86539803,344.390237 1.54881554,344.390237 1.35355339,344.194975 L0.646446609,343.487868 C0.451184464,343.292606 0.451184464,342.976023 0.646446609,342.780761 L7.01040764,336.4168 C7.20566979,336.221538 7.52225228,336.221538 7.71751442,336.4168 Z M7.71751442,328.739394 L8.4246212,329.4465 C8.61988335,329.641763 8.61988335,329.958345 8.4246212,330.153607 L2.06066017,336.517568 C1.86539803,336.71283 1.54881554,336.71283 1.35355339,336.517568 L0.646446609,335.810461 C0.451184464,335.615199 0.451184464,335.298617 0.646446609,335.103355 L7.01040764,328.739394 C7.20566979,328.544131 7.52225228,328.544131 7.71751442,328.739394 Z M7.71751442,321.061987 L8.4246212,321.769094 C8.61988335,321.964356 8.61988335,322.280939 8.4246212,322.476201 L2.06066017,328.840162 C1.86539803,329.035424 1.54881554,329.035424 1.35355339,328.840162 L0.646446609,328.133055 C0.451184464,327.937793 0.451184464,327.62121 0.646446609,327.425948 L7.01040764,321.061987 C7.20566979,320.866725 7.52225228,320.866725 7.71751442,321.061987 Z M7.71751442,313.384581 L8.4246212,314.091687 C8.61988335,314.286949 8.61988335,314.603532 8.4246212,314.798794 L2.06066017,321.162755 C1.86539803,321.358017 1.54881554,321.358017 1.35355339,321.162755 L0.646446609,320.455648 C0.451184464,320.260386 0.451184464,319.943804 0.646446609,319.748542 L7.01040764,313.384581 C7.20566979,313.189318 7.52225228,313.189318 7.71751442,313.384581 Z M7.71751442,305.707174 L8.4246212,306.414281 C8.61988335,306.609543 8.61988335,306.926125 8.4246212,307.121388 L2.06066017,313.485349 C1.86539803,313.680611 1.54881554,313.680611 1.35355339,313.485349 L0.646446609,312.778242 C0.451184464,312.58298 0.451184464,312.266397 0.646446609,312.071135 L7.01040764,305.707174 C7.20566979,305.511912 7.52225228,305.511912 7.71751442,305.707174 Z M7.71751442,298.029767 L8.4246212,298.736874 C8.61988335,298.932136 8.61988335,299.248719 8.4246212,299.443981 L2.06066017,305.807942 C1.86539803,306.003204 1.54881554,306.003204 1.35355339,305.807942 L0.646446609,305.100835 C0.451184464,304.905573 0.451184464,304.588991 0.646446609,304.393729 L7.01040764,298.029767 C7.20566979,297.834505 7.52225228,297.834505 7.71751442,298.029767 Z M7.71751442,290.352361 L8.4246212,291.059468 C8.61988335,291.25473 8.61988335,291.571312 8.4246212,291.766575 L2.06066017,298.130536 C1.86539803,298.325798 1.54881554,298.325798 1.35355339,298.130536 L0.646446609,297.423429 C0.451184464,297.228167 0.451184464,296.911584 0.646446609,296.716322 L7.01040764,290.352361 C7.20566979,290.157099 7.52225228,290.157099 7.71751442,290.352361 Z M7.71751442,282.674954 L8.4246212,283.382061 C8.61988335,283.577323 8.61988335,283.893906 8.4246212,284.089168 L2.06066017,290.453129 C1.86539803,290.648391 1.54881554,290.648391 1.35355339,290.453129 L0.646446609,289.746022 C0.451184464,289.55076 0.451184464,289.234178 0.646446609,289.038915 L7.01040764,282.674954 C7.20566979,282.479692 7.52225228,282.479692 7.71751442,282.674954 Z M7.71751442,274.997548 L8.4246212,275.704655 C8.61988335,275.899917 8.61988335,276.216499 8.4246212,276.411761 L2.06066017,282.775722 C1.86539803,282.970985 1.54881554,282.970985 1.35355339,282.775722 L0.646446609,282.068616 C0.451184464,281.873354 0.451184464,281.556771 0.646446609,281.361509 L7.01040764,274.997548 C7.20566979,274.802286 7.52225228,274.802286 7.71751442,274.997548 Z M7.71751442,267.320141 L8.4246212,268.027248 C8.61988335,268.22251 8.61988335,268.539093 8.4246212,268.734355 L2.06066017,275.098316 C1.86539803,275.293578 1.54881554,275.293578 1.35355339,275.098316 L0.646446609,274.391209 C0.451184464,274.195947 0.451184464,273.879365 0.646446609,273.684102 L7.01040764,267.320141 C7.20566979,267.124879 7.52225228,267.124879 7.71751442,267.320141 Z M7.71751442,259.642735 L8.4246212,260.349842 C8.61988335,260.545104 8.61988335,260.861686 8.4246212,261.056948 L2.06066017,267.420909 C1.86539803,267.616172 1.54881554,267.616172 1.35355339,267.420909 L0.646446609,266.713803 C0.451184464,266.51854 0.451184464,266.201958 0.646446609,266.006696 L7.01040764,259.642735 C7.20566979,259.447473 7.52225228,259.447473 7.71751442,259.642735 Z M7.71751442,251.965328 L8.4246212,252.672435 C8.61988335,252.867697 8.61988335,253.18428 8.4246212,253.379542 L2.06066017,259.743503 C1.86539803,259.938765 1.54881554,259.938765 1.35355339,259.743503 L0.646446609,259.036396 C0.451184464,258.841134 0.451184464,258.524551 0.646446609,258.329289 L7.01040764,251.965328 C7.20566979,251.770066 7.52225228,251.770066 7.71751442,251.965328 Z M7.71751442,244.287922 L8.4246212,244.995029 C8.61988335,245.190291 8.61988335,245.506873 8.4246212,245.702135 L2.06066017,252.066096 C1.86539803,252.261358 1.54881554,252.261358 1.35355339,252.066096 L0.646446609,251.35899 C0.451184464,251.163727 0.451184464,250.847145 0.646446609,250.651883 L7.01040764,244.287922 C7.20566979,244.09266 7.52225228,244.09266 7.71751442,244.287922 Z M7.71751442,236.610515 L8.4246212,237.317622 C8.61988335,237.512884 8.61988335,237.829467 8.4246212,238.024729 L2.06066017,244.38869 C1.86539803,244.583952 1.54881554,244.583952 1.35355339,244.38869 L0.646446609,243.681583 C0.451184464,243.486321 0.451184464,243.169738 0.646446609,242.974476 L7.01040764,236.610515 C7.20566979,236.415253 7.52225228,236.415253 7.71751442,236.610515 Z M7.71751442,228.933109 L8.4246212,229.640215 C8.61988335,229.835478 8.61988335,230.15206 8.4246212,230.347322 L2.06066017,236.711283 C1.86539803,236.906545 1.54881554,236.906545 1.35355339,236.711283 L0.646446609,236.004177 C0.451184464,235.808914 0.451184464,235.492332 0.646446609,235.29707 L7.01040764,228.933109 C7.20566979,228.737847 7.52225228,228.737847 7.71751442,228.933109 Z M7.71751442,221.255702 L8.4246212,221.962809 C8.61988335,222.158071 8.61988335,222.474654 8.4246212,222.669916 L2.06066017,229.033877 C1.86539803,229.229139 1.54881554,229.229139 1.35355339,229.033877 L0.646446609,228.32677 C0.451184464,228.131508 0.451184464,227.814925 0.646446609,227.619663 L7.01040764,221.255702 C7.20566979,221.06044 7.52225228,221.06044 7.71751442,221.255702 Z M7.71751442,213.578296 L8.4246212,214.285402 C8.61988335,214.480665 8.61988335,214.797247 8.4246212,214.992509 L2.06066017,221.35647 C1.86539803,221.551732 1.54881554,221.551732 1.35355339,221.35647 L0.646446609,220.649363 C0.451184464,220.454101 0.451184464,220.137519 0.646446609,219.942257 L7.01040764,213.578296 C7.20566979,213.383033 7.52225228,213.383033 7.71751442,213.578296 Z M7.71751442,205.900889 L8.4246212,206.607996 C8.61988335,206.803258 8.61988335,207.119841 8.4246212,207.315103 L2.06066017,213.679064 C1.86539803,213.874326 1.54881554,213.874326 1.35355339,213.679064 L0.646446609,212.971957 C0.451184464,212.776695 0.451184464,212.460112 0.646446609,212.26485 L7.01040764,205.900889 C7.20566979,205.705627 7.52225228,205.705627 7.71751442,205.900889 Z M7.71751442,198.223483 L8.4246212,198.930589 C8.61988335,199.125851 8.61988335,199.442434 8.4246212,199.637696 L2.06066017,206.001657 C1.86539803,206.196919 1.54881554,206.196919 1.35355339,206.001657 L0.646446609,205.29455 C0.451184464,205.099288 0.451184464,204.782706 0.646446609,204.587444 L7.01040764,198.223483 C7.20566979,198.02822 7.52225228,198.02822 7.71751442,198.223483 Z M7.71751442,190.546076 L8.4246212,191.253183 C8.61988335,191.448445 8.61988335,191.765027 8.4246212,191.96029 L2.06066017,198.324251 C1.86539803,198.519513 1.54881554,198.519513 1.35355339,198.324251 L0.646446609,197.617144 C0.451184464,197.421882 0.451184464,197.105299 0.646446609,196.910037 L7.01040764,190.546076 C7.20566979,190.350814 7.52225228,190.350814 7.71751442,190.546076 Z M7.71751442,182.868669 L8.4246212,183.575776 C8.61988335,183.771038 8.61988335,184.087621 8.4246212,184.282883 L2.06066017,190.646844 C1.86539803,190.842106 1.54881554,190.842106 1.35355339,190.646844 L0.646446609,189.939737 C0.451184464,189.744475 0.451184464,189.427893 0.646446609,189.232631 L7.01040764,182.868669 C7.20566979,182.673407 7.52225228,182.673407 7.71751442,182.868669 Z M7.71751442,175.191263 L8.4246212,175.89837 C8.61988335,176.093632 8.61988335,176.410214 8.4246212,176.605477 L2.06066017,182.969438 C1.86539803,183.1647 1.54881554,183.1647 1.35355339,182.969438 L0.646446609,182.262331 C0.451184464,182.067069 0.451184464,181.750486 0.646446609,181.555224 L7.01040764,175.191263 C7.20566979,174.996001 7.52225228,174.996001 7.71751442,175.191263 Z M7.71751442,167.513856 L8.4246212,168.220963 C8.61988335,168.416225 8.61988335,168.732808 8.4246212,168.92807 L2.06066017,175.292031 C1.86539803,175.487293 1.54881554,175.487293 1.35355339,175.292031 L0.646446609,174.584924 C0.451184464,174.389662 0.451184464,174.07308 0.646446609,173.877817 L7.01040764,167.513856 C7.20566979,167.318594 7.52225228,167.318594 7.71751442,167.513856 Z M7.71751442,159.83645 L8.4246212,160.543557 C8.61988335,160.738819 8.61988335,161.055401 8.4246212,161.250663 L2.06066017,167.614624 C1.86539803,167.809887 1.54881554,167.809887 1.35355339,167.614624 L0.646446609,166.907518 C0.451184464,166.712256 0.451184464,166.395673 0.646446609,166.200411 L7.01040764,159.83645 C7.20566979,159.641188 7.52225228,159.641188 7.71751442,159.83645 Z M7.71751442,152.159043 L8.4246212,152.86615 C8.61988335,153.061412 8.61988335,153.377995 8.4246212,153.573257 L2.06066017,159.937218 C1.86539803,160.13248 1.54881554,160.13248 1.35355339,159.937218 L0.646446609,159.230111 C0.451184464,159.034849 0.451184464,158.718267 0.646446609,158.523004 L7.01040764,152.159043 C7.20566979,151.963781 7.52225228,151.963781 7.71751442,152.159043 Z M7.71751442,144.481637 L8.4246212,145.188744 C8.61988335,145.384006 8.61988335,145.700588 8.4246212,145.89585 L2.06066017,152.259811 C1.86539803,152.455074 1.54881554,152.455074 1.35355339,152.259811 L0.646446609,151.552705 C0.451184464,151.357442 0.451184464,151.04086 0.646446609,150.845598 L7.01040764,144.481637 C7.20566979,144.286375 7.52225228,144.286375 7.71751442,144.481637 Z M7.71751442,136.80423 L8.4246212,137.511337 C8.61988335,137.706599 8.61988335,138.023182 8.4246212,138.218444 L2.06066017,144.582405 C1.86539803,144.777667 1.54881554,144.777667 1.35355339,144.582405 L0.646446609,143.875298 C0.451184464,143.680036 0.451184464,143.363453 0.646446609,143.168191 L7.01040764,136.80423 C7.20566979,136.608968 7.52225228,136.608968 7.71751442,136.80423 Z M7.71751442,129.126824 L8.4246212,129.833931 C8.61988335,130.029193 8.61988335,130.345775 8.4246212,130.541037 L2.06066017,136.904998 C1.86539803,137.100261 1.54881554,137.100261 1.35355339,136.904998 L0.646446609,136.197892 C0.451184464,136.002629 0.451184464,135.686047 0.646446609,135.490785 L7.01040764,129.126824 C7.20566979,128.931562 7.52225228,128.931562 7.71751442,129.126824 Z M7.71751442,121.449417 L8.4246212,122.156524 C8.61988335,122.351786 8.61988335,122.668369 8.4246212,122.863631 L2.06066017,129.227592 C1.86539803,129.422854 1.54881554,129.422854 1.35355339,129.227592 L0.646446609,128.520485 C0.451184464,128.325223 0.451184464,128.00864 0.646446609,127.813378 L7.01040764,121.449417 C7.20566979,121.254155 7.52225228,121.254155 7.71751442,121.449417 Z M7.71751442,113.772011 L8.4246212,114.479117 C8.61988335,114.67438 8.61988335,114.990962 8.4246212,115.186224 L2.06066017,121.550185 C1.86539803,121.745447 1.54881554,121.745447 1.35355339,121.550185 L0.646446609,120.843079 C0.451184464,120.647816 0.451184464,120.331234 0.646446609,120.135972 L7.01040764,113.772011 C7.20566979,113.576749 7.52225228,113.576749 7.71751442,113.772011 Z M7.71751442,106.094604 L8.4246212,106.801711 C8.61988335,106.996973 8.61988335,107.313556 8.4246212,107.508818 L2.06066017,113.872779 C1.86539803,114.068041 1.54881554,114.068041 1.35355339,113.872779 L0.646446609,113.165672 C0.451184464,112.97041 0.451184464,112.653827 0.646446609,112.458565 L7.01040764,106.094604 C7.20566979,105.899342 7.52225228,105.899342 7.71751442,106.094604 Z M7.71751442,98.4171976 L8.4246212,99.1243044 C8.61988335,99.3195666 8.61988335,99.636149 8.4246212,99.8314112 L2.06066017,106.195372 C1.86539803,106.390634 1.54881554,106.390634 1.35355339,106.195372 L0.646446609,105.488265 C0.451184464,105.293003 0.451184464,104.976421 0.646446609,104.781159 L7.01040764,98.4171976 C7.20566979,98.2219355 7.52225228,98.2219355 7.71751442,98.4171976 Z M7.71751442,90.7397911 L8.4246212,91.4468979 C8.61988335,91.64216 8.61988335,91.9587425 8.4246212,92.1540047 L2.06066017,98.5179657 C1.86539803,98.7132278 1.54881554,98.7132278 1.35355339,98.5179657 L0.646446609,97.8108589 C0.451184464,97.6155968 0.451184464,97.2990143 0.646446609,97.1037521 L7.01040764,90.7397911 C7.20566979,90.544529 7.52225228,90.544529 7.71751442,90.7397911 Z M7.71751442,83.0623846 L8.4246212,83.7694913 C8.61988335,83.9647535 8.61988335,84.281336 8.4246212,84.4765981 L2.06066017,90.8405592 C1.86539803,91.0358213 1.54881554,91.0358213 1.35355339,90.8405592 L0.646446609,90.1334524 C0.451184464,89.9381902 0.451184464,89.6216077 0.646446609,89.4263456 L7.01040764,83.0623846 C7.20566979,82.8671224 7.52225228,82.8671224 7.71751442,83.0623846 Z M7.71751442,75.384978 L8.4246212,76.0920848 C8.61988335,76.287347 8.61988335,76.6039294 8.4246212,76.7991916 L2.06066017,83.1631526 C1.86539803,83.3584148 1.54881554,83.3584148 1.35355339,83.1631526 L0.646446609,82.4560458 C0.451184464,82.2607837 0.451184464,81.9442012 0.646446609,81.7489391 L7.01040764,75.384978 C7.20566979,75.1897159 7.52225228,75.1897159 7.71751442,75.384978 Z M7.71751442,67.7075715 L8.4246212,68.4146783 C8.61988335,68.6099404 8.61988335,68.9265229 8.4246212,69.1217851 L2.06066017,75.4857461 C1.86539803,75.6810082 1.54881554,75.6810082 1.35355339,75.4857461 L0.646446609,74.7786393 C0.451184464,74.5833772 0.451184464,74.2667947 0.646446609,74.0715325 L7.01040764,67.7075715 C7.20566979,67.5123094 7.52225228,67.5123094 7.71751442,67.7075715 Z M7.71751442,60.030165 L8.4246212,60.7372717 C8.61988335,60.9325339 8.61988335,61.2491164 8.4246212,61.4443785 L2.06066017,67.8083396 C1.86539803,68.0036017 1.54881554,68.0036017 1.35355339,67.8083396 L0.646446609,67.1012328 C0.451184464,66.9059706 0.451184464,66.5893881 0.646446609,66.394126 L7.01040764,60.030165 C7.20566979,59.8349028 7.52225228,59.8349028 7.71751442,60.030165 Z M7.71751442,52.3527584 L8.4246212,53.0598652 C8.61988335,53.2551274 8.61988335,53.5717099 8.4246212,53.766972 L2.06066017,60.130933 C1.86539803,60.3261952 1.54881554,60.3261952 1.35355339,60.130933 L0.646446609,59.4238262 C0.451184464,59.2285641 0.451184464,58.9119816 0.646446609,58.7167195 L7.01040764,52.3527584 C7.20566979,52.1574963 7.52225228,52.1574963 7.71751442,52.3527584 Z M7.71751442,44.6753519 L8.4246212,45.3824587 C8.61988335,45.5777208 8.61988335,45.8943033 8.4246212,46.0895655 L2.06066017,52.4535265 C1.86539803,52.6487886 1.54881554,52.6487886 1.35355339,52.4535265 L0.646446609,51.7464197 C0.451184464,51.5511576 0.451184464,51.2345751 0.646446609,51.0393129 L7.01040764,44.6753519 C7.20566979,44.4800898 7.52225228,44.4800898 7.71751442,44.6753519 Z M7.71751442,36.9979454 L8.4246212,37.7050521 C8.61988335,37.9003143 8.61988335,38.2168968 8.4246212,38.4121589 L2.06066017,44.77612 C1.86539803,44.9713821 1.54881554,44.9713821 1.35355339,44.77612 L0.646446609,44.0690132 C0.451184464,43.873751 0.451184464,43.5571685 0.646446609,43.3619064 L7.01040764,36.9979454 C7.20566979,36.8026832 7.52225228,36.8026832 7.71751442,36.9979454 Z M7.71751442,29.3205388 L8.4246212,30.0276456 C8.61988335,30.2229078 8.61988335,30.5394903 8.4246212,30.7347524 L2.06066017,37.0987134 C1.86539803,37.2939756 1.54881554,37.2939756 1.35355339,37.0987134 L0.646446609,36.3916066 C0.451184464,36.1963445 0.451184464,35.879762 0.646446609,35.6844999 L7.01040764,29.3205388 C7.20566979,29.1252767 7.52225228,29.1252767 7.71751442,29.3205388 Z M7.71751442,21.6431323 L8.4246212,22.3502391 C8.61988335,22.5455012 8.61988335,22.8620837 8.4246212,23.0573459 L2.06066017,29.4213069 C1.86539803,29.616569 1.54881554,29.616569 1.35355339,29.4213069 L0.646446609,28.7142001 C0.451184464,28.518938 0.451184464,28.2023555 0.646446609,28.0070933 L7.01040764,21.6431323 C7.20566979,21.4478702 7.52225228,21.4478702 7.71751442,21.6431323 Z M7.71751442,13.9657258 L8.4246212,14.6728326 C8.61988335,14.8680947 8.61988335,15.1846772 8.4246212,15.3799393 L2.06066017,21.7439004 C1.86539803,21.9391625 1.54881554,21.9391625 1.35355339,21.7439004 L0.646446609,21.0367936 C0.451184464,20.8415314 0.451184464,20.5249489 0.646446609,20.3296868 L7.01040764,13.9657258 C7.20566979,13.7704636 7.52225228,13.7704636 7.71751442,13.9657258 Z M7.71751442,6.28831924 L8.4246212,6.99542602 C8.61988335,7.19068816 8.61988335,7.50727065 8.4246212,7.7025328 L2.06066017,14.0664938 C1.86539803,14.261756 1.54881554,14.261756 1.35355339,14.0664938 L0.646446609,13.359387 C0.451184464,13.1641249 0.451184464,12.8475424 0.646446609,12.6522803 L7.01040764,6.28831924 C7.20566979,6.09305709 7.52225228,6.09305709 7.71751442,6.28831924 Z M7.71751442,-1.3890873 L8.4246212,-0.681980515 C8.61988335,-0.48671837 8.61988335,-0.17013588 8.4246212,0.0251262658 L2.06066017,6.3890873 C1.86539803,6.58434944 1.54881554,6.58434944 1.35355339,6.3890873 L0.646446609,5.68198052 C0.451184464,5.48671837 0.451184464,5.17013588 0.646446609,4.97487373 L7.01040764,-1.3890873 C7.20566979,-1.58434944 7.52225228,-1.58434944 7.71751442,-1.3890873 Z" id="Combined-Shape" fill="#1F7EED" mask="url(#mask-2)"></path>
            </g>
        </g>
    </g>
</svg>