<?xml version="1.0" encoding="UTF-8"?>
<svg width="995px" height="9px" viewBox="0 0 995 9" version="1.1" xmlns="http://www.w3.org/2000/svg" xmlns:xlink="http://www.w3.org/1999/xlink">
    <!-- Generator: Sketch 63.1 (92452) - https://sketch.com -->
    <title>Group 2</title>
    <desc>Created with Sketch.</desc>
    <defs>
        <polygon id="path-1" points="0 0.7 9 0.7 9 994.7 0 994.7"></polygon>
    </defs>
    <g id="Page-1" stroke="none" stroke-width="1" fill="none" fill-rule="evenodd">
        <g id="Artboard" transform="translate(-1011.000000, -2172.000000)">
            <g id="Group-2" transform="translate(1508.500000, 2176.500000) scale(1, -1) rotate(90.000000) translate(-1508.500000, -2176.500000) translate(1504.000000, 1679.000000)">
                <mask id="mask-2" fill="white">
                    <use xlink:href="#path-1"></use>
                </mask>
                <g id="Mask"></g>
                <path d="M3.30330086,-2.13756163 L6.83883476,1.39797228 C7.03409691,1.59323442 7.03409691,1.90981691 6.83883476,2.10507906 L3.2889425,5.65531312 C3.29379712,5.65980175 3.29858438,5.6644043 3.30330086,5.66912077 L6.83883476,9.20465468 C7.03409691,9.39991683 7.03409691,9.71649932 6.83883476,9.91176146 L3.35378644,13.3969918 L6.83883476,16.8820612 C7.03409691,17.0773233 7.03409691,17.3939058 6.83883476,17.589168 L3.35378644,21.0739918 L6.83883476,24.5594677 C7.03409691,24.7547299 7.03409691,25.0713124 6.83883476,25.2665745 L3.35378644,28.7509918 L6.83883476,32.2368743 C7.03409691,32.4321364 7.03409691,32.7487189 6.83883476,32.9439811 L3.35378644,36.4289918 L6.83883476,39.9142808 C7.03409691,40.109543 7.03409691,40.4261254 6.83883476,40.6213876 L3.35378644,44.1059918 L6.83883476,47.5916873 C7.03409691,47.7869495 7.03409691,48.103532 6.83883476,48.2987941 L3.35378644,51.7839918 L6.83883476,55.2690939 C7.03409691,55.464356 7.03409691,55.7809385 6.83883476,55.9762007 L3.35378644,59.4609918 L6.83883476,62.9465004 C7.03409691,63.1417626 7.03409691,63.458345 6.83883476,63.6536072 L3.35378644,67.1379918 L6.83883476,70.6239069 C7.03409691,70.8191691 7.03409691,71.1357516 6.83883476,71.3310137 L3.35378644,74.8159918 L6.83883476,78.3013135 C7.03409691,78.4965756 7.03409691,78.8131581 6.83883476,79.0084203 L3.35378644,82.4929918 L6.83883476,85.97872 C7.03409691,86.1739822 7.03409691,86.4905646 6.83883476,86.6858268 L3.35378644,90.1709918 L6.83883476,93.6561265 C7.03409691,93.8513887 7.03409691,94.1679712 6.83883476,94.3632333 L3.35378644,97.8479918 L6.83883476,101.333533 C7.03409691,101.528795 7.03409691,101.845378 6.83883476,102.04064 L3.35378644,105.524992 L6.83883476,109.01094 C7.03409691,109.206202 7.03409691,109.522784 6.83883476,109.718046 L3.35378644,113.202992 L6.83883476,116.688346 C7.03409691,116.883608 7.03409691,117.200191 6.83883476,117.395453 L3.35378644,120.879992 L6.83883476,124.365753 C7.03409691,124.561015 7.03409691,124.877597 6.83883476,125.072859 L3.35378644,128.557992 L6.83883476,132.043159 C7.03409691,132.238421 7.03409691,132.555004 6.83883476,132.750266 L3.35378644,136.234992 L6.83883476,139.720566 C7.03409691,139.915828 7.03409691,140.23241 6.83883476,140.427673 L3.35378644,143.911992 L6.83883476,147.397972 C7.03409691,147.593234 7.03409691,147.909817 6.83883476,148.105079 L3.31478644,151.628992 L6.83883476,155.153806 C7.03409691,155.349068 7.03409691,155.665651 6.83883476,155.860913 L3.35378644,159.345992 L6.83883476,162.831212 C7.03409691,163.026475 7.03409691,163.343057 6.83883476,163.538319 L3.35378644,167.022992 L6.83883476,170.508619 C7.03409691,170.703881 7.03409691,171.020464 6.83883476,171.215726 L3.35378644,174.700992 L6.83883476,178.186026 C7.03409691,178.381288 7.03409691,178.69787 6.83883476,178.893132 L3.35378644,182.377992 L6.83883476,185.863432 C7.03409691,186.058694 7.03409691,186.375277 6.83883476,186.570539 L3.35378644,190.054992 L6.83883476,193.540839 C7.03409691,193.736101 7.03409691,194.052683 6.83883476,194.247945 L3.35378644,197.732992 L6.83883476,201.218245 C7.03409691,201.413507 7.03409691,201.73009 6.83883476,201.925352 L3.35378644,205.409992 L6.83883476,208.895652 C7.03409691,209.090914 7.03409691,209.407496 6.83883476,209.602758 L3.35378644,213.087992 L6.83883476,216.573058 C7.03409691,216.76832 7.03409691,217.084903 6.83883476,217.280165 L3.35378644,220.764992 L6.83883476,224.250465 C7.03409691,224.445727 7.03409691,224.762309 6.83883476,224.957572 L3.35378644,228.441992 L6.83883476,231.927871 C7.03409691,232.123133 7.03409691,232.439716 6.83883476,232.634978 L3.35378644,236.119992 L6.83883476,239.605278 C7.03409691,239.80054 7.03409691,240.117122 6.83883476,240.312385 L3.35378644,243.796992 L6.83883476,247.282684 C7.03409691,247.477946 7.03409691,247.794529 6.83883476,247.989791 L3.35378644,251.474992 L6.83883476,254.960091 C7.03409691,255.155353 7.03409691,255.471936 6.83883476,255.667198 L3.35378644,259.151992 L6.83883476,262.637497 C7.03409691,262.83276 7.03409691,263.149342 6.83883476,263.344604 L3.35378644,266.828992 L6.83883476,270.314904 C7.03409691,270.510166 7.03409691,270.826749 6.83883476,271.022011 L3.35378644,274.506992 L6.83883476,277.99231 C7.03409691,278.187573 7.03409691,278.504155 6.83883476,278.699417 L3.35378644,282.183992 L6.83883476,285.669717 C7.03409691,285.864979 7.03409691,286.181562 6.83883476,286.376824 L3.35378644,289.861992 L6.83883476,293.347124 C7.03409691,293.542386 7.03409691,293.858968 6.83883476,294.05423 L3.35378644,297.538992 L6.83883476,301.02453 C7.03409691,301.219792 7.03409691,301.536375 6.83883476,301.731637 L3.35378644,305.215992 L6.83883476,308.701937 C7.03409691,308.897199 7.03409691,309.213781 6.83883476,309.409043 L3.35378644,312.893992 L6.83883476,316.379343 C7.03409691,316.574605 7.03409691,316.891188 6.83883476,317.08645 L3.35378644,320.570992 L6.83883476,324.05675 C7.03409691,324.252012 7.03409691,324.568594 6.83883476,324.763856 L3.35378644,328.248992 L6.83883476,331.734156 C7.03409691,331.929418 7.03409691,332.246001 6.83883476,332.441263 L3.35378644,335.925992 L6.83883476,339.411563 C7.03409691,339.606825 7.03409691,339.923407 6.83883476,340.11867 L3.35378644,343.602992 L6.83883476,347.088969 C7.03409691,347.284231 7.03409691,347.600814 6.83883476,347.796076 L3.35378644,351.280992 L6.83883476,354.766376 C7.03409691,354.961638 7.03409691,355.27822 6.83883476,355.473483 L3.35378644,358.957992 L6.83883476,362.443782 C7.03409691,362.639044 7.03409691,362.955627 6.83883476,363.150889 L3.35378644,366.635992 L6.83883476,370.121189 C7.03409691,370.316451 7.03409691,370.633034 6.83883476,370.828296 L3.35378644,374.312992 L6.83883476,377.798595 C7.03409691,377.993858 7.03409691,378.31044 6.83883476,378.505702 L3.35378644,381.990992 L6.83883476,385.476002 C7.03409691,385.671264 7.03409691,385.987847 6.83883476,386.183109 L3.35378644,389.667992 L6.83883476,393.153408 C7.03409691,393.348671 7.03409691,393.665253 6.83883476,393.860515 L3.35378644,397.344992 L6.83883476,400.830815 C7.03409691,401.026077 7.03409691,401.34266 6.83883476,401.537922 L3.35378644,405.022992 L6.83883476,408.508222 C7.03409691,408.703484 7.03409691,409.020066 6.83883476,409.215328 L3.35378644,412.699992 L6.83883476,416.185628 C7.03409691,416.38089 7.03409691,416.697473 6.83883476,416.892735 L3.35378644,420.377992 L6.83883476,423.863035 C7.03409691,424.058297 7.03409691,424.374879 6.83883476,424.570141 L3.35378644,428.054992 L6.83883476,431.540441 C7.03409691,431.735703 7.03409691,432.052286 6.83883476,432.247548 L3.35378644,435.731992 L6.83883476,439.217848 C7.03409691,439.41311 7.03409691,439.729692 6.83883476,439.924954 L3.35378644,443.409992 L6.83883476,446.895254 C7.03409691,447.090516 7.03409691,447.407099 6.83883476,447.602361 L3.35378644,451.086992 L6.83883476,454.572661 C7.03409691,454.767923 7.03409691,455.084505 6.83883476,455.279768 L3.35378644,458.764992 L6.83883476,462.250067 C7.03409691,462.445329 7.03409691,462.761912 6.83883476,462.957174 L3.35378644,466.441992 L6.83883476,469.927474 C7.03409691,470.122736 7.03409691,470.439318 6.83883476,470.634581 L3.35378644,474.118992 L6.83883476,477.60488 C7.03409691,477.800142 7.03409691,478.116725 6.83883476,478.311987 L3.35378644,481.796992 L6.83883476,485.282287 C7.03409691,485.477549 7.03409691,485.794131 6.83883476,485.989394 L3.35378644,489.473992 L6.83883476,492.959693 C7.03409691,493.154956 7.03409691,493.471538 6.83883476,493.6668 L3.35378644,497.151992 L6.83883476,500.6371 C7.03409691,500.832362 7.03409691,501.148945 6.83883476,501.344207 L3.35378644,504.828992 L6.83883476,508.314506 C7.03409691,508.509769 7.03409691,508.826351 6.83883476,509.021613 L3.35378644,512.505992 L6.83883476,515.991913 C7.03409691,516.187175 7.03409691,516.503758 6.83883476,516.69902 L3.35378644,520.183992 L6.83883476,523.66932 C7.03409691,523.864582 7.03409691,524.181164 6.83883476,524.376426 L3.35378644,527.860992 L6.83883476,531.346726 C7.03409691,531.541988 7.03409691,531.858571 6.83883476,532.053833 L3.35378644,535.538992 L6.83883476,539.024133 C7.03409691,539.219395 7.03409691,539.535977 6.83883476,539.731239 L3.35378644,543.215992 L6.83883476,546.701539 C7.03409691,546.896801 7.03409691,547.213384 6.83883476,547.408646 L3.35378644,550.892992 L6.83883476,554.378946 C7.03409691,554.574208 7.03409691,554.89079 6.83883476,555.086052 L3.35378644,558.570992 L6.83883476,562.056352 C7.03409691,562.251614 7.03409691,562.568197 6.83883476,562.763459 L3.35378644,566.247992 L6.83883476,569.733759 C7.03409691,569.929021 7.03409691,570.245603 6.83883476,570.440866 L3.35378644,573.925992 L6.83883476,577.411165 C6.97811641,577.550447 7.01804763,577.751457 6.95862844,577.926133 C7.01789368,578.099821 6.97784856,578.300326 6.83883476,578.43934 L3.35378644,581.923992 L6.83883476,585.40964 C7.03409691,585.604902 7.03409691,585.921484 6.83883476,586.116746 L3.35378644,589.601992 L6.83883476,593.087046 C7.03409691,593.282308 7.03409691,593.598891 6.83883476,593.794153 L3.35378644,597.278992 L6.83883476,600.764453 C7.03409691,600.959715 7.03409691,601.276297 6.83883476,601.471559 L3.35378644,604.955992 L6.83883476,608.441859 C7.03409691,608.637121 7.03409691,608.953704 6.83883476,609.148966 L3.35378644,612.633992 L6.83883476,616.119266 C7.03409691,616.314528 7.03409691,616.63111 6.83883476,616.826373 L3.35378644,620.310992 L6.83883476,623.796672 C7.03409691,623.991934 7.03409691,624.308517 6.83883476,624.503779 L3.35378644,627.988992 L6.83883476,631.474079 C7.03409691,631.669341 7.03409691,631.985923 6.83883476,632.181186 L3.35378644,635.665992 L6.83883476,639.151485 C7.03409691,639.346747 7.03409691,639.66333 6.83883476,639.858592 L3.35378644,643.342992 L6.83883476,646.828892 C7.03409691,647.024154 7.03409691,647.340737 6.83883476,647.535999 L3.35378644,651.020992 L6.83883476,654.506298 C7.03409691,654.701561 7.03409691,655.018143 6.83883476,655.213405 L3.35378644,658.697992 L6.83883476,662.183705 C7.03409691,662.378967 7.03409691,662.69555 6.83883476,662.890812 L3.35378644,666.375992 L6.83883476,669.861111 C7.03409691,670.056374 7.03409691,670.372956 6.83883476,670.568218 L3.35378644,674.052992 L6.83883476,677.538518 C7.03409691,677.73378 7.03409691,678.050363 6.83883476,678.245625 L3.35378644,681.729992 L6.83883476,685.215925 C7.03409691,685.411187 7.03409691,685.727769 6.83883476,685.923031 L3.35378644,689.407992 L6.83883476,692.893331 C7.03409691,693.088593 7.03409691,693.405176 6.83883476,693.600438 L3.35378644,697.084992 L6.83883476,700.570738 C7.03409691,700.766 7.03409691,701.082582 6.83883476,701.277844 L3.35378644,704.762992 L6.83883476,708.248144 C7.03409691,708.443406 7.03409691,708.759989 6.83883476,708.955251 L3.35378644,712.439992 L6.83883476,715.925551 C7.03409691,716.120813 7.03409691,716.437395 6.83883476,716.632657 L3.35378644,720.116992 L6.83883476,723.602957 C7.03409691,723.798219 7.03409691,724.114802 6.83883476,724.310064 L3.35378644,727.794992 L6.83883476,731.280364 C7.03409691,731.475626 7.03409691,731.792208 6.83883476,731.987471 L3.35378644,735.471992 L6.83883476,738.95777 C7.03409691,739.153032 7.03409691,739.469615 6.83883476,739.664877 L3.35378644,743.149992 L6.83883476,746.635177 C7.03409691,746.830439 7.03409691,747.147021 6.83883476,747.342284 L3.35378644,750.826992 L6.83883476,754.312583 C7.03409691,754.507845 7.03409691,754.824428 6.83883476,755.01969 L3.35378644,758.503992 L6.83883476,761.98999 C7.03409691,762.185252 7.03409691,762.501834 6.83883476,762.697097 L3.35378644,766.181992 L6.83883476,769.667396 C7.03409691,769.862659 7.03409691,770.179241 6.83883476,770.374503 L3.35378644,773.858992 L6.83883476,777.344803 C7.03409691,777.540065 7.03409691,777.856648 6.83883476,778.05191 L3.35378644,781.536992 L6.83883476,785.022209 C7.03409691,785.217472 7.03409691,785.534054 6.83883476,785.729316 L3.35378644,789.213992 L6.83883476,792.699616 C7.03409691,792.894878 7.03409691,793.211461 6.83883476,793.406723 L3.35378644,796.891992 L6.83883476,800.377023 C7.03409691,800.572285 7.03409691,800.888867 6.83883476,801.084129 L3.35378644,804.568992 L6.83883476,808.054429 C7.03409691,808.249691 7.03409691,808.566274 6.83883476,808.761536 L3.35378644,812.245992 L6.83883476,815.731836 C7.03409691,815.927098 7.03409691,816.24368 6.83883476,816.438942 L3.35378644,819.923992 L6.83883476,823.409242 C7.03409691,823.604504 7.03409691,823.921087 6.83883476,824.116349 L3.35378644,827.600992 L6.83883476,831.086649 C7.03409691,831.281911 7.03409691,831.598493 6.83883476,831.793755 L3.35378644,835.278992 L6.83883476,838.764055 C7.03409691,838.959317 7.03409691,839.2759 6.83883476,839.471162 L3.35378644,842.955992 L6.83883476,846.441462 C7.03409691,846.636724 7.03409691,846.953306 6.83883476,847.148569 L3.35378644,850.632992 L6.83883476,854.118868 C7.03409691,854.31413 7.03409691,854.630713 6.83883476,854.825975 L3.35378644,858.310992 L6.83883476,861.796275 C7.03409691,861.991537 7.03409691,862.308119 6.83883476,862.503382 L3.35378644,865.987992 L6.83883476,869.473681 C7.03409691,869.668943 7.03409691,869.985526 6.83883476,870.180788 L3.35378644,873.665992 L6.83883476,877.151088 C7.03409691,877.34635 7.03409691,877.662932 6.83883476,877.858195 L3.35378644,881.342992 L6.83883476,884.828494 C7.03409691,885.023757 7.03409691,885.340339 6.83883476,885.535601 L3.35378644,889.019992 L6.83883476,892.505901 C7.03409691,892.701163 7.03409691,893.017746 6.83883476,893.213008 L3.35378644,896.697992 L6.83883476,900.183307 C7.03409691,900.37857 7.03409691,900.695152 6.83883476,900.890414 L3.35378644,904.374992 L6.83883476,907.860714 C7.03409691,908.055976 7.03409691,908.372559 6.83883476,908.567821 L3.35378644,912.052992 L6.83883476,915.538121 C7.03409691,915.733383 7.03409691,916.049965 6.83883476,916.245227 L3.35378644,919.729992 L6.83883476,923.215527 C7.03409691,923.410789 7.03409691,923.727372 6.83883476,923.922634 L3.35378644,927.406992 L6.83883476,930.892934 C7.03409691,931.088196 7.03409691,931.404778 6.83883476,931.60004 L3.35378644,935.084992 L6.83883476,938.57034 C7.03409691,938.765602 7.03409691,939.082185 6.83883476,939.277447 L3.35378644,942.761992 L6.83883476,946.247747 C7.03409691,946.443009 7.03409691,946.759591 6.83883476,946.954853 L3.35378644,950.439992 L6.83883476,953.925153 C7.03409691,954.120415 7.03409691,954.436998 6.83883476,954.63226 L3.35378644,958.116992 L6.83883476,961.60256 C7.03409691,961.797822 7.03409691,962.114404 6.83883476,962.309666 L3.35378644,965.793992 L6.83883476,969.279966 C7.03409691,969.475228 7.03409691,969.791811 6.83883476,969.987073 L3.35378644,973.471992 L6.83883476,976.957373 C7.03409691,977.152635 7.03409691,977.469217 6.83883476,977.66448 L3.35378644,981.148992 L6.83883476,984.634779 C7.03409691,984.830041 7.03409691,985.146624 6.83883476,985.341886 L3.35378644,988.826992 L6.83883476,992.312186 C7.03409691,992.507448 7.03409691,992.82403 6.83883476,993.019293 L3.35378644,996.503992 L6.83883476,999.989592 C7.03409691,1000.18485 7.03409691,1000.50144 6.83883476,1000.6967 L0.474873734,1007.06066 C0.279611588,1007.25592 -0.0369709011,1007.25592 -0.232233047,1007.06066 L-3.76776695,1003.52513 C-3.9630291,1003.32986 -3.9630291,1003.01328 -3.76776695,1002.81802 L-0.283213562,999.332992 L-3.76776695,995.84772 C-3.9630291,995.652458 -3.9630291,995.335875 -3.76776695,995.140613 L-0.283213562,991.654992 L-3.76776695,988.170313 C-3.9630291,987.975051 -3.9630291,987.658469 -3.76776695,987.463206 L-0.283213562,983.977992 L-3.76776695,980.492907 C-3.9630291,980.297645 -3.9630291,979.981062 -3.76776695,979.7858 L-0.283213562,976.299992 L-3.76776695,972.8155 C-3.9630291,972.620238 -3.9630291,972.303656 -3.76776695,972.108393 L-0.283213562,968.622992 L-3.76776695,965.138094 C-3.9630291,964.942831 -3.9630291,964.626249 -3.76776695,964.430987 L-0.283213562,960.945992 L-3.76776695,957.460687 C-3.9630291,957.265425 -3.9630291,956.948842 -3.76776695,956.75358 L-0.283213562,953.267992 L-3.76776695,949.783281 C-3.9630291,949.588018 -3.9630291,949.271436 -3.76776695,949.076174 L-0.283213562,945.590992 L-3.76776695,942.105874 C-3.9630291,941.910612 -3.9630291,941.594029 -3.76776695,941.398767 L-0.283213562,937.912992 L-3.76776695,934.428467 C-3.9630291,934.233205 -3.9630291,933.916623 -3.76776695,933.721361 L-0.283213562,930.235992 L-3.76776695,926.751061 C-3.9630291,926.555799 -3.9630291,926.239216 -3.76776695,926.043954 L-0.283213562,922.558992 L-3.76776695,919.073654 C-3.9630291,918.878392 -3.9630291,918.56181 -3.76776695,918.366548 L-0.283213562,914.880992 L-3.76776695,911.396248 C-3.9630291,911.200986 -3.9630291,910.884403 -3.76776695,910.689141 L-0.283213562,907.203992 L-3.76776695,903.718841 C-3.9630291,903.523579 -3.9630291,903.206997 -3.76776695,903.011735 L-0.283213562,899.525992 L-3.76776695,896.041435 C-3.9630291,895.846173 -3.9630291,895.52959 -3.76776695,895.334328 L-0.283213562,891.848992 L-3.76776695,888.364028 C-3.9630291,888.168766 -3.9630291,887.852184 -3.76776695,887.656922 L-0.283213562,884.170992 L-3.76776695,880.686622 C-3.9630291,880.49136 -3.9630291,880.174777 -3.76776695,879.979515 L-0.283213562,876.493992 L-3.76776695,873.009215 C-3.9630291,872.813953 -3.9630291,872.497371 -3.76776695,872.302108 L-0.283213562,868.816992 L-3.76776695,865.331809 C-3.9630291,865.136547 -3.9630291,864.819964 -3.76776695,864.624702 L-0.283213562,861.138992 L-3.76776695,857.654402 C-3.9630291,857.45914 -3.9630291,857.142558 -3.76776695,856.947295 L-0.283213562,853.461992 L-3.76776695,849.976996 C-3.9630291,849.781733 -3.9630291,849.465151 -3.76776695,849.269889 L-0.283213562,845.783992 L-3.76776695,842.299589 C-3.9630291,842.104327 -3.9630291,841.787744 -3.76776695,841.592482 L-0.283213562,838.106992 L-3.76776695,834.622183 C-3.9630291,834.42692 -3.9630291,834.110338 -3.76776695,833.915076 L-0.283213562,830.429992 L-3.76776695,826.944776 C-3.9630291,826.749514 -3.9630291,826.432931 -3.76776695,826.237669 L-0.283213562,822.751992 L-3.76776695,819.267369 C-3.9630291,819.072107 -3.9630291,818.755525 -3.76776695,818.560263 L-0.283213562,815.074992 L-3.76776695,811.589963 C-3.9630291,811.394701 -3.9630291,811.078118 -3.76776695,810.882856 L-0.283213562,807.396992 L-3.76776695,803.912556 C-3.9630291,803.717294 -3.9630291,803.400712 -3.76776695,803.20545 L-0.283213562,799.719992 L-3.76776695,796.23515 C-3.9630291,796.039888 -3.9630291,795.723305 -3.76776695,795.528043 L-0.283213562,792.042992 L-3.76776695,788.557743 C-3.9630291,788.362481 -3.9630291,788.045899 -3.76776695,787.850637 L-0.283213562,784.364992 L-3.76776695,780.880337 C-3.9630291,780.685075 -3.9630291,780.368492 -3.76776695,780.17323 L-0.283213562,776.687992 L-3.76776695,773.20293 C-3.9630291,773.007668 -3.9630291,772.691086 -3.76776695,772.495824 L-0.283213562,769.009992 L-3.76776695,765.525524 C-3.9630291,765.330262 -3.9630291,765.013679 -3.76776695,764.818417 L-0.283213562,761.332992 L-3.76776695,757.848117 C-3.9630291,757.652855 -3.9630291,757.336273 -3.76776695,757.14101 L-0.283213562,753.655992 L-3.76776695,750.170711 C-3.9630291,749.975449 -3.9630291,749.658866 -3.76776695,749.463604 L-0.283213562,745.977992 L-3.76776695,742.493304 C-3.9630291,742.298042 -3.9630291,741.98146 -3.76776695,741.786197 L-0.283213562,738.300992 L-3.76776695,734.815898 C-3.9630291,734.620635 -3.9630291,734.304053 -3.76776695,734.108791 L-0.283213562,730.622992 L-3.76776695,727.138491 C-3.9630291,726.943229 -3.9630291,726.626646 -3.76776695,726.431384 L-0.283213562,722.945992 L-3.76776695,719.461085 C-3.9630291,719.265822 -3.9630291,718.94924 -3.76776695,718.753978 L-0.283213562,715.268992 L-3.76776695,711.783678 C-3.9630291,711.588416 -3.9630291,711.271833 -3.76776695,711.076571 L-0.283213562,707.590992 L-3.76776695,704.106272 C-3.9630291,703.911009 -3.9630291,703.594427 -3.76776695,703.399165 L-0.283213562,699.913992 L-3.76776695,696.428865 C-3.9630291,696.233603 -3.9630291,695.91702 -3.76776695,695.721758 L-0.283213562,692.235992 L-3.76776695,688.751458 C-3.9630291,688.556196 -3.9630291,688.239614 -3.76776695,688.044352 L-0.283213562,684.558992 L-3.76776695,681.074052 C-3.9630291,680.87879 -3.9630291,680.562207 -3.76776695,680.366945 L-0.283213562,676.880992 L-3.76776695,673.396645 C-3.9630291,673.201383 -3.9630291,672.884801 -3.76776695,672.689539 L-0.283213562,669.203992 L-3.76776695,665.719239 C-3.9630291,665.523977 -3.9630291,665.207394 -3.76776695,665.012132 L-0.283213562,661.526992 L-3.76776695,658.041832 C-3.9630291,657.84657 -3.9630291,657.529988 -3.76776695,657.334726 L-0.283213562,653.848992 L-3.76776695,650.364426 C-3.9630291,650.169164 -3.9630291,649.852581 -3.76776695,649.657319 L-0.283213562,646.171992 L-3.76776695,642.687019 C-3.9630291,642.491757 -3.9630291,642.175175 -3.76776695,641.979912 L-0.283213562,638.493992 L-3.76776695,635.009613 C-3.9630291,634.814351 -3.9630291,634.497768 -3.76776695,634.302506 L-0.283213562,630.816992 L-3.76776695,627.332206 C-3.9630291,627.136944 -3.9630291,626.820362 -3.76776695,626.625099 L-0.283213562,623.139992 L-3.76776695,619.6548 C-3.9630291,619.459537 -3.9630291,619.142955 -3.76776695,618.947693 L-0.283213562,615.461992 L-3.76776695,611.977393 C-3.9630291,611.782131 -3.9630291,611.465548 -3.76776695,611.270286 L-0.283213562,607.784992 L-3.76776695,604.299987 C-3.9630291,604.104724 -3.9630291,603.788142 -3.76776695,603.59288 L-0.283213562,600.106992 L-3.76776695,596.62258 C-3.9630291,596.427318 -3.9630291,596.110735 -3.76776695,595.915473 L-0.283213562,592.429992 L-3.76776695,588.945174 C-3.9630291,588.749911 -3.9630291,588.433329 -3.76776695,588.238067 L-0.283213562,584.752992 L-3.76776695,581.267767 C-3.90704859,581.128485 -3.94697982,580.927475 -3.88756063,580.752799 C-3.94691607,580.579564 -3.90693753,580.378763 -3.76776695,580.239592 L-0.283213562,576.753992 L-3.76776695,573.269293 C-3.9630291,573.07403 -3.9630291,572.757448 -3.76776695,572.562186 L-0.283213562,569.076992 L-3.76776695,565.591886 C-3.9630291,565.396624 -3.9630291,565.080041 -3.76776695,564.884779 L-0.283213562,561.398992 L-3.76776695,557.91448 C-3.9630291,557.719217 -3.9630291,557.402635 -3.76776695,557.207373 L-0.283213562,553.721992 L-3.76776695,550.237073 C-3.9630291,550.041811 -3.9630291,549.725228 -3.76776695,549.529966 L-0.283213562,546.044992 L-3.76776695,542.559666 C-3.9630291,542.364404 -3.9630291,542.047822 -3.76776695,541.85256 L-0.283213562,538.366992 L-3.76776695,534.88226 C-3.9630291,534.686998 -3.9630291,534.370415 -3.76776695,534.175153 L-0.283213562,530.689992 L-3.76776695,527.204853 C-3.9630291,527.009591 -3.9630291,526.693009 -3.76776695,526.497747 L-0.283213562,523.011992 L-3.76776695,519.527447 C-3.9630291,519.332185 -3.9630291,519.015602 -3.76776695,518.82034 L-0.283213562,515.334992 L-3.76776695,511.85004 C-3.9630291,511.654778 -3.9630291,511.338196 -3.76776695,511.142934 L-0.283213562,507.656992 L-3.76776695,504.172634 C-3.9630291,503.977372 -3.9630291,503.660789 -3.76776695,503.465527 L-0.283213562,499.979992 L-3.76776695,496.495227 C-3.9630291,496.299965 -3.9630291,495.983383 -3.76776695,495.788121 L-0.283213562,492.302992 L-3.76776695,488.817821 C-3.9630291,488.622559 -3.9630291,488.305976 -3.76776695,488.110714 L-0.283213562,484.624992 L-3.76776695,481.140414 C-3.9630291,480.945152 -3.9630291,480.62857 -3.76776695,480.433307 L-0.283213562,476.947992 L-3.76776695,473.463008 C-3.9630291,473.267746 -3.9630291,472.951163 -3.76776695,472.755901 L-0.283213562,469.269992 L-3.76776695,465.785601 C-3.9630291,465.590339 -3.9630291,465.273757 -3.76776695,465.078494 L-0.283213562,461.592992 L-3.76776695,458.108195 C-3.9630291,457.912932 -3.9630291,457.59635 -3.76776695,457.401088 L-0.283213562,453.915992 L-3.76776695,450.430788 C-3.9630291,450.235526 -3.9630291,449.918943 -3.76776695,449.723681 L-0.283213562,446.237992 L-3.76776695,442.753382 C-3.9630291,442.558119 -3.9630291,442.241537 -3.76776695,442.046275 L-0.283213562,438.560992 L-3.76776695,435.075975 C-3.9630291,434.880713 -3.9630291,434.56413 -3.76776695,434.368868 L-0.283213562,430.882992 L-3.76776695,427.398569 C-3.9630291,427.203306 -3.9630291,426.886724 -3.76776695,426.691462 L-0.283213562,423.205992 L-3.76776695,419.721162 C-3.9630291,419.5259 -3.9630291,419.209317 -3.76776695,419.014055 L-0.283213562,415.528992 L-3.76776695,412.043755 C-3.9630291,411.848493 -3.9630291,411.531911 -3.76776695,411.336649 L-0.283213562,407.850992 L-3.76776695,404.366349 C-3.9630291,404.171087 -3.9630291,403.854504 -3.76776695,403.659242 L-0.283213562,400.173992 L-3.76776695,396.688942 C-3.9630291,396.49368 -3.9630291,396.177098 -3.76776695,395.981836 L-0.283213562,392.495992 L-3.76776695,389.011536 C-3.9630291,388.816274 -3.9630291,388.499691 -3.76776695,388.304429 L-0.283213562,384.818992 L-3.76776695,381.334129 C-3.9630291,381.138867 -3.9630291,380.822285 -3.76776695,380.627023 L-0.283213562,377.141992 L-3.76776695,373.656723 C-3.9630291,373.461461 -3.9630291,373.144878 -3.76776695,372.949616 L-0.283213562,369.463992 L-3.76776695,365.979316 C-3.9630291,365.784054 -3.9630291,365.467472 -3.76776695,365.272209 L-0.283213562,361.786992 L-3.76776695,358.30191 C-3.9630291,358.106648 -3.9630291,357.790065 -3.76776695,357.594803 L-0.283213562,354.108992 L-3.76776695,350.624503 C-3.9630291,350.429241 -3.9630291,350.112659 -3.76776695,349.917396 L-0.283213562,346.431992 L-3.76776695,342.947097 C-3.9630291,342.751834 -3.9630291,342.435252 -3.76776695,342.23999 L-0.283213562,338.754992 L-3.76776695,335.26969 C-3.9630291,335.074428 -3.9630291,334.757845 -3.76776695,334.562583 L-0.283213562,331.076992 L-3.76776695,327.592284 C-3.9630291,327.397021 -3.9630291,327.080439 -3.76776695,326.885177 L-0.283213562,323.399992 L-3.76776695,319.914877 C-3.9630291,319.719615 -3.9630291,319.403032 -3.76776695,319.20777 L-0.283213562,315.721992 L-3.76776695,312.237471 C-3.9630291,312.042208 -3.9630291,311.725626 -3.76776695,311.530364 L-0.283213562,308.044992 L-3.76776695,304.560064 C-3.9630291,304.364802 -3.9630291,304.048219 -3.76776695,303.852957 L-0.283213562,300.367992 L-3.76776695,296.882657 C-3.9630291,296.687395 -3.9630291,296.370813 -3.76776695,296.175551 L-0.283213562,292.689992 L-3.76776695,289.205251 C-3.9630291,289.009989 -3.9630291,288.693406 -3.76776695,288.498144 L-0.283213562,285.012992 L-3.76776695,281.527844 C-3.9630291,281.332582 -3.9630291,281.016 -3.76776695,280.820738 L-0.283213562,277.334992 L-3.76776695,273.850438 C-3.9630291,273.655176 -3.9630291,273.338593 -3.76776695,273.143331 L-0.283213562,269.657992 L-3.76776695,266.173031 C-3.9630291,265.977769 -3.9630291,265.661187 -3.76776695,265.465925 L-0.283213562,261.979992 L-3.76776695,258.495625 C-3.9630291,258.300363 -3.9630291,257.98378 -3.76776695,257.788518 L-0.283213562,254.302992 L-3.76776695,250.818218 C-3.9630291,250.622956 -3.9630291,250.306374 -3.76776695,250.111111 L-0.283213562,246.625992 L-3.76776695,243.140812 C-3.9630291,242.94555 -3.9630291,242.628967 -3.76776695,242.433705 L-0.283213562,238.947992 L-3.76776695,235.463405 C-3.9630291,235.268143 -3.9630291,234.951561 -3.76776695,234.756298 L-0.283213562,231.270992 L-3.76776695,227.785999 C-3.9630291,227.590737 -3.9630291,227.274154 -3.76776695,227.078892 L-0.283213562,223.592992 L-3.76776695,220.108592 C-3.9630291,219.91333 -3.9630291,219.596747 -3.76776695,219.401485 L-0.283213562,215.915992 L-3.76776695,212.431186 C-3.9630291,212.235923 -3.9630291,211.919341 -3.76776695,211.724079 L-0.283213562,208.238992 L-3.76776695,204.753779 C-3.9630291,204.558517 -3.9630291,204.241934 -3.76776695,204.046672 L-0.283213562,200.560992 L-3.76776695,197.076373 C-3.9630291,196.88111 -3.9630291,196.564528 -3.76776695,196.369266 L-0.283213562,192.883992 L-3.76776695,189.398966 C-3.9630291,189.203704 -3.9630291,188.887121 -3.76776695,188.691859 L-0.283213562,185.205992 L-3.76776695,181.721559 C-3.9630291,181.526297 -3.9630291,181.209715 -3.76776695,181.014453 L-0.283213562,177.528992 L-3.76776695,174.044153 C-3.9630291,173.848891 -3.9630291,173.532308 -3.76776695,173.337046 L-0.283213562,169.851992 L-3.76776695,166.366746 C-3.9630291,166.171484 -3.9630291,165.854902 -3.76776695,165.65964 L-0.283213562,162.173992 L-3.76776695,158.68934 C-3.9630291,158.494078 -3.9630291,158.177495 -3.76776695,157.982233 L-0.244213562,154.457992 L-3.76776695,150.933506 C-3.9630291,150.738244 -3.9630291,150.421662 -3.76776695,150.226399 L-0.283213562,146.740992 L-3.76776695,143.2561 C-3.9630291,143.060838 -3.9630291,142.744255 -3.76776695,142.548993 L-0.283213562,139.063992 L-3.76776695,135.578693 C-3.9630291,135.383431 -3.9630291,135.066848 -3.76776695,134.871586 L-0.283213562,131.385992 L-3.76776695,127.901287 C-3.9630291,127.706024 -3.9630291,127.389442 -3.76776695,127.19418 L-0.283213562,123.708992 L-3.76776695,120.22388 C-3.9630291,120.028618 -3.9630291,119.712035 -3.76776695,119.516773 L-0.283213562,116.030992 L-3.76776695,112.546474 C-3.9630291,112.351211 -3.9630291,112.034629 -3.76776695,111.839367 L-0.283213562,108.353992 L-3.76776695,104.869067 C-3.9630291,104.673805 -3.9630291,104.357222 -3.76776695,104.16196 L-0.283213562,100.676992 L-3.76776695,97.1916604 C-3.9630291,96.9963983 -3.9630291,96.6798158 -3.76776695,96.4845537 L-0.283213562,92.9989918 L-3.76776695,89.5142539 C-3.9630291,89.3189918 -3.9630291,89.0024093 -3.76776695,88.8071471 L-0.283213562,85.3219918 L-3.76776695,81.8368474 C-3.9630291,81.6415852 -3.9630291,81.3250027 -3.76776695,81.1297406 L-0.283213562,77.6439918 L-3.76776695,74.1594409 C-3.9630291,73.9641787 -3.9630291,73.6475962 -3.76776695,73.4523341 L-0.283213562,69.9669918 L-3.76776695,66.4820343 C-3.9630291,66.2867722 -3.9630291,65.9701897 -3.76776695,65.7749275 L-0.283213562,62.2889918 L-3.76776695,58.8046278 C-3.9630291,58.6093656 -3.9630291,58.2927832 -3.76776695,58.097521 L-0.283213562,54.6119918 L-3.76776695,51.1272212 C-3.9630291,50.9319591 -3.9630291,50.6153766 -3.76776695,50.4201145 L-0.283213562,46.9349918 L-3.76776695,43.4498147 C-3.9630291,43.2545526 -3.9630291,42.9379701 -3.76776695,42.7427079 L-0.283213562,39.2569918 L-3.76776695,35.7724082 C-3.9630291,35.577146 -3.9630291,35.2605635 -3.76776695,35.0653014 L-0.283213562,31.5799918 L-3.76776695,28.0950017 C-3.9630291,27.8997395 -3.9630291,27.583157 -3.76776695,27.3878949 L-0.283213562,23.9019918 L-3.76776695,20.4175951 C-3.9630291,20.222333 -3.9630291,19.9057505 -3.76776695,19.7104883 L-0.283213562,16.2249918 L-3.76776695,12.7401886 C-3.9630291,12.5449264 -3.9630291,12.228344 -3.76776695,12.0330818 L-0.217125151,8.48353937 C-0.222236718,8.47883222 -0.227274008,8.47399913 -0.232233047,8.46904009 L-3.76776695,4.93350618 C-3.9630291,4.73824404 -3.9630291,4.42166155 -3.76776695,4.2263994 L2.59619408,-2.13756163 C2.79145622,-2.33282378 3.10803871,-2.33282378 3.30330086,-2.13756163 Z" id="Combined-Shape" fill="#F1F3F8" mask="url(#mask-2)"></path>
                <path d="M7.71751442,997.868272 L8.4246212,998.575379 C8.61988335,998.770641 8.61988335,999.087223 8.4246212,999.282486 L2.06066017,1005.64645 C1.86539803,1005.84171 1.54881554,1005.84171 1.35355339,1005.64645 L0.646446609,1004.93934 C0.451184464,1004.74408 0.451184464,1004.4275 0.646446609,1004.23223 L7.01040764,997.868272 C7.20566979,997.67301 7.52225228,997.67301 7.71751442,997.868272 Z M7.71751442,990.190865 L8.4246212,990.897972 C8.61988335,991.093234 8.61988335,991.409817 8.4246212,991.605079 L2.06066017,997.96904 C1.86539803,998.164302 1.54881554,998.164302 1.35355339,997.96904 L0.646446609,997.261933 C0.451184464,997.066671 0.451184464,996.750089 0.646446609,996.554827 L7.01040764,990.190865 C7.20566979,989.995603 7.52225228,989.995603 7.71751442,990.190865 Z M7.71751442,982.513459 L8.4246212,983.220566 C8.61988335,983.415828 8.61988335,983.73241 8.4246212,983.927673 L2.06066017,990.291634 C1.86539803,990.486896 1.54881554,990.486896 1.35355339,990.291634 L0.646446609,989.584527 C0.451184464,989.389265 0.451184464,989.072682 0.646446609,988.87742 L7.01040764,982.513459 C7.20566979,982.318197 7.52225228,982.318197 7.71751442,982.513459 Z M7.71751442,974.836052 L8.4246212,975.543159 C8.61988335,975.738421 8.61988335,976.055004 8.4246212,976.250266 L2.06066017,982.614227 C1.86539803,982.809489 1.54881554,982.809489 1.35355339,982.614227 L0.646446609,981.90712 C0.451184464,981.711858 0.451184464,981.395276 0.646446609,981.200013 L7.01040764,974.836052 C7.20566979,974.64079 7.52225228,974.64079 7.71751442,974.836052 Z M7.71751442,967.158646 L8.4246212,967.865753 C8.61988335,968.061015 8.61988335,968.377597 8.4246212,968.572859 L2.06066017,974.93682 C1.86539803,975.132083 1.54881554,975.132083 1.35355339,974.93682 L0.646446609,974.229714 C0.451184464,974.034452 0.451184464,973.717869 0.646446609,973.522607 L7.01040764,967.158646 C7.20566979,966.963384 7.52225228,966.963384 7.71751442,967.158646 Z M7.71751442,959.481239 L8.4246212,960.188346 C8.61988335,960.383608 8.61988335,960.700191 8.4246212,960.895453 L2.06066017,967.259414 C1.86539803,967.454676 1.54881554,967.454676 1.35355339,967.259414 L0.646446609,966.552307 C0.451184464,966.357045 0.451184464,966.040463 0.646446609,965.8452 L7.01040764,959.481239 C7.20566979,959.285977 7.52225228,959.285977 7.71751442,959.481239 Z M7.71751442,951.803833 L8.4246212,952.51094 C8.61988335,952.706202 8.61988335,953.022784 8.4246212,953.218046 L2.06066017,959.582007 C1.86539803,959.77727 1.54881554,959.77727 1.35355339,959.582007 L0.646446609,958.874901 C0.451184464,958.679638 0.451184464,958.363056 0.646446609,958.167794 L7.01040764,951.803833 C7.20566979,951.608571 7.52225228,951.608571 7.71751442,951.803833 Z M7.71751442,944.126426 L8.4246212,944.833533 C8.61988335,945.028795 8.61988335,945.345378 8.4246212,945.54064 L2.06066017,951.904601 C1.86539803,952.099863 1.54881554,952.099863 1.35355339,951.904601 L0.646446609,951.197494 C0.451184464,951.002232 0.451184464,950.685649 0.646446609,950.490387 L7.01040764,944.126426 C7.20566979,943.931164 7.52225228,943.931164 7.71751442,944.126426 Z M7.71751442,936.44902 L8.4246212,937.156127 C8.61988335,937.351389 8.61988335,937.667971 8.4246212,937.863233 L2.06066017,944.227194 C1.86539803,944.422456 1.54881554,944.422456 1.35355339,944.227194 L0.646446609,943.520088 C0.451184464,943.324825 0.451184464,943.008243 0.646446609,942.812981 L7.01040764,936.44902 C7.20566979,936.253758 7.52225228,936.253758 7.71751442,936.44902 Z M7.71751442,928.771613 L8.4246212,929.47872 C8.61988335,929.673982 8.61988335,929.990565 8.4246212,930.185827 L2.06066017,936.549788 C1.86539803,936.74505 1.54881554,936.74505 1.35355339,936.549788 L0.646446609,935.842681 C0.451184464,935.647419 0.451184464,935.330836 0.646446609,935.135574 L7.01040764,928.771613 C7.20566979,928.576351 7.52225228,928.576351 7.71751442,928.771613 Z M7.71751442,921.094207 L8.4246212,921.801313 C8.61988335,921.996576 8.61988335,922.313158 8.4246212,922.50842 L2.06066017,928.872381 C1.86539803,929.067643 1.54881554,929.067643 1.35355339,928.872381 L0.646446609,928.165274 C0.451184464,927.970012 0.451184464,927.65343 0.646446609,927.458168 L7.01040764,921.094207 C7.20566979,920.898945 7.52225228,920.898945 7.71751442,921.094207 Z M7.71751442,913.4168 L8.4246212,914.123907 C8.61988335,914.319169 8.61988335,914.635752 8.4246212,914.831014 L2.06066017,921.194975 C1.86539803,921.390237 1.54881554,921.390237 1.35355339,921.194975 L0.646446609,920.487868 C0.451184464,920.292606 0.451184464,919.976023 0.646446609,919.780761 L7.01040764,913.4168 C7.20566979,913.221538 7.52225228,913.221538 7.71751442,913.4168 Z M7.71751442,905.739394 L8.4246212,906.4465 C8.61988335,906.641763 8.61988335,906.958345 8.4246212,907.153607 L2.06066017,913.517568 C1.86539803,913.71283 1.54881554,913.71283 1.35355339,913.517568 L0.646446609,912.810461 C0.451184464,912.615199 0.451184464,912.298617 0.646446609,912.103355 L7.01040764,905.739394 C7.20566979,905.544131 7.52225228,905.544131 7.71751442,905.739394 Z M7.71751442,898.061987 L8.4246212,898.769094 C8.61988335,898.964356 8.61988335,899.280939 8.4246212,899.476201 L2.06066017,905.840162 C1.86539803,906.035424 1.54881554,906.035424 1.35355339,905.840162 L0.646446609,905.133055 C0.451184464,904.937793 0.451184464,904.62121 0.646446609,904.425948 L7.01040764,898.061987 C7.20566979,897.866725 7.52225228,897.866725 7.71751442,898.061987 Z M7.71751442,890.384581 L8.4246212,891.091687 C8.61988335,891.286949 8.61988335,891.603532 8.4246212,891.798794 L2.06066017,898.162755 C1.86539803,898.358017 1.54881554,898.358017 1.35355339,898.162755 L0.646446609,897.455648 C0.451184464,897.260386 0.451184464,896.943804 0.646446609,896.748542 L7.01040764,890.384581 C7.20566979,890.189318 7.52225228,890.189318 7.71751442,890.384581 Z M7.71751442,882.707174 L8.4246212,883.414281 C8.61988335,883.609543 8.61988335,883.926125 8.4246212,884.121388 L2.06066017,890.485349 C1.86539803,890.680611 1.54881554,890.680611 1.35355339,890.485349 L0.646446609,889.778242 C0.451184464,889.58298 0.451184464,889.266397 0.646446609,889.071135 L7.01040764,882.707174 C7.20566979,882.511912 7.52225228,882.511912 7.71751442,882.707174 Z M7.71751442,875.029767 L8.4246212,875.736874 C8.61988335,875.932136 8.61988335,876.248719 8.4246212,876.443981 L2.06066017,882.807942 C1.86539803,883.003204 1.54881554,883.003204 1.35355339,882.807942 L0.646446609,882.100835 C0.451184464,881.905573 0.451184464,881.588991 0.646446609,881.393729 L7.01040764,875.029767 C7.20566979,874.834505 7.52225228,874.834505 7.71751442,875.029767 Z M7.71751442,867.352361 L8.4246212,868.059468 C8.61988335,868.25473 8.61988335,868.571312 8.4246212,868.766575 L2.06066017,875.130536 C1.86539803,875.325798 1.54881554,875.325798 1.35355339,875.130536 L0.646446609,874.423429 C0.451184464,874.228167 0.451184464,873.911584 0.646446609,873.716322 L7.01040764,867.352361 C7.20566979,867.157099 7.52225228,867.157099 7.71751442,867.352361 Z M7.71751442,859.674954 L8.4246212,860.382061 C8.61988335,860.577323 8.61988335,860.893906 8.4246212,861.089168 L2.06066017,867.453129 C1.86539803,867.648391 1.54881554,867.648391 1.35355339,867.453129 L0.646446609,866.746022 C0.451184464,866.55076 0.451184464,866.234178 0.646446609,866.038915 L7.01040764,859.674954 C7.20566979,859.479692 7.52225228,859.479692 7.71751442,859.674954 Z M7.71751442,851.997548 L8.4246212,852.704655 C8.61988335,852.899917 8.61988335,853.216499 8.4246212,853.411761 L2.06066017,859.775722 C1.86539803,859.970985 1.54881554,859.970985 1.35355339,859.775722 L0.646446609,859.068616 C0.451184464,858.873354 0.451184464,858.556771 0.646446609,858.361509 L7.01040764,851.997548 C7.20566979,851.802286 7.52225228,851.802286 7.71751442,851.997548 Z M7.71751442,844.320141 L8.4246212,845.027248 C8.61988335,845.22251 8.61988335,845.539093 8.4246212,845.734355 L2.06066017,852.098316 C1.86539803,852.293578 1.54881554,852.293578 1.35355339,852.098316 L0.646446609,851.391209 C0.451184464,851.195947 0.451184464,850.879365 0.646446609,850.684102 L7.01040764,844.320141 C7.20566979,844.124879 7.52225228,844.124879 7.71751442,844.320141 Z M7.71751442,836.642735 L8.4246212,837.349842 C8.61988335,837.545104 8.61988335,837.861686 8.4246212,838.056948 L2.06066017,844.420909 C1.86539803,844.616172 1.54881554,844.616172 1.35355339,844.420909 L0.646446609,843.713803 C0.451184464,843.51854 0.451184464,843.201958 0.646446609,843.006696 L7.01040764,836.642735 C7.20566979,836.447473 7.52225228,836.447473 7.71751442,836.642735 Z M7.71751442,828.965328 L8.4246212,829.672435 C8.61988335,829.867697 8.61988335,830.18428 8.4246212,830.379542 L2.06066017,836.743503 C1.86539803,836.938765 1.54881554,836.938765 1.35355339,836.743503 L0.646446609,836.036396 C0.451184464,835.841134 0.451184464,835.524551 0.646446609,835.329289 L7.01040764,828.965328 C7.20566979,828.770066 7.52225228,828.770066 7.71751442,828.965328 Z M7.71751442,821.287922 L8.4246212,821.995029 C8.61988335,822.190291 8.61988335,822.506873 8.4246212,822.702135 L2.06066017,829.066096 C1.86539803,829.261358 1.54881554,829.261358 1.35355339,829.066096 L0.646446609,828.35899 C0.451184464,828.163727 0.451184464,827.847145 0.646446609,827.651883 L7.01040764,821.287922 C7.20566979,821.09266 7.52225228,821.09266 7.71751442,821.287922 Z M7.71751442,813.610515 L8.4246212,814.317622 C8.61988335,814.512884 8.61988335,814.829467 8.4246212,815.024729 L2.06066017,821.38869 C1.86539803,821.583952 1.54881554,821.583952 1.35355339,821.38869 L0.646446609,820.681583 C0.451184464,820.486321 0.451184464,820.169738 0.646446609,819.974476 L7.01040764,813.610515 C7.20566979,813.415253 7.52225228,813.415253 7.71751442,813.610515 Z M7.71751442,805.933109 L8.4246212,806.640215 C8.61988335,806.835478 8.61988335,807.15206 8.4246212,807.347322 L2.06066017,813.711283 C1.86539803,813.906545 1.54881554,813.906545 1.35355339,813.711283 L0.646446609,813.004177 C0.451184464,812.808914 0.451184464,812.492332 0.646446609,812.29707 L7.01040764,805.933109 C7.20566979,805.737847 7.52225228,805.737847 7.71751442,805.933109 Z M7.71751442,798.255702 L8.4246212,798.962809 C8.61988335,799.158071 8.61988335,799.474654 8.4246212,799.669916 L2.06066017,806.033877 C1.86539803,806.229139 1.54881554,806.229139 1.35355339,806.033877 L0.646446609,805.32677 C0.451184464,805.131508 0.451184464,804.814925 0.646446609,804.619663 L7.01040764,798.255702 C7.20566979,798.06044 7.52225228,798.06044 7.71751442,798.255702 Z M7.71751442,790.578296 L8.4246212,791.285402 C8.61988335,791.480665 8.61988335,791.797247 8.4246212,791.992509 L2.06066017,798.35647 C1.86539803,798.551732 1.54881554,798.551732 1.35355339,798.35647 L0.646446609,797.649363 C0.451184464,797.454101 0.451184464,797.137519 0.646446609,796.942257 L7.01040764,790.578296 C7.20566979,790.383033 7.52225228,790.383033 7.71751442,790.578296 Z M7.71751442,782.900889 L8.4246212,783.607996 C8.61988335,783.803258 8.61988335,784.119841 8.4246212,784.315103 L2.06066017,790.679064 C1.86539803,790.874326 1.54881554,790.874326 1.35355339,790.679064 L0.646446609,789.971957 C0.451184464,789.776695 0.451184464,789.460112 0.646446609,789.26485 L7.01040764,782.900889 C7.20566979,782.705627 7.52225228,782.705627 7.71751442,782.900889 Z M7.71751442,775.223483 L8.4246212,775.930589 C8.61988335,776.125851 8.61988335,776.442434 8.4246212,776.637696 L2.06066017,783.001657 C1.86539803,783.196919 1.54881554,783.196919 1.35355339,783.001657 L0.646446609,782.29455 C0.451184464,782.099288 0.451184464,781.782706 0.646446609,781.587444 L7.01040764,775.223483 C7.20566979,775.02822 7.52225228,775.02822 7.71751442,775.223483 Z M7.71751442,767.546076 L8.4246212,768.253183 C8.61988335,768.448445 8.61988335,768.765027 8.4246212,768.96029 L2.06066017,775.324251 C1.86539803,775.519513 1.54881554,775.519513 1.35355339,775.324251 L0.646446609,774.617144 C0.451184464,774.421882 0.451184464,774.105299 0.646446609,773.910037 L7.01040764,767.546076 C7.20566979,767.350814 7.52225228,767.350814 7.71751442,767.546076 Z M7.71751442,759.868669 L8.4246212,760.575776 C8.61988335,760.771038 8.61988335,761.087621 8.4246212,761.282883 L2.06066017,767.646844 C1.86539803,767.842106 1.54881554,767.842106 1.35355339,767.646844 L0.646446609,766.939737 C0.451184464,766.744475 0.451184464,766.427893 0.646446609,766.232631 L7.01040764,759.868669 C7.20566979,759.673407 7.52225228,759.673407 7.71751442,759.868669 Z M7.71751442,752.191263 L8.4246212,752.89837 C8.61988335,753.093632 8.61988335,753.410214 8.4246212,753.605477 L2.06066017,759.969438 C1.86539803,760.1647 1.54881554,760.1647 1.35355339,759.969438 L0.646446609,759.262331 C0.451184464,759.067069 0.451184464,758.750486 0.646446609,758.555224 L7.01040764,752.191263 C7.20566979,751.996001 7.52225228,751.996001 7.71751442,752.191263 Z M7.71751442,744.513856 L8.4246212,745.220963 C8.61988335,745.416225 8.61988335,745.732808 8.4246212,745.92807 L2.06066017,752.292031 C1.86539803,752.487293 1.54881554,752.487293 1.35355339,752.292031 L0.646446609,751.584924 C0.451184464,751.389662 0.451184464,751.07308 0.646446609,750.877817 L7.01040764,744.513856 C7.20566979,744.318594 7.52225228,744.318594 7.71751442,744.513856 Z M7.71751442,736.83645 L8.4246212,737.543557 C8.61988335,737.738819 8.61988335,738.055401 8.4246212,738.250663 L2.06066017,744.614624 C1.86539803,744.809887 1.54881554,744.809887 1.35355339,744.614624 L0.646446609,743.907518 C0.451184464,743.712256 0.451184464,743.395673 0.646446609,743.200411 L7.01040764,736.83645 C7.20566979,736.641188 7.52225228,736.641188 7.71751442,736.83645 Z M7.71751442,729.159043 L8.4246212,729.86615 C8.61988335,730.061412 8.61988335,730.377995 8.4246212,730.573257 L2.06066017,736.937218 C1.86539803,737.13248 1.54881554,737.13248 1.35355339,736.937218 L0.646446609,736.230111 C0.451184464,736.034849 0.451184464,735.718267 0.646446609,735.523004 L7.01040764,729.159043 C7.20566979,728.963781 7.52225228,728.963781 7.71751442,729.159043 Z M7.71751442,721.481637 L8.4246212,722.188744 C8.61988335,722.384006 8.61988335,722.700588 8.4246212,722.89585 L2.06066017,729.259811 C1.86539803,729.455074 1.54881554,729.455074 1.35355339,729.259811 L0.646446609,728.552705 C0.451184464,728.357442 0.451184464,728.04086 0.646446609,727.845598 L7.01040764,721.481637 C7.20566979,721.286375 7.52225228,721.286375 7.71751442,721.481637 Z M7.71751442,713.80423 L8.4246212,714.511337 C8.61988335,714.706599 8.61988335,715.023182 8.4246212,715.218444 L2.06066017,721.582405 C1.86539803,721.777667 1.54881554,721.777667 1.35355339,721.582405 L0.646446609,720.875298 C0.451184464,720.680036 0.451184464,720.363453 0.646446609,720.168191 L7.01040764,713.80423 C7.20566979,713.608968 7.52225228,713.608968 7.71751442,713.80423 Z M7.71751442,706.126824 L8.4246212,706.833931 C8.61988335,707.029193 8.61988335,707.345775 8.4246212,707.541037 L2.06066017,713.904998 C1.86539803,714.100261 1.54881554,714.100261 1.35355339,713.904998 L0.646446609,713.197892 C0.451184464,713.002629 0.451184464,712.686047 0.646446609,712.490785 L7.01040764,706.126824 C7.20566979,705.931562 7.52225228,705.931562 7.71751442,706.126824 Z M7.71751442,698.449417 L8.4246212,699.156524 C8.61988335,699.351786 8.61988335,699.668369 8.4246212,699.863631 L2.06066017,706.227592 C1.86539803,706.422854 1.54881554,706.422854 1.35355339,706.227592 L0.646446609,705.520485 C0.451184464,705.325223 0.451184464,705.00864 0.646446609,704.813378 L7.01040764,698.449417 C7.20566979,698.254155 7.52225228,698.254155 7.71751442,698.449417 Z M7.71751442,690.772011 L8.4246212,691.479117 C8.61988335,691.67438 8.61988335,691.990962 8.4246212,692.186224 L2.06066017,698.550185 C1.86539803,698.745447 1.54881554,698.745447 1.35355339,698.550185 L0.646446609,697.843079 C0.451184464,697.647816 0.451184464,697.331234 0.646446609,697.135972 L7.01040764,690.772011 C7.20566979,690.576749 7.52225228,690.576749 7.71751442,690.772011 Z M7.71751442,683.094604 L8.4246212,683.801711 C8.61988335,683.996973 8.61988335,684.313556 8.4246212,684.508818 L2.06066017,690.872779 C1.86539803,691.068041 1.54881554,691.068041 1.35355339,690.872779 L0.646446609,690.165672 C0.451184464,689.97041 0.451184464,689.653827 0.646446609,689.458565 L7.01040764,683.094604 C7.20566979,682.899342 7.52225228,682.899342 7.71751442,683.094604 Z M7.71751442,675.417198 L8.4246212,676.124304 C8.61988335,676.319567 8.61988335,676.636149 8.4246212,676.831411 L2.06066017,683.195372 C1.86539803,683.390634 1.54881554,683.390634 1.35355339,683.195372 L0.646446609,682.488265 C0.451184464,682.293003 0.451184464,681.976421 0.646446609,681.781159 L7.01040764,675.417198 C7.20566979,675.221935 7.52225228,675.221935 7.71751442,675.417198 Z M7.71751442,667.739791 L8.4246212,668.446898 C8.61988335,668.64216 8.61988335,668.958743 8.4246212,669.154005 L2.06066017,675.517966 C1.86539803,675.713228 1.54881554,675.713228 1.35355339,675.517966 L0.646446609,674.810859 C0.451184464,674.615597 0.451184464,674.299014 0.646446609,674.103752 L7.01040764,667.739791 C7.20566979,667.544529 7.52225228,667.544529 7.71751442,667.739791 Z M7.71751442,660.062385 L8.4246212,660.769491 C8.61988335,660.964753 8.61988335,661.281336 8.4246212,661.476598 L2.06066017,667.840559 C1.86539803,668.035821 1.54881554,668.035821 1.35355339,667.840559 L0.646446609,667.133452 C0.451184464,666.93819 0.451184464,666.621608 0.646446609,666.426346 L7.01040764,660.062385 C7.20566979,659.867122 7.52225228,659.867122 7.71751442,660.062385 Z M7.71751442,652.384978 L8.4246212,653.092085 C8.61988335,653.287347 8.61988335,653.603929 8.4246212,653.799192 L2.06066017,660.163153 C1.86539803,660.358415 1.54881554,660.358415 1.35355339,660.163153 L0.646446609,659.456046 C0.451184464,659.260784 0.451184464,658.944201 0.646446609,658.748939 L7.01040764,652.384978 C7.20566979,652.189716 7.52225228,652.189716 7.71751442,652.384978 Z M7.71751442,644.707572 L8.4246212,645.414678 C8.61988335,645.60994 8.61988335,645.926523 8.4246212,646.121785 L2.06066017,652.485746 C1.86539803,652.681008 1.54881554,652.681008 1.35355339,652.485746 L0.646446609,651.778639 C0.451184464,651.583377 0.451184464,651.266795 0.646446609,651.071533 L7.01040764,644.707572 C7.20566979,644.512309 7.52225228,644.512309 7.71751442,644.707572 Z M7.71751442,637.030165 L8.4246212,637.737272 C8.61988335,637.932534 8.61988335,638.249116 8.4246212,638.444379 L2.06066017,644.80834 C1.86539803,645.003602 1.54881554,645.003602 1.35355339,644.80834 L0.646446609,644.101233 C0.451184464,643.905971 0.451184464,643.589388 0.646446609,643.394126 L7.01040764,637.030165 C7.20566979,636.834903 7.52225228,636.834903 7.71751442,637.030165 Z M7.71751442,629.352758 L8.4246212,630.059865 C8.61988335,630.255127 8.61988335,630.57171 8.4246212,630.766972 L2.06066017,637.130933 C1.86539803,637.326195 1.54881554,637.326195 1.35355339,637.130933 L0.646446609,636.423826 C0.451184464,636.228564 0.451184464,635.911982 0.646446609,635.716719 L7.01040764,629.352758 C7.20566979,629.157496 7.52225228,629.157496 7.71751442,629.352758 Z M7.71751442,621.675352 L8.4246212,622.382459 C8.61988335,622.577721 8.61988335,622.894303 8.4246212,623.089565 L2.06066017,629.453526 C1.86539803,629.648789 1.54881554,629.648789 1.35355339,629.453526 L0.646446609,628.74642 C0.451184464,628.551158 0.451184464,628.234575 0.646446609,628.039313 L7.01040764,621.675352 C7.20566979,621.48009 7.52225228,621.48009 7.71751442,621.675352 Z M7.71751442,613.997945 L8.4246212,614.705052 C8.61988335,614.900314 8.61988335,615.216897 8.4246212,615.412159 L2.06066017,621.77612 C1.86539803,621.971382 1.54881554,621.971382 1.35355339,621.77612 L0.646446609,621.069013 C0.451184464,620.873751 0.451184464,620.557169 0.646446609,620.361906 L7.01040764,613.997945 C7.20566979,613.802683 7.52225228,613.802683 7.71751442,613.997945 Z M7.71751442,606.320539 L8.4246212,607.027646 C8.61988335,607.222908 8.61988335,607.53949 8.4246212,607.734752 L2.06066017,614.098713 C1.86539803,614.293976 1.54881554,614.293976 1.35355339,614.098713 L0.646446609,613.391607 C0.451184464,613.196345 0.451184464,612.879762 0.646446609,612.6845 L7.01040764,606.320539 C7.20566979,606.125277 7.52225228,606.125277 7.71751442,606.320539 Z M7.71751442,598.643132 L8.4246212,599.350239 C8.61988335,599.545501 8.61988335,599.862084 8.4246212,600.057346 L2.06066017,606.421307 C1.86539803,606.616569 1.54881554,606.616569 1.35355339,606.421307 L0.646446609,605.7142 C0.451184464,605.518938 0.451184464,605.202355 0.646446609,605.007093 L7.01040764,598.643132 C7.20566979,598.44787 7.52225228,598.44787 7.71751442,598.643132 Z M7.71751442,590.965726 L8.4246212,591.672833 C8.61988335,591.868095 8.61988335,592.184677 8.4246212,592.379939 L2.06066017,598.7439 C1.86539803,598.939163 1.54881554,598.939163 1.35355339,598.7439 L0.646446609,598.036794 C0.451184464,597.841531 0.451184464,597.524949 0.646446609,597.329687 L7.01040764,590.965726 C7.20566979,590.770464 7.52225228,590.770464 7.71751442,590.965726 Z M7.71751442,583.288319 L8.4246212,583.995426 C8.61988335,584.190688 8.61988335,584.507271 8.4246212,584.702533 L2.06066017,591.066494 C1.86539803,591.261756 1.54881554,591.261756 1.35355339,591.066494 L0.646446609,590.359387 C0.451184464,590.164125 0.451184464,589.847542 0.646446609,589.65228 L7.01040764,583.288319 C7.20566979,583.093057 7.52225228,583.093057 7.71751442,583.288319 Z M7.71751442,575.610913 L8.4246212,576.318019 C8.61988335,576.513282 8.61988335,576.829864 8.4246212,577.025126 L2.06066017,583.389087 C1.86539803,583.584349 1.54881554,583.584349 1.35355339,583.389087 L0.646446609,582.681981 C0.451184464,582.486718 0.451184464,582.170136 0.646446609,581.974874 L7.01040764,575.610913 C7.20566979,575.415651 7.52225228,575.415651 7.71751442,575.610913 Z M7.71751442,568.026652 L8.4246212,568.733759 C8.61988335,568.929021 8.61988335,569.245603 8.4246212,569.440865 L2.06066017,575.804827 C1.86539803,576.000089 1.54881554,576.000089 1.35355339,575.804827 L0.646446609,575.09772 C0.451184464,574.902458 0.451184464,574.585875 0.646446609,574.390613 L7.01040764,568.026652 C7.20566979,567.83139 7.52225228,567.83139 7.71751442,568.026652 Z M7.71751442,560.349245 L8.4246212,561.056352 C8.61988335,561.251614 8.61988335,561.568197 8.4246212,561.763459 L2.06066017,568.12742 C1.86539803,568.322682 1.54881554,568.322682 1.35355339,568.12742 L0.646446609,567.420313 C0.451184464,567.225051 0.451184464,566.908469 0.646446609,566.713206 L7.01040764,560.349245 C7.20566979,560.153983 7.52225228,560.153983 7.71751442,560.349245 Z M7.71751442,552.671839 L8.4246212,553.378946 C8.61988335,553.574208 8.61988335,553.89079 8.4246212,554.086052 L2.06066017,560.450013 C1.86539803,560.645276 1.54881554,560.645276 1.35355339,560.450013 L0.646446609,559.742907 C0.451184464,559.547645 0.451184464,559.231062 0.646446609,559.0358 L7.01040764,552.671839 C7.20566979,552.476577 7.52225228,552.476577 7.71751442,552.671839 Z M7.71751442,544.994432 L8.4246212,545.701539 C8.61988335,545.896801 8.61988335,546.213384 8.4246212,546.408646 L2.06066017,552.772607 C1.86539803,552.967869 1.54881554,552.967869 1.35355339,552.772607 L0.646446609,552.0655 C0.451184464,551.870238 0.451184464,551.553655 0.646446609,551.358393 L7.01040764,544.994432 C7.20566979,544.79917 7.52225228,544.79917 7.71751442,544.994432 Z M7.71751442,537.317026 L8.4246212,538.024133 C8.61988335,538.219395 8.61988335,538.535977 8.4246212,538.731239 L2.06066017,545.0952 C1.86539803,545.290463 1.54881554,545.290463 1.35355339,545.0952 L0.646446609,544.388094 C0.451184464,544.192831 0.451184464,543.876249 0.646446609,543.680987 L7.01040764,537.317026 C7.20566979,537.121764 7.52225228,537.121764 7.71751442,537.317026 Z M7.71751442,529.639619 L8.4246212,530.346726 C8.61988335,530.541988 8.61988335,530.858571 8.4246212,531.053833 L2.06066017,537.417794 C1.86539803,537.613056 1.54881554,537.613056 1.35355339,537.417794 L0.646446609,536.710687 C0.451184464,536.515425 0.451184464,536.198842 0.646446609,536.00358 L7.01040764,529.639619 C7.20566979,529.444357 7.52225228,529.444357 7.71751442,529.639619 Z M7.71751442,521.962213 L8.4246212,522.66932 C8.61988335,522.864582 8.61988335,523.181164 8.4246212,523.376426 L2.06066017,529.740387 C1.86539803,529.935649 1.54881554,529.935649 1.35355339,529.740387 L0.646446609,529.033281 C0.451184464,528.838018 0.451184464,528.521436 0.646446609,528.326174 L7.01040764,521.962213 C7.20566979,521.766951 7.52225228,521.766951 7.71751442,521.962213 Z M7.71751442,514.284806 L8.4246212,514.991913 C8.61988335,515.187175 8.61988335,515.503758 8.4246212,515.69902 L2.06066017,522.062981 C1.86539803,522.258243 1.54881554,522.258243 1.35355339,522.062981 L0.646446609,521.355874 C0.451184464,521.160612 0.451184464,520.844029 0.646446609,520.648767 L7.01040764,514.284806 C7.20566979,514.089544 7.52225228,514.089544 7.71751442,514.284806 Z M7.71751442,506.6074 L8.4246212,507.314506 C8.61988335,507.509769 8.61988335,507.826351 8.4246212,508.021613 L2.06066017,514.385574 C1.86539803,514.580836 1.54881554,514.580836 1.35355339,514.385574 L0.646446609,513.678467 C0.451184464,513.483205 0.451184464,513.166623 0.646446609,512.971361 L7.01040764,506.6074 C7.20566979,506.412138 7.52225228,506.412138 7.71751442,506.6074 Z M7.71751442,498.929993 L8.4246212,499.6371 C8.61988335,499.832362 8.61988335,500.148945 8.4246212,500.344207 L2.06066017,506.708168 C1.86539803,506.90343 1.54881554,506.90343 1.35355339,506.708168 L0.646446609,506.001061 C0.451184464,505.805799 0.451184464,505.489216 0.646446609,505.293954 L7.01040764,498.929993 C7.20566979,498.734731 7.52225228,498.734731 7.71751442,498.929993 Z M7.71751442,491.252587 L8.4246212,491.959693 C8.61988335,492.154956 8.61988335,492.471538 8.4246212,492.6668 L2.06066017,499.030761 C1.86539803,499.226023 1.54881554,499.226023 1.35355339,499.030761 L0.646446609,498.323654 C0.451184464,498.128392 0.451184464,497.81181 0.646446609,497.616548 L7.01040764,491.252587 C7.20566979,491.057324 7.52225228,491.057324 7.71751442,491.252587 Z M7.71751442,483.57518 L8.4246212,484.282287 C8.61988335,484.477549 8.61988335,484.794131 8.4246212,484.989394 L2.06066017,491.353355 C1.86539803,491.548617 1.54881554,491.548617 1.35355339,491.353355 L0.646446609,490.646248 C0.451184464,490.450986 0.451184464,490.134403 0.646446609,489.939141 L7.01040764,483.57518 C7.20566979,483.379918 7.52225228,483.379918 7.71751442,483.57518 Z M7.71751442,475.897774 L8.4246212,476.60488 C8.61988335,476.800142 8.61988335,477.116725 8.4246212,477.311987 L2.06066017,483.675948 C1.86539803,483.87121 1.54881554,483.87121 1.35355339,483.675948 L0.646446609,482.968841 C0.451184464,482.773579 0.451184464,482.456997 0.646446609,482.261735 L7.01040764,475.897774 C7.20566979,475.702511 7.52225228,475.702511 7.71751442,475.897774 Z M7.71751442,468.220367 L8.4246212,468.927474 C8.61988335,469.122736 8.61988335,469.439318 8.4246212,469.634581 L2.06066017,475.998542 C1.86539803,476.193804 1.54881554,476.193804 1.35355339,475.998542 L0.646446609,475.291435 C0.451184464,475.096173 0.451184464,474.77959 0.646446609,474.584328 L7.01040764,468.220367 C7.20566979,468.025105 7.52225228,468.025105 7.71751442,468.220367 Z M7.71751442,460.54296 L8.4246212,461.250067 C8.61988335,461.445329 8.61988335,461.761912 8.4246212,461.957174 L2.06066017,468.321135 C1.86539803,468.516397 1.54881554,468.516397 1.35355339,468.321135 L0.646446609,467.614028 C0.451184464,467.418766 0.451184464,467.102184 0.646446609,466.906921 L7.01040764,460.54296 C7.20566979,460.347698 7.52225228,460.347698 7.71751442,460.54296 Z M7.71751442,452.865554 L8.4246212,453.572661 C8.61988335,453.767923 8.61988335,454.084505 8.4246212,454.279767 L2.06066017,460.643729 C1.86539803,460.838991 1.54881554,460.838991 1.35355339,460.643729 L0.646446609,459.936622 C0.451184464,459.74136 0.451184464,459.424777 0.646446609,459.229515 L7.01040764,452.865554 C7.20566979,452.670292 7.52225228,452.670292 7.71751442,452.865554 Z M7.71751442,445.188147 L8.4246212,445.895254 C8.61988335,446.090516 8.61988335,446.407099 8.4246212,446.602361 L2.06066017,452.966322 C1.86539803,453.161584 1.54881554,453.161584 1.35355339,452.966322 L0.646446609,452.259215 C0.451184464,452.063953 0.451184464,451.747371 0.646446609,451.552108 L7.01040764,445.188147 C7.20566979,444.992885 7.52225228,444.992885 7.71751442,445.188147 Z M7.71751442,437.510741 L8.4246212,438.217848 C8.61988335,438.41311 8.61988335,438.729692 8.4246212,438.924954 L2.06066017,445.288915 C1.86539803,445.484178 1.54881554,445.484178 1.35355339,445.288915 L0.646446609,444.581809 C0.451184464,444.386547 0.451184464,444.069964 0.646446609,443.874702 L7.01040764,437.510741 C7.20566979,437.315479 7.52225228,437.315479 7.71751442,437.510741 Z M7.71751442,429.833334 L8.4246212,430.540441 C8.61988335,430.735703 8.61988335,431.052286 8.4246212,431.247548 L2.06066017,437.611509 C1.86539803,437.806771 1.54881554,437.806771 1.35355339,437.611509 L0.646446609,436.904402 C0.451184464,436.70914 0.451184464,436.392558 0.646446609,436.197295 L7.01040764,429.833334 C7.20566979,429.638072 7.52225228,429.638072 7.71751442,429.833334 Z M7.71751442,422.155928 L8.4246212,422.863035 C8.61988335,423.058297 8.61988335,423.374879 8.4246212,423.570141 L2.06066017,429.934102 C1.86539803,430.129365 1.54881554,430.129365 1.35355339,429.934102 L0.646446609,429.226996 C0.451184464,429.031733 0.451184464,428.715151 0.646446609,428.519889 L7.01040764,422.155928 C7.20566979,421.960666 7.52225228,421.960666 7.71751442,422.155928 Z M7.71751442,414.478521 L8.4246212,415.185628 C8.61988335,415.38089 8.61988335,415.697473 8.4246212,415.892735 L2.06066017,422.256696 C1.86539803,422.451958 1.54881554,422.451958 1.35355339,422.256696 L0.646446609,421.549589 C0.451184464,421.354327 0.451184464,421.037744 0.646446609,420.842482 L7.01040764,414.478521 C7.20566979,414.283259 7.52225228,414.283259 7.71751442,414.478521 Z M7.71751442,406.801115 L8.4246212,407.508222 C8.61988335,407.703484 8.61988335,408.020066 8.4246212,408.215328 L2.06066017,414.579289 C1.86539803,414.774551 1.54881554,414.774551 1.35355339,414.579289 L0.646446609,413.872183 C0.451184464,413.67692 0.451184464,413.360338 0.646446609,413.165076 L7.01040764,406.801115 C7.20566979,406.605853 7.52225228,406.605853 7.71751442,406.801115 Z M7.71751442,399.123708 L8.4246212,399.830815 C8.61988335,400.026077 8.61988335,400.34266 8.4246212,400.537922 L2.06066017,406.901883 C1.86539803,407.097145 1.54881554,407.097145 1.35355339,406.901883 L0.646446609,406.194776 C0.451184464,405.999514 0.451184464,405.682931 0.646446609,405.487669 L7.01040764,399.123708 C7.20566979,398.928446 7.52225228,398.928446 7.71751442,399.123708 Z M7.71751442,391.446302 L8.4246212,392.153408 C8.61988335,392.348671 8.61988335,392.665253 8.4246212,392.860515 L2.06066017,399.224476 C1.86539803,399.419738 1.54881554,399.419738 1.35355339,399.224476 L0.646446609,398.517369 C0.451184464,398.322107 0.451184464,398.005525 0.646446609,397.810263 L7.01040764,391.446302 C7.20566979,391.25104 7.52225228,391.25104 7.71751442,391.446302 Z M7.71751442,383.768895 L8.4246212,384.476002 C8.61988335,384.671264 8.61988335,384.987847 8.4246212,385.183109 L2.06066017,391.54707 C1.86539803,391.742332 1.54881554,391.742332 1.35355339,391.54707 L0.646446609,390.839963 C0.451184464,390.644701 0.451184464,390.328118 0.646446609,390.132856 L7.01040764,383.768895 C7.20566979,383.573633 7.52225228,383.573633 7.71751442,383.768895 Z M7.71751442,376.091489 L8.4246212,376.798595 C8.61988335,376.993858 8.61988335,377.31044 8.4246212,377.505702 L2.06066017,383.869663 C1.86539803,384.064925 1.54881554,384.064925 1.35355339,383.869663 L0.646446609,383.162556 C0.451184464,382.967294 0.451184464,382.650712 0.646446609,382.45545 L7.01040764,376.091489 C7.20566979,375.896226 7.52225228,375.896226 7.71751442,376.091489 Z M7.71751442,368.414082 L8.4246212,369.121189 C8.61988335,369.316451 8.61988335,369.633033 8.4246212,369.828296 L2.06066017,376.192257 C1.86539803,376.387519 1.54881554,376.387519 1.35355339,376.192257 L0.646446609,375.48515 C0.451184464,375.289888 0.451184464,374.973305 0.646446609,374.778043 L7.01040764,368.414082 C7.20566979,368.21882 7.52225228,368.21882 7.71751442,368.414082 Z M7.71751442,360.736676 L8.4246212,361.443782 C8.61988335,361.639044 8.61988335,361.955627 8.4246212,362.150889 L2.06066017,368.51485 C1.86539803,368.710112 1.54881554,368.710112 1.35355339,368.51485 L0.646446609,367.807743 C0.451184464,367.612481 0.451184464,367.295899 0.646446609,367.100637 L7.01040764,360.736676 C7.20566979,360.541413 7.52225228,360.541413 7.71751442,360.736676 Z M7.71751442,353.059269 L8.4246212,353.766376 C8.61988335,353.961638 8.61988335,354.27822 8.4246212,354.473483 L2.06066017,360.837444 C1.86539803,361.032706 1.54881554,361.032706 1.35355339,360.837444 L0.646446609,360.130337 C0.451184464,359.935075 0.451184464,359.618492 0.646446609,359.42323 L7.01040764,353.059269 C7.20566979,352.864007 7.52225228,352.864007 7.71751442,353.059269 Z M7.71751442,345.381862 L8.4246212,346.088969 C8.61988335,346.284231 8.61988335,346.600814 8.4246212,346.796076 L2.06066017,353.160037 C1.86539803,353.355299 1.54881554,353.355299 1.35355339,353.160037 L0.646446609,352.45293 C0.451184464,352.257668 0.451184464,351.941086 0.646446609,351.745823 L7.01040764,345.381862 C7.20566979,345.1866 7.52225228,345.1866 7.71751442,345.381862 Z M7.71751442,337.704456 L8.4246212,338.411563 C8.61988335,338.606825 8.61988335,338.923407 8.4246212,339.118669 L2.06066017,345.482631 C1.86539803,345.677893 1.54881554,345.677893 1.35355339,345.482631 L0.646446609,344.775524 C0.451184464,344.580262 0.451184464,344.263679 0.646446609,344.068417 L7.01040764,337.704456 C7.20566979,337.509194 7.52225228,337.509194 7.71751442,337.704456 Z M7.71751442,330.027049 L8.4246212,330.734156 C8.61988335,330.929418 8.61988335,331.246001 8.4246212,331.441263 L2.06066017,337.805224 C1.86539803,338.000486 1.54881554,338.000486 1.35355339,337.805224 L0.646446609,337.098117 C0.451184464,336.902855 0.451184464,336.586273 0.646446609,336.39101 L7.01040764,330.027049 C7.20566979,329.831787 7.52225228,329.831787 7.71751442,330.027049 Z M7.71751442,322.349643 L8.4246212,323.05675 C8.61988335,323.252012 8.61988335,323.568594 8.4246212,323.763856 L2.06066017,330.127817 C1.86539803,330.32308 1.54881554,330.32308 1.35355339,330.127817 L0.646446609,329.420711 C0.451184464,329.225449 0.451184464,328.908866 0.646446609,328.713604 L7.01040764,322.349643 C7.20566979,322.154381 7.52225228,322.154381 7.71751442,322.349643 Z M7.71751442,314.672236 L8.4246212,315.379343 C8.61988335,315.574605 8.61988335,315.891188 8.4246212,316.08645 L2.06066017,322.450411 C1.86539803,322.645673 1.54881554,322.645673 1.35355339,322.450411 L0.646446609,321.743304 C0.451184464,321.548042 0.451184464,321.23146 0.646446609,321.036197 L7.01040764,314.672236 C7.20566979,314.476974 7.52225228,314.476974 7.71751442,314.672236 Z M7.71751442,306.99483 L8.4246212,307.701937 C8.61988335,307.897199 8.61988335,308.213781 8.4246212,308.409043 L2.06066017,314.773004 C1.86539803,314.968267 1.54881554,314.968267 1.35355339,314.773004 L0.646446609,314.065898 C0.451184464,313.870635 0.451184464,313.554053 0.646446609,313.358791 L7.01040764,306.99483 C7.20566979,306.799568 7.52225228,306.799568 7.71751442,306.99483 Z M7.71751442,299.317423 L8.4246212,300.02453 C8.61988335,300.219792 8.61988335,300.536375 8.4246212,300.731637 L2.06066017,307.095598 C1.86539803,307.29086 1.54881554,307.29086 1.35355339,307.095598 L0.646446609,306.388491 C0.451184464,306.193229 0.451184464,305.876646 0.646446609,305.681384 L7.01040764,299.317423 C7.20566979,299.122161 7.52225228,299.122161 7.71751442,299.317423 Z M7.71751442,291.640017 L8.4246212,292.347124 C8.61988335,292.542386 8.61988335,292.858968 8.4246212,293.05423 L2.06066017,299.418191 C1.86539803,299.613453 1.54881554,299.613453 1.35355339,299.418191 L0.646446609,298.711085 C0.451184464,298.515822 0.451184464,298.19924 0.646446609,298.003978 L7.01040764,291.640017 C7.20566979,291.444755 7.52225228,291.444755 7.71751442,291.640017 Z M7.71751442,283.96261 L8.4246212,284.669717 C8.61988335,284.864979 8.61988335,285.181562 8.4246212,285.376824 L2.06066017,291.740785 C1.86539803,291.936047 1.54881554,291.936047 1.35355339,291.740785 L0.646446609,291.033678 C0.451184464,290.838416 0.451184464,290.521833 0.646446609,290.326571 L7.01040764,283.96261 C7.20566979,283.767348 7.52225228,283.767348 7.71751442,283.96261 Z M7.71751442,276.285204 L8.4246212,276.99231 C8.61988335,277.187573 8.61988335,277.504155 8.4246212,277.699417 L2.06066017,284.063378 C1.86539803,284.25864 1.54881554,284.25864 1.35355339,284.063378 L0.646446609,283.356271 C0.451184464,283.161009 0.451184464,282.844427 0.646446609,282.649165 L7.01040764,276.285204 C7.20566979,276.089942 7.52225228,276.089942 7.71751442,276.285204 Z M7.71751442,268.607797 L8.4246212,269.314904 C8.61988335,269.510166 8.61988335,269.826749 8.4246212,270.022011 L2.06066017,276.385972 C1.86539803,276.581234 1.54881554,276.581234 1.35355339,276.385972 L0.646446609,275.678865 C0.451184464,275.483603 0.451184464,275.16702 0.646446609,274.971758 L7.01040764,268.607797 C7.20566979,268.412535 7.52225228,268.412535 7.71751442,268.607797 Z M7.71751442,260.930391 L8.4246212,261.637497 C8.61988335,261.83276 8.61988335,262.149342 8.4246212,262.344604 L2.06066017,268.708565 C1.86539803,268.903827 1.54881554,268.903827 1.35355339,268.708565 L0.646446609,268.001458 C0.451184464,267.806196 0.451184464,267.489614 0.646446609,267.294352 L7.01040764,260.930391 C7.20566979,260.735128 7.52225228,260.735128 7.71751442,260.930391 Z M7.71751442,253.252984 L8.4246212,253.960091 C8.61988335,254.155353 8.61988335,254.471935 8.4246212,254.667198 L2.06066017,261.031159 C1.86539803,261.226421 1.54881554,261.226421 1.35355339,261.031159 L0.646446609,260.324052 C0.451184464,260.12879 0.451184464,259.812207 0.646446609,259.616945 L7.01040764,253.252984 C7.20566979,253.057722 7.52225228,253.057722 7.71751442,253.252984 Z M7.71751442,245.575578 L8.4246212,246.282684 C8.61988335,246.477946 8.61988335,246.794529 8.4246212,246.989791 L2.06066017,253.353752 C1.86539803,253.549014 1.54881554,253.549014 1.35355339,253.353752 L0.646446609,252.646645 C0.451184464,252.451383 0.451184464,252.134801 0.646446609,251.939539 L7.01040764,245.575578 C7.20566979,245.380315 7.52225228,245.380315 7.71751442,245.575578 Z M7.71751442,237.898171 L8.4246212,238.605278 C8.61988335,238.80054 8.61988335,239.117122 8.4246212,239.312385 L2.06066017,245.676346 C1.86539803,245.871608 1.54881554,245.871608 1.35355339,245.676346 L0.64644661,244.969239 C0.451184464,244.773977 0.451184464,244.457394 0.64644661,244.262132 L7.01040764,237.898171 C7.20566979,237.702909 7.52225228,237.702909 7.71751442,237.898171 Z M7.71751442,230.220764 L8.4246212,230.927871 C8.61988335,231.123133 8.61988335,231.439716 8.4246212,231.634978 L2.06066017,237.998939 C1.86539803,238.194201 1.54881554,238.194201 1.35355339,237.998939 L0.646446609,237.291832 C0.451184464,237.09657 0.451184464,236.779988 0.646446609,236.584726 L7.01040764,230.220764 C7.20566979,230.025502 7.52225228,230.025502 7.71751442,230.220764 Z M7.71751442,222.543358 L8.4246212,223.250465 C8.61988335,223.445727 8.61988335,223.762309 8.4246212,223.957572 L2.06066017,230.321533 C1.86539803,230.516795 1.54881554,230.516795 1.35355339,230.321533 L0.646446609,229.614426 C0.451184464,229.419164 0.451184464,229.102581 0.646446609,228.907319 L7.01040764,222.543358 C7.20566979,222.348096 7.52225228,222.348096 7.71751442,222.543358 Z M7.71751442,214.865951 L8.4246212,215.573058 C8.61988335,215.76832 8.61988335,216.084903 8.4246212,216.280165 L2.06066017,222.644126 C1.86539803,222.839388 1.54881554,222.839388 1.35355339,222.644126 L0.646446609,221.937019 C0.451184464,221.741757 0.451184464,221.425175 0.646446609,221.229912 L7.01040764,214.865951 C7.20566979,214.670689 7.52225228,214.670689 7.71751442,214.865951 Z M7.71751442,207.188545 L8.4246212,207.895652 C8.61988335,208.090914 8.61988335,208.407496 8.4246212,208.602758 L2.06066017,214.966719 C1.86539803,215.161982 1.54881554,215.161982 1.35355339,214.966719 L0.646446609,214.259613 C0.451184464,214.064351 0.451184464,213.747768 0.646446609,213.552506 L7.01040764,207.188545 C7.20566979,206.993283 7.52225228,206.993283 7.71751442,207.188545 Z M7.71751442,199.511138 L8.4246212,200.218245 C8.61988335,200.413507 8.61988335,200.73009 8.4246212,200.925352 L2.06066017,207.289313 C1.86539803,207.484575 1.54881554,207.484575 1.35355339,207.289313 L0.646446609,206.582206 C0.451184464,206.386944 0.451184464,206.070362 0.646446609,205.875099 L7.01040764,199.511138 C7.20566979,199.315876 7.52225228,199.315876 7.71751442,199.511138 Z M7.71751442,191.833732 L8.4246212,192.540839 C8.61988335,192.736101 8.61988335,193.052683 8.4246212,193.247945 L2.06066017,199.611906 C1.86539803,199.807169 1.54881554,199.807169 1.35355339,199.611906 L0.646446609,198.9048 C0.451184464,198.709537 0.451184464,198.392955 0.646446609,198.197693 L7.01040764,191.833732 C7.20566979,191.63847 7.52225228,191.63847 7.71751442,191.833732 Z M7.71751442,184.156325 L8.4246212,184.863432 C8.61988335,185.058694 8.61988335,185.375277 8.4246212,185.570539 L2.06066017,191.9345 C1.86539803,192.129762 1.54881554,192.129762 1.35355339,191.9345 L0.646446609,191.227393 C0.451184464,191.032131 0.451184464,190.715548 0.646446609,190.520286 L7.01040764,184.156325 C7.20566979,183.961063 7.52225228,183.961063 7.71751442,184.156325 Z M7.71751442,176.478919 L8.4246212,177.186026 C8.61988335,177.381288 8.61988335,177.69787 8.4246212,177.893132 L2.06066017,184.257093 C1.86539803,184.452355 1.54881554,184.452355 1.35355339,184.257093 L0.646446609,183.549987 C0.451184464,183.354724 0.451184464,183.038142 0.646446609,182.84288 L7.01040764,176.478919 C7.20566979,176.283657 7.52225228,176.283657 7.71751442,176.478919 Z M7.71751442,168.801512 L8.4246212,169.508619 C8.61988335,169.703881 8.61988335,170.020464 8.4246212,170.215726 L2.06066017,176.579687 C1.86539803,176.774949 1.54881554,176.774949 1.35355339,176.579687 L0.646446609,175.87258 C0.451184464,175.677318 0.451184464,175.360735 0.646446609,175.165473 L7.01040764,168.801512 C7.20566979,168.60625 7.52225228,168.60625 7.71751442,168.801512 Z M7.71751442,161.124106 L8.4246212,161.831212 C8.61988335,162.026475 8.61988335,162.343057 8.4246212,162.538319 L2.06066017,168.90228 C1.86539803,169.097542 1.54881554,169.097542 1.35355339,168.90228 L0.646446609,168.195173 C0.451184464,167.999911 0.451184464,167.683329 0.646446609,167.488067 L7.01040764,161.124106 C7.20566979,160.928844 7.52225228,160.928844 7.71751442,161.124106 Z M7.71751442,153.368272 L8.4246212,154.075379 C8.61988335,154.270641 8.61988335,154.587223 8.4246212,154.782486 L2.06066017,161.146447 C1.86539803,161.341709 1.54881554,161.341709 1.35355339,161.146447 L0.646446609,160.43934 C0.451184463,160.244078 0.451184463,159.927495 0.646446609,159.732233 L7.01040764,153.368272 C7.20566979,153.17301 7.52225228,153.17301 7.71751442,153.368272 Z M7.71751442,145.690865 L8.4246212,146.397972 C8.61988335,146.593234 8.61988335,146.909817 8.4246212,147.105079 L2.06066017,153.46904 C1.86539803,153.664302 1.54881554,153.664302 1.35355339,153.46904 L0.646446609,152.761933 C0.451184464,152.566671 0.451184464,152.250089 0.646446609,152.054827 L7.01040764,145.690865 C7.20566979,145.495603 7.52225228,145.495603 7.71751442,145.690865 Z M7.71751442,138.013459 L8.4246212,138.720566 C8.61988335,138.915828 8.61988335,139.23241 8.4246212,139.427673 L2.06066017,145.791634 C1.86539803,145.986896 1.54881554,145.986896 1.35355339,145.791634 L0.646446609,145.084527 C0.451184464,144.889265 0.451184464,144.572682 0.646446609,144.37742 L7.01040764,138.013459 C7.20566979,137.818197 7.52225228,137.818197 7.71751442,138.013459 Z M7.71751442,130.336052 L8.4246212,131.043159 C8.61988335,131.238421 8.61988335,131.555004 8.4246212,131.750266 L2.06066017,138.114227 C1.86539803,138.309489 1.54881554,138.309489 1.35355339,138.114227 L0.646446609,137.40712 C0.451184464,137.211858 0.451184464,136.895276 0.646446609,136.700013 L7.01040764,130.336052 C7.20566979,130.14079 7.52225228,130.14079 7.71751442,130.336052 Z M7.71751442,122.658646 L8.4246212,123.365753 C8.61988335,123.561015 8.61988335,123.877597 8.4246212,124.072859 L2.06066017,130.43682 C1.86539803,130.632083 1.54881554,130.632083 1.35355339,130.43682 L0.646446609,129.729714 C0.451184464,129.534452 0.451184464,129.217869 0.646446609,129.022607 L7.01040764,122.658646 C7.20566979,122.463384 7.52225228,122.463384 7.71751442,122.658646 Z M7.71751442,114.981239 L8.4246212,115.688346 C8.61988335,115.883608 8.61988335,116.200191 8.4246212,116.395453 L2.06066017,122.759414 C1.86539803,122.954676 1.54881554,122.954676 1.35355339,122.759414 L0.646446609,122.052307 C0.451184464,121.857045 0.451184464,121.540463 0.646446609,121.3452 L7.01040764,114.981239 C7.20566979,114.785977 7.52225228,114.785977 7.71751442,114.981239 Z M7.71751442,107.303833 L8.4246212,108.01094 C8.61988335,108.206202 8.61988335,108.522784 8.4246212,108.718046 L2.06066017,115.082007 C1.86539803,115.27727 1.54881554,115.27727 1.35355339,115.082007 L0.646446609,114.374901 C0.451184464,114.179638 0.451184464,113.863056 0.646446609,113.667794 L7.01040764,107.303833 C7.20566979,107.108571 7.52225228,107.108571 7.71751442,107.303833 Z M7.71751442,99.6264263 L8.4246212,100.333533 C8.61988335,100.528795 8.61988335,100.845378 8.4246212,101.04064 L2.06066017,107.404601 C1.86539803,107.599863 1.54881554,107.599863 1.35355339,107.404601 L0.646446609,106.697494 C0.451184464,106.502232 0.451184464,106.185649 0.646446609,105.990387 L7.01040764,99.6264263 C7.20566979,99.4311641 7.52225228,99.4311641 7.71751442,99.6264263 Z M7.71751442,91.9490198 L8.4246212,92.6561265 C8.61988335,92.8513887 8.61988335,93.1679712 8.4246212,93.3632333 L2.06066017,99.7271943 C1.86539803,99.9224565 1.54881554,99.9224565 1.35355339,99.7271943 L0.646446609,99.0200876 C0.451184464,98.8248254 0.451184464,98.5082429 0.646446609,98.3129808 L7.01040764,91.9490198 C7.20566979,91.7537576 7.52225228,91.7537576 7.71751442,91.9490198 Z M7.71751442,84.2716132 L8.4246212,84.97872 C8.61988335,85.1739821 8.61988335,85.4905646 8.4246212,85.6858268 L2.06066017,92.0497878 C1.86539803,92.24505 1.54881554,92.24505 1.35355339,92.0497878 L0.646446609,91.342681 C0.451184463,91.1474189 0.451184463,90.8308364 0.646446609,90.6355743 L7.01040764,84.2716132 C7.20566979,84.0763511 7.52225228,84.0763511 7.71751442,84.2716132 Z M7.71751442,76.5942067 L8.4246212,77.3013135 C8.61988335,77.4965756 8.61988335,77.8131581 8.4246212,78.0084202 L2.06066017,84.3723813 C1.86539803,84.5676434 1.54881554,84.5676434 1.35355339,84.3723813 L0.646446609,83.6652745 C0.451184464,83.4700124 0.451184464,83.1534299 0.646446609,82.9581677 L7.01040764,76.5942067 C7.20566979,76.3989445 7.52225228,76.3989445 7.71751442,76.5942067 Z M7.71751442,68.9168002 L8.4246212,69.6239069 C8.61988335,69.8191691 8.61988335,70.1357516 8.4246212,70.3310137 L2.06066017,76.6949747 C1.86539803,76.8902369 1.54881554,76.8902369 1.35355339,76.6949747 L0.646446609,75.987868 C0.451184464,75.7926058 0.451184464,75.4760233 0.646446609,75.2807612 L7.01040764,68.9168002 C7.20566979,68.721538 7.52225228,68.721538 7.71751442,68.9168002 Z M7.71751442,61.2393936 L8.4246212,61.9465004 C8.61988335,62.1417625 8.61988335,62.458345 8.4246212,62.6536072 L2.06066017,69.0175682 C1.86539803,69.2128304 1.54881554,69.2128304 1.35355339,69.0175682 L0.646446609,68.3104614 C0.451184464,68.1151993 0.451184464,67.7986168 0.646446609,67.6033547 L7.01040764,61.2393936 C7.20566979,61.0441315 7.52225228,61.0441315 7.71751442,61.2393936 Z M7.71751442,53.5619871 L8.4246212,54.2690939 C8.61988335,54.464356 8.61988335,54.7809385 8.4246212,54.9762007 L2.06066017,61.3401617 C1.86539803,61.5354238 1.54881554,61.5354238 1.35355339,61.3401617 L0.646446609,60.6330549 C0.451184464,60.4377928 0.451184464,60.1212103 0.646446609,59.9259481 L7.01040764,53.5619871 C7.20566979,53.3667249 7.52225228,53.3667249 7.71751442,53.5619871 Z M7.71751442,45.8845806 L8.4246212,46.5916873 C8.61988335,46.7869495 8.61988335,47.103532 8.4246212,47.2987941 L2.06066017,53.6627551 C1.86539803,53.8580173 1.54881554,53.8580173 1.35355339,53.6627551 L0.646446609,52.9556484 C0.451184464,52.7603862 0.451184464,52.4438037 0.646446609,52.2485416 L7.01040764,45.8845806 C7.20566979,45.6893184 7.52225228,45.6893184 7.71751442,45.8845806 Z M7.71751442,38.207174 L8.4246212,38.9142808 C8.61988335,39.1095429 8.61988335,39.4261254 8.4246212,39.6213876 L2.06066017,45.9853486 C1.86539803,46.1806108 1.54881554,46.1806108 1.35355339,45.9853486 L0.646446609,45.2782418 C0.451184463,45.0829797 0.451184463,44.7663972 0.646446609,44.5711351 L7.01040764,38.207174 C7.20566979,38.0119119 7.52225228,38.0119119 7.71751442,38.207174 Z M7.71751442,30.5297675 L8.4246212,31.2368743 C8.61988335,31.4321364 8.61988335,31.7487189 8.4246212,31.9439811 L2.06066017,38.3079421 C1.86539803,38.5032042 1.54881554,38.5032042 1.35355339,38.3079421 L0.646446609,37.6008353 C0.451184464,37.4055732 0.451184464,37.0889907 0.646446609,36.8937285 L7.01040764,30.5297675 C7.20566979,30.3345053 7.52225228,30.3345053 7.71751442,30.5297675 Z M7.71751442,22.852361 L8.4246212,23.5594677 C8.61988335,23.7547299 8.61988335,24.0713124 8.4246212,24.2665745 L2.06066017,30.6305355 C1.86539803,30.8257977 1.54881554,30.8257977 1.35355339,30.6305355 L0.646446609,29.9234288 C0.451184464,29.7281666 0.451184464,29.4115841 0.646446609,29.216322 L7.01040764,22.852361 C7.20566979,22.6570988 7.52225228,22.6570988 7.71751442,22.852361 Z M7.71751442,15.1749544 L8.4246212,15.8820612 C8.61988335,16.0773234 8.61988335,16.3939058 8.4246212,16.589168 L2.06066017,22.953129 C1.86539803,23.1483912 1.54881554,23.1483912 1.35355339,22.953129 L0.646446609,22.2460222 C0.451184464,22.0507601 0.451184464,21.7341776 0.646446609,21.5389155 L7.01040764,15.1749544 C7.20566979,14.9796923 7.52225228,14.9796923 7.71751442,15.1749544 Z M7.71751442,7.49754789 L8.4246212,8.20465467 C8.61988335,8.39991682 8.61988335,8.71649931 8.4246212,8.91176145 L2.06066017,15.2757225 C1.86539803,15.4709846 1.54881554,15.4709846 1.35355339,15.2757225 L0.646446609,14.5686157 C0.451184464,14.3733536 0.451184464,14.0567711 0.646446609,13.8615089 L7.01040764,7.49754789 C7.20566979,7.30228574 7.52225228,7.30228574 7.71751442,7.49754789 Z M7.71751442,-0.179858643 L8.4246212,0.527248138 C8.61988335,0.722510284 8.61988335,1.03909277 8.4246212,1.23435492 L2.06066017,7.59831595 C1.86539803,7.7935781 1.54881554,7.7935781 1.35355339,7.59831595 L0.646446609,6.89120917 C0.451184464,6.69594702 0.451184464,6.37936453 0.646446609,6.18410239 L7.01040764,-0.179858643 C7.20566979,-0.375120789 7.52225228,-0.375120789 7.71751442,-0.179858643 Z M7.71751442,-7.85726518 L8.4246212,-7.15015839 C8.61988335,-6.95489625 8.61988335,-6.63831376 8.4246212,-6.44305161 L2.06066017,-0.0790905829 C1.86539803,0.116171563 1.54881554,0.116171563 1.35355339,-0.0790905829 L0.646446609,-0.786197364 C0.451184464,-0.98145951 0.451184464,-1.298042 0.646446609,-1.49330415 L7.01040764,-7.85726518 C7.20566979,-8.05252732 7.52225228,-8.05252732 7.71751442,-7.85726518 Z" id="Combined-Shape" fill="#1F7EED" mask="url(#mask-2)"></path>
            </g>
        </g>
    </g>
</svg>