<?xml version="1.0" encoding="utf-8"?>
<!-- Generator: Adobe Illustrator 21.0.2, SVG Export Plug-In . SVG Version: 6.00 Build 0)  -->
<svg version="1.1" id="Layer_1" xmlns="http://www.w3.org/2000/svg" xmlns:xlink="http://www.w3.org/1999/xlink" x="0px" y="0px"
	 viewBox="0 0 120 100" style="enable-background:new 0 0 120 100;" xml:space="preserve">
<style type="text/css">
	.st0{opacity:0.5;fill:#434B59;enable-background:new    ;}
	.st1{fill:#FFFFFF;fill-opacity:0;}
	.st2{opacity:0.8;fill:#1F7EED;enable-background:new    ;}
	.st3{fill:#3A404C;}
</style>
<path class="st0" d="M78.3,76.4H1.8V23.6h76.5V76.4z"/>
<rect class="st1" width="120" height="100"/>
<title>editing</title>
<path class="st2" d="M111.5,21.5L71.2,61.7L31,21.5H111.5z"/>
<path class="st3" d="M30.5,78.9c0,0.3,0.2,0.5,0.5,0.5h81.5c0.3,0,0.5-0.2,0.5-0.5l0,0V21.1c0-0.3-0.2-0.5-0.5-0.5H31
	c-0.3,0-0.5,0.2-0.5,0.5V78.9z M110,76.4H33.5V23.6H110V76.4z"/>
<path class="st3" d="M118.4,16.5l-1.4-1.4c-0.2-0.2-0.5-0.2-0.7,0L71.7,59.6L27.2,15.1c-0.2-0.2-0.5-0.2-0.7,0l-1.4,1.4
	c-0.2,0.2-0.2,0.5,0,0.7l46.3,46.3c0.2,0.2,0.5,0.2,0.7,0l46.4-46.3C118.6,17,118.6,16.7,118.4,16.5z"/>
</svg>
