<svg xmlns="http://www.w3.org/2000/svg" viewBox="0 0 120 100"><defs><style>.cls-1{fill:#fff;opacity:0;}.cls-2{opacity:0.5;}.cls-3{fill:#4d5567;}.cls-4{fill:#137bf0;opacity:0.6;}.cls-5{fill:#434b5d;}</style></defs><title>filming</title><g id="Layer_2" data-name="Layer 2"><g id="Layer_1-2" data-name="Layer 1"><rect class="cls-1" width="120" height="100"/><g class="cls-2"><path class="cls-3" d="M26.55,89.78A42,42,0,1,1,81.17,35.17Z"/></g><path class="cls-4" d="M79.83,11.83A42,42,0,1,1,25.22,66.45Z"/><path class="cls-5" d="M96,19a45,45,0,1,0,0,63.64A44.86,44.86,0,0,0,96,19ZM93.89,80.5a42,42,0,0,1-59.4-59.4,42,42,0,0,1,59.4,59.4Z"/><rect class="cls-5" x="1.77" y="36.27" width="100" height="3" rx="0.5" ry="0.5" transform="translate(-11.55 47.67) rotate(-45)"/><rect class="cls-5" x="27.23" y="61.73" width="100" height="3" rx="0.5" ry="0.5" transform="translate(-22.09 73.13) rotate(-45)"/></g></g></svg>