<?xml version="1.0" encoding="utf-8"?>
<!-- Generator: Adobe Illustrator 21.0.2, SVG Export Plug-In . SVG Version: 6.00 Build 0)  -->
<svg version="1.1" id="Layer_1" xmlns="http://www.w3.org/2000/svg" xmlns:xlink="http://www.w3.org/1999/xlink" x="0px" y="0px"
	 viewBox="0 0 120 100" style="enable-background:new 0 0 120 100;" xml:space="preserve">
<style type="text/css">
	.st0{fill:#FFFFFF;fill-opacity:0;}
	.st1{opacity:0.5;}
	.st2{fill:#434B59;}
	.st3{opacity:0.8;fill:#1F7EED;enable-background:new    ;}
	.st4{fill:#3A404C;}
</style>
<title>filming</title>
<g id="Layer_2">
	<g id="Layer_1-2">
		<rect class="st0" width="120" height="100"/>
		<g class="st1">
			<path class="st2" d="M26.5,89.8C5,81.1-5.4,56.7,3.2,35.2s33.1-32,54.6-23.3c10.6,4.3,19.1,12.7,23.3,23.4L26.5,89.8z"/>
		</g>
		<path class="st3" d="M79.8,11.8c21.5,8.6,32,33.1,23.4,54.6s-33.1,32-54.6,23.4c-10.6-4.3-19.1-12.7-23.4-23.3L79.8,11.8z"/>
		<path class="st4" d="M96,19C78.4,1.4,49.9,1.4,32.4,19s-17.6,46.1,0,63.6c17.6,17.6,46.1,17.6,63.6,0
			c17.6-17.5,17.7-45.9,0.2-63.4C96.1,19.1,96.1,19.1,96,19z M93.9,80.5c-16.4,16.4-43,16.4-59.4,0s-16.4-43,0-59.4s43-16.4,59.4,0
			S110.3,64.1,93.9,80.5z"/>
		<path class="st4" d="M15.7,71.7l70-70c0.2-0.2,0.5-0.2,0.7,0l1.4,1.4c0.2,0.2,0.2,0.5,0,0.7l-70,70c-0.2,0.2-0.5,0.2-0.7,0
			l-1.4-1.4C15.5,72.2,15.5,71.9,15.7,71.7z"/>
		<path class="st4" d="M41.2,97.2l70-70c0.2-0.2,0.5-0.2,0.7,0l1.4,1.4c0.2,0.2,0.2,0.5,0,0.7l-70,70c-0.2,0.2-0.5,0.2-0.7,0
			l-1.4-1.4C41,97.7,41,97.4,41.2,97.2z"/>
	</g>
</g>
</svg>
