<?xml version="1.0" encoding="utf-8"?>
<!-- Generator: Adobe Illustrator 21.0.2, SVG Export Plug-In . SVG Version: 6.00 Build 0)  -->
<svg version="1.1" id="Layer_1" xmlns="http://www.w3.org/2000/svg" xmlns:xlink="http://www.w3.org/1999/xlink" x="0px" y="0px"
	 viewBox="0 0 120 100" style="enable-background:new 0 0 120 100;" xml:space="preserve">
<style type="text/css">
	.st0{fill:#FFFFFF;fill-opacity:0;}
	.st1{opacity:0.3;fill:#434B59;enable-background:new    ;}
	.st2{opacity:0.7;fill:#1F7EED;enable-background:new    ;}
	.st3{fill:none;stroke:#3A404C;stroke-width:2;stroke-linecap:round;stroke-linejoin:round;stroke-miterlimit:10;}
</style>
<rect class="st0" width="120" height="100"/>
<path class="st1" d="M79,36.8c0-17.6-14.4-32-32-32s-32,14.4-32,32c0,6.5,2,12.6,5.4,17.7l0,0L45.1,92l1.4,2.1
	c0.2,0.3,0.6,0.3,0.8,0l1.4-2.1l24.8-37.4l0,0C77,49.5,79,43.4,79,36.8z"/>
<title>filming</title>
<path class="st2" d="M40.6,50.8h54.3c2-4.2,3.1-8.7,3.1-13.7C98.1,20,84.2,6,67,6S35.9,20,35.9,37.2c0,4.1,2.1,10,3.7,13.7"/>
<path class="st3" d="M98.3,37.1C98.3,20,84.3,6,67.2,6S36.1,20,36.1,37.1c0,6.3,1.9,12.3,5.3,17.2l0,0l24,36.5l1.4,2
	c0.2,0.3,0.6,0.3,0.8,0l1.4-2L93,54.5l0,0C96.4,49.5,98.3,43.6,98.3,37.1z"/>
<line class="st3" x1="106.8" y1="51" x2="27.2" y2="51"/>
</svg>
