<?xml version="1.0" encoding="utf-8"?>
<!-- Generator: Adobe Illustrator 21.0.2, SVG Export Plug-In . SVG Version: 6.00 Build 0)  -->
<svg version="1.1" id="Layer_1" xmlns="http://www.w3.org/2000/svg" xmlns:xlink="http://www.w3.org/1999/xlink" x="0px" y="0px"
	 viewBox="0 0 120 100" style="enable-background:new 0 0 120 100;" xml:space="preserve">
<style type="text/css">
	.st0{fill:#FFFFFF;fill-opacity:0;}
	.st1{fill:#3A404C;}
	.st2{fill:none;stroke:#3A404C;stroke-width:3;stroke-miterlimit:10;}
	.st3{opacity:0.8;fill:#3A404C;}
	.st4{opacity:0.8;fill:none;stroke:#3A404C;stroke-width:3;stroke-miterlimit:10;}
	.st5{opacity:0.5;}
	.st6{fill:#434B59;}
	.st7{opacity:0.8;fill:#1F7EED;enable-background:new    ;}
	.st8{opacity:0.5;fill:#434B59;}
</style>
<rect class="st0" width="120" height="100"/>
<title>filming</title>
<path class="st1" d="M480.2,74.4L459.8,54c-0.2-0.2-0.2-0.5,0-0.7l1.4-1.4c0.2-0.2,0.5-0.2,0.7,0l18.6,18.6l18.3-18.3
	c0.2-0.2,0.5-0.2,0.7,0l1.4,1.4c0.2,0.2,0.2,0.5,0,0.7l-20.1,20.1C480.7,74.6,480.4,74.6,480.2,74.4z"/>
<path class="st1" d="M509.9,79.8L558.6,31c0.2-0.2,0.5-0.2,0.7,0l1.4,1.4c0.2,0.2,0.2,0.5,0,0.7L512,81.9c-0.2,0.2-0.5,0.2-0.7,0
	l-1.4-1.4C509.7,80.3,509.7,80,509.9,79.8z"/>
<path class="st1" d="M528.3,80.5l-1.4,1.4c-0.2,0.2-0.5,0.2-0.7,0l-48.8-48.8c-0.2-0.2-0.2-0.5,0-0.7l1.4-1.4c0.2-0.2,0.5-0.2,0.7,0
	l48.8,48.8C528.5,80,528.5,80.3,528.3,80.5z"/>
<path class="st1" d="M413.8,93.4l-1.7,1.1c-0.2,0.2-0.5,0.1-0.7-0.1l-38.1-57.5c-0.2-0.2-0.1-0.5,0.1-0.7l1.7-1.1
	c0.2-0.2,0.5-0.1,0.7,0.1l38.1,57.5C414,92.9,414,93.3,413.8,93.4z"/>
<path class="st1" d="M398,92.7l38.1-57.5c0.2-0.2,0.5-0.3,0.7-0.1l1.7,1.1c0.2,0.2,0.3,0.5,0.1,0.7l-38.1,57.5
	c-0.2,0.2-0.5,0.3-0.7,0.1l-1.7-1.1C397.9,93.3,397.8,92.9,398,92.7z"/>
<path class="st2" d="M451.9,34.1c0-15.1,12.2-27.3,27.3-27.3s27.3,12.2,27.3,27.3"/>
<path class="st3" d="M389.5,32.8h69c0.3,0,0.5,0.2,0.5,0.5v2c0,0.3-0.2,0.5-0.5,0.5h-69c-0.3,0-0.5-0.2-0.5-0.5v-2
	C389,33,389.2,32.8,389.5,32.8z"/>
<circle class="st4" cx="423.7" cy="34.1" r="27.3"/>
<rect y="153.7" class="st0" width="120" height="100"/>
<g class="st5">
	<path class="st6" d="M26.5,243.5c-21.5-8.6-32-33.1-23.3-54.6s33.1-32,54.6-23.3c10.6,4.3,19.1,12.7,23.3,23.4L26.5,243.5z"/>
</g>
<path class="st7" d="M79.8,165.5c21.5,8.6,32,33.1,23.4,54.6s-33.1,32-54.6,23.4c-10.6-4.3-19.1-12.7-23.4-23.3L79.8,165.5z"/>
<path class="st1" d="M31.7,186.5h69c0.3,0,0.5,0.2,0.5,0.5v2c0,0.3-0.2,0.5-0.5,0.5h-69c-0.3,0-0.5-0.2-0.5-0.5v-2
	C31.2,186.8,31.4,186.5,31.7,186.5z"/>
<circle class="st2" cx="65.9" cy="187.8" r="27.3"/>
<path class="st1" d="M65.9,216.6c-15.9,0-28.8-12.9-28.8-28.8S50.1,159,65.9,159s28.8,12.9,28.8,28.8S81.8,216.6,65.9,216.6z
	 M65.9,162c-14.2,0-25.8,11.6-25.8,25.8s11.6,25.8,25.8,25.8s25.8-11.6,25.8-25.8S80.1,162,65.9,162z"/>
<path class="st1" d="M65.5,239.2l-23.6-35.6l2.5-1.6l21.5,32.4L87.5,202l2.4,1.8l-23.6,35.5C66.2,239.5,65.7,239.5,65.5,239.2z"/>
<path class="st3" d="M296,68.8c-17.6,0-32-14.4-32-32c0-17.6,14.4-32,32-32s32,14.4,32,32C328,54.5,313.6,68.8,296,68.8z M296,7.8
	c-16,0-29,13-29,29c0,16,13,29,29,29s29-13,29-29C325,20.8,312,7.8,296,7.8z"/>
<path class="st1" d="M362.1,54.6L337.3,92l-1.4,2.1c-0.2,0.3-0.6,0.3-0.8,0l-1.4-2.1l-24.9-37.5l2.5-1.7l24.2,36.4l24.1-36.4
	L362.1,54.6z"/>
<circle class="st4" cx="271.2" cy="36.8" r="30.5"/>
<path class="st1" d="M278.6,101.4l-1.7,1.1c-0.2,0.2-0.5,0.1-0.7-0.1l-38.1-57.5c-0.2-0.2-0.1-0.5,0.1-0.7l1.7-1.1
	c0.2-0.2,0.5-0.1,0.7,0.1l38.1,57.5C278.9,100.9,278.8,101.3,278.6,101.4z"/>
<path class="st1" d="M263.6,100.7l38.1-57.5c0.2-0.2,0.5-0.3,0.7-0.1l1.7,1.1c0.2,0.2,0.3,0.5,0.1,0.7l-38.1,57.5
	c-0.2,0.2-0.5,0.3-0.7,0.1l-1.7-1.1C263.5,101.3,263.5,100.9,263.6,100.7z"/>
<path class="st1" d="M133,35.3h81c0.3,0,0.5,0.2,0.5,0.5v2c0,0.3-0.2,0.5-0.5,0.5h-81c-0.3,0-0.5-0.2-0.5-0.5v-2
	C132.5,35.6,132.8,35.3,133,35.3z"/>
<path class="st1" d="M199.9,54.6L175.1,92l-1.4,2.1c-0.2,0.3-0.6,0.3-0.8,0l-1.4-2.1l-24.9-37.5l2.5-1.7l24.2,36.4l24.1-36.4
	L199.9,54.6z"/>
<path class="st1" d="M146.7,54.6c-3.4-5.1-5.4-11.2-5.4-17.8c0-17.6,14.4-32,32-32s32,14.4,32,32c0,6.7-2,12.8-5.5,18l-2.4-1.8
	c3.1-4.6,4.9-10.2,4.9-16.2c0-16-13-29-29-29s-29,13-29,29c0,6,1.8,11.5,4.9,16.1L146.7,54.6z"/>
<path class="st8" d="M79,36.8c0-17.6-14.4-32-32-32s-32,14.4-32,32c0,6.5,2,12.6,5.4,17.7l0,0L45.1,92l1.4,2.1
	c0.2,0.3,0.6,0.3,0.8,0l1.4-2.1l24.8-37.4l0,0C77,49.5,79,43.4,79,36.8z"/>
<path class="st7" d="M41,50.8l53.5,0c2-4.1,3.1-8.6,3.1-13.5C97.6,20.5,83.9,6.7,67,6.7S36.4,20.5,36.4,37.4c0,4,2.1,9.8,3.6,13.5
	 M40,50.8"/>
<path class="st1" d="M99,36.8c0-17.6-14.4-32-32-32s-32,14.4-32,32c0,6.5,2,12.6,5.4,17.7l0,0L65.1,92l1.4,2.1
	c0.2,0.3,0.6,0.3,0.8,0l1.4-2.1l24.8-37.4l0,0C97,49.5,99,43.4,99,36.8z M66.9,89.3L42.9,53l0,0c-3.1-4.6-4.9-10.2-4.9-16.1
	c0-16,13-29,29-29s29,13,29,29c0,6-1.8,11.5-4.9,16.2l0,0L66.9,89.3z"/>
<path class="st1" d="M26.7,49.3h81c0.3,0,0.5,0.2,0.5,0.5v2c0,0.3-0.2,0.5-0.5,0.5h-81c-0.3,0-0.5-0.2-0.5-0.5v-2
	C26.2,49.6,26.4,49.3,26.7,49.3z"/>
</svg>
