<?xml version="1.0" encoding="utf-8"?>
<!-- Generator: Adobe Illustrator 21.0.2, SVG Export Plug-In . SVG Version: 6.00 Build 0)  -->
<svg version="1.1" id="Layer_1" xmlns="http://www.w3.org/2000/svg" xmlns:xlink="http://www.w3.org/1999/xlink" x="0px" y="0px"
	 viewBox="0 0 120 100" style="enable-background:new 0 0 120 100;" xml:space="preserve">
<style type="text/css">
	.st0{fill:#FFFFFF;fill-opacity:0;}
	.st1{opacity:0.5;fill:#434B59;}
	.st2{opacity:0.8;fill:#1F7EED;enable-background:new    ;}
	.st3{fill:#3A404C;}
</style>
<rect class="st0" width="120" height="100"/>
<path class="st1" d="M79,36.8c0-17.6-14.4-32-32-32s-32,14.4-32,32c0,6.5,2,12.6,5.4,17.7l0,0L45.1,92l1.4,2.1
	c0.2,0.3,0.6,0.3,0.8,0l1.4-2.1l24.8-37.4l0,0C77,49.5,79,43.4,79,36.8z"/>
<title>filming</title>
<path class="st2" d="M41,50.8l53.5,0c2-4.1,3.1-8.6,3.1-13.5C97.6,20.5,83.9,6.7,67,6.7S36.4,20.5,36.4,37.4c0,4,2.1,9.8,3.6,13.5
	 M40,50.8"/>
<path class="st3" d="M99,36.8c0-17.6-14.4-32-32-32s-32,14.4-32,32c0,6.5,2,12.6,5.4,17.7l0,0L65.1,92l1.4,2.1
	c0.2,0.3,0.6,0.3,0.8,0l1.4-2.1l24.8-37.4l0,0C97,49.5,99,43.4,99,36.8z M66.9,89.3L42.9,53l0,0c-3.1-4.6-4.9-10.2-4.9-16.1
	c0-16,13-29,29-29s29,13,29,29c0,6-1.8,11.5-4.9,16.2l0,0L66.9,89.3z"/>
<path class="st3" d="M26.7,49.3h81c0.3,0,0.5,0.2,0.5,0.5v2c0,0.3-0.2,0.5-0.5,0.5h-81c-0.3,0-0.5-0.2-0.5-0.5v-2
	C26.2,49.6,26.4,49.3,26.7,49.3z"/>
</svg>
