<?xml version="1.0" encoding="utf-8"?>
<!-- Generator: Adobe Illustrator 21.0.2, SVG Export Plug-In . SVG Version: 6.00 Build 0)  -->
<svg version="1.1" id="Layer_1" xmlns="http://www.w3.org/2000/svg" xmlns:xlink="http://www.w3.org/1999/xlink" x="0px" y="0px"
	 viewBox="0 0 768 600" style="enable-background:new 0 0 768 600;" xml:space="preserve">
<style type="text/css">
	.st0{fill:#011230;}
	.st1{opacity:0.12;fill:#AACDE0;}
	.st2{clip-path:url(#SVGID_2_);}
	.st3{fill:none;stroke:#1B2B35;stroke-width:6;stroke-miterlimit:10;}
	.st4{fill:#4D5566;}
	.st5{fill:#AADAFF;}
	.st6{opacity:0.4;}
	.st7{fill:#1F7EED;}
</style>
<rect x="0" class="st0" width="768" height="600"/>
<rect x="0" class="st1" width="768" height="600"/>
<g>
	<defs>
		<rect id="SVGID_1_" x="0" width="768" height="600"/>
	</defs>
	<clipPath id="SVGID_2_">
		<use xlink:href="#SVGID_1_"  style="overflow:visible;"/>
	</clipPath>
	<g id="NNsosy.tif_1_" class="st2">
		<path class="st3" d="M1105.7-21.9c1.5,0,1.5,0,1.5,0c1.7,0.5-0.6,0.9-5,0.9l-39.6,0c-0.5,0-0.9,0.4-1,0.8
			c-0.6,2.7-0.6,2.7-0.6,2.7c1.1,2.2,3.2,6,4.8,8.5c1.5,2.5,6.1,9.2,6.5,9.7c0.4,0.5,2.9,2.4,4.3,3.6c1.4,1.2,1,8,0.6,9
			c0,0,0,0-0.1,1c0,0.6,0.1,1.1,0.2,1.7c0.1,0.6-0.2,1.1-0.7,1.3c-3,0.8-5.9,1.6-9.2,2.5c-0.8,0.2-1,1.2-0.5,1.7c1,1.1,1.9,2,2.8,3
			c0.2,0.2,0.3,0.6,0.3,0.9c-0.5,3.2-0.5,3.2-0.5,3.2c2.5,2.4,7.3,6.7,10.7,9.4c0,0,1.3,1,5.4,4.4c0.3,0.2,0.4,0.6,0.4,1
			c-0.4,2.3-0.4,2.3-0.4,2.3c1.6,2.6,3,5.2,3.1,5.8s-0.9,3.5-1.7,5.3c0,0,0,0-1,1.8c-0.3,0.5-1,0.7-1.5,0.4c-1.6-1-3.1-1.8-4.7-2.8
			c-0.5-0.3-1.2-0.1-1.5,0.5c-1.7,3.7-1.7,3.7-1.7,3.7c0.5,4,1.3,8.3,1.7,9.6s0.5,6.8-0.1,9.3c0,0,0,0-2.6,0.6
			c-0.5,0.1-0.8,0.5-0.8,1c0,1.9,0,1.9,0,1.9c0,1.9,0,3.8-0.1,4.3s1.1,4,2.2,7.1c0,0,0,0-3.6,2.8c-0.3,0.3-0.8,0.3-1.1,0.1
			c-1.8-0.9-1.8-0.9-1.8-0.9c-2.1-0.9-4.6-1.9-5.5-2c-1-0.2-5.3,0.6-7.5,1.8c-2.2,1.2-7.2,8.1-8.2,10.4c0,0,0,0-0.8,1.9
			c-0.1,0.3-0.5,0.6-0.8,0.6c-4.9,0.7-9.5,1.4-13.9,2.1c-0.3,0-0.6,0.2-0.7,0.5c-2,3.1-2,3.1-2,3.1c1.8,2.1,4.2,4.9,5.4,6.2
			c1.1,1.3,2,7.2,2.4,8.5c0.3,1.3,2.3,5.6,2.8,6.9s-0.3,7.1-0.7,9.5c0,0,0,0-0.3,2.3c-0.1,0.5,0.2,1,0.7,1.2
			c0.9,0.3,0.9,0.3,0.9,0.3c0.9,0.3,2.3,1,3.2,1.4c0.9,0.4,3.3,2.4,3.5,3.2c0.2,0.8,0.7,4.1,0.7,5.4s-1.5,5.4-1.6,6.2
			c-0.2,0.8,0.6,4.2,1,6s0,8.2-0.2,9.8c-0.2,1.6-0.6,6.8-0.5,7.8c0.1,1,4.3,3.7,6.3,4.8c0,0,0,0,1.7,1.1c0.3,0.2,0.4,0.4,0.5,0.8
			c0.3,2.2,0.5,4.2,0.8,6.7c0,0.3,0,0.6-0.2,0.8c-1,1.1-1,1.1-1,1.1c-2,0.8-4.4,1.8-5.3,2.2c-0.9,0.4,0,5.1,0.9,8.2c0,0,0,0,3.3,1
			c0.6,0.2,0.9,0.9,0.6,1.5c-1.5,3-2.9,5.8-4.4,8.7c-0.2,0.4-0.7,0.6-1.1,0.6c-0.9-0.2-0.9-0.2-0.9-0.2c-1-0.2-1.9-0.3-2.1-0.2
			c-0.2,0.1-2.1,1.8-4,3.5s-10.3-2.1-11.5-3.3s-5-5.4-6.3-6.6c-1.3-1.2-8.4-3.2-11-4c-2.6-0.8-11.5-4.3-14.2-5.5c0,0,0,0-2.5,1.9
			c-0.5,0.4-1.2,0.3-1.6-0.3c-1.7-2.8-3.2-5.4-4.8-7.9c-0.2-0.4-0.7-0.6-1.1-0.5c-4.3,0.7-5.4,4.7-7.8,7.8c-0.6,0.7-1.8,0.4-1.9-0.5
			c-0.1-1.2-0.3-2.3-0.4-3.3c-0.1-0.6-0.6-1-1.2-0.9c-3.9,0.6-3.9,0.6-3.9,0.6c-4,0.6-9.6,3-12.3,5.5c0,0,0,0-3.3,1.6
			c-0.7,0.3-0.8,1.3-0.2,1.7c1.9,1.6,1.9,1.6,1.9,1.6c1.8,1.7,3.9,3.7,4.7,4.6c0.8,0.9,4.4,6.5,6.8,10.2c0,0,3.2,4.9,8.7,10
			c0.4,0.4,1.1,0.4,1.5-0.1c1-1.1,1-1.1,1-1.1c1.1-1.1,2.8-2.7,3.8-3.4s5.8,0.4,7.5,1c0,0,0,0,1.4,0.4c0.5,0.1,0.8,0.6,0.8,1.1
			c-0.2,3-0.2,3-0.2,3c-0.3,3.2-0.8,6.8-1.2,8s-5.1,3.2-7.2,4.6c0,0,0,0,0.3,5.7c0,0.2,0,0.4-0.1,0.5c-2.7,5.5-2.7,5.5-2.7,5.5
			c2.1,1.4,6.2,2.9,9.1,3.3c0,0,0,0,1.9-2.9c0.5-0.7,1.6-0.6,1.9,0.3c1.5,4.5,1.7,5.1,1.7,5.1c1.4,4.2,2.5,7.8,2.5,8
			s-1.2,1.3-1.8,1.8c-0.6,0.6-1.2,5.1-1.5,7.7c0,0,0,0-0.9,1.7c-0.3,0.4-0.1,1,0.3,1.3c1.4,1,1.3,2.9,1.7,4.6c0.2,1,0.2,1,0.2,1
			c0.2,1.1,1.6,4.2,3,7.1c0,0,0,0,1.5,3c0.3,0.6,1,0.8,1.5,0.4c2.1-1.4,4.4-3,6.7-4.6c0.5-0.3,1.1-0.2,1.4,0.2
			c2.8,3.5,2.8,7.3,2.1,11.5c-0.1,0.7,0.5,1.4,1.3,1.2c4.9-1.1,9.6-2.1,14.2-0.9c0.4,0.1,0.7,0.5,0.8,1c0.1,4.3-1.2,5.8-5.1,6
			c-3.6,0.2-3.6,0.2-3.6,0.2c-3.2,2-6.7,3.9-7.8,4.3c0,0,0,0-1.1,0.1c-1.6,0.1-3.3,0.1-3.8,2c-0.1,0.5,0.2,1.1,0.7,1.3l0,0
			c1.7,0.6,3,1.2,3,1.3s-0.3,0.7-0.8,0.9c-0.4,0.2-3.3-0.2-5.5-0.8c-2.2-0.5-11.7-1.6-16.1-1.6l-10.7,1.3
			c-4.2,1.2-10.6,4.1-14.2,6.3c0,0,0,0-3.5,2.4c-0.4,0.3-1,0.2-1.3-0.1c-2.3-2.2-4.9-4.7-7.7-7.4c-0.3-0.3-0.8-0.4-1.1-0.2
			c-2.2,1-2.2,1-2.2,1c-2.8,0.9-8,1.1-11.5,0.3c0,0,0,0-3.1-1.1c-2.4-0.9-2.4-0.9-2.4-0.9c-2.8-0.4-5.8-0.6-6.8-0.4
			s-2.2,4.4-2.3,4.6c-0.2,0.3-1.4,2.4-2.3,4.1c0,0,0,0-0.9,1.5c-0.2,0.4-0.1,1,0.3,1.3c2.8,2.4,2.8,2.4,2.8,2.4
			c1.1-1.7,2.8-4.1,3.8-5.1s4.3-3.8,5.1-4s2.5,0.5,2.5,1s0,4,0.1,6.6c0,0,0,0,0.3,2.4c0.1,0.6,0.7,1.1,1.3,0.9
			c1.1-0.3,2.3-0.6,3.5-0.9c0.6-0.1,1.1,0.2,1.3,0.8c0.4,1.6,0.8,3,1.2,4.6c0.2,0.7,1.1,1,1.7,0.6l0.8-0.6c0.4-0.3,0.9-0.2,1.2,0.1
			c0.8,0.8,1.5,1.6,2.2,2.4c0.4,0.4,1,0.5,1.5,0.1c1.9-1.6,3.6-3.1,5.2-4.5c0.3-0.3,0.9-0.3,1.3-0.1c1.7,1,2,2.4,1.1,4.2
			c-0.3,0.6-0.5,1.2-0.8,1.8c-2.4,5.9-1.1,8.7,4.8,9.8c0.6,0.1,1,0.7,0.8,1.3c-0.4,1.6-1,3-2.8,3.6c-2.5,0.8-2.5,0.8-2.5,0.8
			c-1.2,2.2-2.4,4.8-2.7,5.9s1.5,5.3,1.4,7.1c0,0,0,0-0.4,2c-0.1,0.3-0.3,0.6-0.6,0.8c-3.3,1.6-3.3,1.6-3.3,1.6
			c-3.8-0.3-9-0.5-11.5-0.4s-9.5,4.5-11,5.3c0,0,0,0-1.9,0.7c-0.6,0.2-1.2-0.1-1.4-0.6c-0.7-2-1.3-3.6-2-5.6
			c-0.1-0.3-0.4-0.6-0.8-0.7c-3-0.7-6.3-1.6-9.6-2.1c-3.8-0.6-6.3-2.7-8-5.1c-0.1-0.2-0.4-0.4-0.6-0.4c-2.1-0.6-2.1-0.6-2.1-0.6
			c-1.9-0.5-3.9-1-4.5-1.2c-0.6-0.2-3.2-0.3-4.4-0.3c-1.2,0-5.3-2.5-6.9-3s-6.8,0.9-8.9,1.3c-2.1,0.4-9.7-0.6-12.2-1.2
			c-2.5-0.6-11.8-1.9-15.1-1.9c0,0,0,0-2.4-2.2c-0.2-0.2-0.5-0.3-0.8-0.3c-5.4,0.5-7.9-0.2-7.9-0.2c-4.2-1.2-8.8-2.2-10.1-2.2
			s-5.4,0.5-6,0.7s-2.6,2.1-3.6,3.2s-3.6,5.6-4.2,7.2c0,0,0,0,1.7,0.9c0.6,0.3,0.7,1.1,0.3,1.6c-1,1.3-1,1.3-1,1.3
			c-1,1.1-3.5,3.9-5.6,6.3c0,0,0,0,0.2,2.9c0.1,1-1.1,1.5-1.8,0.8c-2.2-2.1-2.2-2.1-2.2-2.1c-2.2-2.1-4.2-3.9-4.4-4.2
			s-0.8-1.8-1.4-3.2c-0.6-1.4-2.8-5.2-3.2-5.8c0,0,0,0-0.4-0.7c-0.2-0.3-0.6-0.5-1-0.5c-4.7,0.5-8.3-1.4-9.9-6.6
			c-0.1-0.2-0.2-0.4-0.4-0.6c-1-0.7-2-1.9-3.2-2.1c-2.9-0.4-2.9-0.4-2.9-0.4c-2.5-1.8-7.5-5.2-11.2-7.6l-15.1-9.7
			c-3.7-2.4-9.6-5.8-13-7.8c-3.4-1.9-14.2-7.6-16.3-8.5s-10.1-2.6-12.7-3.2c-2.6-0.6-11-2.8-13.1-3.4c-2.1-0.6-10.5-1.9-13.9-1.8
			c0,0,0,0-2.4,2.6c-2.6,2.8-2.6,2.8-2.6,2.8c-3.7,1.9-8.5,4.2-10.6,5.1c-2.2,0.9-10.1,3.8-12.9,4.4c0,0,0,0-2.6-0.1
			c-2.5-0.1-2.5-0.1-2.5-0.1c-2.7-0.8-6.6-1.2-8.8-1c-2.2,0.2-6.2,5.8-6.4,6.2c0,0,0,0-0.2,0.4c-0.1,0.2-0.3,0.4-0.5,0.5
			c-0.3,0.1-0.3,0.1-0.3,0.1c-0.4,0.1-4,0.1-8,0.1s-17.9,0.9-22,1.4s-15.6,5.8-17.3,7.5s-5.2,8.3-5.6,9.5c-0.5,1.2-2.6,4.7-3.3,5.3
			c-0.7,0.6-4.6,2-6.2,2.6c-1.6,0.5-7.8,3.3-10.2,4.5c0,0,0,0-0.1,2.6c0,0.5-0.4,1-0.9,1c-5.8,0.8-11.1,0-16-3.4
			c-0.5-0.3-0.6-1-0.2-1.5c1.6-2.2,1.6-2.2,1.6-2.2c-1-2.7-3.9-6.7-6.5-8.9c-2.6-2.2-7.6-10.1-7.8-10.4c-0.2-0.3-0.3,0.1-0.3,0.9
			c0,0.8,1.6,5,2.6,8.2c1,3.3,3.3,13.8,3.6,16c0,0,0,0,0.2,2.2c0.1,0.7,0.7,1.1,1.4,0.9c0.7-0.2,0.7-0.2,0.7-0.2
			c0.6-0.2,1.3-0.2,1.3,0c0.1,0.2-1,1.8-2.4,3.4c-1.3,1.6-5.4,6.4-6.1,7.1s-2.9,5.6-5,9.5c0,0-1.2,2.2-3.6,6.8
			c-0.2,0.4-0.6,0.6-1.1,0.6c-5.7-0.9-8.7-0.6-8.7-0.6c-4.4,0.4-7.9,0.8-7.9,1.1c0,0.2,1,1.6,2,1.6s6.6-0.9,10.3-1.8
			c0,0,0,0,3.4,2.4c0.4,0.3,0.6,0.8,0.4,1.2c-2.6,7.6-5,15.4-4.2,23.1c0,0.2,0.1,0.4,0.3,0.6c2.5,2.9,4.7,5.6,7.2,8.4
			c0.5,0.6,0.2,1.5-0.5,1.7c-2.6,0.8-5,1.5-7.8,2.4c-0.3,0.1-0.6,0-0.9-0.1c-0.9-0.6-2.1-1.4-3.5-2.4c-0.5-0.3-1.1-0.2-1.4,0.2
			c-2.8,3.8-7.1,7-5.1,12.8c0.1,0.3,0.1,0.6-0.1,0.9c-1.4,2.8-1.4,2.8-1.4,2.8c1.1,3,2.4,6.3,3,7.2s3.8,1.5,4.4,1.3
			c0.5-0.2,3.1,0.5,4.9,1.1s7.2,0.8,7.4,1s-0.2,2.4-1.4,3.8c0,0,0,0-1.2,1.5c-0.2,0.3-0.3,0.7-0.2,1l0,0c0.3,0.9,0.5,1.8,0.4,2
			c-0.1,0.2-1.6,1.9-3,3.8c-1.4,1.8-1.7,8.7-1.7,9.5s-2.1,3.6-3.8,5.2c0,0,0,0-1.7,1.2c-0.6,0.4-0.6,0.4-0.6,0.4
			c-1.2-0.3-3.5-1-5.2-1.7c0,0,0,0-1.5-0.7c-0.2-0.1-0.4-0.3-0.5-0.5c-1.7-3.1-1.9-6.6-2.9-10.3c-0.3-0.9-1.5-1.1-1.9-0.2l-0.8,1.5
			c-0.3,0.5,0,1.1,0.5,1.3c1.7,0.5,1.7,0.5,1.7,0.5c0.1,1.7,0.5,4.8,0.7,6.9c0,0,0,0,2,0.5c0.6,0.1,0.9,0.7,0.8,1.3
			c-0.4,1.4-0.4,1.4-0.4,1.4c-0.5,1.4-1.5,3-2,3.6s-3.6,2-5.3,2.5s-7.6,5.6-10.3,9c0,0-1.1,1.4-3.5,5.2c-0.1,0.1-0.1,0.2-0.1,0.3
			c-2,6.8-3,13-3,13c-0.7,4.3-1.4,10.6-1.5,13.9c0,0,0,0,2.8,2.4c0.6,0.5,0.4,1.5-0.3,1.8c-1.2,0.4-1.2,0.4-1.2,0.4
			c-1,0-3.6,0.4-5.9,0.7c-2.2,0.3-8.7,4.3-10.2,5.6c0,0,0,0-1.5,1.2c-0.4,0.3-1,0.3-1.4-0.1c-1.2-1.1-1.2-1.1-1.2-1.1
			c-1.2-1-3.1-2.5-4.2-3.3s-6.4-3.1-8.7-3.9c0,0,0,0,0.6-2c0.3-0.9-0.8-1.7-1.6-1.2c-1.1,0.7-1.1,0.7-1.1,0.7
			c-0.2,1.6-0.7,4.1-1.1,5.4c0,0,0,0-0.5,1.4c-0.2,0.5-0.8,0.8-1.3,0.6c-4.7-1.5-5.6-2-5.6-2c-3.7-2.4-7.3-4.8-8-5.3
			c-0.7-0.5-4-2.6-5.6-3.5c0,0,0,0-1.8-1.1c-0.6-0.4-0.7-1.2-0.1-1.7c2.5-2.1,1.3-5.1,2.1-7.6c0.1-0.3,0-0.7-0.2-1
			c-2.5-2.6-6.3-4.2-5.7-8.6c0.1-0.7-0.5-1.2-1.1-1.2l-2.4,0.2c-0.3,0-0.6-0.1-0.8-0.4c-2.6-3.4-2.7-3.4-2.7-3.4
			c-4.2-1.3-9.6-3-11.9-3.8c0,0,0,0,0.6-3.4c0.1-0.3,0.3-0.6,0.4-0.9c0.1-0.3,0.1-0.3,0.1-0.3c0-0.6-0.4-0.8-0.9-0.6s-2.2,1.5-3.1,2
			c-0.9,0.5-7.4,0.5-11.8,0.8c0,0-1.2,0.1-4.9,3.2c-2.3,2-2.3,2-2.3,2c-4-0.8-8.7-2.3-10.5-3.5c0,0,0,0-1.8-1.2
			c-0.4-0.3-0.6-0.8-0.4-1.2l0.6-1.8c0.1-0.4,0-0.8-0.3-1.1c-2.3-2.3-2.3-2.3-2.3-2.3c-3.3,0.4-8.5,0.3-11.6-0.2c0,0,0,0-0.1-4.2
			c0-0.2,0-0.2,0-0.2c0-0.2-0.2-2.4-0.6-4.8s0.3-9.5,0-9.9s-1.7-1.1-2.6-1.2c0,0,0,0-0.8,0.1c-4.2,0.6-8.5,1.3-12.9-1.3
			c-0.3-0.2-0.5-0.5-0.5-0.8c-0.5-4.4-1.1-9.4-5.4-12.7c-0.3-0.3-0.5-0.7-0.4-1.1c1.5-5.9,3.6-9.3,3.6-9.3c2.3-3.7,5.4-8.4,6.8-10.3
			c0,0,0,0,0.9-2.1c0.5-1.1-1.1-2.1-1.8-1.1c-1.4,2-1.8,4.9-4.3,6.4c-0.5,0.3-1.2,0.1-1.5-0.5c-0.9-1.9-0.9-1.9-0.9-1.9
			c-1-2.2-2.4-5-3-6.3c-0.6-1.3-3-5.1-3.6-5.8c0,0,0,0-1,0.7c-0.6,0.4-0.6,1.2,0,1.7c0.8,0.7,0.8,0.7,0.8,0.7
			c0.7,0.9,1.8,2.9,2.3,4.5s1.7,7.3,1.3,9.1c0,0,0,0-1.8,0.8c-0.5,0.2-0.7,0.7-0.6,1.2c0.6,2.6,0.6,2.6,0.6,2.6
			c0.5,2.8,0.5,6,0.2,7.1s-3.6,3.5-5.4,4.3s-7,4.4-8.4,4.5c0,0,0,0-1.7-0.1c-0.5,0-1,0.3-1.1,0.8c-0.2,0.7-0.4,1.5-0.6,2.4
			c-0.2,0.7,0.4,1.4,1.1,1.3c4-0.3,4-0.3,4-0.3c3.1-2.7,7.1-5.5,8.9-6.3c1.8-0.8,5.8,3.4,6.5,4.9c0,0,0,0,0.8,1.6
			c0.3,0.6,0,1.3-0.6,1.5c-2.3,0.8-2.3,0.8-2.3,0.8c-2.4,0.8-4.4,1.7-4.4,1.9c0,0.3,0.4,1.7,1,1.9s3.7,0.7,5.5,0.9c0,0,0,0,0.2,2
			c0.1,0.8,1,1.2,1.7,0.7c1.1-0.8,2.1-1.6,3.3-2.5c0.5-0.4,1.2-0.2,1.5,0.3c0.5,0.7,0.5,0.7,0.5,0.7c0.4,0.7,1.1,2.2,1.4,3.3
			s-2.9,3.3-3.3,3.4s-2.4,1.3-3.7,2.2s0.5,5.9,0.6,6s0.2,0.8,0.2,0.9s-2.4,1.4-5.3,2.2c0,0,0,0-2.9,0.8c-0.7,0.2-1.4-0.3-1.3-1
			c0-0.6,0-0.6,0-0.6c0.2-0.6,0.5-2.5,0.7-4.3c0,0,0,0-1.2-1.2C315.7,498.8,304,495,304,495c-4.2-1.4-8.6-2.4-9.9-2.3
			s-6.7-0.2-9.4-0.4s-10.8-0.5-12.4-0.4s-6.7,1-8.1,1.5s-3.8,4.3-4.5,5.4s-4.3,3.9-5.1,4.7c0,0,0,0-0.8,0.9c-0.3,0.3-0.7,0.4-1,0.4
			c-1.3-0.3-2.7-0.6-3.7-0.8c-0.2,0-0.5,0-0.7,0.1c-6.4,3-11.1,3.2-11.1,3.2c-4.4,0.2-10.8-1-14.1-2.7c0,0,0,0-2.8,3.1
			c-0.3,0.3-0.7,0.4-1.1,0.3c-3.2-1.1-6.5,2.5-9.9,0.6c-0.4-0.2-0.6-0.8-0.3-1.2c0,0,0,0,0,0c0.5-0.8-0.5-1.7-1.3-1.2
			c-3.2,2.2-6,4.2-9,6.4c-0.3,0.2-0.6,0.3-0.9,0.2c-1.7-0.6-1.7-0.6-1.7-0.6c-0.1-2.1-0.4-6.7-0.7-10c0,0,0,0-2.5-2.5
			c-0.4-0.4-1.2-0.4-1.6,0.1c-3.4,4.1-5.1,4.4-5.1,4.4c-4.3,0.7-10.7,3.6-14.1,6.4c0,0-1.2,1,2.9,6.7c0.3,0.4,0.4,0.9,0.5,1.3
			c0.1,0.4-0.1,0.8-0.4,1.1c-1.9,1.5-1.9,1.5-1.9,1.5c-1.8,1.4-3.8,3.3-4.4,4s-0.7,6.1-0.8,8.8c0,0,0,0-0.3,2.5c0,0.4,0.1,0.8,0.5,1
			c0.9,0.7,1.8,1.3,2.8,2c0.6,0.4,0.6,1.3,0,1.7c-1.1,0.9-1.1,0.9-1.1,0.9c-0.9,1-2.1,3-2.6,4.5c0,0,0,0-0.5,2.1
			c-0.1,0.2-0.2,0.5-0.4,0.6c-2.3,1.8-2.5,2.1-3.3,5.8c-0.1,0.6-0.8,1-1.3,0.8c-1.6-0.6-2-2.4-3-3.9c-0.1-0.2-0.4-0.4-0.7-0.4
			c-3.2-0.7-3.2-0.7-3.2-0.7c-3.7-0.8-8.7-1-11.2-0.5c0,0,0,0-1.8,2.2c-3.5,4.2-8,7.7-10.9,13c-0.3,0.6-1.2,0.7-1.7,0.2
			c-0.4-0.5-0.7-0.8-1-1.1c-3.2-3.4-3.2-3.4-3.2-3.4c-3.6,2.1-7.5,5.2-8.7,7s-2.2,9.2-2.8,11.2c-0.6,2-2.8,7.7-3.5,8.1
			c-0.7,0.4-3.1,2.2-4,2.9c0,0,0,0-0.8,0.7c-0.5,0.4-1.2,0.3-1.6-0.2c-1.8-2.8-1.8-2.8-1.8-2.8c1.6-0.9,3.4-1.9,4.1-2.3
			c0,0,0,0,0.4-0.5c0.7-0.9-0.3-2.1-1.3-1.6c-1.4,0.7-1.4,0.7-1.4,0.7c-1.9,0.1-3.6,0-3.7-0.2s0.1-2.8,0.5-5.7
			c0.4-2.9-1.7-12-2.1-13.8c0,0,0,0-0.2-1.9c-0.1-0.8-1-1.3-1.7-0.8c-1.5,1.1-3,2.1-4.4,3.2c-0.4,0.3-1,0.3-1.3-0.1l-2.6-2.4
			c-0.8-0.7-2,0.1-1.7,1.1c0.3,0.9,0.9,1.5,1.5,2.1c2.1,2,4,4,4,7.2c0,0.6,0.3,1.4,0.7,1.8c2.2,1.8,2.2,1.8,2.2,1.8
			c-1,2.1-2.6,4.3-3.6,4.8S87.2,581,87,581s-0.3,0.7,0,1.8c0.3,1.1,5,3,5.7,3.3c0,0,0,0,0.7,0.5c0.7,0.6,0.4,1.8-0.6,1.9
			c-1.4,0.1-1.4,0.1-1.4,0.1c-1.2,0.3-3.6,1.5-5.5,2.6c0,0,0,0-0.2,2.4c-0.1,0.9-0.9,1.8-1.6,2.4c-2.8,2.5-2.9,5.3-1.1,8.6
			c0.2,0.4,0.2,0.9-0.1,1.2c-0.7,0.8-0.7,0.8-0.7,0.8c-0.9,1-2.2,1.8-2.9,1.9s-2.9-0.4-3.1-0.5s-2.3,0.4-4.4,1c0,0,0,0-2.1,0.6
			c-1.1,0.3-1,1.9,0.1,2.1c0.5,0.1,0.5,0.1,0.5,0.1c0.6-0.1,3.7-0.1,6.9,0.1c0,0,0,0,2.5,1.9c1.6,1.2,3.3,2.2,5.2,3.5
			c0.3,0.2,0.5,0.6,0.5,1c-0.1,1.1-0.2,2.4-0.3,3.8c0,0.4,0.2,0.8,0.5,1c2.3,1.3,2.3,1.3,2.3,1.3c1.1,2.5,1.7,5.5,1.4,6.7
			c-0.3,1.2-1.5,5.2-2.1,6.2c-0.6,1.1-4.3,3-5.4,3.5c-1,0.5-1.4,4.4-1.5,5.3s-1.4,4.4-2.4,6.2c0,0,0,0-3.9-0.8
			c-3.8-0.7-3.8-0.7-3.8-0.7c-4.4,0.5-8.5,1.5-9.1,2.2c-0.6,0.7-2.1,3.4-2.2,4.2s-2.7,5-4.8,8.2c0,0,0,0,0.7,3.8
			c0.1,0.5-0.2,1-0.7,1.2c-0.9,0.3-0.9,0.3-0.9,0.3c-0.9,0.3-2.5,0.9-3.5,1.3c-1,0.4-3.8-3.3-4.2-3.9c-0.4-0.6-3.2-2.2-4.9-2.9
			c0,0,0,0-1.6-0.5c-0.3-0.1-0.5-0.3-0.6-0.5c-1.7-3.2-1.7-3.2-1.7-3.2c-2-3.5-3.7-7-3.8-7.7c-0.1-0.7,0.8-4.4,1.8-6.5
			c0,0,0,0,0-1.9c0-1.8,0-1.8,0-1.8c-1.1-2-2.9-4.9-4-6.5c0,0,0,0-1.2-1.7c-0.2-0.3-0.2-0.6-0.2-0.9c0.7-2.8,0.7-2.8,0.7-2.8
			c-1.7-2.8-5.7-7.6-8.9-10.6c0,0-2.6-2.5-7.1-6.1c-1.2-0.9-1.2-0.9-1.2-0.9c-2.2,0.2-4.9,0.3-6,0.3s-6.5-3.2-10.4-5.2
			c0,0-2-1-7.1,0.9c-0.4,0.1-0.8,0.1-1.1-0.2c-3.3-3.1-4-3.7-4-3.7c-3.3-2.9-8.6-6.2-11.7-7.4s-12.5,0.3-13.4,0.8c0,0,0,0,0,0.4
			c0.3,3.4-2.9,4.2-4.7,6.3c-0.2,0.2-0.3,0.6-0.2,0.9c0.3,1,0.3,1,0.3,1c0.4,1.1,1.1,4.5,1.6,7.5c0.4,3-3.9,11-5.4,12.2
			s-7.4,3.6-9.2,3.9s-7.1,1-7.5,1c-0.4,0-4.5,1.7-8.6,3.3c0,0-2.2,0.9-7,3c-0.4,0.2-0.9,0.1-1.2-0.2c-0.7-0.7-0.7-0.7-0.7-0.7
			c-0.5-0.7-1.6-2.6-2.3-4.3s-5.5-6.5-6-8.3s3.2-6.2,4.4-7.2s0.3-7.1,0.1-7.8c-0.1-0.7-0.6-3.6-0.8-4.9s-1.4-5.6-1.6-7.1
			c-0.2-1.5,2-5.2,2.3-5.6c0.3-0.4,0.9-2.4,1.4-3.6c0.5-1.2,3.8-5.4,5.8-6.8c1.9-1.4,8.8-2.8,9.9-3c1.1-0.2,4.6-3.7,6-5.3
			c1.4-1.6,8.2-5.9,10.5-6.9c2.3-1,7.2-6.5,7.8-7s3.9-1.5,5.8-1.9c2-0.4,7.5-1.2,7.9-1.1c0.4,0.1,2.6,0.5,3.9,0.7c0,0,0,0,1.2,0.2
			c0.4,0.1,0.8,0.4,0.9,0.8c1.4,5.9,4.1,8.9,11.4,8.9c0.3,0,0.6-0.1,0.8-0.3c5.2-5.4,12.2-9.9,11.1-19.1c-0.1-0.5,0.3-1,0.8-1.1
			c1.6-0.5,1.6-0.5,1.6-0.5c1.7,0.6,3.3,1.3,3.4,1.4c0.2,0.1,2,0.2,3.8,0.2s7.1-1.9,8.4-2.9c1.3-0.9,5.3-5.6,6.7-7.5
			c0,0,0,0,2.4-0.3c0.5-0.1,0.5-0.1,0.5-0.1c0.4-0.4,3.4-3,6.6-5.9c0,0,0,0,3.4-1.8c5.4-2.9,5.7-5.2,5.7-5.2
			c0.6-4.4,1.3-9.2,1.5-10.8c0.3-1.6,6.6-3,7.9-3.2s4.8-4.1,5.9-5.7s6.1-5,6.8-5.6s2.3-4.9,2.9-7.1c0.7-2.2-1-8.7-1.1-9.4
			c0-0.7,1.3-3.2,2.3-4.5c0,0,0,0-0.7-2.8c-0.1-0.5,0.1-0.9,0.5-1.2c1.4-0.8,2.6-1.7,4.6-1c1.3,0.5,1.3,0.5,1.3,0.5
			c0.7-1.1,1.9-2.8,2.7-3.9c0,0,0,0,0.8,0.1c2.3,0.2,3.4-0.8,3.7-2.8c0.1-0.8,1-1.2,1.6-0.7c1,0.7,1.9,1.3,2.9,1.9
			c0.2,0.2,0.5,0.2,0.8,0.1c3.4-1.2,3.4-1.2,3.4-1.2c2.2-3.4,5-7.7,6.2-9.7s1-8.3,1-8.7c-0.1-0.3,0.3-2.1,0.5-3.6
			c0.2-1.5,1.5-7.8,2-10.8c0,0,0,0-2.4-2.1c-0.4-0.3-0.5-0.9-0.2-1.4c0.6-0.9,0.6-0.9,0.6-0.9c0.6-0.8,2.2-3.2,3.7-5.5
			c0,0,0,0-0.2-2.7c-0.1-1-0.1-1-0.1-1c0.3-1.1,0.9-4.7,1.4-8c0,0,0,0-3-1.8c-0.4-0.3-0.6-0.8-0.4-1.3c0.7-1.7,0.7-1.7,0.7-1.7
			c1.4,0.4,3.4,0.9,4.4,1.3s4.7,1.9,7,2.4c0,0,0,0,1.9-0.3c0.3-0.1,0.6-0.2,0.7-0.5c1.3-2.1,2.5-4.2,3.9-5.9
			c1.2-1.4,2.8-2.6,4.4-3.9c0.6-0.5,1.5-0.2,1.7,0.5c0.2,1.1-0.4,2.3-0.1,3.6c0.1,0.3,0.3,0.5,0.5,0.7c2.2,1.2,2.2,1.2,2.2,1.2
			c0.3,2.9,0.8,6.7,1,8.4c0,0,0,0,0.4,1.4c0.1,0.5,0.7,0.9,1.2,0.8c1.5-0.3,1.5-0.3,1.5-0.3c1.3,0,3.5,0.3,4.9,0.6s7.2-0.4,9.3-0.6
			c0,0,0,0,2.2,0.1c1.3,0.1,1.6-1.9,0.3-2.1c-1.4-0.2-1.4-0.2-1.4-0.2c-1.4,0.3-4.3,0.8-6.4,1.1c0,0,0,0-2.1,0.5
			c-0.3,0.1-0.5,0-0.8-0.1c-8.8-5-9.7-13.1-5-19.9c0.3-0.5,0.2-1.1-0.2-1.5l-2.9-2.3c-0.5-0.4-0.5-1.2,0-1.7l1.9-1.5
			c0.4-0.3,1-0.2,1.3,0.2c2.2,2.9,5.6,2.9,8.9,3.6c0.3,0.1,0.6,0,0.8-0.2c0.7-0.5,0.7-0.5,0.7-0.5c0.8-0.7,2.8-2.1,4.3-3.2
			s10.4-1.8,14.7-2.1c0,0,0,0,3.9-0.4c0.3,0,0.6-0.2,0.7-0.4c3.1-4.2,6.8-8.1,7.1-13.8c0.1-1.6,0.1-1.6,0.1-1.6
			c0.6-1.8,1.6-4.2,2.3-5.4c0.7-1.2-0.4-6.7-0.2-8.5c0,0,0,0,0.5-2.1c0.1-0.4,0.4-0.7,0.8-0.8c2.2-0.5,4.4-1.1,7-1.7
			c0.3-0.1,0.6-0.3,0.7-0.6c0.4-0.8,0.8-1.8,1.4-2.9c0.1-0.3,0.4-0.5,0.7-0.6c2.2-0.5,4.8-0.7,5.9-3.3c0.1-0.3,0.4-0.6,0.7-0.7
			c4.1-1.2,4.3-1.4,4.3-1.4c2.6-3.5,7-9.3,9.6-12.8c0,0,0.2-0.2-0.2-5c0-0.5,0.2-0.9,0.7-1.1c1.5-0.6,1.5-0.6,1.5-0.6
			c0.9-1.5,1.7-3,1.7-3.2c0.1-0.2,1.5-2,3-4c1.5-1.9,9.4-5.4,11.3-6.5c1.9-1,6.2-6,6.7-7c0.5-1,1-7.3,1.1-11.7l0.1-9.8
			c0-4.4-0.1-9.5-0.2-11.3s-0.9-8.5-1.2-10.8s-0.6-11.6,0.1-15.5c0,0,0,0,2.2-2.9c1.4-1.8,1.4-1.8,1.4-1.8c0.2-2.2,0.6-5.4,0.9-7.2
			c0.3-1.8,2.1-8.3,2.6-10.8c0.5-2.6,1-11.2,1-13.3c0-2.1,1.6-8.5,2.4-9.4c0.7-0.9,4.1-0.9,5.3-0.8c1.2,0.1,5.7-0.1,7.5-0.2
			s7.9,2.7,10,3.6c0,0,0,0,1.9,0.1c4,0.1,4,0.1,4,0.1c2.9,2.7,7.8,6.3,10.7,7.9c3,1.7,14.4,1.8,17.8,0.9s10-9.2,11-10.5
			s3.9-6.2,4.9-7.6c0.9-1.4,5.8-3.7,6.3-4.2c0.6-0.5,1.9-3,2.2-4s1.8-3.9,2.4-4.5c0,0,0,0,0.8-0.4c0.5-0.3,1.2-0.1,1.5,0.4
			c0.3,0.6,0.6,1.1,0.8,1.7c0.1,0.3,0.2,0.6,0.3,0.9c0.1,0.6,0.8,1,1.4,0.8c0.7-0.3,1.4-0.5,2.1-0.8c0.5-0.2,1.1,0,1.3,0.5
			c1.1,2,1,2.1,0.3,5.5c-0.2,1.1,1.2,1.7,1.9,0.8c1.4-2,1.7-4.4,1.2-7.5c-0.1-0.3,0-0.6,0.3-0.9c0.5-0.6,0.1-2.1,0.6-2.9
			c0.8-1.1,0.8-1.1,0.8-1.1c1-0.9,2.9-2.6,4.1-3.8c1.2-1.1,8.2-0.8,10.9-0.3c0,0,0,0,1.3-3.6c0.2-0.6,0.9-0.9,1.4-0.6
			c3.5,1.5,3.5,1.5,3.5,1.5c3.8,1.7,7,2.9,7.1,2.7c0.1-0.2-1.2-1.7-3.1-3c-1.9-1.3-8-4.3-9.1-4.5c-1.1-0.2-4.2,3.1-5.7,4.5
			c0,0,0,0-1.9-0.1c-5.8-0.3-9.8,2.5-12.9,6.8c-0.3,0.4-0.7,0.5-1.2,0.4c-6.1-1.9-6.5-4.7-6.5-4.7c-0.6-4.4-1.1-10.3-1.1-13.1
			c0,0,0,0,0-2.7c0-0.4-0.2-0.8-0.6-0.9c-1.2-0.6-2.4-1.1-3.7-1.8c-0.5-0.2-0.7-0.8-0.5-1.3c1.4-4.2-2.1-5.5-4.8-7.6
			c-0.5-0.4-0.5-1.3,0-1.7c0.5-0.3,0.9-0.6,1.3-0.7c1.3-0.1,2.6,0.3,4,0.3c4.8,0.2,4.8,0.2,4.8,0.2c1.1-2.9,2.6-8.9,3.3-13.2
			c0,0,0.2-1.3-3.3-4.8c-0.4-0.4-0.4-1.1,0.1-1.5c1.5-1.2,1.5-1.2,1.5-1.2c1.6-1.2,3.9-2.9,5.2-3.6c0,0,0,0,1.1,0.1
			c5.2,0.5,6.9-0.2,6.9-0.2c4.1-1.7,9.8-4.2,12.7-5.7c0,0,0,0,3.3,0.6c1.5,0.3,1.5,0.3,1.5,0.3c1.8-0.8,4.7-1.8,6.4-2.2
			s7.1,1.8,8.3,2.5s6.6-2.1,7.2-2.4s4.4-0.8,7.2-1s11.1-1.2,12.2-1.5s5.1-2.5,7.3-3.5c2.2-1,9.8,0.9,12,1.5c0,0,0,0,2.1-1.2
			c1.1-0.6,1.1-0.6,1.1-0.6c1.4-0.5,5.7-1.9,9.5-3.3c0,0,0,0,4,1.7c3.5,1.5,3.5,1.5,3.5,1.5c3-2.6,6-5.3,6.6-6c0,0,0,0,0.7-0.7
			c0.4-0.4,1-0.4,1.5,0c2.7,2.6,2.7,2.6,2.7,2.6c3.8,0.6,10.4,1.7,14.8,2.5l16.5,3c4.3,0.9,8.8,2.2,10.1,2.9c0,0,0,0,1.2,0.9
			c0.3,0.2,0.6,0.2,0.9,0.1c3.9-1.1,8.1-1.6,10.9-5.2c0.2-0.2,0.4-0.4,0.7-0.4c3.4-0.3,3.4-0.3,3.4-0.3c3.8-0.1,8.8,0.3,11.3,1.1
			c2.4,0.7,9.3,2.9,9.8,3.2c0.5,0.2,3.9,3.9,6.8,7.2c0,0,0.1,0.1,5-1.1c0.7-0.2,0.7-0.2,0.7-0.2c1.1,1.5,2.4,3.3,2.8,4
			s4.5,4.7,7.9,7.5c0,0,1.8,1.5,7.6-0.6c0.1,0,0.3-0.1,0.4-0.1c5.5,0.4,8.5,0.7,8.5,0.7c4.4,0.4,9.1,0.7,10.6,0.8c0,0,0,0,1.3,0
			c0.5,0,0.5,0,0.5,0c0.5-0.2,4.5-1.2,8.8-2.1c0,0,4.7-1.1,11-2.7c2.5-0.6,2.5-0.6,2.5-0.6c2.5-1.5,6.5-3.1,8.7-3.4c0,0,0,0,2-0.4
			c2.2-0.4,2.2-0.4,2.2-0.4c2.4-0.6,6-1.7,8.1-2.4s9.8-0.2,11.9,0.1c2.1,0.3,8.8,1.9,10.1,1.7c1.4-0.2,5.4-1.9,6.1-2.5
			s3.3-2.5,4.2-3.1c0,0,0,0,1.1-0.6c0.8-0.5,1.8,0.3,1.5,1.2c-0.7,2.6-0.7,2.6-0.7,2.6c-0.4,2.3-2.5,5-4.6,6.1c0,0,0,0-1.5,1.5
			c-0.6,0.6-0.2,1.6,0.6,1.7c2.5,0.4,2.5,0.4,2.5,0.4c1.7-1.7,4.4-5.6,6-8.6s4.2-12.9,4.2-14.2c0-1.3-2.7-6.2-4-8.7
			c-1.4-2.5-0.8-12.5-0.4-15.2c0.4-2.7,1.2-10.7,1.1-11.7c0,0,0,0-0.2-0.9c-0.1-0.4-0.3-0.7-0.7-0.8c-1.6-0.6-1.6-0.6-1.6-0.6
			c-1.6-0.6-2.8-1.2-2.8-1.4c0.1-0.2,3,0,6.4,0.8c0,0,0,0,3.3,0.8c0.4,0.1,0.9-0.1,1.1-0.4c1.8-2.9,1.8-2.9,1.8-2.9
			c0.2-3.9,0-8-0.6-9.2c0,0,0,0-1.1-1.4c-0.4-0.5-0.2-1.3,0.4-1.6c1-0.5,1-0.5,1-0.5c1.1-0.5,3.5-2.5,5.2-4.4c1.8-1.9-0.9-7.9-1-8
			c-0.1-0.2,1.1-1.7,3.3-2.3c0,0,0,0,1.8-0.9c1.8-0.9,1.8-0.9,1.8-0.9c2,0.2,4.8,0.4,6.1,0.4s5.7-3,7.1-4.5s4.3-7.8,4.9-9.4
			s3.8-4.6,3.8-4.7c0.1-0.1,2.5-2.8,5.3-6s10.9-12.7,12-14s5.8-2.9,6.4-3.1c0.6-0.3,3.3-2.2,5-3.2c0,0,0,0,1.8,0.6
			c3.8,1.3,6.8,0.3,9.1-2.5c0.2-0.3,0.6-0.5,1-0.4c5.3,1.1,8.3,5.2,11.9,8.5c0.3,0.3,0.8,0.4,1.2,0.2c0.6-0.3,1.2-0.5,1.7-0.9
			c0.5-0.3,0.9-0.7,1.3-1.1c0.4-0.4,0.9-0.4,1.3-0.1c1.5,1,1.5,1,1.5,1c0.8,1.7,1.7,3.9,2,4.9c0,0,0,0,0.6,0.2
			c4.4,1.9,4.2,6.1,5.6,9.8c0.2,0.5,0,1-0.4,1.3c-0.5,0.4-1,0.7-1.5,1c-0.3,0.2-0.5,0.6-0.4,0.9c0.3,5.5,0.6,10.8,0.9,16.1
			c0,0.4,0.3,0.8,0.8,1c3,0.9,6.1,1.7,9.6,2.7c0.8,0.2,1.1,1.3,0.4,1.8c-2.3,1.7-5.2,2.2-6.1,4.9c-0.2,0.6-0.8,0.9-1.4,0.6l-0.9-0.4
			c-0.5-0.2-1,0-1.3,0.4c-0.1,0.2-0.1,0.2-0.1,0.2c-0.1,0.2-0.6,0.9-1,1.7s-2.6,2.3-3.5,2.9s-1.9,6.1-2.2,9.1c0,0,0,0-0.3,3
			c0,0.4-0.4,0.8-0.8,0.8c-1.5,0.1-3,0.2-4.5,0.4c-0.5,0-1-0.3-1.1-0.8c-0.7-2.2-0.8-4.2,0.2-5.6c0.2-0.3,0.2-0.8,0-1.1
			c-1.3-2.2-1.3-2.2-1.3-2.2c-1.3-2.2-2.5-4-2.8-3.9c-0.3,0.1-1.5,1.1-1.6,1.9s0.7,5.8,1.4,9.1c0,0,0,0-3.4,2.8
			c-0.5,0.4-0.5,1.2,0,1.6l3.3,3c0.3,0.3,0.4,0.7,0.3,1.1c-0.3,1.2-0.6,2.2-0.9,3.3c-0.1,0.3,0,0.6,0.2,0.9c0.3,0.4,0.3,0.4,0.3,0.4
			c0.3,0.3,3.4,2.6,7,5.2c0,0,2.2,1.6,6.5,4.8c0.1,0.1,0.2,0.2,0.3,0.4c2.6,5,2.6,5,2.6,5c3.8-0.7,8.1-2.1,9.5-3.2c0,0,0,0,1.4-1.3
			c0.3-0.3,0.7-0.3,1.1-0.2c3.1,1.5,5.6-0.9,8.1-2.8c0.3-0.2,0.6-0.3,1-0.1c5.2,1.7,10.2,3.4,15.4,5.1c0.5,0.2,0.8,0.7,0.7,1.2
			c-0.2,1-0.4,2-0.5,3c-0.1,0.5,0.2,1,0.6,1.2c2,0.9,2,0.9,2,0.9c2.4,0.1,6,0,8-0.3c2.1-0.2,9.2-4.7,11.9-6.2c0,0,0,0,1-3.3
			c0.3-1.1,2.3-1.7,4-2.5c0.4-0.2,0.8-0.1,1.1,0.3c0.6,0.8,1.2,1.6,1.7,2.2c0.3,0.4,0.7,0.5,1.2,0.4c5.2-1.8,9.5-5.4,15.1-5.4
			c0.1,0,0.4-0.1,0.5-0.1c3.6-2.1,3.9-2.2,3.9-2.2c3.8-2.2,7.2-4.3,7.5-4.6c0,0,0,0,0.2-0.4c0.3-0.4,0.3-1-0.1-1.3
			c-1.2-1.3-3.8-1.8-2.6-3.6c0.4-0.5,0.1-1.2-0.4-1.5c-1.7-0.8-3.1-1.6-4.6-2c-1.5-0.4-3.1-0.6-4.9-0.9c-0.9-0.1-1.2-1.2-0.6-1.8
			c0.4-0.4,0.4-0.4,0.4-0.4c0.5-0.3,3.6-2.3,6.9-4.5c0,0,0,0,3.5-1.3c1.2-0.4,1.2-0.4,1.2-0.4c0.5-2.6,0.7-5.2,0.5-5.7
			s-0.7-2.6-0.9-3.4c-0.2-0.8,0.5-3.6,1-5.2s2.7-6.3,3.1-7.3s-2.5-4.9-4.5-6.5c0,0,0,0-2.4,1.8c-0.2,0.2-0.2,0.2-0.2,0.2
			c-0.5,0.1-2.8-2.7-5.1-6.3c0,0,0,0-4.3-0.1c-1.8,0-1.8,0-1.8,0c-2,0.5-7.1,1.2-11.5,1.6c0,0-1.9,0.2-6,3.5
			c-0.1,0.1-0.2,0.1-0.3,0.2c-3.6,1.3-3.6,1.3-3.6,1.3c-4,1.3-8.5,2.7-10,3.2s-6-1.5-6.8-1.6c0,0,0,0-1,0.1c-0.6,0-1.1-0.4-1.1-1.1
			v-0.8c0-0.5-0.3-0.9-0.8-1c-2.8-0.6-5.3-1.2-7.7-1.8c-0.4-0.1-0.7-0.4-0.8-0.8c-0.7-3.7-0.9-4.5-1.9-5.5c-0.5-0.5-0.5-1.3,0.1-1.7
			c3.9-2.7,4.1-4.3,4.1-4.3c0.6-4.4,0.9-9.7,0.5-12c0,0,0,0-0.3-2.2c-0.1-0.4-0.3-0.7-0.7-0.8c-2.4-0.8-4.8-2.8-7.8-0.5
			c-0.5,0.4-0.5,0.4-0.5,0.4c-1.2-0.5-3.3-1.4-4.7-2c-1.3-0.6-5-2.2-5.2-2.2c-0.2-0.1-3.1-1.9-6.3-3.8c0,0,0,0-3.5,0 M206.8,486.9
			c0.1,0.1,0.2,0.3,0.3,0.4c0.5,1.3,0.5,1.3,0.5,1.3c0.8,1.9,1.5,1.6,1.7-0.7c0,0,0,0-1.7-0.6c-0.4-0.1-0.7-0.5-0.7-0.9
			c-0.2-1.4-0.2-1.4-0.2-1.4c-1.6-0.3-1.9,0.1-0.9,1.1C205.8,486.1,205.8,486.1,206.8,486.9z M492.9,476.8c-0.5-0.2-0.9-0.3-1.1-0.1
			c-0.1,0.2,0.9,2.6,3.2,4.1c0,0,0,0,3-0.7c0.6-0.1,1.1,0.2,1.3,0.8l0.3,1.1c0.2,0.8,1.2,1.1,1.7,0.5c0.7-0.7,1.4-1.3,2-1.9
			c0.5-0.4,0.5-1.2,0-1.6c-1.8-1.4-1.8-1.4-1.8-1.4c-2,0.2-4.2,0.4-4.8,0.4C496,478,493.4,477,492.9,476.8z M948.1,331.7
			c-0.4-1.7-0.8-3.3-1.1-4.7c-0.1-0.5-0.6-0.8-1.1-0.8l-2.3,0.2c-0.6,0-1.1,0.7-1,1.3c0.6,2.5,1.3,4.7,4.2,5.3
			C947.6,333.2,948.3,332.5,948.1,331.7z M360.2,482.9c-2.6,0.8-3.9,2.5-3.3,5.5C358,486.5,359.1,484.7,360.2,482.9z M99.5,557
			c1.1-1.2,2.2-2.5,3.9-4.5C100.6,553.7,98.5,554.3,99.5,557z M934.9,332.1c-0.1-3.7-0.1-3.7-2.7-3.5
			C932.9,329.6,933.6,330.4,934.9,332.1z M102.7,548.1c0.2-0.5,0.3-1,0.2-1c-0.1,0-0.5,0.3-0.8,0.8c-0.2,0.5-0.7,1.8-0.6,1.9
			C101.7,549.8,102.5,548.6,102.7,548.1z"/>
	</g>
	<g id="NNsosy.tif_6_" class="st2">
		<path class="st4" d="M1105.7-21.9c1.5,0,1.5,0,1.5,0c1.7,0.5-0.6,0.9-5,0.9l-39.6,0c-0.5,0-0.9,0.4-1,0.8
			c-0.6,2.7-0.6,2.7-0.6,2.7c1.1,2.2,3.2,6,4.8,8.5c1.5,2.5,6.1,9.2,6.5,9.7c0.4,0.5,2.9,2.4,4.3,3.6c1.4,1.2,1,8,0.6,9
			c0,0,0,0-0.1,1c0,0.6,0.1,1.1,0.2,1.7c0.1,0.6-0.2,1.1-0.7,1.3c-3,0.8-5.9,1.6-9.2,2.5c-0.8,0.2-1,1.2-0.5,1.7c1,1.1,1.9,2,2.8,3
			c0.2,0.2,0.3,0.6,0.3,0.9c-0.5,3.2-0.5,3.2-0.5,3.2c2.5,2.4,7.3,6.7,10.7,9.4c0,0,1.3,1,5.4,4.4c0.3,0.2,0.4,0.6,0.4,1
			c-0.4,2.3-0.4,2.3-0.4,2.3c1.6,2.6,3,5.2,3.1,5.8s-0.9,3.5-1.7,5.3c0,0,0,0-1,1.8c-0.3,0.5-1,0.7-1.5,0.4c-1.6-1-3.1-1.8-4.7-2.8
			c-0.5-0.3-1.2-0.1-1.5,0.5c-1.7,3.7-1.7,3.7-1.7,3.7c0.5,4,1.3,8.3,1.7,9.6s0.5,6.8-0.1,9.3c0,0,0,0-2.6,0.6
			c-0.5,0.1-0.8,0.5-0.8,1c0,1.9,0,1.9,0,1.9c0,1.9,0,3.8-0.1,4.3s1.1,4,2.2,7.1c0,0,0,0-3.6,2.8c-0.3,0.3-0.8,0.3-1.1,0.1
			c-1.8-0.9-1.8-0.9-1.8-0.9c-2.1-0.9-4.6-1.9-5.5-2c-1-0.2-5.3,0.6-7.5,1.8c-2.2,1.2-7.2,8.1-8.2,10.4c0,0,0,0-0.8,1.9
			c-0.1,0.3-0.5,0.6-0.8,0.6c-4.9,0.7-9.5,1.4-13.9,2.1c-0.3,0-0.6,0.2-0.7,0.5c-2,3.1-2,3.1-2,3.1c1.8,2.1,4.2,4.9,5.4,6.2
			c1.1,1.3,2,7.2,2.4,8.5c0.3,1.3,2.3,5.6,2.8,6.9s-0.3,7.1-0.7,9.5c0,0,0,0-0.3,2.3c-0.1,0.5,0.2,1,0.7,1.2
			c0.9,0.3,0.9,0.3,0.9,0.3c0.9,0.3,2.3,1,3.2,1.4c0.9,0.4,3.3,2.4,3.5,3.2c0.2,0.8,0.7,4.1,0.7,5.4s-1.5,5.4-1.6,6.2
			c-0.2,0.8,0.6,4.2,1,6s0,8.2-0.2,9.8c-0.2,1.6-0.6,6.8-0.5,7.8c0.1,1,4.3,3.7,6.3,4.8c0,0,0,0,1.7,1.1c0.3,0.2,0.4,0.4,0.5,0.8
			c0.3,2.2,0.5,4.2,0.8,6.7c0,0.3,0,0.6-0.2,0.8c-1,1.1-1,1.1-1,1.1c-2,0.8-4.4,1.8-5.3,2.2c-0.9,0.4,0,5.1,0.9,8.2c0,0,0,0,3.3,1
			c0.6,0.2,0.9,0.9,0.6,1.5c-1.5,3-2.9,5.8-4.4,8.7c-0.2,0.4-0.7,0.6-1.1,0.6c-0.9-0.2-0.9-0.2-0.9-0.2c-1-0.2-1.9-0.3-2.1-0.2
			c-0.2,0.1-2.1,1.8-4,3.5s-10.3-2.1-11.5-3.3s-5-5.4-6.3-6.6c-1.3-1.2-8.4-3.2-11-4c-2.6-0.8-11.5-4.3-14.2-5.5c0,0,0,0-2.5,1.9
			c-0.5,0.4-1.2,0.3-1.6-0.3c-1.7-2.8-3.2-5.4-4.8-7.9c-0.2-0.4-0.7-0.6-1.1-0.5c-4.3,0.7-5.4,4.7-7.8,7.8c-0.6,0.7-1.8,0.4-1.9-0.5
			c-0.1-1.2-0.3-2.3-0.4-3.3c-0.1-0.6-0.6-1-1.2-0.9c-3.9,0.6-3.9,0.6-3.9,0.6c-4,0.6-9.6,3-12.3,5.5c0,0,0,0-3.3,1.6
			c-0.7,0.3-0.8,1.3-0.2,1.7c1.9,1.6,1.9,1.6,1.9,1.6c1.8,1.7,3.9,3.7,4.7,4.6c0.8,0.9,4.4,6.5,6.8,10.2c0,0,3.2,4.9,8.7,10
			c0.4,0.4,1.1,0.4,1.5-0.1c1-1.1,1-1.1,1-1.1c1.1-1.1,2.8-2.7,3.8-3.4s5.8,0.4,7.5,1c0,0,0,0,1.4,0.4c0.5,0.1,0.8,0.6,0.8,1.1
			c-0.2,3-0.2,3-0.2,3c-0.3,3.2-0.8,6.8-1.2,8s-5.1,3.2-7.2,4.6c0,0,0,0,0.3,5.7c0,0.2,0,0.4-0.1,0.5c-2.7,5.5-2.7,5.5-2.7,5.5
			c2.1,1.4,6.2,2.9,9.1,3.3c0,0,0,0,1.9-2.9c0.5-0.7,1.6-0.6,1.9,0.3c1.5,4.5,1.7,5.1,1.7,5.1c1.4,4.2,2.5,7.8,2.5,8
			s-1.2,1.3-1.8,1.8c-0.6,0.6-1.2,5.1-1.5,7.7c0,0,0,0-0.9,1.7c-0.3,0.4-0.1,1,0.3,1.3c1.4,1,1.3,2.9,1.7,4.6c0.2,1,0.2,1,0.2,1
			c0.2,1.1,1.6,4.2,3,7.1c0,0,0,0,1.5,3c0.3,0.6,1,0.8,1.5,0.4c2.1-1.4,4.4-3,6.7-4.6c0.5-0.3,1.1-0.2,1.4,0.2
			c2.8,3.5,2.8,7.3,2.1,11.5c-0.1,0.7,0.5,1.4,1.3,1.2c4.9-1.1,9.6-2.1,14.2-0.9c0.4,0.1,0.7,0.5,0.8,1c0.1,4.3-1.2,5.8-5.1,6
			c-3.6,0.2-3.6,0.2-3.6,0.2c-3.2,2-6.7,3.9-7.8,4.3c0,0,0,0-1.1,0.1c-1.6,0.1-3.3,0.1-3.8,2c-0.1,0.5,0.2,1.1,0.7,1.3l0,0
			c1.7,0.6,3,1.2,3,1.3s-0.3,0.7-0.8,0.9c-0.4,0.2-3.3-0.2-5.5-0.8c-2.2-0.5-11.7-1.6-16.1-1.6l-10.7,1.3
			c-4.2,1.2-10.6,4.1-14.2,6.3c0,0,0,0-3.5,2.4c-0.4,0.3-1,0.2-1.3-0.1c-2.3-2.2-4.9-4.7-7.7-7.4c-0.3-0.3-0.8-0.4-1.1-0.2
			c-2.2,1-2.2,1-2.2,1c-2.8,0.9-8,1.1-11.5,0.3c0,0,0,0-3.1-1.1c-2.4-0.9-2.4-0.9-2.4-0.9c-2.8-0.4-5.8-0.6-6.8-0.4
			s-2.2,4.4-2.3,4.6c-0.2,0.3-1.4,2.4-2.3,4.1c0,0,0,0-0.9,1.5c-0.2,0.4-0.1,1,0.3,1.3c2.8,2.4,2.8,2.4,2.8,2.4
			c1.1-1.7,2.8-4.1,3.8-5.1s4.3-3.8,5.1-4s2.5,0.5,2.5,1s0,4,0.1,6.6c0,0,0,0,0.3,2.4c0.1,0.6,0.7,1.1,1.3,0.9
			c1.1-0.3,2.3-0.6,3.5-0.9c0.6-0.1,1.1,0.2,1.3,0.8c0.4,1.6,0.8,3,1.2,4.6c0.2,0.7,1.1,1,1.7,0.6l0.8-0.6c0.4-0.3,0.9-0.2,1.2,0.1
			c0.8,0.8,1.5,1.6,2.2,2.4c0.4,0.4,1,0.5,1.5,0.1c1.9-1.6,3.6-3.1,5.2-4.5c0.3-0.3,0.9-0.3,1.3-0.1c1.7,1,2,2.4,1.1,4.2
			c-0.3,0.6-0.5,1.2-0.8,1.8c-2.4,5.9-1.1,8.7,4.8,9.8c0.6,0.1,1,0.7,0.8,1.3c-0.4,1.6-1,3-2.8,3.6c-2.5,0.8-2.5,0.8-2.5,0.8
			c-1.2,2.2-2.4,4.8-2.7,5.9s1.5,5.3,1.4,7.1c0,0,0,0-0.4,2c-0.1,0.3-0.3,0.6-0.6,0.8c-3.3,1.6-3.3,1.6-3.3,1.6
			c-3.8-0.3-9-0.5-11.5-0.4s-9.5,4.5-11,5.3c0,0,0,0-1.9,0.7c-0.6,0.2-1.2-0.1-1.4-0.6c-0.7-2-1.3-3.6-2-5.6
			c-0.1-0.3-0.4-0.6-0.8-0.7c-3-0.7-6.3-1.6-9.6-2.1c-3.8-0.6-6.3-2.7-8-5.1c-0.1-0.2-0.4-0.4-0.6-0.4c-2.1-0.6-2.1-0.6-2.1-0.6
			c-1.9-0.5-3.9-1-4.5-1.2c-0.6-0.2-3.2-0.3-4.4-0.3c-1.2,0-5.3-2.5-6.9-3s-6.8,0.9-8.9,1.3c-2.1,0.4-9.7-0.6-12.2-1.2
			c-2.5-0.6-11.8-1.9-15.1-1.9c0,0,0,0-2.4-2.2c-0.2-0.2-0.5-0.3-0.8-0.3c-5.4,0.5-7.9-0.2-7.9-0.2c-4.2-1.2-8.8-2.2-10.1-2.2
			s-5.4,0.5-6,0.7s-2.6,2.1-3.6,3.2s-3.6,5.6-4.2,7.2c0,0,0,0,1.7,0.9c0.6,0.3,0.7,1.1,0.3,1.6c-1,1.3-1,1.3-1,1.3
			c-1,1.1-3.5,3.9-5.6,6.3c0,0,0,0,0.2,2.9c0.1,1-1.1,1.5-1.8,0.8c-2.2-2.1-2.2-2.1-2.2-2.1c-2.2-2.1-4.2-3.9-4.4-4.2
			s-0.8-1.8-1.4-3.2c-0.6-1.4-2.8-5.2-3.2-5.8c0,0,0,0-0.4-0.7c-0.2-0.3-0.6-0.5-1-0.5c-4.7,0.5-8.3-1.4-9.9-6.6
			c-0.1-0.2-0.2-0.4-0.4-0.6c-1-0.7-2-1.9-3.2-2.1c-2.9-0.4-2.9-0.4-2.9-0.4c-2.5-1.8-7.5-5.2-11.2-7.6l-15.1-9.7
			c-3.7-2.4-9.6-5.8-13-7.8c-3.4-1.9-14.2-7.6-16.3-8.5s-10.1-2.6-12.7-3.2c-2.6-0.6-11-2.8-13.1-3.4c-2.1-0.6-10.5-1.9-13.9-1.8
			c0,0,0,0-2.4,2.6c-2.6,2.8-2.6,2.8-2.6,2.8c-3.7,1.9-8.5,4.2-10.6,5.1c-2.2,0.9-10.1,3.8-12.9,4.4c0,0,0,0-2.6-0.1
			c-2.5-0.1-2.5-0.1-2.5-0.1c-2.7-0.8-6.6-1.2-8.8-1c-2.2,0.2-6.2,5.8-6.4,6.2c0,0,0,0-0.2,0.4c-0.1,0.2-0.3,0.4-0.5,0.5
			c-0.3,0.1-0.3,0.1-0.3,0.1c-0.4,0.1-4,0.1-8,0.1s-17.9,0.9-22,1.4s-15.6,5.8-17.3,7.5s-5.2,8.3-5.6,9.5c-0.5,1.2-2.6,4.7-3.3,5.3
			c-0.7,0.6-4.6,2-6.2,2.6c-1.6,0.5-7.8,3.3-10.2,4.5c0,0,0,0-0.1,2.6c0,0.5-0.4,1-0.9,1c-5.8,0.8-11.1,0-16-3.4
			c-0.5-0.3-0.6-1-0.2-1.5c1.6-2.2,1.6-2.2,1.6-2.2c-1-2.7-3.9-6.7-6.5-8.9c-2.6-2.2-7.6-10.1-7.8-10.4c-0.2-0.3-0.3,0.1-0.3,0.9
			c0,0.8,1.6,5,2.6,8.2c1,3.3,3.3,13.8,3.6,16c0,0,0,0,0.2,2.2c0.1,0.7,0.7,1.1,1.4,0.9c0.7-0.2,0.7-0.2,0.7-0.2
			c0.6-0.2,1.3-0.2,1.3,0c0.1,0.2-1,1.8-2.4,3.4c-1.3,1.6-5.4,6.4-6.1,7.1s-2.9,5.6-5,9.5c0,0-1.2,2.2-3.6,6.8
			c-0.2,0.4-0.6,0.6-1.1,0.6c-5.7-0.9-8.7-0.6-8.7-0.6c-4.4,0.4-7.9,0.8-7.9,1.1c0,0.2,1,1.6,2,1.6s6.6-0.9,10.3-1.8
			c0,0,0,0,3.4,2.4c0.4,0.3,0.6,0.8,0.4,1.2c-2.6,7.6-5,15.4-4.2,23.1c0,0.2,0.1,0.4,0.3,0.6c2.5,2.9,4.7,5.6,7.2,8.4
			c0.5,0.6,0.2,1.5-0.5,1.7c-2.6,0.8-5,1.5-7.8,2.4c-0.3,0.1-0.6,0-0.9-0.1c-0.9-0.6-2.1-1.4-3.5-2.4c-0.5-0.3-1.1-0.2-1.4,0.2
			c-2.8,3.8-7.1,7-5.1,12.8c0.1,0.3,0.1,0.6-0.1,0.9c-1.4,2.8-1.4,2.8-1.4,2.8c1.1,3,2.4,6.3,3,7.2s3.8,1.5,4.4,1.3
			c0.5-0.2,3.1,0.5,4.9,1.1s7.2,0.8,7.4,1s-0.2,2.4-1.4,3.8c0,0,0,0-1.2,1.5c-0.2,0.3-0.3,0.7-0.2,1l0,0c0.3,0.9,0.5,1.8,0.4,2
			c-0.1,0.2-1.6,1.9-3,3.8c-1.4,1.8-1.7,8.7-1.7,9.5s-2.1,3.6-3.8,5.2c0,0,0,0-1.7,1.2c-0.6,0.4-0.6,0.4-0.6,0.4
			c-1.2-0.3-3.5-1-5.2-1.7c0,0,0,0-1.5-0.7c-0.2-0.1-0.4-0.3-0.5-0.5c-1.7-3.1-1.9-6.6-2.9-10.3c-0.3-0.9-1.5-1.1-1.9-0.2l-0.8,1.5
			c-0.3,0.5,0,1.1,0.5,1.3c1.7,0.5,1.7,0.5,1.7,0.5c0.1,1.7,0.5,4.8,0.7,6.9c0,0,0,0,2,0.5c0.6,0.1,0.9,0.7,0.8,1.3
			c-0.4,1.4-0.4,1.4-0.4,1.4c-0.5,1.4-1.5,3-2,3.6s-3.6,2-5.3,2.5s-7.6,5.6-10.3,9c0,0-1.1,1.4-3.5,5.2c-0.1,0.1-0.1,0.2-0.1,0.3
			c-2,6.8-3,13-3,13c-0.7,4.3-1.4,10.6-1.5,13.9c0,0,0,0,2.8,2.4c0.6,0.5,0.4,1.5-0.3,1.8c-1.2,0.4-1.2,0.4-1.2,0.4
			c-1,0-3.6,0.4-5.9,0.7c-2.2,0.3-8.7,4.3-10.2,5.6c0,0,0,0-1.5,1.2c-0.4,0.3-1,0.3-1.4-0.1c-1.2-1.1-1.2-1.1-1.2-1.1
			c-1.2-1-3.1-2.5-4.2-3.3s-6.4-3.1-8.7-3.9c0,0,0,0,0.6-2c0.3-0.9-0.8-1.7-1.6-1.2c-1.1,0.7-1.1,0.7-1.1,0.7
			c-0.2,1.6-0.7,4.1-1.1,5.4c0,0,0,0-0.5,1.4c-0.2,0.5-0.8,0.8-1.3,0.6c-4.7-1.5-5.6-2-5.6-2c-3.7-2.4-7.3-4.8-8-5.3
			c-0.7-0.5-4-2.6-5.6-3.5c0,0,0,0-1.8-1.1c-0.6-0.4-0.7-1.2-0.1-1.7c2.5-2.1,1.3-5.1,2.1-7.6c0.1-0.3,0-0.7-0.2-1
			c-2.5-2.6-6.3-4.2-5.7-8.6c0.1-0.7-0.5-1.2-1.1-1.2l-2.4,0.2c-0.3,0-0.6-0.1-0.8-0.4c-2.6-3.4-2.7-3.4-2.7-3.4
			c-4.2-1.3-9.6-3-11.9-3.8c0,0,0,0,0.6-3.4c0.1-0.3,0.3-0.6,0.4-0.9c0.1-0.3,0.1-0.3,0.1-0.3c0-0.6-0.4-0.8-0.9-0.6s-2.2,1.5-3.1,2
			c-0.9,0.5-7.4,0.5-11.8,0.8c0,0-1.2,0.1-4.9,3.2c-2.3,2-2.3,2-2.3,2c-4-0.8-8.7-2.3-10.5-3.5c0,0,0,0-1.8-1.2
			c-0.4-0.3-0.6-0.8-0.4-1.2l0.6-1.8c0.1-0.4,0-0.8-0.3-1.1c-2.3-2.3-2.3-2.3-2.3-2.3c-3.3,0.4-8.5,0.3-11.6-0.2c0,0,0,0-0.1-4.2
			c0-0.2,0-0.2,0-0.2c0-0.2-0.2-2.4-0.6-4.8s0.3-9.5,0-9.9s-1.7-1.1-2.6-1.2c0,0,0,0-0.8,0.1c-4.2,0.6-8.5,1.3-12.9-1.3
			c-0.3-0.2-0.5-0.5-0.5-0.8c-0.5-4.4-1.1-9.4-5.4-12.7c-0.3-0.3-0.5-0.7-0.4-1.1c1.5-5.9,3.6-9.3,3.6-9.3c2.3-3.7,5.4-8.4,6.8-10.3
			c0,0,0,0,0.9-2.1c0.5-1.1-1.1-2.1-1.8-1.1c-1.4,2-1.8,4.9-4.3,6.4c-0.5,0.3-1.2,0.1-1.5-0.5c-0.9-1.9-0.9-1.9-0.9-1.9
			c-1-2.2-2.4-5-3-6.3c-0.6-1.3-3-5.1-3.6-5.8c0,0,0,0-1,0.7c-0.6,0.4-0.6,1.2,0,1.7c0.8,0.7,0.8,0.7,0.8,0.7
			c0.7,0.9,1.8,2.9,2.3,4.5s1.7,7.3,1.3,9.1c0,0,0,0-1.8,0.8c-0.5,0.2-0.7,0.7-0.6,1.2c0.6,2.6,0.6,2.6,0.6,2.6
			c0.5,2.8,0.5,6,0.2,7.1s-3.6,3.5-5.4,4.3s-7,4.4-8.4,4.5c0,0,0,0-1.7-0.1c-0.5,0-1,0.3-1.1,0.8c-0.2,0.7-0.4,1.5-0.6,2.4
			c-0.2,0.7,0.4,1.4,1.1,1.3c4-0.3,4-0.3,4-0.3c3.1-2.7,7.1-5.5,8.9-6.3c1.8-0.8,5.8,3.4,6.5,4.9c0,0,0,0,0.8,1.6
			c0.3,0.6,0,1.3-0.6,1.5c-2.3,0.8-2.3,0.8-2.3,0.8c-2.4,0.8-4.4,1.7-4.4,1.9c0,0.3,0.4,1.7,1,1.9s3.7,0.7,5.5,0.9c0,0,0,0,0.2,2
			c0.1,0.8,1,1.2,1.7,0.7c1.1-0.8,2.1-1.6,3.3-2.5c0.5-0.4,1.2-0.2,1.5,0.3c0.5,0.7,0.5,0.7,0.5,0.7c0.4,0.7,1.1,2.2,1.4,3.3
			s-2.9,3.3-3.3,3.4s-2.4,1.3-3.7,2.2s0.5,5.9,0.6,6s0.2,0.8,0.2,0.9s-2.4,1.4-5.3,2.2c0,0,0,0-2.9,0.8c-0.7,0.2-1.4-0.3-1.3-1
			c0-0.6,0-0.6,0-0.6c0.2-0.6,0.5-2.5,0.7-4.3c0,0,0,0-1.2-1.2C315.7,498.8,304,495,304,495c-4.2-1.4-8.6-2.4-9.9-2.3
			s-6.7-0.2-9.4-0.4s-10.8-0.5-12.4-0.4s-6.7,1-8.1,1.5s-3.8,4.3-4.5,5.4s-4.3,3.9-5.1,4.7c0,0,0,0-0.8,0.9c-0.3,0.3-0.7,0.4-1,0.4
			c-1.3-0.3-2.7-0.6-3.7-0.8c-0.2,0-0.5,0-0.7,0.1c-6.4,3-11.1,3.2-11.1,3.2c-4.4,0.2-10.8-1-14.1-2.7c0,0,0,0-2.8,3.1
			c-0.3,0.3-0.7,0.4-1.1,0.3c-3.2-1.1-6.5,2.5-9.9,0.6c-0.4-0.2-0.6-0.8-0.3-1.2c0,0,0,0,0,0c0.5-0.8-0.5-1.7-1.3-1.2
			c-3.2,2.2-6,4.2-9,6.4c-0.3,0.2-0.6,0.3-0.9,0.2c-1.7-0.6-1.7-0.6-1.7-0.6c-0.1-2.1-0.4-6.7-0.7-10c0,0,0,0-2.5-2.5
			c-0.4-0.4-1.2-0.4-1.6,0.1c-3.4,4.1-5.1,4.4-5.1,4.4c-4.3,0.7-10.7,3.6-14.1,6.4c0,0-1.2,1,2.9,6.7c0.3,0.4,0.4,0.9,0.5,1.3
			c0.1,0.4-0.1,0.8-0.4,1.1c-1.9,1.5-1.9,1.5-1.9,1.5c-1.8,1.4-3.8,3.3-4.4,4s-0.7,6.1-0.8,8.8c0,0,0,0-0.3,2.5c0,0.4,0.1,0.8,0.5,1
			c0.9,0.7,1.8,1.3,2.8,2c0.6,0.4,0.6,1.3,0,1.7c-1.1,0.9-1.1,0.9-1.1,0.9c-0.9,1-2.1,3-2.6,4.5c0,0,0,0-0.5,2.1
			c-0.1,0.2-0.2,0.5-0.4,0.6c-2.3,1.8-2.5,2.1-3.3,5.8c-0.1,0.6-0.8,1-1.3,0.8c-1.6-0.6-2-2.4-3-3.9c-0.1-0.2-0.4-0.4-0.7-0.4
			c-3.2-0.7-3.2-0.7-3.2-0.7c-3.7-0.8-8.7-1-11.2-0.5c0,0,0,0-1.8,2.2c-3.5,4.2-8,7.7-10.9,13c-0.3,0.6-1.2,0.7-1.7,0.2
			c-0.4-0.5-0.7-0.8-1-1.1c-3.2-3.4-3.2-3.4-3.2-3.4c-3.6,2.1-7.5,5.2-8.7,7s-2.2,9.2-2.8,11.2c-0.6,2-2.8,7.7-3.5,8.1
			c-0.7,0.4-3.1,2.2-4,2.9c0,0,0,0-0.8,0.7c-0.5,0.4-1.2,0.3-1.6-0.2c-1.8-2.8-1.8-2.8-1.8-2.8c1.6-0.9,3.4-1.9,4.1-2.3
			c0,0,0,0,0.4-0.5c0.7-0.9-0.3-2.1-1.3-1.6c-1.4,0.7-1.4,0.7-1.4,0.7c-1.9,0.1-3.6,0-3.7-0.2s0.1-2.8,0.5-5.7
			c0.4-2.9-1.7-12-2.1-13.8c0,0,0,0-0.2-1.9c-0.1-0.8-1-1.3-1.7-0.8c-1.5,1.1-3,2.1-4.4,3.2c-0.4,0.3-1,0.3-1.3-0.1l-2.6-2.4
			c-0.8-0.7-2,0.1-1.7,1.1c0.3,0.9,0.9,1.5,1.5,2.1c2.1,2,4,4,4,7.2c0,0.6,0.3,1.4,0.7,1.8c2.2,1.8,2.2,1.8,2.2,1.8
			c-1,2.1-2.6,4.3-3.6,4.8S87.2,581,87,581s-0.3,0.7,0,1.8c0.3,1.1,5,3,5.7,3.3c0,0,0,0,0.7,0.5c0.7,0.6,0.4,1.8-0.6,1.9
			c-1.4,0.1-1.4,0.1-1.4,0.1c-1.2,0.3-3.6,1.5-5.5,2.6c0,0,0,0-0.2,2.4c-0.1,0.9-0.9,1.8-1.6,2.4c-2.8,2.5-2.9,5.3-1.1,8.6
			c0.2,0.4,0.2,0.9-0.1,1.2c-0.7,0.8-0.7,0.8-0.7,0.8c-0.9,1-2.2,1.8-2.9,1.9s-2.9-0.4-3.1-0.5s-2.3,0.4-4.4,1c0,0,0,0-2.1,0.6
			c-1.1,0.3-1,1.9,0.1,2.1c0.5,0.1,0.5,0.1,0.5,0.1c0.6-0.1,3.7-0.1,6.9,0.1c0,0,0,0,2.5,1.9c1.6,1.2,3.3,2.2,5.2,3.5
			c0.3,0.2,0.5,0.6,0.5,1c-0.1,1.1-0.2,2.4-0.3,3.8c0,0.4,0.2,0.8,0.5,1c2.3,1.3,2.3,1.3,2.3,1.3c1.1,2.5,1.7,5.5,1.4,6.7
			c-0.3,1.2-1.5,5.2-2.1,6.2c-0.6,1.1-4.3,3-5.4,3.5c-1,0.5-1.4,4.4-1.5,5.3s-1.4,4.4-2.4,6.2c0,0,0,0-3.9-0.8
			c-3.8-0.7-3.8-0.7-3.8-0.7c-4.4,0.5-8.5,1.5-9.1,2.2c-0.6,0.7-2.1,3.4-2.2,4.2s-2.7,5-4.8,8.2c0,0,0,0,0.7,3.8
			c0.1,0.5-0.2,1-0.7,1.2c-0.9,0.3-0.9,0.3-0.9,0.3c-0.9,0.3-2.5,0.9-3.5,1.3c-1,0.4-3.8-3.3-4.2-3.9c-0.4-0.6-3.2-2.2-4.9-2.9
			c0,0,0,0-1.6-0.5c-0.3-0.1-0.5-0.3-0.6-0.5c-1.7-3.2-1.7-3.2-1.7-3.2c-2-3.5-3.7-7-3.8-7.7c-0.1-0.7,0.8-4.4,1.8-6.5
			c0,0,0,0,0-1.9c0-1.8,0-1.8,0-1.8c-1.1-2-2.9-4.9-4-6.5c0,0,0,0-1.2-1.7c-0.2-0.3-0.2-0.6-0.2-0.9c0.7-2.8,0.7-2.8,0.7-2.8
			c-1.7-2.8-5.7-7.6-8.9-10.6c0,0-2.6-2.5-7.1-6.1c-1.2-0.9-1.2-0.9-1.2-0.9c-2.2,0.2-4.9,0.3-6,0.3s-6.5-3.2-10.4-5.2
			c0,0-2-1-7.1,0.9c-0.4,0.1-0.8,0.1-1.1-0.2c-3.3-3.1-4-3.7-4-3.7c-3.3-2.9-8.6-6.2-11.7-7.4s-12.5,0.3-13.4,0.8c0,0,0,0,0,0.4
			c0.3,3.4-2.9,4.2-4.7,6.3c-0.2,0.2-0.3,0.6-0.2,0.9c0.3,1,0.3,1,0.3,1c0.4,1.1,1.1,4.5,1.6,7.5c0.4,3-3.9,11-5.4,12.2
			s-7.4,3.6-9.2,3.9s-7.1,1-7.5,1c-0.4,0-4.5,1.7-8.6,3.3c0,0-2.2,0.9-7,3c-0.4,0.2-0.9,0.1-1.2-0.2c-0.7-0.7-0.7-0.7-0.7-0.7
			c-0.5-0.7-1.6-2.6-2.3-4.3s-5.5-6.5-6-8.3s3.2-6.2,4.4-7.2s0.3-7.1,0.1-7.8c-0.1-0.7-0.6-3.6-0.8-4.9s-1.4-5.6-1.6-7.1
			c-0.2-1.5,2-5.2,2.3-5.6c0.3-0.4,0.9-2.4,1.4-3.6c0.5-1.2,3.8-5.4,5.8-6.8c1.9-1.4,8.8-2.8,9.9-3c1.1-0.2,4.6-3.7,6-5.3
			c1.4-1.6,8.2-5.9,10.5-6.9c2.3-1,7.2-6.5,7.8-7s3.9-1.5,5.8-1.9c2-0.4,7.5-1.2,7.9-1.1c0.4,0.1,2.6,0.5,3.9,0.7c0,0,0,0,1.2,0.2
			c0.4,0.1,0.8,0.4,0.9,0.8c1.4,5.9,4.1,8.9,11.4,8.9c0.3,0,0.6-0.1,0.8-0.3c5.2-5.4,12.2-9.9,11.1-19.1c-0.1-0.5,0.3-1,0.8-1.1
			c1.6-0.5,1.6-0.5,1.6-0.5c1.7,0.6,3.3,1.3,3.4,1.4c0.2,0.1,2,0.2,3.8,0.2s7.1-1.9,8.4-2.9c1.3-0.9,5.3-5.6,6.7-7.5
			c0,0,0,0,2.4-0.3c0.5-0.1,0.5-0.1,0.5-0.1c0.4-0.4,3.4-3,6.6-5.9c0,0,0,0,3.4-1.8c5.4-2.9,5.7-5.2,5.7-5.2
			c0.6-4.4,1.3-9.2,1.5-10.8c0.3-1.6,6.6-3,7.9-3.2s4.8-4.1,5.9-5.7s6.1-5,6.8-5.6s2.3-4.9,2.9-7.1c0.7-2.2-1-8.7-1.1-9.4
			c0-0.7,1.3-3.2,2.3-4.5c0,0,0,0-0.7-2.8c-0.1-0.5,0.1-0.9,0.5-1.2c1.4-0.8,2.6-1.7,4.6-1c1.3,0.5,1.3,0.5,1.3,0.5
			c0.7-1.1,1.9-2.8,2.7-3.9c0,0,0,0,0.8,0.1c2.3,0.2,3.4-0.8,3.7-2.8c0.1-0.8,1-1.2,1.6-0.7c1,0.7,1.9,1.3,2.9,1.9
			c0.2,0.2,0.5,0.2,0.8,0.1c3.4-1.2,3.4-1.2,3.4-1.2c2.2-3.4,5-7.7,6.2-9.7s1-8.3,1-8.7c-0.1-0.3,0.3-2.1,0.5-3.6
			c0.2-1.5,1.5-7.8,2-10.8c0,0,0,0-2.4-2.1c-0.4-0.3-0.5-0.9-0.2-1.4c0.6-0.9,0.6-0.9,0.6-0.9c0.6-0.8,2.2-3.2,3.7-5.5
			c0,0,0,0-0.2-2.7c-0.1-1-0.1-1-0.1-1c0.3-1.1,0.9-4.7,1.4-8c0,0,0,0-3-1.8c-0.4-0.3-0.6-0.8-0.4-1.3c0.7-1.7,0.7-1.7,0.7-1.7
			c1.4,0.4,3.4,0.9,4.4,1.3s4.7,1.9,7,2.4c0,0,0,0,1.9-0.3c0.3-0.1,0.6-0.2,0.7-0.5c1.3-2.1,2.5-4.2,3.9-5.9
			c1.2-1.4,2.8-2.6,4.4-3.9c0.6-0.5,1.5-0.2,1.7,0.5c0.2,1.1-0.4,2.3-0.1,3.6c0.1,0.3,0.3,0.5,0.5,0.7c2.2,1.2,2.2,1.2,2.2,1.2
			c0.3,2.9,0.8,6.7,1,8.4c0,0,0,0,0.4,1.4c0.1,0.5,0.7,0.9,1.2,0.8c1.5-0.3,1.5-0.3,1.5-0.3c1.3,0,3.5,0.3,4.9,0.6s7.2-0.4,9.3-0.6
			c0,0,0,0,2.2,0.1c1.3,0.1,1.6-1.9,0.3-2.1c-1.4-0.2-1.4-0.2-1.4-0.2c-1.4,0.3-4.3,0.8-6.4,1.1c0,0,0,0-2.1,0.5
			c-0.3,0.1-0.5,0-0.8-0.1c-8.8-5-9.7-13.1-5-19.9c0.3-0.5,0.2-1.1-0.2-1.5l-2.9-2.3c-0.5-0.4-0.5-1.2,0-1.7l1.9-1.5
			c0.4-0.3,1-0.2,1.3,0.2c2.2,2.9,5.6,2.9,8.9,3.6c0.3,0.1,0.6,0,0.8-0.2c0.7-0.5,0.7-0.5,0.7-0.5c0.8-0.7,2.8-2.1,4.3-3.2
			s10.4-1.8,14.7-2.1c0,0,0,0,3.9-0.4c0.3,0,0.6-0.2,0.7-0.4c3.1-4.2,6.8-8.1,7.1-13.8c0.1-1.6,0.1-1.6,0.1-1.6
			c0.6-1.8,1.6-4.2,2.3-5.4c0.7-1.2-0.4-6.7-0.2-8.5c0,0,0,0,0.5-2.1c0.1-0.4,0.4-0.7,0.8-0.8c2.2-0.5,4.4-1.1,7-1.7
			c0.3-0.1,0.6-0.3,0.7-0.6c0.4-0.8,0.8-1.8,1.4-2.9c0.1-0.3,0.4-0.5,0.7-0.6c2.2-0.5,4.8-0.7,5.9-3.3c0.1-0.3,0.4-0.6,0.7-0.7
			c4.1-1.2,4.3-1.4,4.3-1.4c2.6-3.5,7-9.3,9.6-12.8c0,0,0.2-0.2-0.2-5c0-0.5,0.2-0.9,0.7-1.1c1.5-0.6,1.5-0.6,1.5-0.6
			c0.9-1.5,1.7-3,1.7-3.2c0.1-0.2,1.5-2,3-4c1.5-1.9,9.4-5.4,11.3-6.5c1.9-1,6.2-6,6.7-7c0.5-1,1-7.3,1.1-11.7l0.1-9.8
			c0-4.4-0.1-9.5-0.2-11.3s-0.9-8.5-1.2-10.8s-0.6-11.6,0.1-15.5c0,0,0,0,2.2-2.9c1.4-1.8,1.4-1.8,1.4-1.8c0.2-2.2,0.6-5.4,0.9-7.2
			c0.3-1.8,2.1-8.3,2.6-10.8c0.5-2.6,1-11.2,1-13.3c0-2.1,1.6-8.5,2.4-9.4c0.7-0.9,4.1-0.9,5.3-0.8c1.2,0.1,5.7-0.1,7.5-0.2
			s7.9,2.7,10,3.6c0,0,0,0,1.9,0.1c4,0.1,4,0.1,4,0.1c2.9,2.7,7.8,6.3,10.7,7.9c3,1.7,14.4,1.8,17.8,0.9s10-9.2,11-10.5
			s3.9-6.2,4.9-7.6c0.9-1.4,5.8-3.7,6.3-4.2c0.6-0.5,1.9-3,2.2-4s1.8-3.9,2.4-4.5c0,0,0,0,0.8-0.4c0.5-0.3,1.2-0.1,1.5,0.4
			c0.3,0.6,0.6,1.1,0.8,1.7c0.1,0.3,0.2,0.6,0.3,0.9c0.1,0.6,0.8,1,1.4,0.8c0.7-0.3,1.4-0.5,2.1-0.8c0.5-0.2,1.1,0,1.3,0.5
			c1.1,2,1,2.1,0.3,5.5c-0.2,1.1,1.2,1.7,1.9,0.8c1.4-2,1.7-4.4,1.2-7.5c-0.1-0.3,0-0.6,0.3-0.9c0.5-0.6,0.1-2.1,0.6-2.9
			c0.8-1.1,0.8-1.1,0.8-1.1c1-0.9,2.9-2.6,4.1-3.8c1.2-1.1,8.2-0.8,10.9-0.3c0,0,0,0,1.3-3.6c0.2-0.6,0.9-0.9,1.4-0.6
			c3.5,1.5,3.5,1.5,3.5,1.5c3.8,1.7,7,2.9,7.1,2.7c0.1-0.2-1.2-1.7-3.1-3c-1.9-1.3-8-4.3-9.1-4.5c-1.1-0.2-4.2,3.1-5.7,4.5
			c0,0,0,0-1.9-0.1c-5.8-0.3-9.8,2.5-12.9,6.8c-0.3,0.4-0.7,0.5-1.2,0.4c-6.1-1.9-6.5-4.7-6.5-4.7c-0.6-4.4-1.1-10.3-1.1-13.1
			c0,0,0,0,0-2.7c0-0.4-0.2-0.8-0.6-0.9c-1.2-0.6-2.4-1.1-3.7-1.8c-0.5-0.2-0.7-0.8-0.5-1.3c1.4-4.2-2.1-5.5-4.8-7.6
			c-0.5-0.4-0.5-1.3,0-1.7c0.5-0.3,0.9-0.6,1.3-0.7c1.3-0.1,2.6,0.3,4,0.3c4.8,0.2,4.8,0.2,4.8,0.2c1.1-2.9,2.6-8.9,3.3-13.2
			c0,0,0.2-1.3-3.3-4.8c-0.4-0.4-0.4-1.1,0.1-1.5c1.5-1.2,1.5-1.2,1.5-1.2c1.6-1.2,3.9-2.9,5.2-3.6c0,0,0,0,1.1,0.1
			c5.2,0.5,6.9-0.2,6.9-0.2c4.1-1.7,9.8-4.2,12.7-5.7c0,0,0,0,3.3,0.6c1.5,0.3,1.5,0.3,1.5,0.3c1.8-0.8,4.7-1.8,6.4-2.2
			s7.1,1.8,8.3,2.5s6.6-2.1,7.2-2.4s4.4-0.8,7.2-1s11.1-1.2,12.2-1.5s5.1-2.5,7.3-3.5c2.2-1,9.8,0.9,12,1.5c0,0,0,0,2.1-1.2
			c1.1-0.6,1.1-0.6,1.1-0.6c1.4-0.5,5.7-1.9,9.5-3.3c0,0,0,0,4,1.7c3.5,1.5,3.5,1.5,3.5,1.5c3-2.6,6-5.3,6.6-6c0,0,0,0,0.7-0.7
			c0.4-0.4,1-0.4,1.5,0c2.7,2.6,2.7,2.6,2.7,2.6c3.8,0.6,10.4,1.7,14.8,2.5l16.5,3c4.3,0.9,8.8,2.2,10.1,2.9c0,0,0,0,1.2,0.9
			c0.3,0.2,0.6,0.2,0.9,0.1c3.9-1.1,8.1-1.6,10.9-5.2c0.2-0.2,0.4-0.4,0.7-0.4c3.4-0.3,3.4-0.3,3.4-0.3c3.8-0.1,8.8,0.3,11.3,1.1
			c2.4,0.7,9.3,2.9,9.8,3.2c0.5,0.2,3.9,3.9,6.8,7.2c0,0,0.1,0.1,5-1.1c0.7-0.2,0.7-0.2,0.7-0.2c1.1,1.5,2.4,3.3,2.8,4
			s4.5,4.7,7.9,7.5c0,0,1.8,1.5,7.6-0.6c0.1,0,0.3-0.1,0.4-0.1c5.5,0.4,8.5,0.7,8.5,0.7c4.4,0.4,9.1,0.7,10.6,0.8c0,0,0,0,1.3,0
			c0.5,0,0.5,0,0.5,0c0.5-0.2,4.5-1.2,8.8-2.1c0,0,4.7-1.1,11-2.7c2.5-0.6,2.5-0.6,2.5-0.6c2.5-1.5,6.5-3.1,8.7-3.4c0,0,0,0,2-0.4
			c2.2-0.4,2.2-0.4,2.2-0.4c2.4-0.6,6-1.7,8.1-2.4s9.8-0.2,11.9,0.1c2.1,0.3,8.8,1.9,10.1,1.7c1.4-0.2,5.4-1.9,6.1-2.5
			s3.3-2.5,4.2-3.1c0,0,0,0,1.1-0.6c0.8-0.5,1.8,0.3,1.5,1.2c-0.7,2.6-0.7,2.6-0.7,2.6c-0.4,2.3-2.5,5-4.6,6.1c0,0,0,0-1.5,1.5
			c-0.6,0.6-0.2,1.6,0.6,1.7c2.5,0.4,2.5,0.4,2.5,0.4c1.7-1.7,4.4-5.6,6-8.6s4.2-12.9,4.2-14.2c0-1.3-2.7-6.2-4-8.7
			c-1.4-2.5-0.8-12.5-0.4-15.2c0.4-2.7,1.2-10.7,1.1-11.7c0,0,0,0-0.2-0.9c-0.1-0.4-0.3-0.7-0.7-0.8c-1.6-0.6-1.6-0.6-1.6-0.6
			c-1.6-0.6-2.8-1.2-2.8-1.4c0.1-0.2,3,0,6.4,0.8c0,0,0,0,3.3,0.8c0.4,0.1,0.9-0.1,1.1-0.4c1.8-2.9,1.8-2.9,1.8-2.9
			c0.2-3.9,0-8-0.6-9.2c0,0,0,0-1.1-1.4c-0.4-0.5-0.2-1.3,0.4-1.6c1-0.5,1-0.5,1-0.5c1.1-0.5,3.5-2.5,5.2-4.4c1.8-1.9-0.9-7.9-1-8
			c-0.1-0.2,1.1-1.7,3.3-2.3c0,0,0,0,1.8-0.9c1.8-0.9,1.8-0.9,1.8-0.9c2,0.2,4.8,0.4,6.1,0.4s5.7-3,7.1-4.5s4.3-7.8,4.9-9.4
			s3.8-4.6,3.8-4.7c0.1-0.1,2.5-2.8,5.3-6s10.9-12.7,12-14s5.8-2.9,6.4-3.1c0.6-0.3,3.3-2.2,5-3.2c0,0,0,0,1.8,0.6
			c3.8,1.3,6.8,0.3,9.1-2.5c0.2-0.3,0.6-0.5,1-0.4c5.3,1.1,8.3,5.2,11.9,8.5c0.3,0.3,0.8,0.4,1.2,0.2c0.6-0.3,1.2-0.5,1.7-0.9
			c0.5-0.3,0.9-0.7,1.3-1.1c0.4-0.4,0.9-0.4,1.3-0.1c1.5,1,1.5,1,1.5,1c0.8,1.7,1.7,3.9,2,4.9c0,0,0,0,0.6,0.2
			c4.4,1.9,4.2,6.1,5.6,9.8c0.2,0.5,0,1-0.4,1.3c-0.5,0.4-1,0.7-1.5,1c-0.3,0.2-0.5,0.6-0.4,0.9c0.3,5.5,0.6,10.8,0.9,16.1
			c0,0.4,0.3,0.8,0.8,1c3,0.9,6.1,1.7,9.6,2.7c0.8,0.2,1.1,1.3,0.4,1.8c-2.3,1.7-5.2,2.2-6.1,4.9c-0.2,0.6-0.8,0.9-1.4,0.6l-0.9-0.4
			c-0.5-0.2-1,0-1.3,0.4c-0.1,0.2-0.1,0.2-0.1,0.2c-0.1,0.2-0.6,0.9-1,1.7s-2.6,2.3-3.5,2.9s-1.9,6.1-2.2,9.1c0,0,0,0-0.3,3
			c0,0.4-0.4,0.8-0.8,0.8c-1.5,0.1-3,0.2-4.5,0.4c-0.5,0-1-0.3-1.1-0.8c-0.7-2.2-0.8-4.2,0.2-5.6c0.2-0.3,0.2-0.8,0-1.1
			c-1.3-2.2-1.3-2.2-1.3-2.2c-1.3-2.2-2.5-4-2.8-3.9c-0.3,0.1-1.5,1.1-1.6,1.9s0.7,5.8,1.4,9.1c0,0,0,0-3.4,2.8
			c-0.5,0.4-0.5,1.2,0,1.6l3.3,3c0.3,0.3,0.4,0.7,0.3,1.1c-0.3,1.2-0.6,2.2-0.9,3.3c-0.1,0.3,0,0.6,0.2,0.9c0.3,0.4,0.3,0.4,0.3,0.4
			c0.3,0.3,3.4,2.6,7,5.2c0,0,2.2,1.6,6.5,4.8c0.1,0.1,0.2,0.2,0.3,0.4c2.6,5,2.6,5,2.6,5c3.8-0.7,8.1-2.1,9.5-3.2c0,0,0,0,1.4-1.3
			c0.3-0.3,0.7-0.3,1.1-0.2c3.1,1.5,5.6-0.9,8.1-2.8c0.3-0.2,0.6-0.3,1-0.1c5.2,1.7,10.2,3.4,15.4,5.1c0.5,0.2,0.8,0.7,0.7,1.2
			c-0.2,1-0.4,2-0.5,3c-0.1,0.5,0.2,1,0.6,1.2c2,0.9,2,0.9,2,0.9c2.4,0.1,6,0,8-0.3c2.1-0.2,9.2-4.7,11.9-6.2c0,0,0,0,1-3.3
			c0.3-1.1,2.3-1.7,4-2.5c0.4-0.2,0.8-0.1,1.1,0.3c0.6,0.8,1.2,1.6,1.7,2.2c0.3,0.4,0.7,0.5,1.2,0.4c5.2-1.8,9.5-5.4,15.1-5.4
			c0.1,0,0.4-0.1,0.5-0.1c3.6-2.1,3.9-2.2,3.9-2.2c3.8-2.2,7.2-4.3,7.5-4.6c0,0,0,0,0.2-0.4c0.3-0.4,0.3-1-0.1-1.3
			c-1.2-1.3-3.8-1.8-2.6-3.6c0.4-0.5,0.1-1.2-0.4-1.5c-1.7-0.8-3.1-1.6-4.6-2c-1.5-0.4-3.1-0.6-4.9-0.9c-0.9-0.1-1.2-1.2-0.6-1.8
			c0.4-0.4,0.4-0.4,0.4-0.4c0.5-0.3,3.6-2.3,6.9-4.5c0,0,0,0,3.5-1.3c1.2-0.4,1.2-0.4,1.2-0.4c0.5-2.6,0.7-5.2,0.5-5.7
			s-0.7-2.6-0.9-3.4c-0.2-0.8,0.5-3.6,1-5.2s2.7-6.3,3.1-7.3s-2.5-4.9-4.5-6.5c0,0,0,0-2.4,1.8c-0.2,0.2-0.2,0.2-0.2,0.2
			c-0.5,0.1-2.8-2.7-5.1-6.3c0,0,0,0-4.3-0.1c-1.8,0-1.8,0-1.8,0c-2,0.5-7.1,1.2-11.5,1.6c0,0-1.9,0.2-6,3.5
			c-0.1,0.1-0.2,0.1-0.3,0.2c-3.6,1.3-3.6,1.3-3.6,1.3c-4,1.3-8.5,2.7-10,3.2s-6-1.5-6.8-1.6c0,0,0,0-1,0.1c-0.6,0-1.1-0.4-1.1-1.1
			v-0.8c0-0.5-0.3-0.9-0.8-1c-2.8-0.6-5.3-1.2-7.7-1.8c-0.4-0.1-0.7-0.4-0.8-0.8c-0.7-3.7-0.9-4.5-1.9-5.5c-0.5-0.5-0.5-1.3,0.1-1.7
			c3.9-2.7,4.1-4.3,4.1-4.3c0.6-4.4,0.9-9.7,0.5-12c0,0,0,0-0.3-2.2c-0.1-0.4-0.3-0.7-0.7-0.8c-2.4-0.8-4.8-2.8-7.8-0.5
			c-0.5,0.4-0.5,0.4-0.5,0.4c-1.2-0.5-3.3-1.4-4.7-2c-1.3-0.6-5-2.2-5.2-2.2c-0.2-0.1-3.1-1.9-6.3-3.8c0,0,0,0-3.5,0 M206.8,486.9
			c0.1,0.1,0.2,0.3,0.3,0.4c0.5,1.3,0.5,1.3,0.5,1.3c0.8,1.9,1.5,1.6,1.7-0.7c0,0,0,0-1.7-0.6c-0.4-0.1-0.7-0.5-0.7-0.9
			c-0.2-1.4-0.2-1.4-0.2-1.4c-1.6-0.3-1.9,0.1-0.9,1.1C205.8,486.1,205.8,486.1,206.8,486.9z M492.9,476.8c-0.5-0.2-0.9-0.3-1.1-0.1
			c-0.1,0.2,0.9,2.6,3.2,4.1c0,0,0,0,3-0.7c0.6-0.1,1.1,0.2,1.3,0.8l0.3,1.1c0.2,0.8,1.2,1.1,1.7,0.5c0.7-0.7,1.4-1.3,2-1.9
			c0.5-0.4,0.5-1.2,0-1.6c-1.8-1.4-1.8-1.4-1.8-1.4c-2,0.2-4.2,0.4-4.8,0.4C496,478,493.4,477,492.9,476.8z M948.1,331.7
			c-0.4-1.7-0.8-3.3-1.1-4.7c-0.1-0.5-0.6-0.8-1.1-0.8l-2.3,0.2c-0.6,0-1.1,0.7-1,1.3c0.6,2.5,1.3,4.7,4.2,5.3
			C947.6,333.2,948.3,332.5,948.1,331.7z M360.2,482.9c-2.6,0.8-3.9,2.5-3.3,5.5C358,486.5,359.1,484.7,360.2,482.9z M99.5,557
			c1.1-1.2,2.2-2.5,3.9-4.5C100.6,553.7,98.5,554.3,99.5,557z M934.9,332.1c-0.1-3.7-0.1-3.7-2.7-3.5
			C932.9,329.6,933.6,330.4,934.9,332.1z M102.7,548.1c0.2-0.5,0.3-1,0.2-1c-0.1,0-0.5,0.3-0.8,0.8c-0.2,0.5-0.7,1.8-0.6,1.9
			C101.7,549.8,102.5,548.6,102.7,548.1z"/>
	</g>
</g>
<path class="st5" d="M514.4,318.9c0-5.4-4.5-9.9-9.9-9.9c-5.4,0-9.9,4.5-9.9,9.9c0,5.4,4.5,9.9,9.9,9.9
	C509.9,328.8,514.4,324.3,514.4,318.9z"/>
<g id="CIVTRO.tif_3_" class="st6">
	<g>
		<path class="st7" d="M504.6,295c0.6,0,1.3,0,1.9,0.1c15.9,1.3,26.3,18.2,20,32.8c-1.3,3.1-3.2,5.9-5.1,8.7
			c-4.6,6.8-9.3,13.5-14,20.2c-0.9,1.2-1.9,1.9-2.8,1.9c-1,0-2-0.6-2.8-1.9c-5.6-8.1-11.3-16.3-16.8-24.4c-2.7-4-4.4-8.4-4.2-12.8
			C480.6,305.7,491.5,295,504.6,295 M504.5,328.8c5.4,0,9.9-4.5,9.9-9.9c0-5.4-4.5-9.9-9.9-9.9c0,0,0,0,0,0c-5.4,0-9.9,4.5-9.9,9.9
			C494.6,324.3,499.1,328.8,504.5,328.8C504.5,328.8,504.5,328.8,504.5,328.8 M504.6,292L504.6,292c-7.1,0-13.8,2.8-18.9,7.8
			c-5.2,5.2-8,12.2-8,19.7c-0.2,4.7,1.5,9.7,4.7,14.5c4.4,6.5,8.9,13,13.3,19.3l3.6,5.2c1.9,2.8,4.1,3.2,5.3,3.2
			c1.2,0,3.4-0.4,5.3-3.2c1.2-1.8,2.5-3.5,3.7-5.3c3.4-4.9,7-9.9,10.4-15c1.8-2.7,3.9-5.8,5.4-9.2c3.4-7.8,2.7-16.5-1.8-24
			c-4.5-7.4-12.3-12.3-20.8-13C506,292,505.3,292,504.6,292L504.6,292z M504.5,328.8l0-3c-1.8,0-3.6-0.7-4.9-2c-1.3-1.3-2-3-2-4.9
			c0-3.7,3.2-6.9,6.9-6.9c3.7,0,6.9,3.2,6.9,6.9c0,3.7-3.2,6.9-6.9,6.9L504.5,328.8L504.5,328.8z"/>
	</g>
</g>
<g id="CIVTRO.tif_2_">
	<g>
		<path class="st7" d="M480.7,319.6c0-14.6,11.9-25.6,25.8-24.5c15.9,1.3,26.3,18.2,20,32.8c-1.3,3.1-3.2,5.9-5.1,8.7
			c-4.6,6.8-9.3,13.5-14,20.2c-1.7,2.5-3.9,2.5-5.7,0c-5.6-8.1-11.3-16.3-16.8-24.4C482.2,328.3,480.5,323.9,480.7,319.6z
			 M514.4,318.9c0-5.4-4.5-9.9-9.9-9.9c-5.4,0-9.9,4.5-9.9,9.9c0,5.4,4.5,9.9,9.9,9.9C509.9,328.8,514.4,324.3,514.4,318.9z"/>
	</g>
</g>
</svg>
