<?xml version="1.0" encoding="utf-8"?>
<!-- Generator: Adobe Illustrator 21.0.2, SVG Export Plug-In . SVG Version: 6.00 Build 0)  -->
<svg version="1.1" id="Layer_1" xmlns="http://www.w3.org/2000/svg" xmlns:xlink="http://www.w3.org/1999/xlink" x="0px" y="0px"
	 viewBox="0 0 150 125" style="enable-background:new 0 0 150 125;" xml:space="preserve">
<style type="text/css">
	.st0{fill:#FFFFFF;fill-opacity:0;}
	.st1{opacity:0.5;fill:#434B59;}
	.st2{opacity:0.8;fill:#1F7EED;enable-background:new    ;}
	.st3{fill:#3A404C;}
	.st4{enable-background:new    ;}
</style>
<title>filming</title>
<rect x="0" class="st0" width="150" height="125"/>
<g>
	<path class="st1" d="M60.1,22.8c-16,0.3-28.7,13.6-28.4,29.5c0.3,16,13.6,28.7,29.5,28.4c16-0.3,28.7-13.6,28.4-29.5
		C89.3,35.3,76,22.5,60.1,22.8z"/>
	<path class="st2" d="M80,22.5C64.1,22.8,51.3,36,51.6,52s13.6,28.7,29.5,28.4c16-0.3,28.7-13.6,28.4-29.5S96,22.2,80,22.5z"/>
	<g>
		<path class="st3" d="M96.4,77.3l0.5,26.8l-15.3-6.9c-0.1-0.1-0.3-0.1-0.4,0l-15,7.5l-0.5-26.8c-1.1-0.6-2.1-1.2-3-2l0.6,32.7
			c0,0.4,0.4,0.6,0.7,0.4l17.5-8.7l17.8,8c0.3,0.2,0.7-0.1,0.7-0.5l-0.6-32.7C98.5,76,97.5,76.7,96.4,77.3z"/>
	</g>
	<g class="st4">
		<path class="st3" d="M81.2,83.5c-17.6,0.3-32.3-13.7-32.6-31.4S62.3,19.8,80,19.5s32.3,13.7,32.6,31.4
			C112.9,68.5,98.8,83.1,81.2,83.5z M80,22.5C64.1,22.8,51.3,36,51.6,52s13.6,28.7,29.5,28.4c16-0.3,28.7-13.6,28.4-29.5
			S96,22.2,80,22.5z"/>
	</g>
	<g class="st4">
		<path class="st3" d="M81.1,77.5C66.8,77.8,54.9,66.3,54.6,52c-0.3-14.4,11.2-26.3,25.6-26.6s26.3,11.2,26.6,25.6
			S95.5,77.2,81.1,77.5z M80.2,28.4c-12.7,0.2-22.9,10.8-22.6,23.5c0.2,12.7,10.8,22.9,23.5,22.6c12.7-0.2,22.9-10.8,22.6-23.5
			S92.9,28.2,80.2,28.4z"/>
	</g>
</g>
</svg>
