<?xml version="1.0" encoding="utf-8"?>
<!-- Generator: Adobe Illustrator 21.0.2, SVG Export Plug-In . SVG Version: 6.00 Build 0)  -->
<svg version="1.1" id="Layer_1" xmlns="http://www.w3.org/2000/svg" xmlns:xlink="http://www.w3.org/1999/xlink" x="0px" y="0px"
	 viewBox="0 0 150 125" style="enable-background:new 0 0 150 125;" xml:space="preserve">
<style type="text/css">
	.st0{fill:#FFFFFF;fill-opacity:0;}
	.st1{opacity:0.5;fill:#434B59;enable-background:new    ;}
	.st2{opacity:0.8;fill:#1F7EED;enable-background:new    ;}
	.st3{fill:#3A404C;}
	.st4{enable-background:new    ;}
</style>
<rect class="st0" width="150" height="125"/>
<title>filming</title>
<g>
	<path class="st1" d="M35.8,73.8l13.7,2.6L61,84.2c0.2,0.1,0.4,0.1,0.6,0l11.5-7.8l13.7-2.6c0.2,0,0.4-0.2,0.4-0.4l2.6-13.7
		l7.8-11.5c0.1-0.2,0.1-0.4,0-0.6l-7.8-11.5L87,22.6c0-0.2-0.2-0.4-0.4-0.4l-13.7-2.6l-11.5-7.8c-0.2-0.1-0.4-0.1-0.6,0l-11.5,7.8
		l-13.7,2.6c-0.2,0-0.4,0.2-0.4,0.4l-2.6,13.7L25,47.7c-0.1,0.2-0.1,0.4,0,0.6l7.8,11.5l2.6,13.7C35.4,73.6,35.6,73.8,35.8,73.8z"/>
	<polygon class="st2" points="54.6,74.6 69.1,77.3 81.2,85.6 93.3,77.3 107.7,74.6 110.4,60.1 118.8,48 110.4,35.9 107.7,21.4 
		93.3,18.7 81.2,10.4 69.1,18.7 54.6,21.4 51.9,35.9 43.6,48 51.9,60.1 	"/>
	<path class="st3" d="M96.5,76.7V109l-15.1-7.2c-0.1-0.1-0.3-0.1-0.4,0L65.8,109V76.7l-3-0.6v36.8c0,0.4,0.4,0.6,0.7,0.5l17.6-8.4
		l17.6,8.4c0.3,0.2,0.7-0.1,0.7-0.5V76.2L96.5,76.7z"/>
	<g class="st4">
		<path class="st3" d="M80.9,87.8l-12.6-8.7l-15-2.8c-0.2,0-0.4-0.2-0.4-0.4l-2.8-15l-8.7-12.6c-0.1-0.2-0.1-0.4,0-0.6L50,35.2
			c0-0.1,0.1-0.1,0.1-0.2l2.7-15c0-0.2,0.2-0.4,0.4-0.4l15-2.8l12.6-8.7C81,8,81.2,8,81.4,8.1L94,16.8l15.1,2.8
			c0.2,0,0.4,0.2,0.4,0.4l2.8,15l8.7,12.6c0.1,0.2,0.1,0.4,0,0.6l-8.7,12.6l-2.8,15c0,0.2-0.2,0.4-0.4,0.4L94,79l-12.6,8.7
			C81.3,88,81.1,88,80.9,87.8z M55.5,73.7l14,2.6l11.7,8l11.7-8l14-2.6l2.6-14l8-11.7l-8-11.7l-2.6-14l-14-2.6l-11.7-8l-11.7,8
			l-14,2.6l-2.6,14l-8,11.7l8,11.7L55.5,73.7z"/>
	</g>
	<g class="st4">
		<path class="st3" d="M81.2,72.7c-13.6,0-24.7-11.1-24.7-24.7s11.1-24.7,24.7-24.7s24.7,11.1,24.7,24.7S94.8,72.7,81.2,72.7z
			 M81.2,26.3C69.3,26.3,59.5,36,59.5,48s9.7,21.7,21.7,21.7c11.9,0,21.7-9.7,21.7-21.7S93.1,26.3,81.2,26.3z"/>
	</g>
</g>
</svg>
