<?xml version="1.0" encoding="utf-8"?>
<!-- Generator: Adobe Illustrator 21.0.2, SVG Export Plug-In . SVG Version: 6.00 Build 0)  -->
<svg version="1.1" id="Layer_1" xmlns="http://www.w3.org/2000/svg" xmlns:xlink="http://www.w3.org/1999/xlink" x="0px" y="0px"
	 viewBox="0 0 120 100" style="enable-background:new 0 0 120 100;" xml:space="preserve">
<style type="text/css">
	.st0{opacity:0.5;fill:#434B59;}
	.st1{opacity:0.8;fill:#1F7EED;enable-background:new    ;}
	.st2{fill:#FFFFFF;fill-opacity:0;}
	.st3{fill:#3A404C;}
	.st4{fill:none;stroke:#3A404C;stroke-width:3;stroke-miterlimit:10;}
	.st5{opacity:0.8;fill:#3A404C;enable-background:new    ;}
	.st6{opacity:0.8;fill:none;stroke:#3A404C;stroke-width:3;stroke-miterlimit:10;enable-background:new    ;}
	.st7{opacity:0.5;}
	.st8{fill:#434B59;}
	.st9{fill:none;stroke:#3A404C;stroke-width:3;stroke-miterlimit:10;enable-background:new    ;}
	.st10{fill:#525252;}
	.st11{fill:#525252;stroke:#3A404C;stroke-width:3;stroke-miterlimit:10;enable-background:new    ;}
	.st12{enable-background:new    ;}
</style>
<path class="st0" d="M-728.9,598.8c-12.7,0-23.1,10.3-23.1,23.1s10.3,23.1,23.1,23.1s23.1-10.3,23.1-23.1S-716.2,598.8-728.9,598.8z
	"/>
<path class="st1" d="M-708.9,592.9c-16,0-29,13-29,29s13,29,29,29s29-13,29-29S-692.9,592.9-708.9,592.9z"/>
<rect class="st2" width="120" height="100"/>
<title>filming</title>
<path class="st3" d="M480.2,74.4L459.8,54c-0.2-0.2-0.2-0.5,0-0.7l1.4-1.4c0.2-0.2,0.5-0.2,0.7,0l18.6,18.6l18.3-18.3
	c0.2-0.2,0.5-0.2,0.7,0l1.4,1.4c0.2,0.2,0.2,0.5,0,0.7l-20.1,20.1C480.7,74.6,480.4,74.6,480.2,74.4z"/>
<path class="st3" d="M509.9,79.8L558.6,31c0.2-0.2,0.5-0.2,0.7,0l1.4,1.4c0.2,0.2,0.2,0.5,0,0.7L512,81.9c-0.2,0.2-0.5,0.2-0.7,0
	l-1.4-1.4C509.7,80.3,509.7,80,509.9,79.8z"/>
<path class="st3" d="M528.3,80.5l-1.4,1.4c-0.2,0.2-0.5,0.2-0.7,0l-48.8-48.8c-0.2-0.2-0.2-0.5,0-0.7l1.4-1.4c0.2-0.2,0.5-0.2,0.7,0
	l48.8,48.8C528.5,80,528.5,80.3,528.3,80.5z"/>
<path class="st3" d="M413.8,93.4l-1.7,1.1c-0.2,0.2-0.5,0.1-0.7-0.1l-38.1-57.5c-0.2-0.2-0.1-0.5,0.1-0.7l1.7-1.1
	c0.2-0.2,0.5-0.1,0.7,0.1l38.1,57.5C414,92.9,414,93.3,413.8,93.4z"/>
<path class="st3" d="M398,92.7l38.1-57.5c0.2-0.2,0.5-0.3,0.7-0.1l1.7,1.1c0.2,0.2,0.3,0.5,0.1,0.7l-38.1,57.5
	c-0.2,0.2-0.5,0.3-0.7,0.1l-1.7-1.1C397.9,93.3,397.8,92.9,398,92.7z"/>
<path class="st4" d="M451.9,34.1c0-15.1,12.2-27.3,27.3-27.3s27.3,12.2,27.3,27.3"/>
<path class="st5" d="M389.5,32.8h69c0.3,0,0.5,0.2,0.5,0.5v2c0,0.3-0.2,0.5-0.5,0.5h-69c-0.3,0-0.5-0.2-0.5-0.5v-2
	C389,33,389.2,32.8,389.5,32.8z"/>
<circle class="st6" cx="423.7" cy="34.1" r="27.3"/>
<rect y="153.7" class="st2" width="120" height="100"/>
<g class="st7">
	<path class="st8" d="M26.5,243.5c-21.5-8.6-32-33.1-23.3-54.6s33.1-32,54.6-23.3c10.6,4.3,19.1,12.7,23.3,23.4L26.5,243.5z"/>
</g>
<path class="st1" d="M79.8,165.5c21.5,8.6,32,33.1,23.4,54.6s-33.1,32-54.6,23.4c-10.6-4.3-19.1-12.7-23.4-23.3L79.8,165.5z"/>
<path class="st3" d="M31.7,186.5h69c0.3,0,0.5,0.2,0.5,0.5v2c0,0.3-0.2,0.5-0.5,0.5h-69c-0.3,0-0.5-0.2-0.5-0.5v-2
	C31.2,186.8,31.4,186.5,31.7,186.5z"/>
<circle class="st4" cx="65.9" cy="187.8" r="27.3"/>
<path class="st3" d="M65.9,216.6c-15.9,0-28.8-12.9-28.8-28.8s13-28.8,28.8-28.8s28.8,12.9,28.8,28.8S81.8,216.6,65.9,216.6z
	 M65.9,162c-14.2,0-25.8,11.6-25.8,25.8s11.6,25.8,25.8,25.8s25.8-11.6,25.8-25.8S80.1,162,65.9,162z"/>
<path class="st3" d="M65.5,239.2l-23.6-35.6l2.5-1.6l21.5,32.4L87.5,202l2.4,1.8l-23.6,35.5C66.2,239.5,65.7,239.5,65.5,239.2z"/>
<rect x="-208" y="510.6" class="st2" width="120" height="100"/>
<g class="st7">
	<path class="st8" d="M-181.5,600.4c-21.5-8.6-32-33.1-23.3-54.6c8.7-21.5,33.1-32,54.6-23.3c10.6,4.3,19.1,12.7,23.3,23.4
		L-181.5,600.4z"/>
</g>
<path class="st1" d="M-128.2,522.4c21.5,8.6,32,33.1,23.4,54.6s-33.1,32-54.6,23.4c-10.6-4.3-19.1-12.7-23.4-23.3L-128.2,522.4z"/>
<path class="st3" d="M-176.3,543.4h69c0.3,0,0.5,0.2,0.5,0.5v2c0,0.3-0.2,0.5-0.5,0.5h-69c-0.3,0-0.5-0.2-0.5-0.5v-2
	C-176.8,543.7-176.6,543.4-176.3,543.4z"/>
<circle class="st4" cx="-142.1" cy="544.7" r="27.3"/>
<path class="st3" d="M-142.1,573.5c-15.9,0-28.8-12.9-28.8-28.8c0-15.9,13-28.8,28.8-28.8s28.8,12.9,28.8,28.8
	C-113.3,560.6-126.2,573.5-142.1,573.5z M-142.1,518.9c-14.2,0-25.8,11.6-25.8,25.8c0,14.2,11.6,25.8,25.8,25.8s25.8-11.6,25.8-25.8
	C-116.3,530.5-127.9,518.9-142.1,518.9z"/>
<path class="st3" d="M-142.5,596.1l-23.6-35.6l2.5-1.6l21.5,32.4l21.6-32.4l2.4,1.8l-23.6,35.5
	C-141.8,596.4-142.3,596.4-142.5,596.1z"/>
<path class="st5" d="M296,68.8c-17.6,0-32-14.4-32-32s14.4-32,32-32s32,14.4,32,32C328,54.5,313.6,68.8,296,68.8z M296,7.8
	c-16,0-29,13-29,29s13,29,29,29s29-13,29-29S312,7.8,296,7.8z"/>
<path class="st3" d="M362.1,54.6L337.3,92l-1.4,2.1c-0.2,0.3-0.6,0.3-0.8,0l-1.4-2.1l-24.9-37.5l2.5-1.7l24.2,36.4l24.1-36.4
	L362.1,54.6z"/>
<circle class="st6" cx="271.2" cy="36.8" r="30.5"/>
<circle class="st9" cx="-99.7" cy="43" r="30.5"/>
<path class="st3" d="M278.6,101.4l-1.7,1.1c-0.2,0.2-0.5,0.1-0.7-0.1l-38.1-57.5c-0.2-0.2-0.1-0.5,0.1-0.7l1.7-1.1
	c0.2-0.2,0.5-0.1,0.7,0.1l38.1,57.5C278.9,100.9,278.8,101.3,278.6,101.4z"/>
<path class="st3" d="M263.6,100.7l38.1-57.5c0.2-0.2,0.5-0.3,0.7-0.1l1.7,1.1c0.2,0.2,0.3,0.5,0.1,0.7l-38.1,57.5
	c-0.2,0.2-0.5,0.3-0.7,0.1l-1.7-1.1C263.5,101.3,263.5,100.9,263.6,100.7z"/>
<path class="st3" d="M133,35.3h81c0.3,0,0.5,0.2,0.5,0.5v2c0,0.3-0.2,0.5-0.5,0.5h-81c-0.3,0-0.5-0.2-0.5-0.5v-2
	C132.5,35.6,132.8,35.3,133,35.3z"/>
<path class="st3" d="M199.9,54.6L175.1,92l-1.4,2.1c-0.2,0.3-0.6,0.3-0.8,0l-1.4-2.1l-24.9-37.5l2.5-1.7l24.2,36.4l24.1-36.4
	L199.9,54.6z"/>
<path class="st3" d="M146.7,54.6c-3.4-5.1-5.4-11.2-5.4-17.8c0-17.6,14.4-32,32-32s32,14.4,32,32c0,6.7-2,12.8-5.5,18l-2.4-1.8
	c3.1-4.6,4.9-10.2,4.9-16.2c0-16-13-29-29-29s-29,13-29,29c0,6,1.8,11.5,4.9,16.1L146.7,54.6z"/>
<polygon class="st4" points="-169.5,96.3 -186.3,88.3 -203.2,96.3 -203.2,58.2 -169.5,58.2 "/>
<rect x="-436" y="72.8" class="st10" width="24.4" height="11.5"/>
<circle class="st11" cx="-186.3" cy="41" r="30.5"/>
<polygon class="st4" points="-516.3,96.3 -533.2,88.3 -550,96.3 -550,58.2 -516.3,58.2 "/>
<circle class="st11" cx="-533.2" cy="41" r="30.5"/>
<polygon class="st4" points="-407,99.3 -423.9,91.3 -440.7,99.3 -440.7,61.2 -407,61.2 "/>
<g class="st12">
	<polygon class="st10" points="-423.9,2.8 -410.8,9.4 -396.9,14 -392.3,27.9 -385.7,41 -392.3,54.1 -396.9,68 -410.8,72.6 
		-423.9,79.2 -437,72.6 -450.9,68 -455.5,54.1 -462.1,41 -455.5,27.9 -450.9,14 -437,9.4 	"/>
	<polygon class="st4" points="-423.9,2.8 -410.8,9.4 -396.9,14 -392.3,27.9 -385.7,41 -392.3,54.1 -396.9,68 -410.8,72.6 
		-423.9,79.2 -437,72.6 -450.9,68 -455.5,54.1 -462.1,41 -455.5,27.9 -450.9,14 -437,9.4 	"/>
</g>
<circle class="st11" cx="-423.9" cy="41" r="24.6"/>
<rect x="-336.2" y="72.8" class="st10" width="24.4" height="11.5"/>
<polygon class="st4" points="-307.2,102.3 -324.1,94.3 -340.9,102.3 -340.9,64.2 -307.2,64.2 "/>
<g class="st12">
	<polygon class="st10" points="-324.1,-1.1 -314.7,6.1 -303,4.5 -298.5,15.5 -287.6,19.9 -289.2,31.6 -282,41 -289.2,50.3 
		-287.6,62.1 -298.5,66.5 -303,77.5 -314.7,75.9 -324.1,83.1 -333.4,75.9 -345.1,77.5 -349.6,66.5 -360.5,62.1 -359,50.3 -366.2,41 
		-359,31.6 -360.5,19.9 -349.6,15.5 -345.1,4.5 -333.4,6.1 	"/>
	<polygon class="st4" points="-324.1,-1.1 -314.7,6.1 -303,4.5 -298.5,15.5 -287.6,19.9 -289.2,31.6 -282,41 -289.2,50.3 
		-287.6,62.1 -298.5,66.5 -303,77.5 -314.7,75.9 -324.1,83.1 -333.4,75.9 -345.1,77.5 -349.6,66.5 -360.5,62.1 -359,50.3 -366.2,41 
		-359,31.6 -360.5,19.9 -349.6,15.5 -345.1,4.5 -333.4,6.1 	"/>
</g>
<circle class="st11" cx="-324.1" cy="41" r="30.5"/>
<circle class="st11" cx="-324.1" cy="41" r="24.6"/>
<rect x="-436" y="229.4" class="st10" width="24.4" height="11.5"/>
<polygon class="st4" points="-516.3,252.9 -533.2,244.9 -550,252.9 -550,214.8 -516.3,214.8 "/>
<circle class="st11" cx="-533.2" cy="197.6" r="30.5"/>
<polygon class="st4" points="-407,255.9 -423.9,247.9 -440.7,255.9 -440.7,217.8 -407,217.8 "/>
<g class="st12">
	<polygon class="st10" points="-423.9,158.4 -411.2,166.9 -396.1,169.9 -393.2,184.9 -384.7,197.6 -393.2,210.3 -396.1,225.3 
		-411.2,228.3 -423.9,236.8 -436.6,228.3 -451.6,225.3 -454.6,210.3 -463.1,197.6 -454.6,184.9 -451.6,169.9 -436.6,166.9 	"/>
	<polygon class="st4" points="-423.9,158.4 -411.2,166.9 -396.1,169.9 -393.2,184.9 -384.7,197.6 -393.2,210.3 -396.1,225.3 
		-411.2,228.3 -423.9,236.8 -436.6,228.3 -451.6,225.3 -454.6,210.3 -463.1,197.6 -454.6,184.9 -451.6,169.9 -436.6,166.9 	"/>
</g>
<circle class="st11" cx="-423.9" cy="197.6" r="24.6"/>
<rect x="-336.2" y="229.4" class="st10" width="24.4" height="11.5"/>
<polygon class="st4" points="-307.2,258.9 -324.1,250.9 -340.9,258.9 -340.9,220.8 -307.2,220.8 "/>
<g class="st12">
	<polygon class="st10" points="-324.1,155.5 -314.7,162.7 -303,161.1 -298.5,172 -287.6,176.5 -289.2,188.2 -282,197.6 
		-289.2,206.9 -287.6,218.6 -298.5,223.1 -303,234 -314.7,232.5 -324.1,239.7 -333.4,232.5 -345.1,234 -349.6,223.1 -360.5,218.6 
		-359,206.9 -366.2,197.6 -359,188.2 -360.5,176.5 -349.6,172 -345.1,161.1 -333.4,162.7 	"/>
	<polygon class="st4" points="-324.1,155.5 -314.7,162.7 -303,161.1 -298.5,172 -287.6,176.5 -289.2,188.2 -282,197.6 -289.2,206.9 
		-287.6,218.6 -298.5,223.1 -303,234 -314.7,232.5 -324.1,239.7 -333.4,232.5 -345.1,234 -349.6,223.1 -360.5,218.6 -359,206.9 
		-366.2,197.6 -359,188.2 -360.5,176.5 -349.6,172 -345.1,161.1 -333.4,162.7 	"/>
</g>
<circle class="st11" cx="-324.1" cy="197.6" r="30.5"/>
<circle class="st11" cx="-324.1" cy="197.6" r="24.6"/>
<circle class="st11" cx="-533.1" cy="197.6" r="24.6"/>
<polygon class="st4" points="-516.3,390.6 -533.2,382.6 -550,390.6 -550,352.5 -516.3,352.5 "/>
<circle class="st11" cx="-533.2" cy="335.3" r="30.5"/>
<polygon class="st4" points="-407,398.6 -423.9,390.6 -440.7,398.6 -440.7,360.5 -407,360.5 "/>
<g class="st12">
	<polygon class="st10" points="-423.9,297.1 -411.5,305.5 -396.9,308.2 -394.1,322.9 -385.7,335.3 -394.1,347.6 -396.9,362.3 
		-411.5,365 -423.9,373.5 -436.2,365 -450.9,362.3 -453.6,347.6 -462.1,335.3 -453.6,322.9 -450.9,308.2 -436.2,305.5 	"/>
	<polygon class="st4" points="-423.9,297.1 -411.5,305.5 -396.9,308.2 -394.1,322.9 -385.7,335.3 -394.1,347.6 -396.9,362.3 
		-411.5,365 -423.9,373.5 -436.2,365 -450.9,362.3 -453.6,347.6 -462.1,335.3 -453.6,322.9 -450.9,308.2 -436.2,305.5 	"/>
</g>
<circle class="st11" cx="-423.9" cy="335.3" r="23.2"/>
<g>
	<g>
		<polygon class="st4" points="-351,392.2 -332.4,390.5 -319.3,403.8 -299.5,349.1 -331.1,337.6 		"/>
	</g>
	<g>
		<polygon class="st11" points="-277.1,392.2 -295.7,390.5 -308.8,403.8 -328.7,349.1 -297,337.6 		"/>
	</g>
	<g class="st12">
		<polygon class="st10" points="-314.1,292.9 -304.9,300.1 -293.4,298.4 -289.1,309.3 -278.2,313.6 -279.9,325.1 -272.7,334.3 
			-279.9,343.4 -278.2,354.9 -289.1,359.3 -293.4,370.1 -304.9,368.4 -314.1,375.6 -323.2,368.4 -334.8,370.1 -339.1,359.3 
			-349.9,354.9 -348.2,343.4 -355.4,334.3 -348.2,325.1 -349.9,313.6 -339.1,309.3 -334.8,298.4 -323.2,300.1 		"/>
		<polygon class="st4" points="-314.1,292.9 -304.9,300.1 -293.4,298.4 -289.1,309.3 -278.2,313.6 -279.9,325.1 -272.7,334.3 
			-279.9,343.4 -278.2,354.9 -289.1,359.3 -293.4,370.1 -304.9,368.4 -314.1,375.6 -323.2,368.4 -334.8,370.1 -339.1,359.3 
			-349.9,354.9 -348.2,343.4 -355.4,334.3 -348.2,325.1 -349.9,313.6 -339.1,309.3 -334.8,298.4 -323.2,300.1 		"/>
	</g>
	<circle class="st11" cx="-314.1" cy="334.3" r="27.1"/>
	<circle class="st11" cx="-314.1" cy="334.3" r="21.1"/>
</g>
<g>
	<rect x="-149" y="367.1" class="st10" width="24.4" height="11.5"/>
	<g>
		<polygon class="st4" points="-173.8,388.2 -155.2,386.5 -142.1,399.8 -122.2,345.1 -153.9,333.6 		"/>
		
			<ellipse transform="matrix(0.342 -0.9397 0.9397 0.342 -406.1868 92.645)" class="st11" cx="-136.9" cy="336.4" rx="24.6" ry="24.6"/>
	</g>
	<g>
		<polygon class="st11" points="-99.9,388.2 -118.4,386.5 -131.5,399.8 -151.4,345.1 -119.7,333.6 		"/>
		
			<ellipse transform="matrix(0.9397 -0.342 0.342 0.9397 -123.2874 -26.4577)" class="st11" cx="-136.7" cy="336.4" rx="24.6" ry="24.6"/>
	</g>
	<g class="st12">
		<polygon class="st10" points="-136.8,293.1 -127.5,300.4 -115.7,298.8 -111.3,309.7 -100.3,314.2 -101.9,325.9 -94.7,335.3 
			-101.9,344.6 -100.3,356.3 -111.3,360.8 -115.7,371.7 -127.5,370.2 -136.8,377.4 -146.2,370.2 -157.9,371.7 -162.3,360.8 
			-173.3,356.3 -171.7,344.6 -178.9,335.3 -171.7,325.9 -173.3,314.2 -162.3,309.7 -157.9,298.8 -146.2,300.4 		"/>
		<polygon class="st4" points="-136.8,293.1 -127.5,300.4 -115.7,298.8 -111.3,309.7 -100.3,314.2 -101.9,325.9 -94.7,335.3 
			-101.9,344.6 -100.3,356.3 -111.3,360.8 -115.7,371.7 -127.5,370.2 -136.8,377.4 -146.2,370.2 -157.9,371.7 -162.3,360.8 
			-173.3,356.3 -171.7,344.6 -178.9,335.3 -171.7,325.9 -173.3,314.2 -162.3,309.7 -157.9,298.8 -146.2,300.4 		"/>
	</g>
	<circle class="st11" cx="-136.8" cy="335.3" r="30.5"/>
	<circle class="st11" cx="-136.8" cy="335.3" r="24.6"/>
</g>
<circle class="st11" cx="-533.1" cy="335.3" r="24.6"/>
<g>
	<path class="st3" d="M-517.8,506.3v26.8l-15.4-7.3l-15.4,7.3v-26.8c-1-0.6-2-1.3-3-2v33.5l18.4-8.7l18.4,8.7v-33.5
		C-515.8,505-516.8,505.7-517.8,506.3z"/>
</g>
<g class="st12">
	<path class="st3" d="M-533.2,512.1c-17.6,0-32-14.4-32-32s14.4-32,32-32s32,14.4,32,32S-515.5,512.1-533.2,512.1z M-533.2,451.1
		c-16,0-29,13-29,29s13,29,29,29s29-13,29-29S-517.2,451.1-533.2,451.1z"/>
</g>
<polygon class="st3" points="-408.5,508.8 -408.5,541.1 -423.9,533.8 -439.2,541.1 -439.2,508.8 -442.2,508.3 -442.2,545.8 
	-423.9,537.1 -405.5,545.8 -405.5,508.3 "/>
<g class="st12">
	<path class="st3" d="M-423.9,520.1l-12.9-8.8l-15.4-2.9L-455,493l-8.8-12.9l8.8-12.9l2.9-15.4l15.4-2.9l12.9-8.8l12.9,8.8l15.4,2.9
		l2.9,15.4l8.8,12.9l-8.8,12.9l-2.9,15.4l-15.4,2.9L-423.9,520.1z M-449.6,505.9l14,2.6l11.7,8l11.7-8l14-2.6l2.6-14l8-11.7l-8-11.7
		l-2.6-14l-14-2.6l-11.7-8l-11.7,8l-14,2.6l-2.6,14l-8,11.7l8,11.7L-449.6,505.9z"/>
</g>
<g class="st12">
	<path class="st3" d="M-423.9,504.8c-13.6,0-24.7-11.1-24.7-24.7s11.1-24.7,24.7-24.7c13.6,0,24.7,11.1,24.7,24.7
		S-410.3,504.8-423.9,504.8z M-423.9,458.5c-11.9,0-21.7,9.7-21.7,21.7s9.7,21.7,21.7,21.7c11.9,0,21.7-9.7,21.7-21.7
		S-411.9,458.5-423.9,458.5z"/>
</g>
<g>
	<g>
		<polygon class="st3" points="-319.9,545.9 -331.9,533.8 -348.8,535.4 -339,508.4 -340.2,505.3 -340.9,505 -353.2,538.8 
			-333,536.9 -318.7,551.4 -314.1,538.5 -315.7,534.1 		"/>
	</g>
	<g>
		<polygon class="st3" points="-287.9,505.3 -289.2,508.4 -279.3,535.4 -296.3,533.8 -308.2,545.9 -317.8,519.4 -322.3,515.9 
			-309.4,551.4 -295.1,536.9 -274.9,538.8 -287.2,505 		"/>
	</g>
	<g class="st12">
		<path class="st3" d="M-314.1,522.4l-9.6-7.5l-12.1,1.7l-4.5-11.3l-11.3-4.5l1.7-12.1l-7.5-9.6l7.5-9.6l-1.7-12.1l11.3-4.5
			l4.5-11.3l12.1,1.7l9.6-7.5l9.6,7.5l12.1-1.7l4.5,11.3l11.3,4.5l-1.7,12.1l7.5,9.6l-7.5,9.6l1.7,12.1l-11.3,4.5l-4.5,11.3
			l-12.1-1.7L-314.1,522.4z M-322.8,511.7l8.7,6.9l8.7-6.9l11,1.6l4.1-10.3l10.3-4.1l-1.6-11l6.9-8.7l-6.9-8.7l1.6-11l-10.3-4.1
			l-4.1-10.3l-11,1.6l-8.7-6.9l-8.7,6.9l-11-1.6l-4.1,10.3l-10.3,4.1l1.6,11l-6.9,8.7l6.9,8.7l-1.6,11l10.3,4.1l4.1,10.3
			L-322.8,511.7z"/>
	</g>
	<g class="st12">
		<path class="st3" d="M-314.1,507.7c-15.8,0-28.6-12.8-28.6-28.6c0-15.8,12.8-28.6,28.6-28.6c15.8,0,28.6,12.8,28.6,28.6
			C-285.5,494.9-298.3,507.7-314.1,507.7z M-314.1,453.5c-14.1,0-25.6,11.5-25.6,25.6c0,14.1,11.5,25.6,25.6,25.6
			c14.1,0,25.6-11.5,25.6-25.6C-288.5,465-300,453.5-314.1,453.5z"/>
	</g>
	<g class="st12">
		<path class="st3" d="M-314.1,501.8c-12.5,0-22.6-10.2-22.6-22.6s10.2-22.6,22.6-22.6s22.6,10.2,22.6,22.6
			S-301.6,501.8-314.1,501.8z M-314.1,459.5c-10.8,0-19.6,8.8-19.6,19.6s8.8,19.6,19.6,19.6s19.6-8.8,19.6-19.6
			S-303.2,459.5-314.1,459.5z"/>
	</g>
</g>
<g class="st12">
	<path class="st3" d="M-533.1,506.2c-14.4,0-26.1-11.7-26.1-26.1s11.7-26.1,26.1-26.1s26.1,11.7,26.1,26.1S-518.7,506.2-533.1,506.2
		z M-533.1,457.1c-12.7,0-23.1,10.3-23.1,23.1s10.3,23.1,23.1,23.1s23.1-10.3,23.1-23.1S-520.4,457.1-533.1,457.1z"/>
</g>
<g>
	<path class="st3" d="M-693.6,648.1v26.8l-15.4-7.3l-15.4,7.3v-26.8c-1-0.6-2-1.3-3-2v33.5l18.4-8.7l18.4,8.7v-33.5
		C-691.5,646.8-692.5,647.5-693.6,648.1z"/>
</g>
<g class="st12">
	<path class="st3" d="M-708.9,653.9c-17.6,0-32-14.4-32-32s14.4-32,32-32s32,14.4,32,32S-691.3,653.9-708.9,653.9z M-708.9,592.9
		c-16,0-29,13-29,29s13,29,29,29s29-13,29-29S-692.9,592.9-708.9,592.9z"/>
</g>
<g>
	<path class="st0" d="M-469.3,647.7l13.7,2.6l11.5,7.8c0.2,0.1,0.4,0.1,0.6,0l11.5-7.8l13.7-2.6c0.2,0,0.4-0.2,0.4-0.4l2.6-13.7
		l7.8-11.5c0.1-0.2,0.1-0.4,0-0.6l-7.8-11.5l-2.6-13.7c0-0.2-0.2-0.4-0.4-0.4l-13.7-2.6l-11.5-7.8c-0.2-0.1-0.4-0.1-0.6,0l-11.5,7.8
		l-13.7,2.6c-0.2,0-0.4,0.2-0.4,0.4l-2.6,13.7l-7.8,11.5c-0.1,0.2-0.1,0.4,0,0.6l7.8,11.5l2.6,13.7
		C-469.6,647.5-469.5,647.7-469.3,647.7z"/>
	<polygon class="st1" points="-450.4,648.5 -436,651.2 -423.9,659.5 -411.7,651.2 -397.3,648.5 -394.6,634 -386.3,621.9 
		-394.6,609.8 -397.3,595.3 -411.7,592.6 -423.9,584.3 -436,592.6 -450.4,595.3 -453.1,609.8 -461.4,621.9 -453.1,634 	"/>
	<path class="st3" d="M-408.5,650.6v32.2l-15.1-7.2c-0.1-0.1-0.3-0.1-0.4,0l-15.1,7.2v-32.2l-3-0.6v36.8c0,0.4,0.4,0.6,0.7,0.5
		l17.6-8.4l17.6,8.4c0.3,0.2,0.7-0.1,0.7-0.5v-36.8L-408.5,650.6z"/>
	<g class="st12">
		<path class="st3" d="M-424.2,661.7l-12.6-8.7l-15-2.8c-0.2,0-0.4-0.2-0.4-0.4l-2.8-15l-8.7-12.6c-0.1-0.2-0.1-0.4,0-0.6l8.6-12.5
			c0-0.1,0.1-0.1,0.1-0.2l2.8-14.9c0-0.2,0.2-0.4,0.4-0.4l15-2.8l12.6-8.7c0.2-0.1,0.4-0.1,0.6,0l12.6,8.7l15.1,2.8
			c0.2,0,0.4,0.2,0.4,0.4l2.8,15l8.7,12.6c0.1,0.2,0.1,0.4,0,0.6l-8.7,12.6l-2.8,15c0,0.2-0.2,0.4-0.4,0.4l-15.1,2.8l-12.6,8.7
			C-423.8,661.9-424,661.9-424.2,661.7z M-449.6,647.6l14,2.6l11.7,8l11.7-8l14-2.6l2.6-14l8-11.7l-8-11.7l-2.6-14l-14-2.6l-11.7-8
			l-11.7,8l-14,2.6l-2.6,14l-8,11.7l8,11.7L-449.6,647.6z"/>
	</g>
	<g class="st12">
		<path class="st3" d="M-423.9,646.6c-13.6,0-24.7-11.1-24.7-24.7s11.1-24.7,24.7-24.7c13.6,0,24.7,11.1,24.7,24.7
			S-410.3,646.6-423.9,646.6z M-423.9,600.2c-11.9,0-21.7,9.7-21.7,21.7s9.7,21.7,21.7,21.7c11.9,0,21.7-9.7,21.7-21.7
			S-411.9,600.2-423.9,600.2z"/>
	</g>
</g>
<g>
	<path class="st0" d="M-342.8,653.5l8.4,6.6c0.2,0.1,0.4,0.1,0.6,0l8.4-6.6l10.6,1.5c0.2,0,0.5-0.1,0.5-0.3l4-10l10-4
		c0.2-0.1,0.3-0.3,0.3-0.5l-1.5-10.6l6.6-8.4c0.1-0.2,0.1-0.4,0-0.6l-6.6-8.4l1.5-10.6c0-0.2-0.1-0.5-0.3-0.5l-10-4l-4-10
		c-0.1-0.2-0.3-0.3-0.5-0.3l-10.6,1.5l-8.4-6.6c-0.2-0.1-0.4-0.1-0.6,0l-8.4,6.6l-10.6-1.5c-0.2,0-0.5,0.1-0.5,0.3l-4,10l-10,4
		c-0.2,0.1-0.3,0.3-0.3,0.5l1.5,10.6l-6.6,8.4c-0.1,0.2-0.1,0.4,0,0.6l6.6,8.4l-1.5,10.6c0,0.2,0.1,0.5,0.3,0.5l10,4l4,10
		c0.1,0.2,0.3,0.3,0.5,0.3L-342.8,653.5z"/>
	<polygon class="st1" points="-323.1,654.8 -314.1,661.9 -305,654.8 -293.6,656.4 -289.3,645.7 -278.6,641.4 -280.2,630 
		-273.1,620.9 -280.2,611.8 -278.6,600.4 -289.3,596.1 -293.6,585.4 -305,587.1 -314.1,579.9 -323.1,587.1 -334.6,585.4 
		-338.8,596.1 -349.6,600.4 -347.9,611.8 -355,620.9 -347.9,630 -349.6,641.4 -338.8,645.7 -334.6,656.4 	"/>
	<g>
		<g>
			<path class="st3" d="M-319.9,687.7l-11.8-11.9c-0.1-0.1-0.3-0.2-0.4-0.1l-16.7,1.6l9.8-27l-1.2-3.1l-0.7-0.3l-12,33.1
				c-0.1,0.3,0.2,0.7,0.5,0.7l19.4-1.8l13.7,13.9c0.3,0.3,0.7,0.2,0.8-0.2l4.4-12.1l-1.6-4.4L-319.9,687.7z"/>
		</g>
		<g>
			<path class="st3" d="M-287.9,647.1l-1.2,3.1l9.8,27l-16.7-1.6c-0.1,0-0.3,0-0.4,0.1l-11.8,11.9l-9.6-26.4l-4.5-3.5l12.6,34.7
				c0.1,0.3,0.6,0.4,0.8,0.2l13.7-13.9l19.4,1.8c0.4,0,0.6-0.3,0.5-0.7l-12-33.1L-287.9,647.1z"/>
		</g>
		<g class="st12">
			<path class="st3" d="M-314.4,663.9l-9.3-7.3l-11.7,1.7c-0.2,0-0.5-0.1-0.5-0.3l-4.4-11l-11-4.4c-0.2-0.1-0.3-0.3-0.3-0.5
				l1.7-11.7l-7.3-9.3c-0.1-0.2-0.1-0.4,0-0.6l7.3-9.3l-1.7-11.7c0-0.2,0.1-0.5,0.3-0.5l11-4.4l4.4-11c0.1-0.2,0.3-0.3,0.5-0.3
				l11.7,1.7l9.3-7.3c0.2-0.1,0.4-0.1,0.6,0l9.3,7.3l11.7-1.7c0.2,0,0.5,0.1,0.5,0.3l4.4,11l11,4.4c0.2,0.1,0.3,0.3,0.3,0.5
				l-1.7,11.7l7.3,9.3c0.1,0.2,0.1,0.4,0,0.6l-7.3,9.3l1.7,11.7c0,0.2-0.1,0.5-0.3,0.5l-11,4.4l-4.4,11c-0.1,0.2-0.3,0.3-0.5,0.3
				l-11.7-1.7l-9.3,7.3C-313.9,664.1-314.2,664.1-314.4,663.9z M-322.8,653.5l8.7,6.9l8.7-6.9l11,1.6l4.1-10.3l10.3-4.1l-1.6-11
				l6.9-8.7l-6.9-8.7l1.6-11l-10.3-4.1l-4.1-10.3l-11,1.6l-8.7-6.9l-8.7,6.9l-11-1.6l-4.1,10.3l-10.3,4.1l1.6,11l-6.9,8.7l6.9,8.7
				l-1.6,11l10.3,4.1l4.1,10.3L-322.8,653.5z"/>
		</g>
		<g class="st12">
			<path class="st3" d="M-314.1,649.5c-15.8,0-28.6-12.8-28.6-28.6c0-15.8,12.8-28.6,28.6-28.6c15.8,0,28.6,12.8,28.6,28.6
				C-285.5,636.7-298.3,649.5-314.1,649.5z M-314.1,595.3c-14.1,0-25.6,11.5-25.6,25.6c0,14.1,11.5,25.6,25.6,25.6
				c14.1,0,25.6-11.5,25.6-25.6C-288.5,606.8-300,595.3-314.1,595.3z"/>
		</g>
		<g class="st12">
			<path class="st3" d="M-314.1,643.6c-12.5,0-22.6-10.2-22.6-22.6s10.2-22.6,22.6-22.6s22.6,10.2,22.6,22.6
				S-301.6,643.6-314.1,643.6z M-314.1,601.3c-10.8,0-19.6,8.8-19.6,19.6s8.8,19.6,19.6,19.6s19.6-8.8,19.6-19.6
				S-303.2,601.3-314.1,601.3z"/>
		</g>
	</g>
</g>
<g class="st12">
	<path class="st3" d="M-708.9,648c-14.4,0-26.1-11.7-26.1-26.1s11.7-26.1,26.1-26.1s26.1,11.7,26.1,26.1S-694.5,648-708.9,648z
		 M-708.9,598.8c-12.7,0-23.1,10.3-23.1,23.1s10.3,23.1,23.1,23.1s23.1-10.3,23.1-23.1S-696.2,598.8-708.9,598.8z"/>
</g>
<g>
	<path class="st0" d="M-553.9,592.3c-16,0.3-28.7,13.6-28.4,29.5c0.3,16,13.6,28.7,29.5,28.4c16-0.3,28.7-13.6,28.4-29.5
		C-524.7,604.8-538,592-553.9,592.3z"/>
	<path class="st1" d="M-534,592c-16,0.3-28.7,13.6-28.4,29.5c0.3,16,13.6,28.7,29.5,28.4c16-0.3,28.7-13.6,28.4-29.5
		C-504.7,604.4-518,591.7-534,592z"/>
	<g>
		<path class="st3" d="M-517.6,646.8l0.5,26.8l-15.3-6.9c-0.1-0.1-0.3-0.1-0.4,0l-15,7.5l-0.5-26.8c-1.1-0.6-2.1-1.2-3-2l0.6,32.7
			c0,0.4,0.4,0.6,0.7,0.4l17.5-8.7l17.8,8c0.3,0.2,0.7-0.1,0.7-0.5l-0.6-32.7C-515.5,645.5-516.5,646.2-517.6,646.8z"/>
	</g>
	<g class="st12">
		<path class="st3" d="M-532.8,653c-17.6,0.3-32.3-13.7-32.6-31.4c-0.3-17.6,13.7-32.3,31.4-32.6c17.6-0.3,32.3,13.7,32.6,31.4
			C-501.1,638-515.2,652.6-532.8,653z M-534,592c-16,0.3-28.7,13.6-28.4,29.5c0.3,16,13.6,28.7,29.5,28.4
			c16-0.3,28.7-13.6,28.4-29.5C-504.7,604.4-518,591.7-534,592z"/>
	</g>
	<g class="st12">
		<path class="st3" d="M-532.9,647c-14.4,0.3-26.3-11.2-26.6-25.6c-0.3-14.4,11.2-26.3,25.6-26.6c14.4-0.3,26.3,11.2,26.6,25.6
			C-507,634.8-518.5,646.7-532.9,647z M-533.8,597.9c-12.7,0.2-22.9,10.8-22.6,23.5c0.2,12.7,10.8,22.9,23.5,22.6
			c12.7-0.2,22.9-10.8,22.6-23.5C-510.5,607.8-521.1,597.7-533.8,597.9z"/>
	</g>
</g>
<g>
	<path class="st0" d="M45.7,8.4c-16,0.3-28.7,13.6-28.4,29.5c0.3,16,13.6,28.7,29.5,28.4s28.7-13.6,28.4-29.5
		C74.9,20.8,61.7,8.1,45.7,8.4z"/>
	<path class="st1" d="M65.7,8c-16,0.3-28.7,13.6-28.4,29.5S50.8,66.3,66.8,66s28.7-13.6,28.4-29.5S81.7,7.7,65.7,8z"/>
	<g>
		<path class="st3" d="M82.1,62.9l0.5,26.8l-15.3-6.9c-0.1-0.1-0.3-0.1-0.4,0l-15,7.5l-0.5-26.8c-1.1-0.6-2.1-1.2-3-2L49,94.2
			c0,0.4,0.4,0.6,0.7,0.4L67.2,86l17.8,8c0.3,0.2,0.7-0.1,0.7-0.5L85,60.8C84.1,61.5,83.1,62.2,82.1,62.9z"/>
	</g>
	<g class="st12">
		<path class="st3" d="M66.8,69c-17.6,0.3-32.3-13.7-32.6-31.4S48,5.3,65.6,5c17.6-0.3,32.3,13.7,32.6,31.4
			C98.6,54,84.5,68.6,66.8,69z M65.7,8c-16,0.3-28.7,13.6-28.4,29.5S50.8,66.3,66.8,66s28.7-13.6,28.4-29.5S81.7,7.7,65.7,8z"/>
	</g>
	<g class="st12">
		<path class="st3" d="M66.8,63c-14.4,0.3-26.3-11.2-26.6-25.6s11.2-26.3,25.6-26.6s26.3,11.2,26.6,25.6S81.1,62.8,66.8,63z
			 M65.8,13.9C53.1,14.2,43,24.7,43.2,37.4S54,60.3,66.7,60s22.9-10.8,22.6-23.5S78.5,13.7,65.8,13.9z"/>
	</g>
</g>
</svg>
