<?xml version="1.0" encoding="utf-8"?>
<!-- Generator: Adobe Illustrator 21.0.2, SVG Export Plug-In . SVG Version: 6.00 Build 0)  -->
<svg version="1.1" id="Layer_1" xmlns="http://www.w3.org/2000/svg" xmlns:xlink="http://www.w3.org/1999/xlink" x="0px" y="0px"
	 viewBox="0 0 150 125" style="enable-background:new 0 0 150 125;" xml:space="preserve">
<style type="text/css">
	.st0{fill:#FFFFFF;fill-opacity:0;}
	.st1{opacity:0.5;fill:#434B59;}
	.st2{opacity:0.8;fill:#1F7EED;enable-background:new    ;}
	.st3{fill:#3A404C;}
	.st4{enable-background:new    ;}
</style>
<title>filming</title>
<rect x="0" class="st0" width="150" height="125"/>
<g>
	<path class="st1" d="M52.4,80.7l8.4,6.6c0.2,0.1,0.4,0.1,0.6,0l8.4-6.6l10.6,1.5c0.2,0,0.5-0.1,0.5-0.3l4-10l10-4
		c0.2-0.1,0.3-0.3,0.3-0.5l-1.5-10.6l6.6-8.4c0.1-0.2,0.1-0.4,0-0.6l-6.6-8.4l1.5-10.6c0-0.2-0.1-0.5-0.3-0.5l-10-4l-4-10
		c-0.1-0.2-0.3-0.3-0.5-0.3l-10.6,1.5l-8.4-6.6c-0.2-0.1-0.4-0.1-0.6,0l-8.4,6.6L41.8,14c-0.2,0-0.5,0.1-0.5,0.3l-4,10l-10,4
		c-0.2,0.1-0.3,0.3-0.3,0.5l1.5,10.6l-6.6,8.4c-0.1,0.2-0.1,0.4,0,0.6l6.6,8.4L27,67.5c0,0.2,0.1,0.5,0.3,0.5l10,4l4,10
		c0.1,0.2,0.3,0.3,0.5,0.3L52.4,80.7z"/>
	<polygon class="st2" points="72,82 81.1,89.1 90.2,82 101.6,83.6 105.9,72.9 116.6,68.6 114.9,57.2 122.1,48.1 114.9,39.1 
		116.6,27.7 105.9,23.4 101.6,12.7 90.2,14.3 81.1,7.2 72,14.3 60.6,12.7 56.3,23.4 45.6,27.7 47.2,39.1 40.1,48.1 47.2,57.2 
		45.6,68.6 56.3,72.9 60.6,83.6 	"/>
	<g>
		<g>
			<path class="st3" d="M75.2,114.9L63.5,103c-0.1-0.1-0.3-0.2-0.4-0.1l-16.7,1.6l9.8-27l-1.2-3.1L54.2,74l-12,33.1
				c-0.1,0.3,0.2,0.7,0.5,0.7l19.4-1.8l13.7,13.9c0.3,0.3,0.7,0.2,0.8-0.2l4.4-12.1l-1.6-4.4L75.2,114.9z"/>
		</g>
		<g>
			<path class="st3" d="M107.3,74.3l-1.2,3.1l9.8,27l-16.7-1.6c-0.1,0-0.3,0-0.4,0.1L87,114.9l-9.6-26.4L72.9,85l12.6,34.7
				c0.1,0.3,0.6,0.4,0.8,0.2l13.7-13.9l19.4,1.8c0.4,0,0.6-0.3,0.5-0.7L108,74L107.3,74.3z"/>
		</g>
		<g class="st4">
			<path class="st3" d="M80.8,91.2l-9.3-7.3l-11.7,1.7c-0.2,0-0.5-0.1-0.5-0.3l-4.4-11l-11-4.4c-0.2-0.1-0.3-0.3-0.3-0.5l1.7-11.7
				l-7.3-9.3c-0.1-0.2-0.1-0.4,0-0.6l7.3-9.3l-1.7-11.7c0-0.2,0.1-0.4,0.3-0.5l11-4.4l4.4-11c0.1-0.2,0.3-0.3,0.5-0.3l11.7,1.7
				l9.3-7.3C81,5,81.2,5,81.4,5.1l9.3,7.3l11.7-1.7c0.2,0,0.5,0.1,0.5,0.3l4.4,11l11,4.4c0.2,0.1,0.3,0.3,0.3,0.5l-1.7,11.7l7.3,9.3
				c0.1,0.2,0.1,0.4,0,0.6l-7.3,9.3l1.7,11.7c0,0.2-0.1,0.4-0.3,0.5l-11,4.4l-4.4,11c-0.1,0.2-0.3,0.3-0.5,0.3l-11.7-1.7l-9.3,7.3
				C81.2,91.3,81,91.3,80.8,91.2z M72.4,80.7l8.7,6.9l8.7-6.9l11,1.6l4.1-10.3l10.3-4.1l-1.6-11l6.9-8.7l-6.9-8.7l1.6-11l-10.3-4.1
				L100.8,14l-11,1.6l-8.7-6.9l-8.7,6.9l-11-1.6l-4.1,10.3l-10.3,4.1l1.6,11l-6.9,8.7l6.9,8.7l-1.6,11L57.2,72l4.1,10.3L72.4,80.7z"
				/>
		</g>
		<g class="st4">
			<path class="st3" d="M81.1,76.7c-15.8,0-28.6-12.8-28.6-28.6c0-15.8,12.8-28.6,28.6-28.6c15.8,0,28.6,12.8,28.6,28.6
				C109.7,63.9,96.9,76.7,81.1,76.7z M81.1,22.6C67,22.6,55.5,34,55.5,48.1c0,14.1,11.5,25.6,25.6,25.6c14.1,0,25.6-11.5,25.6-25.6
				C106.7,34,95.2,22.6,81.1,22.6z"/>
		</g>
		<g class="st4">
			<path class="st3" d="M81.1,70.8c-12.5,0-22.6-10.2-22.6-22.6s10.2-22.6,22.6-22.6s22.6,10.2,22.6,22.6S93.6,70.8,81.1,70.8z
				 M81.1,28.5c-10.8,0-19.6,8.8-19.6,19.6s8.8,19.6,19.6,19.6s19.6-8.8,19.6-19.6S91.9,28.5,81.1,28.5z"/>
		</g>
	</g>
</g>
</svg>
