<?xml version="1.0" encoding="utf-8"?>
<!-- Generator: Adobe Illustrator 21.0.2, SVG Export Plug-In . SVG Version: 6.00 Build 0)  -->
<svg version="1.1" id="Layer_1" xmlns="http://www.w3.org/2000/svg" xmlns:xlink="http://www.w3.org/1999/xlink" x="0px" y="0px"
	 viewBox="0 0 120 100" style="enable-background:new 0 0 120 100;" xml:space="preserve">
<style type="text/css">
	.st0{fill:#FFFFFF;fill-opacity:0;}
	.st1{opacity:0.5;fill:#434B59;enable-background:new    ;}
	.st2{opacity:0.8;fill:#1F7EED;enable-background:new    ;}
	.st3{fill:#3A404C;}
	.st4{opacity:0.5;}
	.st5{fill:#434B59;}
	.st6{opacity:0.8;}
	.st7{fill:#1F7EED;}
</style>
<rect class="st0" width="120" height="100"/>
<rect x="11.9" y="44.8" class="st1" width="58.2" height="42.9"/>
<rect x="36.9" y="44.8" class="st2" width="66.5" height="42.9"/>
<path class="st3" d="M33.8,90.2c0,0.3,0.2,0.5,0.5,0.5h71.6c0.3,0,0.5-0.2,0.5-0.5l0,0V42.3c0-0.3-0.2-0.5-0.5-0.5H34.4
	c-0.3,0-0.5,0.2-0.5,0.5v47.9H33.8z M103.4,87.7H36.9V44.8h66.5V87.7z"/>
<path class="st3" d="M34.5,44c0.1,0.3,0.4,0.4,0.6,0.3l67.3-24.5c0.3-0.1,0.4-0.4,0.3-0.6l0,0l-5.1-14c-0.1-0.3-0.4-0.4-0.6-0.3
	L29.8,29.3c-0.3,0.1-0.4,0.4-0.3,0.6L34.5,44L34.5,44z M99,17.8L36.6,40.6l-3.4-9.3L95.7,8.5L99,17.8z"/>
<path class="st3" d="M176.8,78.9c0,0.3,0.2,0.5,0.5,0.5h81.6c0.3,0,0.5-0.2,0.5-0.5l0,0V21.1c0-0.3-0.2-0.5-0.5-0.5h-81.5
	c-0.3,0-0.5,0.2-0.5,0.5v57.9H176.8z M256.4,76.4h-76.5V23.6h76.5V76.4z"/>
<path class="st3" d="M186.8,45.9c0,0.3,0.2,0.5,0.5,0.5h26.6c0.3,0,0.5-0.2,0.5-0.5l0,0V31.1c0-0.3-0.2-0.5-0.5-0.5h-26.5
	c-0.3,0-0.5,0.2-0.5,0.5v14.9H186.8z M211.4,43.4h-21.5v-9.9h21.5V43.4z"/>
<path class="st3" d="M222.2,45.9c0,0.3,0.2,0.5,0.5,0.5h26.6c0.3,0,0.5-0.2,0.5-0.5l0,0V31.1c0-0.3-0.2-0.5-0.5-0.5h-26.5
	c-0.3,0-0.5,0.2-0.5,0.5v14.9H222.2z M246.8,43.4h-21.5v-9.9h21.5V43.4z"/>
<path class="st3" d="M186.8,69.8c0,0.3,0.2,0.5,0.5,0.5h26.6c0.3,0,0.5-0.2,0.5-0.5l0,0V54.9c0-0.3-0.2-0.5-0.5-0.5h-26.5
	c-0.3,0-0.5,0.2-0.5,0.5v14.9H186.8z M211.4,67.3h-21.5v-9.9h21.5V67.3z"/>
<path class="st3" d="M222.2,69.8c0,0.3,0.2,0.5,0.5,0.5h26.6c0.3,0,0.5-0.2,0.5-0.5l0,0V54.9c0-0.3-0.2-0.5-0.5-0.5h-26.5
	c-0.3,0-0.5,0.2-0.5,0.5v14.9H222.2z M246.8,67.3h-21.5v-9.9h21.5V67.3z"/>
<rect x="-327.8" class="st0" width="120" height="100"/>
<path class="st1" d="M-259.8,6.7v86.5h-52.9V6.7H-259.8z"/>
<path class="st2" d="M-232.6,5.7v50.2h-54.6V5.7H-232.6z"/>
<path class="st3" d="M-294.4,54.4h67.3c0.3,0,0.5,0.2,0.5,0.5v2c0,0.3-0.2,0.5-0.5,0.5h-67.3c-0.3,0-0.5-0.2-0.5-0.5v-2
	C-294.9,54.6-294.7,54.4-294.4,54.4z"/>
<g>
	<path class="st3" d="M-271.2,67.2h-10.3c-0.3,0-0.5,0.2-0.5,0.5v2c0,0.3,0.2,0.5,0.5,0.5h10.3c0.3,0,0.5-0.2,0.5-0.5v-2
		C-270.7,67.4-270.9,67.2-271.2,67.2z"/>
	<path class="st3" d="M-254.9,67.2h-10.3c-0.3,0-0.5,0.2-0.5,0.5v2c0,0.3,0.2,0.5,0.5,0.5h10.3c0.3,0,0.5-0.2,0.5-0.5v-2
		C-254.4,67.4-254.6,67.2-254.9,67.2z"/>
	<path class="st3" d="M-238.5,67.2h-10.4c-0.3,0-0.5,0.2-0.5,0.5v2c0,0.3,0.2,0.5,0.5,0.5h10.3c0.3,0,0.5-0.2,0.5-0.5v-2
		C-238,67.4-238.3,67.2-238.5,67.2z"/>
</g>
<g>
	<path class="st3" d="M-271.2,80.2h-10.3c-0.3,0-0.5,0.2-0.5,0.5v2c0,0.3,0.2,0.5,0.5,0.5h10.3c0.3,0,0.5-0.2,0.5-0.5v-2
		C-270.7,80.4-270.9,80.2-271.2,80.2z"/>
	<path class="st3" d="M-254.9,80.2h-10.3c-0.3,0-0.5,0.2-0.5,0.5v2c0,0.3,0.2,0.5,0.5,0.5h10.3c0.3,0,0.5-0.2,0.5-0.5v-2
		C-254.4,80.4-254.6,80.2-254.9,80.2z"/>
	<path class="st3" d="M-238.5,80.2h-10.4c-0.3,0-0.5,0.2-0.5,0.5v2c0,0.3,0.2,0.5,0.5,0.5h10.3c0.3,0,0.5-0.2,0.5-0.5v-2
		C-238,80.4-238.3,80.2-238.5,80.2z"/>
</g>
<path class="st3" d="M-231.1,96.3c0.3,0,0.5-0.2,0.5-0.5V4.2c0-0.3-0.2-0.5-0.5-0.5l0,0H-289c-0.3,0-0.5,0.2-0.5,0.5v91.5
	c0,0.3,0.2,0.5,0.5,0.5h57.9V96.3z M-233.6,6.7v86.5h-52.9V6.7H-233.6z"/>
<path class="st1" d="M521.9,6.7v86.5h-52.8V6.7H521.9z"/>
<path class="st2" d="M549.1,5.7v65.2h-54.7V5.7H549.1z"/>
<path class="st3" d="M984.8,72.2h-7.3c-0.3,0-0.5,0.2-0.5,0.5v2c0,0.3,0.2,0.5,0.5,0.5h7.3c0.3,0,0.5-0.2,0.5-0.5v-2
	C985.3,72.4,985.1,72.2,984.8,72.2z"/>
<title>aerial</title>
<g class="st4">
	<path class="st5" d="M690.5,71h-64l32-64.5L690.5,71z"/>
</g>
<g class="st6">
	<path class="st7" d="M738.3,71.7c0,0.3-0.2,0.5-0.5,0.5H647c-0.2,0-0.3-0.1-0.3-0.2s0-0.1,0-0.2l21.6-45.1c0.1-0.3,0.4-0.4,0.7-0.5
		h68.7c0.3,0,0.5,0.2,0.5,0.5L738.3,71.7z"/>
</g>
<path class="st3" d="M737.8,26.2h-43.3L682.8,2.7c-0.4-0.8-1.5-1.1-2.3-0.7c-0.3,0.2-0.5,0.4-0.7,0.7l-11.7,23.5h-43.3
	c-0.3,0-0.5,0.2-0.5,0.5v45c0,0.3,0.2,0.5,0.5,0.5h20.5l-10.7,21.7c-0.1,0.2,0,0.5,0.2,0.7l0,0l1.8,0.9c0.2,0.1,0.5,0,0.7-0.2l0,0
	l11.4-23H714l11.4,23c0.1,0.2,0.4,0.4,0.7,0.2l0,0l1.8-0.9c0.2-0.1,0.4-0.4,0.2-0.7l0,0l-10.8-21.7h20.5c0.3,0,0.5-0.2,0.5-0.5v-45
	C738.3,26.4,738,26.2,737.8,26.2L737.8,26.2z M681.3,6.4l9.9,19.8h-19.7L681.3,6.4z M627.3,69.2v-40h39.3l-19.8,40H627.3z
	 M650.1,69.2l19.9-40h22.7l19.8,40H650.1z M735.3,69.2h-19.5l-19.8-40h39.3V69.2z"/>
<rect y="140.4" class="st0" width="120" height="100"/>
<path class="st3" d="M98.9,223.7c0.3,0,0.5-0.2,0.5-0.5v-65.5c0-0.3-0.2-0.5-0.5-0.5l0,0H50.1c-0.3,0-0.5,0.2-0.5,0.5v65.5
	c0,0.3,0.2,0.5,0.5,0.5H98.9z M96.4,160.1v60.5H52.6v-60.5H96.4z"/>
<path class="st3" d="M44.9,203.3h58.3c0.3,0,0.5,0.2,0.5,0.5v2c0,0.3-0.2,0.5-0.5,0.5H44.9c-0.3,0-0.5-0.2-0.5-0.5v-2
	C44.4,203.5,44.6,203.3,44.9,203.3z"/>
<circle class="st3" cx="74.5" cy="212.7" r="1.5"/>
<path class="st3" d="M921.6,83.3c0.3,0,0.5-0.2,0.5-0.5V17.2c0-0.3-0.2-0.5-0.5-0.5l0,0h-48.8c-0.3,0-0.5,0.2-0.5,0.5v65.5
	c0,0.3,0.2,0.5,0.5,0.5h48.8V83.3z M919.1,19.7v60.5h-43.8V19.7H919.1z"/>
<path class="st3" d="M867.6,62.9h58.3c0.3,0,0.5,0.2,0.5,0.5v2c0,0.3-0.2,0.5-0.5,0.5h-58.3c-0.3,0-0.5-0.2-0.5-0.5v-2
	C867.1,63.1,867.3,62.9,867.6,62.9z"/>
<path class="st3" d="M1035.2,56.4h58.3c0.3,0,0.5,0.2,0.5,0.5v2c0,0.3-0.2,0.5-0.5,0.5h-58.3c-0.3,0-0.5-0.2-0.5-0.5v-2
	C1034.7,56.6,1034.9,56.4,1035.2,56.4z"/>
<g>
	<path class="st3" d="M971.5,48.2h-7.3c-0.3,0-0.5,0.2-0.5,0.5v2c0,0.3,0.2,0.5,0.5,0.5h7.3c0.3,0,0.5-0.2,0.5-0.5v-2
		C972,48.4,971.7,48.2,971.5,48.2z"/>
	<path class="st3" d="M984.8,48.2h-7.3c-0.3,0-0.5,0.2-0.5,0.5v2c0,0.3,0.2,0.5,0.5,0.5h7.3c0.3,0,0.5-0.2,0.5-0.5v-2
		C985.3,48.4,985.1,48.2,984.8,48.2z"/>
	<path class="st3" d="M998.1,48.2h-7.3c-0.3,0-0.5,0.2-0.5,0.5v2c0,0.3,0.2,0.5,0.5,0.5h7.3c0.3,0,0.5-0.2,0.5-0.5v-2
		C998.6,48.4,998.4,48.2,998.1,48.2z"/>
</g>
<g>
	<path class="st3" d="M971.5,64.2h-7.3c-0.3,0-0.5,0.2-0.5,0.5v2c0,0.3,0.2,0.5,0.5,0.5h7.3c0.3,0,0.5-0.2,0.5-0.5v-2
		C972,64.4,971.7,64.2,971.5,64.2z"/>
	<path class="st3" d="M984.8,64.2h-7.3c-0.3,0-0.5,0.2-0.5,0.5v2c0,0.3,0.2,0.5,0.5,0.5h7.3c0.3,0,0.5-0.2,0.5-0.5v-2
		C985.3,64.4,985.1,64.2,984.8,64.2z"/>
	<path class="st3" d="M998.1,64.2h-7.3c-0.3,0-0.5,0.2-0.5,0.5v2c0,0.3,0.2,0.5,0.5,0.5h7.3c0.3,0,0.5-0.2,0.5-0.5v-2
		C998.6,64.4,998.4,64.2,998.1,64.2z"/>
</g>
<g>
	<path class="st3" d="M971.5,56.2h-7.3c-0.3,0-0.5,0.2-0.5,0.5v2c0,0.3,0.2,0.5,0.5,0.5h7.3c0.3,0,0.5-0.2,0.5-0.5v-2
		C972,56.4,971.7,56.2,971.5,56.2z"/>
	<path class="st3" d="M984.8,56.2h-7.3c-0.3,0-0.5,0.2-0.5,0.5v2c0,0.3,0.2,0.5,0.5,0.5h7.3c0.3,0,0.5-0.2,0.5-0.5v-2
		C985.3,56.4,985.1,56.2,984.8,56.2z"/>
	<path class="st3" d="M998.1,56.2h-7.3c-0.3,0-0.5,0.2-0.5,0.5v2c0,0.3,0.2,0.5,0.5,0.5h7.3c0.3,0,0.5-0.2,0.5-0.5v-2
		C998.6,56.4,998.4,56.2,998.1,56.2z"/>
</g>
<circle class="st3" cx="897.2" cy="72.3" r="1.5"/>
<path class="st3" d="M1005.6,83.3c0.3,0,0.5-0.2,0.5-0.5V17.2c0-0.3-0.2-0.5-0.5-0.5l0,0h-48.8c-0.3,0-0.5,0.2-0.5,0.5v65.5
	c0,0.3,0.2,0.5,0.5,0.5h48.8V83.3z M1003.1,19.7v60.5h-43.8V19.7H1003.1z"/>
<g>
	<path class="st3" d="M1055.4,64.2h-7.3c-0.3,0-0.5,0.2-0.5,0.5v2c0,0.3,0.2,0.5,0.5,0.5h7.3c0.3,0,0.5-0.2,0.5-0.5v-2
		C1055.9,64.4,1055.7,64.2,1055.4,64.2z"/>
	<path class="st3" d="M1068.7,64.2h-7.3c-0.3,0-0.5,0.2-0.5,0.5v2c0,0.3,0.2,0.5,0.5,0.5h7.3c0.3,0,0.5-0.2,0.5-0.5v-2
		C1069.2,64.4,1069,64.2,1068.7,64.2z"/>
	<path class="st3" d="M1082.1,64.2h-7.3c-0.3,0-0.5,0.2-0.5,0.5v2c0,0.3,0.2,0.5,0.5,0.5h7.3c0.3,0,0.5-0.2,0.5-0.5v-2
		C1082.6,64.4,1082.4,64.2,1082.1,64.2z"/>
</g>
<g>
	<path class="st3" d="M1055.4,72.2h-7.3c-0.3,0-0.5,0.2-0.5,0.5v2c0,0.3,0.2,0.5,0.5,0.5h7.3c0.3,0,0.5-0.2,0.5-0.5v-2
		C1055.9,72.4,1055.7,72.2,1055.4,72.2z"/>
	<path class="st3" d="M1068.7,72.2h-7.3c-0.3,0-0.5,0.2-0.5,0.5v2c0,0.3,0.2,0.5,0.5,0.5h7.3c0.3,0,0.5-0.2,0.5-0.5v-2
		C1069.2,72.4,1069,72.2,1068.7,72.2z"/>
	<path class="st3" d="M1082.1,72.2h-7.3c-0.3,0-0.5,0.2-0.5,0.5v2c0,0.3,0.2,0.5,0.5,0.5h7.3c0.3,0,0.5-0.2,0.5-0.5v-2
		C1082.6,72.4,1082.4,72.2,1082.1,72.2z"/>
</g>
<path class="st3" d="M1089.5,83.3c0.3,0,0.5-0.2,0.5-0.5V17.2c0-0.3-0.2-0.5-0.5-0.5l0,0h-48.8c-0.3,0-0.5,0.2-0.5,0.5v65.5
	c0,0.3,0.2,0.5,0.5,0.5h48.8V83.3z M1087,19.7v60.5h-43.8V19.7H1087z"/>
<path class="st3" d="M487.3,69.4h67.3c0.3,0,0.5,0.2,0.5,0.5v2c0,0.3-0.2,0.5-0.5,0.5h-67.3c-0.3,0-0.5-0.2-0.5-0.5v-2
	C486.8,69.6,487,69.4,487.3,69.4z"/>
<g>
	<path class="st3" d="M510.5,77.2h-10.3c-0.3,0-0.5,0.2-0.5,0.5v2c0,0.3,0.2,0.5,0.5,0.5h10.3c0.3,0,0.5-0.2,0.5-0.5v-2
		C511,77.4,510.8,77.2,510.5,77.2z"/>
	<path class="st3" d="M526.8,77.2h-10.3c-0.3,0-0.5,0.2-0.5,0.5v2c0,0.3,0.2,0.5,0.5,0.5h10.3c0.3,0,0.5-0.2,0.5-0.5v-2
		C527.3,77.4,527.1,77.2,526.8,77.2z"/>
	<path class="st3" d="M543.2,77.2h-10.3c-0.3,0-0.5,0.2-0.5,0.5v2c0,0.3,0.2,0.5,0.5,0.5h10.3c0.3,0,0.5-0.2,0.5-0.5v-2
		C543.7,77.4,543.4,77.2,543.2,77.2z"/>
</g>
<g>
	<path class="st3" d="M510.5,85.2h-10.3c-0.3,0-0.5,0.2-0.5,0.5v2c0,0.3,0.2,0.5,0.5,0.5h10.3c0.3,0,0.5-0.2,0.5-0.5v-2
		C511,85.4,510.8,85.2,510.5,85.2z"/>
	<path class="st3" d="M526.8,85.2h-10.3c-0.3,0-0.5,0.2-0.5,0.5v2c0,0.3,0.2,0.5,0.5,0.5h10.3c0.3,0,0.5-0.2,0.5-0.5v-2
		C527.3,85.4,527.1,85.2,526.8,85.2z"/>
	<path class="st3" d="M543.2,85.2h-10.3c-0.3,0-0.5,0.2-0.5,0.5v2c0,0.3,0.2,0.5,0.5,0.5h10.3c0.3,0,0.5-0.2,0.5-0.5v-2
		C543.7,85.4,543.4,85.2,543.2,85.2z"/>
</g>
<path class="st3" d="M550.6,96.3c0.3,0,0.5-0.2,0.5-0.5V4.2c0-0.3-0.2-0.5-0.5-0.5l0,0h-57.8c-0.3,0-0.5,0.2-0.5,0.5v91.5
	c0,0.3,0.2,0.5,0.5,0.5h57.8V96.3z M548.1,6.7v86.5h-52.8V6.7H548.1z"/>
<rect x="-197.9" class="st0" width="120" height="100"/>
<rect x="-194.1" y="23.6" class="st1" width="71.2" height="52.9"/>
<path class="st3" d="M-164.2,78.9c0,0.3,0.2,0.5,0.5,0.5h81.6c0.3,0,0.5-0.2,0.5-0.5l0,0V21.1c0-0.3-0.2-0.5-0.5-0.5h-81.5
	c-0.3,0-0.5,0.2-0.5,0.5v57.9H-164.2z M-84.6,76.4h-76.5V23.6h76.5V76.4z"/>
<path class="st3" d="M-155.2,65.9c0,0.3,0.2,0.5,0.5,0.5h17.6c0.3,0,0.5-0.2,0.5-0.5l0,0V35.1c0-0.3-0.2-0.5-0.5-0.5h-17.5
	c-0.3,0-0.5,0.2-0.5,0.5v30.9H-155.2z M-139.6,63.4h-12.5V37.6h12.5V63.4z"/>
<path class="st3" d="M-108.6,65.9c0,0.3,0.2,0.5,0.5,0.5h17.6c0.3,0,0.5-0.2,0.5-0.5l0,0V35.1c0-0.3-0.2-0.5-0.5-0.5H-108
	c-0.3,0-0.5,0.2-0.5,0.5v30.9H-108.6z M-93,63.4h-12.5V37.6H-93V63.4z"/>
<path class="st3" d="M-132.2,65.9c0,0.3,0.2,0.5,0.5,0.5h17.6c0.3,0,0.5-0.2,0.5-0.5l0,0V35.1c0-0.3-0.2-0.5-0.5-0.5h-17.5
	c-0.3,0-0.5,0.2-0.5,0.5v30.9H-132.2z M-116.6,63.4h-12.5V37.6h12.5V63.4z"/>
<rect x="-152.1" y="37.6" class="st2" width="12.5" height="25.9"/>
<rect x="-129.1" y="37.6" class="st2" width="12.5" height="25.9"/>
<rect x="-105.5" y="37.6" class="st2" width="12.5" height="25.9"/>
<path class="st3" d="M56.3,73.7c0,0.3,0.2,0.5,0.5,0.5h26.6c0.3,0,0.5-0.2,0.5-0.5l0,0V58.8c0-0.3-0.2-0.5-0.5-0.5H56.9
	c-0.3,0-0.5,0.2-0.5,0.5v14.9H56.3z M80.9,71.2H59.4v-9.9h21.5V71.2z"/>
</svg>
