<?xml version="1.0" encoding="utf-8"?>
<!-- Generator: Adobe Illustrator 21.0.2, SVG Export Plug-In . SVG Version: 6.00 Build 0)  -->
<svg version="1.1" id="Layer_1" xmlns="http://www.w3.org/2000/svg" xmlns:xlink="http://www.w3.org/1999/xlink" x="0px" y="0px"
	 viewBox="0 0 120 100" style="enable-background:new 0 0 120 100;" xml:space="preserve">
<style type="text/css">
	.st0{fill:#FFFFFF;fill-opacity:0;}
	.st1{opacity:0.5;fill:#434B59;enable-background:new    ;}
	.st2{opacity:0.8;fill:#1F7EED;enable-background:new    ;}
	.st3{fill:#3A404C;}
</style>
<rect class="st0" width="120" height="100"/>
<rect x="11.9" y="44.8" class="st1" width="58.2" height="42.9"/>
<rect x="36.9" y="44.8" class="st2" width="66.5" height="42.9"/>
<path class="st3" d="M33.8,90.2c0,0.3,0.2,0.5,0.5,0.5h71.6c0.3,0,0.5-0.2,0.5-0.5l0,0V42.3c0-0.3-0.2-0.5-0.5-0.5H34.4
	c-0.3,0-0.5,0.2-0.5,0.5v47.9H33.8z M103.4,87.7H36.9V44.8h66.5V87.7z"/>
<path class="st3" d="M34.5,44c0.1,0.3,0.4,0.4,0.6,0.3l67.3-24.5c0.3-0.1,0.4-0.4,0.3-0.6l0,0l-5.1-14c-0.1-0.3-0.4-0.4-0.6-0.3
	L29.8,29.3c-0.3,0.1-0.4,0.4-0.3,0.6L34.5,44L34.5,44z M99,17.8L36.6,40.6l-3.4-9.3L95.7,8.5L99,17.8z"/>
<title>aerial</title>
<path class="st3" d="M1035.2,56.4h58.3c0.3,0,0.5,0.2,0.5,0.5v2c0,0.3-0.2,0.5-0.5,0.5h-58.3c-0.3,0-0.5-0.2-0.5-0.5v-2
	C1034.7,56.6,1034.9,56.4,1035.2,56.4z"/>
<g>
	<path class="st3" d="M1055.4,64.2h-7.3c-0.3,0-0.5,0.2-0.5,0.5v2c0,0.3,0.2,0.5,0.5,0.5h7.3c0.3,0,0.5-0.2,0.5-0.5v-2
		C1055.9,64.4,1055.7,64.2,1055.4,64.2z"/>
	<path class="st3" d="M1068.7,64.2h-7.3c-0.3,0-0.5,0.2-0.5,0.5v2c0,0.3,0.2,0.5,0.5,0.5h7.3c0.3,0,0.5-0.2,0.5-0.5v-2
		C1069.2,64.4,1069,64.2,1068.7,64.2z"/>
	<path class="st3" d="M1082.1,64.2h-7.3c-0.3,0-0.5,0.2-0.5,0.5v2c0,0.3,0.2,0.5,0.5,0.5h7.3c0.3,0,0.5-0.2,0.5-0.5v-2
		C1082.6,64.4,1082.4,64.2,1082.1,64.2z"/>
</g>
<g>
	<path class="st3" d="M1055.4,72.2h-7.3c-0.3,0-0.5,0.2-0.5,0.5v2c0,0.3,0.2,0.5,0.5,0.5h7.3c0.3,0,0.5-0.2,0.5-0.5v-2
		C1055.9,72.4,1055.7,72.2,1055.4,72.2z"/>
	<path class="st3" d="M1068.7,72.2h-7.3c-0.3,0-0.5,0.2-0.5,0.5v2c0,0.3,0.2,0.5,0.5,0.5h7.3c0.3,0,0.5-0.2,0.5-0.5v-2
		C1069.2,72.4,1069,72.2,1068.7,72.2z"/>
	<path class="st3" d="M1082.1,72.2h-7.3c-0.3,0-0.5,0.2-0.5,0.5v2c0,0.3,0.2,0.5,0.5,0.5h7.3c0.3,0,0.5-0.2,0.5-0.5v-2
		C1082.6,72.4,1082.4,72.2,1082.1,72.2z"/>
</g>
<path class="st3" d="M1089.5,83.3c0.3,0,0.5-0.2,0.5-0.5V17.2c0-0.3-0.2-0.5-0.5-0.5l0,0h-48.8c-0.3,0-0.5,0.2-0.5,0.5v65.5
	c0,0.3,0.2,0.5,0.5,0.5h48.8V83.3z M1087,19.7v60.5h-43.8V19.7H1087z"/>
<path class="st3" d="M56.3,73.7c0,0.3,0.2,0.5,0.5,0.5h26.6c0.3,0,0.5-0.2,0.5-0.5l0,0V58.8c0-0.3-0.2-0.5-0.5-0.5H56.9
	c-0.3,0-0.5,0.2-0.5,0.5v14.9H56.3z M80.9,71.2H59.4v-9.9h21.5V71.2z"/>
</svg>
